G04 #@! TF.GenerationSoftware,KiCad,Pcbnew,(5.1.6)-1*
G04 #@! TF.CreationDate,2020-07-30T22:19:11+09:00*
G04 #@! TF.ProjectId,VFDClock,56464443-6c6f-4636-9b2e-6b696361645f,rev?*
G04 #@! TF.SameCoordinates,Original*
G04 #@! TF.FileFunction,Soldermask,Bot*
G04 #@! TF.FilePolarity,Negative*
%FSLAX46Y46*%
G04 Gerber Fmt 4.6, Leading zero omitted, Abs format (unit mm)*
G04 Created by KiCad (PCBNEW (5.1.6)-1) date 2020-07-30 22:19:11*
%MOMM*%
%LPD*%
G01*
G04 APERTURE LIST*
%ADD10C,1.400000*%
%ADD11C,1.000000*%
%ADD12C,2.200000*%
%ADD13O,1.600000X1.600000*%
%ADD14R,1.600000X1.600000*%
%ADD15C,1.600000*%
%ADD16R,3.500000X1.400000*%
%ADD17R,1.600000X4.000000*%
%ADD18R,1.700000X3.500000*%
%ADD19O,1.727200X2.032000*%
G04 APERTURE END LIST*
D10*
X174932318Y-117808682D03*
X173880478Y-115986841D03*
X173880477Y-113883159D03*
X174932318Y-112061318D03*
X176754159Y-111009478D03*
X178857841Y-111009477D03*
X180679682Y-112061318D03*
X181731522Y-113883159D03*
X181731523Y-115986841D03*
X180679682Y-117808682D03*
X178857841Y-118860522D03*
X176754159Y-118860523D03*
D11*
X178308000Y-87635000D03*
X178308000Y-89535000D03*
D12*
X189308000Y-83265000D03*
X189308000Y-93265000D03*
X192708000Y-88265000D03*
D13*
X166878000Y-89535000D03*
X174498000Y-81915000D03*
X166878000Y-86995000D03*
X174498000Y-84455000D03*
X166878000Y-84455000D03*
X174498000Y-86995000D03*
X166878000Y-81915000D03*
D14*
X174498000Y-89535000D03*
D13*
X193548000Y-106807000D03*
D15*
X185928000Y-106807000D03*
D13*
X181356000Y-106807000D03*
D15*
X173736000Y-106807000D03*
D13*
X169164000Y-106807000D03*
D15*
X161544000Y-106807000D03*
D13*
X156972000Y-106807000D03*
D15*
X149352000Y-106807000D03*
D13*
X144780000Y-106807000D03*
D15*
X137160000Y-106807000D03*
D13*
X132588000Y-106807000D03*
D15*
X124968000Y-106807000D03*
D13*
X135128000Y-80645000D03*
D15*
X135128000Y-88265000D03*
D13*
X130048000Y-80645000D03*
D15*
X130048000Y-88265000D03*
D13*
X182118000Y-102616000D03*
X161798000Y-94996000D03*
X179578000Y-102616000D03*
X164338000Y-94996000D03*
X177038000Y-102616000D03*
X166878000Y-94996000D03*
X174498000Y-102616000D03*
X169418000Y-94996000D03*
X171958000Y-102616000D03*
X171958000Y-94996000D03*
X169418000Y-102616000D03*
X174498000Y-94996000D03*
X166878000Y-102616000D03*
X177038000Y-94996000D03*
X164338000Y-102616000D03*
X179578000Y-94996000D03*
X161798000Y-102616000D03*
D14*
X182118000Y-94996000D03*
D13*
X155448000Y-102616000D03*
X135128000Y-94996000D03*
X152908000Y-102616000D03*
X137668000Y-94996000D03*
X150368000Y-102616000D03*
X140208000Y-94996000D03*
X147828000Y-102616000D03*
X142748000Y-94996000D03*
X145288000Y-102616000D03*
X145288000Y-94996000D03*
X142748000Y-102616000D03*
X147828000Y-94996000D03*
X140208000Y-102616000D03*
X150368000Y-94996000D03*
X137668000Y-102616000D03*
X152908000Y-94996000D03*
X135128000Y-102616000D03*
D14*
X155448000Y-94996000D03*
D16*
X116668000Y-109675000D03*
D17*
X119618000Y-104775000D03*
D18*
X113618000Y-104775000D03*
D10*
X187189318Y-117808682D03*
X186137478Y-115986841D03*
X186137477Y-113883159D03*
X187189318Y-112061318D03*
X189011159Y-111009478D03*
X191114841Y-111009477D03*
X192936682Y-112061318D03*
X193988522Y-113883159D03*
X193988523Y-115986841D03*
X192936682Y-117808682D03*
X191114841Y-118860522D03*
X189011159Y-118860523D03*
X162675318Y-117808682D03*
X161623478Y-115986841D03*
X161623477Y-113883159D03*
X162675318Y-112061318D03*
X164497159Y-111009478D03*
X166600841Y-111009477D03*
X168422682Y-112061318D03*
X169474522Y-113883159D03*
X169474523Y-115986841D03*
X168422682Y-117808682D03*
X166600841Y-118860522D03*
X164497159Y-118860523D03*
X150418318Y-117808682D03*
X149366478Y-115986841D03*
X149366477Y-113883159D03*
X150418318Y-112061318D03*
X152240159Y-111009478D03*
X154343841Y-111009477D03*
X156165682Y-112061318D03*
X157217522Y-113883159D03*
X157217523Y-115986841D03*
X156165682Y-117808682D03*
X154343841Y-118860522D03*
X152240159Y-118860523D03*
X138161318Y-117808682D03*
X137109478Y-115986841D03*
X137109477Y-113883159D03*
X138161318Y-112061318D03*
X139983159Y-111009478D03*
X142086841Y-111009477D03*
X143908682Y-112061318D03*
X144960522Y-113883159D03*
X144960523Y-115986841D03*
X143908682Y-117808682D03*
X142086841Y-118860522D03*
X139983159Y-118860523D03*
X125904318Y-117808682D03*
X124852478Y-115986841D03*
X124852477Y-113883159D03*
X125904318Y-112061318D03*
X127726159Y-111009478D03*
X129829841Y-111009477D03*
X131651682Y-112061318D03*
X132703522Y-113883159D03*
X132703523Y-115986841D03*
X131651682Y-117808682D03*
X129829841Y-118860522D03*
X127726159Y-118860523D03*
D15*
X128778000Y-99615000D03*
X128778000Y-94615000D03*
D19*
X156718000Y-123825000D03*
X154178000Y-123825000D03*
X151638000Y-123825000D03*
X149098000Y-123825000D03*
X146558000Y-123825000D03*
X144018000Y-123825000D03*
X141478000Y-123825000D03*
X138938000Y-123825000D03*
X174498000Y-123825000D03*
X171958000Y-123825000D03*
X169418000Y-123825000D03*
X166878000Y-123825000D03*
X164338000Y-123825000D03*
X161798000Y-123825000D03*
X152654000Y-75565000D03*
X150114000Y-75565000D03*
X147574000Y-75565000D03*
X145034000Y-75565000D03*
X142494000Y-75565000D03*
X139954000Y-75565000D03*
X137414000Y-75565000D03*
X134874000Y-75565000D03*
X132334000Y-75565000D03*
X129794000Y-75565000D03*
X174498000Y-75565000D03*
X171958000Y-75565000D03*
X169418000Y-75565000D03*
X166878000Y-75565000D03*
X164338000Y-75565000D03*
X161798000Y-75565000D03*
X159258000Y-75565000D03*
X156718000Y-75565000D03*
M02*
