M48
; DRILL file {KiCad (5.1.6)-1} date 07/30/20 22:19:31
; FORMAT={-:-/ absolute / metric / decimal}
; #@! TF.CreationDate,2020-07-30T22:19:31+09:00
; #@! TF.GenerationSoftware,Kicad,Pcbnew,(5.1.6)-1
FMAT,2
METRIC
T1C0.400
T2C0.500
T3C0.700
T4C0.800
T5C1.000
T6C1.016
T7C1.300
%
G90
G05
T1
X113.538Y-75.565
X113.538Y-123.825
X121.158Y-75.565
X121.158Y-123.825
X135.713Y-121.616
X142.007Y-109.131
X145.074Y-109.895
X146.558Y-117.729
X148.076Y-117.909
X149.995Y-121.166
X150.622Y-104.775
X150.779Y-108.408
X157.48Y-110.617
X157.587Y-112.34
X157.708Y-119.422
X158.75Y-81.915
X159.245Y-88.278
X161.036Y-84.455
X167.132Y-109.274
X167.64Y-107.823
X172.282Y-117.474
X172.466Y-106.045
X173.466Y-117.512
X178.816Y-113.157
X179.578Y-75.565
X184.874Y-114.357
X185.546Y-117.94
X187.198Y-75.565
X194.818Y-75.565
X194.818Y-81.915
X194.818Y-94.615
X194.818Y-123.825
T2
X178.308Y-87.635
X178.308Y-89.535
T3
X186.137Y-113.883
X186.137Y-115.987
X187.189Y-112.061
X187.189Y-117.809
X189.011Y-111.009
X189.011Y-118.861
X191.115Y-111.009
X191.115Y-118.861
X192.937Y-112.061
X192.937Y-117.809
X193.989Y-113.883
X193.989Y-115.987
X149.366Y-113.883
X149.366Y-115.987
X150.418Y-112.061
X150.418Y-117.809
X152.24Y-111.009
X152.24Y-118.861
X154.344Y-111.009
X154.344Y-118.861
X156.166Y-112.061
X156.166Y-117.809
X157.218Y-113.883
X157.218Y-115.987
X124.852Y-113.883
X124.852Y-115.987
X125.904Y-112.061
X125.904Y-117.809
X127.726Y-111.009
X127.726Y-118.861
X129.83Y-111.009
X129.83Y-118.861
X131.652Y-112.061
X131.652Y-117.809
X132.704Y-113.883
X132.704Y-115.987
X137.109Y-113.883
X137.109Y-115.987
X138.161Y-112.061
X138.161Y-117.809
X139.983Y-111.009
X139.983Y-118.861
X142.087Y-111.009
X142.087Y-118.861
X143.909Y-112.061
X143.909Y-117.809
X144.961Y-113.883
X144.961Y-115.987
X173.88Y-113.883
X173.88Y-115.987
X174.932Y-112.061
X174.932Y-117.809
X176.754Y-111.009
X176.754Y-118.861
X178.858Y-111.009
X178.858Y-118.861
X180.68Y-112.061
X180.68Y-117.809
X181.732Y-113.883
X181.732Y-115.987
X161.623Y-113.883
X161.623Y-115.987
X162.675Y-112.061
X162.675Y-117.809
X164.497Y-111.009
X164.497Y-118.861
X166.601Y-111.009
X166.601Y-118.861
X168.423Y-112.061
X168.423Y-117.809
X169.475Y-113.883
X169.475Y-115.987
T4
X173.736Y-106.807
X181.356Y-106.807
X161.544Y-106.807
X169.164Y-106.807
X130.048Y-80.645
X130.048Y-88.265
X135.128Y-80.645
X135.128Y-88.265
X149.352Y-106.807
X156.972Y-106.807
X128.778Y-94.615
X128.778Y-99.615
X124.968Y-106.807
X132.588Y-106.807
X185.928Y-106.807
X193.548Y-106.807
X135.128Y-94.996
X135.128Y-102.616
X137.668Y-94.996
X137.668Y-102.616
X140.208Y-94.996
X140.208Y-102.616
X142.748Y-94.996
X142.748Y-102.616
X145.288Y-94.996
X145.288Y-102.616
X147.828Y-94.996
X147.828Y-102.616
X150.368Y-94.996
X150.368Y-102.616
X152.908Y-94.996
X152.908Y-102.616
X155.448Y-94.996
X155.448Y-102.616
X166.878Y-81.915
X166.878Y-84.455
X166.878Y-86.995
X166.878Y-89.535
X174.498Y-81.915
X174.498Y-84.455
X174.498Y-86.995
X174.498Y-89.535
X137.16Y-106.807
X144.78Y-106.807
X161.798Y-94.996
X161.798Y-102.616
X164.338Y-94.996
X164.338Y-102.616
X166.878Y-94.996
X166.878Y-102.616
X169.418Y-94.996
X169.418Y-102.616
X171.958Y-94.996
X171.958Y-102.616
X174.498Y-94.996
X174.498Y-102.616
X177.038Y-94.996
X177.038Y-102.616
X179.578Y-94.996
X179.578Y-102.616
X182.118Y-94.996
X182.118Y-102.616
T6
X161.798Y-123.825
X164.338Y-123.825
X166.878Y-123.825
X169.418Y-123.825
X171.958Y-123.825
X174.498Y-123.825
X129.794Y-75.565
X132.334Y-75.565
X134.874Y-75.565
X137.414Y-75.565
X139.954Y-75.565
X142.494Y-75.565
X145.034Y-75.565
X147.574Y-75.565
X150.114Y-75.565
X152.654Y-75.565
X156.718Y-75.565
X159.258Y-75.565
X161.798Y-75.565
X164.338Y-75.565
X166.878Y-75.565
X169.418Y-75.565
X171.958Y-75.565
X174.498Y-75.565
X138.938Y-123.825
X141.478Y-123.825
X144.018Y-123.825
X146.558Y-123.825
X149.098Y-123.825
X151.638Y-123.825
X154.178Y-123.825
X156.718Y-123.825
T7
X189.308Y-83.265
X189.308Y-93.265
X192.708Y-88.265
T5
G00X113.618Y-103.775
M15
G01X113.618Y-105.775
M16
G05
G00X115.668Y-109.675
M15
G01X117.668Y-109.675
M16
G05
G00X119.618Y-103.525
M15
G01X119.618Y-106.025
M16
G05
T0
M30
