G04 #@! TF.GenerationSoftware,KiCad,Pcbnew,(5.1.6)-1*
G04 #@! TF.CreationDate,2020-07-30T22:19:11+09:00*
G04 #@! TF.ProjectId,VFDClock,56464443-6c6f-4636-9b2e-6b696361645f,rev?*
G04 #@! TF.SameCoordinates,Original*
G04 #@! TF.FileFunction,Copper,L1,Top*
G04 #@! TF.FilePolarity,Positive*
%FSLAX46Y46*%
G04 Gerber Fmt 4.6, Leading zero omitted, Abs format (unit mm)*
G04 Created by KiCad (PCBNEW (5.1.6)-1) date 2020-07-30 22:19:11*
%MOMM*%
%LPD*%
G01*
G04 APERTURE LIST*
G04 #@! TA.AperFunction,ComponentPad*
%ADD10C,1.400000*%
G04 #@! TD*
G04 #@! TA.AperFunction,SMDPad,CuDef*
%ADD11R,0.400000X2.400000*%
G04 #@! TD*
G04 #@! TA.AperFunction,ComponentPad*
%ADD12C,1.000000*%
G04 #@! TD*
G04 #@! TA.AperFunction,ComponentPad*
%ADD13C,2.200000*%
G04 #@! TD*
G04 #@! TA.AperFunction,ComponentPad*
%ADD14O,1.600000X1.600000*%
G04 #@! TD*
G04 #@! TA.AperFunction,ComponentPad*
%ADD15R,1.600000X1.600000*%
G04 #@! TD*
G04 #@! TA.AperFunction,ComponentPad*
%ADD16C,1.600000*%
G04 #@! TD*
G04 #@! TA.AperFunction,ComponentPad*
%ADD17R,3.500000X1.400000*%
G04 #@! TD*
G04 #@! TA.AperFunction,ComponentPad*
%ADD18R,1.600000X4.000000*%
G04 #@! TD*
G04 #@! TA.AperFunction,ComponentPad*
%ADD19R,1.700000X3.500000*%
G04 #@! TD*
G04 #@! TA.AperFunction,ComponentPad*
%ADD20O,1.727200X2.032000*%
G04 #@! TD*
G04 #@! TA.AperFunction,ViaPad*
%ADD21C,0.650000*%
G04 #@! TD*
G04 #@! TA.AperFunction,Conductor*
%ADD22C,0.600000*%
G04 #@! TD*
G04 #@! TA.AperFunction,Conductor*
%ADD23C,0.250000*%
G04 #@! TD*
G04 #@! TA.AperFunction,Conductor*
%ADD24C,0.254000*%
G04 #@! TD*
G04 APERTURE END LIST*
D10*
X174932318Y-117808682D03*
X173880478Y-115986841D03*
X173880477Y-113883159D03*
X174932318Y-112061318D03*
X176754159Y-111009478D03*
X178857841Y-111009477D03*
X180679682Y-112061318D03*
X181731522Y-113883159D03*
X181731523Y-115986841D03*
X180679682Y-117808682D03*
X178857841Y-118860522D03*
X176754159Y-118860523D03*
D11*
X155388000Y-91450000D03*
X154118000Y-91450000D03*
X152848000Y-91450000D03*
X151578000Y-91450000D03*
X150308000Y-91450000D03*
X149038000Y-91450000D03*
X147768000Y-91450000D03*
X146498000Y-91450000D03*
X145228000Y-91450000D03*
X143958000Y-91450000D03*
X142688000Y-91450000D03*
X141418000Y-91450000D03*
X140148000Y-91450000D03*
X138878000Y-81150000D03*
X140148000Y-81150000D03*
X141418000Y-81150000D03*
X142688000Y-81150000D03*
X143958000Y-81150000D03*
X145228000Y-81150000D03*
X146498000Y-81150000D03*
X147768000Y-81150000D03*
X149038000Y-81150000D03*
X150308000Y-81150000D03*
X151578000Y-81150000D03*
X152848000Y-81150000D03*
X154118000Y-81150000D03*
X138878000Y-91450000D03*
X155388000Y-81150000D03*
D12*
X178308000Y-87635000D03*
X178308000Y-89535000D03*
D13*
X189308000Y-83265000D03*
X189308000Y-93265000D03*
X192708000Y-88265000D03*
D14*
X166878000Y-89535000D03*
X174498000Y-81915000D03*
X166878000Y-86995000D03*
X174498000Y-84455000D03*
X166878000Y-84455000D03*
X174498000Y-86995000D03*
X166878000Y-81915000D03*
D15*
X174498000Y-89535000D03*
D14*
X193548000Y-106807000D03*
D16*
X185928000Y-106807000D03*
D14*
X181356000Y-106807000D03*
D16*
X173736000Y-106807000D03*
D14*
X169164000Y-106807000D03*
D16*
X161544000Y-106807000D03*
D14*
X156972000Y-106807000D03*
D16*
X149352000Y-106807000D03*
D14*
X144780000Y-106807000D03*
D16*
X137160000Y-106807000D03*
D14*
X132588000Y-106807000D03*
D16*
X124968000Y-106807000D03*
D14*
X135128000Y-80645000D03*
D16*
X135128000Y-88265000D03*
D14*
X130048000Y-80645000D03*
D16*
X130048000Y-88265000D03*
D14*
X182118000Y-102616000D03*
X161798000Y-94996000D03*
X179578000Y-102616000D03*
X164338000Y-94996000D03*
X177038000Y-102616000D03*
X166878000Y-94996000D03*
X174498000Y-102616000D03*
X169418000Y-94996000D03*
X171958000Y-102616000D03*
X171958000Y-94996000D03*
X169418000Y-102616000D03*
X174498000Y-94996000D03*
X166878000Y-102616000D03*
X177038000Y-94996000D03*
X164338000Y-102616000D03*
X179578000Y-94996000D03*
X161798000Y-102616000D03*
D15*
X182118000Y-94996000D03*
D14*
X155448000Y-102616000D03*
X135128000Y-94996000D03*
X152908000Y-102616000D03*
X137668000Y-94996000D03*
X150368000Y-102616000D03*
X140208000Y-94996000D03*
X147828000Y-102616000D03*
X142748000Y-94996000D03*
X145288000Y-102616000D03*
X145288000Y-94996000D03*
X142748000Y-102616000D03*
X147828000Y-94996000D03*
X140208000Y-102616000D03*
X150368000Y-94996000D03*
X137668000Y-102616000D03*
X152908000Y-94996000D03*
X135128000Y-102616000D03*
D15*
X155448000Y-94996000D03*
D17*
X116668000Y-109675000D03*
D18*
X119618000Y-104775000D03*
D19*
X113618000Y-104775000D03*
D10*
X187189318Y-117808682D03*
X186137478Y-115986841D03*
X186137477Y-113883159D03*
X187189318Y-112061318D03*
X189011159Y-111009478D03*
X191114841Y-111009477D03*
X192936682Y-112061318D03*
X193988522Y-113883159D03*
X193988523Y-115986841D03*
X192936682Y-117808682D03*
X191114841Y-118860522D03*
X189011159Y-118860523D03*
X162675318Y-117808682D03*
X161623478Y-115986841D03*
X161623477Y-113883159D03*
X162675318Y-112061318D03*
X164497159Y-111009478D03*
X166600841Y-111009477D03*
X168422682Y-112061318D03*
X169474522Y-113883159D03*
X169474523Y-115986841D03*
X168422682Y-117808682D03*
X166600841Y-118860522D03*
X164497159Y-118860523D03*
X150418318Y-117808682D03*
X149366478Y-115986841D03*
X149366477Y-113883159D03*
X150418318Y-112061318D03*
X152240159Y-111009478D03*
X154343841Y-111009477D03*
X156165682Y-112061318D03*
X157217522Y-113883159D03*
X157217523Y-115986841D03*
X156165682Y-117808682D03*
X154343841Y-118860522D03*
X152240159Y-118860523D03*
X138161318Y-117808682D03*
X137109478Y-115986841D03*
X137109477Y-113883159D03*
X138161318Y-112061318D03*
X139983159Y-111009478D03*
X142086841Y-111009477D03*
X143908682Y-112061318D03*
X144960522Y-113883159D03*
X144960523Y-115986841D03*
X143908682Y-117808682D03*
X142086841Y-118860522D03*
X139983159Y-118860523D03*
X125904318Y-117808682D03*
X124852478Y-115986841D03*
X124852477Y-113883159D03*
X125904318Y-112061318D03*
X127726159Y-111009478D03*
X129829841Y-111009477D03*
X131651682Y-112061318D03*
X132703522Y-113883159D03*
X132703523Y-115986841D03*
X131651682Y-117808682D03*
X129829841Y-118860522D03*
X127726159Y-118860523D03*
D16*
X128778000Y-99615000D03*
X128778000Y-94615000D03*
D20*
X156718000Y-123825000D03*
X154178000Y-123825000D03*
X151638000Y-123825000D03*
X149098000Y-123825000D03*
X146558000Y-123825000D03*
X144018000Y-123825000D03*
X141478000Y-123825000D03*
X138938000Y-123825000D03*
X174498000Y-123825000D03*
X171958000Y-123825000D03*
X169418000Y-123825000D03*
X166878000Y-123825000D03*
X164338000Y-123825000D03*
X161798000Y-123825000D03*
X152654000Y-75565000D03*
X150114000Y-75565000D03*
X147574000Y-75565000D03*
X145034000Y-75565000D03*
X142494000Y-75565000D03*
X139954000Y-75565000D03*
X137414000Y-75565000D03*
X134874000Y-75565000D03*
X132334000Y-75565000D03*
X129794000Y-75565000D03*
X174498000Y-75565000D03*
X171958000Y-75565000D03*
X169418000Y-75565000D03*
X166878000Y-75565000D03*
X164338000Y-75565000D03*
X161798000Y-75565000D03*
X159258000Y-75565000D03*
X156718000Y-75565000D03*
D21*
X159244900Y-88278100D03*
X157587100Y-112340500D03*
X178816000Y-113157000D03*
X150779000Y-108408200D03*
X167640000Y-107823000D03*
X184873600Y-114356800D03*
X179578000Y-75565000D03*
X194818000Y-75565000D03*
X187198000Y-75565000D03*
X194818000Y-81915000D03*
X113538000Y-75565000D03*
X121158000Y-75565000D03*
X194818000Y-123825000D03*
X113538000Y-123825000D03*
X121158000Y-123825000D03*
X194818000Y-94615000D03*
X158750000Y-81915000D03*
X161036000Y-84455000D03*
X145074476Y-109895476D03*
X157480000Y-110617000D03*
X150622000Y-104775000D03*
X167132000Y-109274091D03*
X135713119Y-121616119D03*
X185545800Y-117939600D03*
X148076300Y-117909000D03*
X172282200Y-117474400D03*
X146558000Y-117729000D03*
X149995109Y-121166109D03*
X142006700Y-109130900D03*
X157708000Y-119421700D03*
X172466000Y-106045000D03*
X173465700Y-117511600D03*
D22*
X122802800Y-117556400D02*
X122802800Y-100590200D01*
X122802800Y-100590200D02*
X128778000Y-94615000D01*
X135128000Y-88265000D02*
X130048000Y-88265000D01*
X147581990Y-125341010D02*
X149098000Y-123825000D01*
X130587410Y-125341010D02*
X147581990Y-125341010D01*
X122802800Y-117556400D02*
X130587410Y-125341010D01*
X155388000Y-91450000D02*
X156073000Y-91450000D01*
X156073000Y-91450000D02*
X159244900Y-88278100D01*
X128778000Y-89535000D02*
X130048000Y-88265000D01*
X128778000Y-94615000D02*
X128778000Y-89535000D01*
D23*
X130048000Y-80645000D02*
X130610700Y-80645000D01*
X150418300Y-118548500D02*
X152585900Y-120716100D01*
X152585900Y-120716100D02*
X164162600Y-120716100D01*
X164162600Y-120716100D02*
X165549000Y-119329700D01*
X150418300Y-117808700D02*
X150418300Y-118548500D01*
X138161300Y-117808700D02*
X140398100Y-117808700D01*
X140398100Y-117808700D02*
X141035000Y-118445600D01*
X141035000Y-118445600D02*
X141035000Y-119288100D01*
X141035000Y-119288100D02*
X141642300Y-119895400D01*
X141642300Y-119895400D02*
X149071400Y-119895400D01*
X149071400Y-119895400D02*
X150418300Y-118548500D01*
X125904300Y-117808700D02*
X125904300Y-118528100D01*
X125904300Y-118528100D02*
X127307000Y-119930800D01*
X127307000Y-119930800D02*
X132335700Y-119930800D01*
X132335700Y-119930800D02*
X134457800Y-117808700D01*
X134457800Y-117808700D02*
X138161300Y-117808700D01*
X165549000Y-119329700D02*
X166151700Y-119932400D01*
X166151700Y-119932400D02*
X177171900Y-119932400D01*
X177171900Y-119932400D02*
X177806000Y-119298300D01*
X162675300Y-117808700D02*
X164954900Y-117808700D01*
X164954900Y-117808700D02*
X165549000Y-118402800D01*
X165549000Y-118402800D02*
X165549000Y-119329700D01*
X177806000Y-119298300D02*
X177806000Y-118420800D01*
X177806000Y-118420800D02*
X177193900Y-117808700D01*
X177193900Y-117808700D02*
X174932300Y-117808700D01*
X177806000Y-119298300D02*
X178395300Y-119887600D01*
X178395300Y-119887600D02*
X185110400Y-119887600D01*
X185110400Y-119887600D02*
X187189300Y-117808700D01*
X173880500Y-115986800D02*
X180104700Y-115986800D01*
X180104700Y-115986800D02*
X181182900Y-114908600D01*
X181182900Y-114908600D02*
X184505700Y-114908600D01*
X184505700Y-114908600D02*
X185583900Y-115986800D01*
X185583900Y-115986800D02*
X186137500Y-115986800D01*
X161623500Y-115986800D02*
X162701700Y-114908600D01*
X162701700Y-114908600D02*
X172802300Y-114908600D01*
X172802300Y-114908600D02*
X173880500Y-115986800D01*
X157587100Y-112340500D02*
X158319900Y-113073300D01*
X158319900Y-113073300D02*
X158319900Y-114249700D01*
X158319900Y-114249700D02*
X157661000Y-114908600D01*
X157661000Y-114908600D02*
X150444700Y-114908600D01*
X150444700Y-114908600D02*
X149366500Y-115986800D01*
X137109500Y-113883200D02*
X136084100Y-114908600D01*
X136084100Y-114908600D02*
X125877900Y-114908600D01*
X125877900Y-114908600D02*
X124852500Y-113883200D01*
X172837100Y-109966100D02*
X174932300Y-112061300D01*
X187189300Y-112061300D02*
X185069100Y-109941100D01*
X185069100Y-109941100D02*
X178464000Y-109941100D01*
X177806000Y-110599100D02*
X177806000Y-111449100D01*
X177806000Y-111449100D02*
X177193800Y-112061300D01*
X177193800Y-112061300D02*
X174932300Y-112061300D01*
X189011200Y-111009500D02*
X187486300Y-109484600D01*
X187486300Y-109484600D02*
X178279100Y-109484600D01*
X178279100Y-109484600D02*
X176754200Y-111009500D01*
X149299200Y-111009500D02*
X152240200Y-111009500D01*
X143881841Y-114908160D02*
X145400540Y-114908160D01*
X145400540Y-114908160D02*
X149299200Y-111009500D01*
X139983159Y-111009478D02*
X143881841Y-114908160D01*
X150779000Y-108408200D02*
X149738200Y-108408200D01*
X149738200Y-108408200D02*
X147136900Y-111009500D01*
X147136900Y-111009500D02*
X142086800Y-111009500D01*
X154343800Y-111009500D02*
X151742500Y-108408200D01*
X151742500Y-108408200D02*
X150779000Y-108408200D01*
X188892700Y-108787400D02*
X191114800Y-111009500D01*
X129829800Y-111009500D02*
X130855800Y-109983500D01*
X130855800Y-109983500D02*
X141060800Y-109983500D01*
X141060800Y-109983500D02*
X142086800Y-111009500D01*
X170591900Y-112061300D02*
X173465600Y-114935000D01*
X173465600Y-114935000D02*
X178496800Y-114935000D01*
X178496800Y-114935000D02*
X180679700Y-112752100D01*
X183268900Y-112752100D02*
X184873600Y-114356800D01*
X180679700Y-112752100D02*
X180679700Y-112061300D01*
X143908700Y-112061300D02*
X146722000Y-112061300D01*
X146722000Y-112061300D02*
X148849800Y-109933500D01*
X148849800Y-109933500D02*
X152630900Y-109933500D01*
X152630900Y-109933500D02*
X153292000Y-110594600D01*
X153292000Y-110594600D02*
X153292000Y-111449100D01*
X153292000Y-111449100D02*
X153904200Y-112061300D01*
X153904200Y-112061300D02*
X156165700Y-112061300D01*
X159894901Y-89152099D02*
X159894901Y-83059901D01*
X155702000Y-93345000D02*
X159894901Y-89152099D01*
X154563000Y-93345000D02*
X155702000Y-93345000D01*
X154118000Y-91450000D02*
X154118000Y-92900000D01*
X159894901Y-83059901D02*
X158750000Y-81915000D01*
X154118000Y-92900000D02*
X154563000Y-93345000D01*
X160344911Y-89338499D02*
X160344911Y-85146089D01*
X155830410Y-93853000D02*
X160344911Y-89338499D01*
X160344911Y-85146089D02*
X161036000Y-84455000D01*
X152848000Y-91450000D02*
X152848000Y-92450000D01*
X154251000Y-93853000D02*
X155830410Y-93853000D01*
X152848000Y-92450000D02*
X154251000Y-93853000D01*
X147614514Y-109895476D02*
X149551800Y-107958190D01*
X154621199Y-107758199D02*
X157480000Y-110617000D01*
X145074476Y-109895476D02*
X147614514Y-109895476D01*
X149551800Y-107958190D02*
X150267008Y-107958190D01*
X150466999Y-107758199D02*
X154621199Y-107758199D01*
X150267008Y-107958190D02*
X150466999Y-107758199D01*
X169938010Y-109940710D02*
X173880500Y-113883200D01*
X166202400Y-109940710D02*
X169938010Y-109940710D01*
X165522160Y-110620950D02*
X166202400Y-109940710D01*
X165522160Y-111501479D02*
X165522160Y-110620950D01*
X163140480Y-113883159D02*
X165522160Y-111501479D01*
X161623477Y-113883159D02*
X163140480Y-113883159D01*
X174606636Y-113157000D02*
X173880477Y-113883159D01*
X178816000Y-113157000D02*
X174606636Y-113157000D01*
X142748000Y-102616000D02*
X143873001Y-103741001D01*
X149588001Y-103741001D02*
X150622000Y-104775000D01*
X143873001Y-103741001D02*
X149588001Y-103741001D01*
X172831100Y-109966100D02*
X172837100Y-109966100D01*
X172139091Y-109274091D02*
X172831100Y-109966100D01*
X167132000Y-109274091D02*
X172139091Y-109274091D01*
X178464000Y-109941100D02*
X177806000Y-110599100D01*
X172884680Y-108624090D02*
X175270068Y-111009478D01*
X165892598Y-108624090D02*
X172884680Y-108624090D01*
X175270068Y-111009478D02*
X176754159Y-111009478D01*
X164497159Y-110019529D02*
X165892598Y-108624090D01*
X164497159Y-111009478D02*
X164497159Y-110019529D01*
X188892700Y-108787400D02*
X173684400Y-108787400D01*
X173684400Y-108787400D02*
X172212000Y-107315000D01*
X172212000Y-107315000D02*
X170289001Y-107315000D01*
X167749001Y-107932001D02*
X167640000Y-107823000D01*
X169704001Y-107932001D02*
X167749001Y-107932001D01*
X170289001Y-107347001D02*
X169704001Y-107932001D01*
X170289001Y-107315000D02*
X170289001Y-107347001D01*
X180679700Y-112752100D02*
X183268900Y-112752100D01*
X168422700Y-112061300D02*
X170591900Y-112061300D01*
X191658412Y-102616000D02*
X182118000Y-102616000D01*
X135713119Y-121616119D02*
X136038118Y-121941118D01*
X196298219Y-117688788D02*
X196298220Y-107255808D01*
X136038118Y-121941118D02*
X192045889Y-121941118D01*
X192045889Y-121941118D02*
X196298219Y-117688788D01*
X196298220Y-107255808D02*
X191658412Y-102616000D01*
X129829800Y-118860500D02*
X132769100Y-118860500D01*
X132769100Y-118860500D02*
X136694600Y-114935000D01*
X136694600Y-114935000D02*
X138161300Y-114935000D01*
X138161300Y-114935000D02*
X142086800Y-118860500D01*
X178857800Y-118860500D02*
X184624900Y-118860500D01*
X184624900Y-118860500D02*
X185545800Y-117939600D01*
X147124800Y-118860500D02*
X142086800Y-118860500D01*
X166600800Y-118860500D02*
X170896100Y-118860500D01*
X170896100Y-118860500D02*
X172282200Y-117474400D01*
X148076300Y-117909000D02*
X147124800Y-118860500D01*
X180703001Y-103741001D02*
X192147003Y-103741001D01*
X192147003Y-103741001D02*
X195848210Y-107442208D01*
X179578000Y-102616000D02*
X180703001Y-103741001D01*
X195848210Y-107442208D02*
X195848210Y-117502387D01*
X195848210Y-117502387D02*
X192184488Y-121166109D01*
X143988364Y-117729000D02*
X143908682Y-117808682D01*
X146558000Y-117729000D02*
X143988364Y-117729000D01*
X192184488Y-121166109D02*
X149995109Y-121166109D01*
D22*
X138287482Y-120556200D02*
X139983159Y-118860523D01*
X127128600Y-109130900D02*
X123651000Y-112608500D01*
X126945200Y-120556200D02*
X138287482Y-120556200D01*
X142006700Y-109130900D02*
X127128600Y-109130900D01*
X123651000Y-117262000D02*
X126945200Y-120556200D01*
X123651000Y-112608500D02*
X123651000Y-117262000D01*
D23*
X166441804Y-105681999D02*
X172102999Y-105681999D01*
X159798090Y-112325713D02*
X166441804Y-105681999D01*
X157708000Y-119421700D02*
X159798090Y-117331610D01*
X172102999Y-105681999D02*
X172466000Y-106045000D01*
X159798090Y-117331610D02*
X159798090Y-112325713D01*
D22*
X156972000Y-106807000D02*
X156972000Y-108107300D01*
X152240200Y-118860500D02*
X153441500Y-120061800D01*
X153441500Y-120061800D02*
X155611700Y-120061800D01*
X155611700Y-120061800D02*
X158971700Y-116701800D01*
X158971700Y-116701800D02*
X158971700Y-110107000D01*
X158971700Y-110107000D02*
X156972000Y-108107300D01*
X164497200Y-118860500D02*
X164348600Y-119009100D01*
X164348600Y-119009100D02*
X162123600Y-119009100D01*
X162123600Y-119009100D02*
X160423100Y-117308600D01*
X160423100Y-117308600D02*
X160423100Y-112584600D01*
X160423100Y-112584600D02*
X166200700Y-106807000D01*
X166200700Y-106807000D02*
X169164000Y-106807000D01*
X137160000Y-106807000D02*
X138460400Y-108107400D01*
X138460400Y-108107400D02*
X148051600Y-108107400D01*
X148051600Y-108107400D02*
X149352000Y-106807000D01*
X185928000Y-106807000D02*
X184626400Y-108108600D01*
X184626400Y-108108600D02*
X175037600Y-108108600D01*
X175037600Y-108108600D02*
X173736000Y-106807000D01*
X161544000Y-106807000D02*
X161857200Y-106807000D01*
X161857200Y-106807000D02*
X163613800Y-105050400D01*
X163613800Y-105050400D02*
X172724100Y-105050400D01*
X172724100Y-105050400D02*
X173736000Y-106062300D01*
X173736000Y-106062300D02*
X173736000Y-106807000D01*
X137160000Y-106807000D02*
X135851500Y-108115500D01*
X135851500Y-108115500D02*
X132045700Y-108115500D01*
X132045700Y-108115500D02*
X131228000Y-107297800D01*
X131228000Y-107297800D02*
X131228000Y-106807000D01*
X131228000Y-106807000D02*
X131228000Y-99180300D01*
X131228000Y-99180300D02*
X135128000Y-95280300D01*
X131228000Y-106807000D02*
X124968000Y-106807000D01*
X160243999Y-105506999D02*
X161544000Y-106807000D01*
X155047998Y-106807000D02*
X156347999Y-105506999D01*
X156347999Y-105506999D02*
X160243999Y-105506999D01*
X149352000Y-106807000D02*
X155047998Y-106807000D01*
X161798000Y-100056998D02*
X156347999Y-105506999D01*
X161798000Y-94996000D02*
X161798000Y-100056998D01*
X176754200Y-118860500D02*
X176605600Y-119009100D01*
X176605600Y-119009100D02*
X174424400Y-119009100D01*
X174424400Y-119009100D02*
X173465700Y-118050400D01*
X173465700Y-118050400D02*
X173465700Y-117511600D01*
X193548000Y-106807000D02*
X193548000Y-108107300D01*
X189011200Y-118860500D02*
X190219400Y-120068700D01*
X190219400Y-120068700D02*
X192398000Y-120068700D01*
X192398000Y-120068700D02*
X195223200Y-117243500D01*
X195223200Y-117243500D02*
X195223200Y-109782500D01*
X195223200Y-109782500D02*
X193548000Y-108107300D01*
D23*
X151578000Y-91450000D02*
X151578000Y-92900000D01*
X155052998Y-94600998D02*
X155448000Y-94996000D01*
X154757590Y-94996000D02*
X155448000Y-94996000D01*
X152736591Y-92975001D02*
X154757590Y-94996000D01*
X151653001Y-92975001D02*
X152736591Y-92975001D01*
X151578000Y-92900000D02*
X151653001Y-92975001D01*
X150308000Y-92396000D02*
X152908000Y-94996000D01*
X150308000Y-91450000D02*
X150308000Y-92396000D01*
X149038000Y-93666000D02*
X150368000Y-94996000D01*
X149038000Y-91450000D02*
X149038000Y-93666000D01*
X147768000Y-94936000D02*
X147828000Y-94996000D01*
X147768000Y-91450000D02*
X147768000Y-94936000D01*
X146498000Y-93786000D02*
X145288000Y-94996000D01*
X146498000Y-91450000D02*
X146498000Y-93786000D01*
X145228000Y-91450000D02*
X145228000Y-92165002D01*
X145228000Y-92516000D02*
X142748000Y-94996000D01*
X145228000Y-91450000D02*
X145228000Y-92516000D01*
X141095590Y-94996000D02*
X140208000Y-94996000D01*
X143958000Y-92133590D02*
X141095590Y-94996000D01*
X143958000Y-91450000D02*
X143958000Y-92133590D01*
X141267001Y-93870999D02*
X138793001Y-93870999D01*
X142688000Y-92450000D02*
X141267001Y-93870999D01*
X138793001Y-93870999D02*
X137668000Y-94996000D01*
X142688000Y-91450000D02*
X142688000Y-92450000D01*
X150793050Y-77124950D02*
X147768000Y-80150000D01*
X174244000Y-77124950D02*
X150793050Y-77124950D01*
X176065005Y-77124955D02*
X174244000Y-77124950D01*
X169418000Y-94996000D02*
X172343037Y-97921037D01*
X185043038Y-86102994D02*
X176065005Y-77124955D01*
X172343037Y-97921037D02*
X183923605Y-97921037D01*
X183923605Y-97921037D02*
X185043037Y-96801605D01*
X147768000Y-80150000D02*
X147768000Y-81150000D01*
X185043037Y-96801605D02*
X185043038Y-86102994D01*
X149038000Y-79700000D02*
X149038000Y-81150000D01*
X151163040Y-77574960D02*
X149038000Y-79700000D01*
X175878604Y-77574964D02*
X174498000Y-77574960D01*
X171958000Y-94996000D02*
X174433029Y-97471029D01*
X174433029Y-97471029D02*
X183737204Y-97471028D01*
X183737204Y-97471028D02*
X184593028Y-96615204D01*
X174498000Y-77574960D02*
X151163040Y-77574960D01*
X184593028Y-96615204D02*
X184593029Y-86289393D01*
X184593029Y-86289393D02*
X175878604Y-77574964D01*
X150308000Y-79700000D02*
X150308000Y-81150000D01*
X174498000Y-78024970D02*
X151983030Y-78024970D01*
X175692203Y-78024973D02*
X174498000Y-78024970D01*
X183550803Y-97021019D02*
X184143019Y-96428803D01*
X176523019Y-97021019D02*
X183550803Y-97021019D01*
X174498000Y-94996000D02*
X176523019Y-97021019D01*
X184143020Y-86475792D02*
X175692203Y-78024973D01*
X151983030Y-78024970D02*
X150308000Y-79700000D01*
X184143019Y-96428803D02*
X184143020Y-86475792D01*
X175505802Y-78474982D02*
X183693011Y-86662191D01*
X174498000Y-78474980D02*
X175505802Y-78474982D01*
X152803020Y-78474980D02*
X174498000Y-78474980D01*
X151578000Y-79700000D02*
X152803020Y-78474980D01*
X151578000Y-81150000D02*
X151578000Y-79700000D01*
X183693011Y-86662191D02*
X183693010Y-95226402D01*
X183693011Y-96242401D02*
X183693011Y-95226402D01*
X177038000Y-94996000D02*
X178613011Y-96571011D01*
X183364402Y-96571010D02*
X183693011Y-96242401D01*
X178613011Y-96571011D02*
X183364402Y-96571010D01*
X153623010Y-78924990D02*
X174301990Y-78924990D01*
X152848000Y-81150000D02*
X152848000Y-79700000D01*
X152848000Y-79700000D02*
X153623010Y-78924990D01*
X174301990Y-78924990D02*
X174498000Y-78924990D01*
X180703001Y-96121001D02*
X179578000Y-94996000D01*
X174301990Y-78924990D02*
X175319401Y-78924991D01*
X175319401Y-78924991D02*
X183243001Y-86848591D01*
X183243001Y-86848591D02*
X183243001Y-96056001D01*
X183243001Y-96056001D02*
X183178001Y-96121001D01*
X183178001Y-96121001D02*
X180703001Y-96121001D01*
X154118000Y-79700000D02*
X154443000Y-79375000D01*
X154118000Y-81150000D02*
X154118000Y-79700000D01*
X154443000Y-79375000D02*
X175133000Y-79375000D01*
X175133000Y-79375000D02*
X182118000Y-86360000D01*
X182118000Y-86360000D02*
X182118000Y-93853000D01*
X182118000Y-94996000D02*
X182118000Y-93853000D01*
X182118000Y-93853000D02*
X182118000Y-93980000D01*
D22*
X189308000Y-83265000D02*
X188869500Y-83265000D01*
D24*
G36*
X196648000Y-106530785D02*
G01*
X192222216Y-102105003D01*
X192198413Y-102075999D01*
X192082688Y-101981026D01*
X191950659Y-101910454D01*
X191807398Y-101866997D01*
X191695745Y-101856000D01*
X191695734Y-101856000D01*
X191658412Y-101852324D01*
X191621090Y-101856000D01*
X183336043Y-101856000D01*
X183232637Y-101701241D01*
X183032759Y-101501363D01*
X182797727Y-101344320D01*
X182536574Y-101236147D01*
X182259335Y-101181000D01*
X181976665Y-101181000D01*
X181699426Y-101236147D01*
X181438273Y-101344320D01*
X181203241Y-101501363D01*
X181003363Y-101701241D01*
X180848000Y-101933759D01*
X180692637Y-101701241D01*
X180492759Y-101501363D01*
X180257727Y-101344320D01*
X179996574Y-101236147D01*
X179719335Y-101181000D01*
X179436665Y-101181000D01*
X179159426Y-101236147D01*
X178898273Y-101344320D01*
X178663241Y-101501363D01*
X178463363Y-101701241D01*
X178308000Y-101933759D01*
X178152637Y-101701241D01*
X177952759Y-101501363D01*
X177717727Y-101344320D01*
X177456574Y-101236147D01*
X177179335Y-101181000D01*
X176896665Y-101181000D01*
X176619426Y-101236147D01*
X176358273Y-101344320D01*
X176123241Y-101501363D01*
X175923363Y-101701241D01*
X175768000Y-101933759D01*
X175612637Y-101701241D01*
X175412759Y-101501363D01*
X175177727Y-101344320D01*
X174916574Y-101236147D01*
X174639335Y-101181000D01*
X174356665Y-101181000D01*
X174079426Y-101236147D01*
X173818273Y-101344320D01*
X173583241Y-101501363D01*
X173383363Y-101701241D01*
X173228000Y-101933759D01*
X173072637Y-101701241D01*
X172872759Y-101501363D01*
X172637727Y-101344320D01*
X172376574Y-101236147D01*
X172099335Y-101181000D01*
X171816665Y-101181000D01*
X171539426Y-101236147D01*
X171278273Y-101344320D01*
X171043241Y-101501363D01*
X170843363Y-101701241D01*
X170688000Y-101933759D01*
X170532637Y-101701241D01*
X170332759Y-101501363D01*
X170097727Y-101344320D01*
X169836574Y-101236147D01*
X169559335Y-101181000D01*
X169276665Y-101181000D01*
X168999426Y-101236147D01*
X168738273Y-101344320D01*
X168503241Y-101501363D01*
X168303363Y-101701241D01*
X168148000Y-101933759D01*
X167992637Y-101701241D01*
X167792759Y-101501363D01*
X167557727Y-101344320D01*
X167296574Y-101236147D01*
X167019335Y-101181000D01*
X166736665Y-101181000D01*
X166459426Y-101236147D01*
X166198273Y-101344320D01*
X165963241Y-101501363D01*
X165763363Y-101701241D01*
X165608000Y-101933759D01*
X165452637Y-101701241D01*
X165252759Y-101501363D01*
X165017727Y-101344320D01*
X164756574Y-101236147D01*
X164479335Y-101181000D01*
X164196665Y-101181000D01*
X163919426Y-101236147D01*
X163658273Y-101344320D01*
X163423241Y-101501363D01*
X163223363Y-101701241D01*
X163066320Y-101936273D01*
X163061933Y-101946865D01*
X162950385Y-101760869D01*
X162761414Y-101552481D01*
X162535420Y-101384963D01*
X162281087Y-101264754D01*
X162147039Y-101224096D01*
X161925002Y-101346084D01*
X161925002Y-101252286D01*
X162426664Y-100750623D01*
X162462344Y-100721342D01*
X162579186Y-100578970D01*
X162666007Y-100416538D01*
X162719471Y-100240290D01*
X162720357Y-100231292D01*
X162737524Y-100056999D01*
X162733000Y-100011067D01*
X162733000Y-96090396D01*
X162912637Y-95910759D01*
X163069680Y-95675727D01*
X163074067Y-95665135D01*
X163185615Y-95851131D01*
X163374586Y-96059519D01*
X163600580Y-96227037D01*
X163854913Y-96347246D01*
X163988961Y-96387904D01*
X164211000Y-96265915D01*
X164211000Y-95123000D01*
X164465000Y-95123000D01*
X164465000Y-96265915D01*
X164687039Y-96387904D01*
X164821087Y-96347246D01*
X165075420Y-96227037D01*
X165301414Y-96059519D01*
X165490385Y-95851131D01*
X165608000Y-95655018D01*
X165725615Y-95851131D01*
X165914586Y-96059519D01*
X166140580Y-96227037D01*
X166394913Y-96347246D01*
X166528961Y-96387904D01*
X166751000Y-96265915D01*
X166751000Y-95123000D01*
X164465000Y-95123000D01*
X164211000Y-95123000D01*
X164191000Y-95123000D01*
X164191000Y-94869000D01*
X164211000Y-94869000D01*
X164211000Y-93726085D01*
X164465000Y-93726085D01*
X164465000Y-94869000D01*
X166751000Y-94869000D01*
X166751000Y-93726085D01*
X166528961Y-93604096D01*
X166394913Y-93644754D01*
X166140580Y-93764963D01*
X165914586Y-93932481D01*
X165725615Y-94140869D01*
X165608000Y-94336982D01*
X165490385Y-94140869D01*
X165301414Y-93932481D01*
X165075420Y-93764963D01*
X164821087Y-93644754D01*
X164687039Y-93604096D01*
X164465000Y-93726085D01*
X164211000Y-93726085D01*
X163988961Y-93604096D01*
X163854913Y-93644754D01*
X163600580Y-93764963D01*
X163374586Y-93932481D01*
X163185615Y-94140869D01*
X163074067Y-94326865D01*
X163069680Y-94316273D01*
X162912637Y-94081241D01*
X162712759Y-93881363D01*
X162477727Y-93724320D01*
X162216574Y-93616147D01*
X161939335Y-93561000D01*
X161656665Y-93561000D01*
X161379426Y-93616147D01*
X161118273Y-93724320D01*
X160883241Y-93881363D01*
X160683363Y-94081241D01*
X160526320Y-94316273D01*
X160418147Y-94577426D01*
X160363000Y-94854665D01*
X160363000Y-95137335D01*
X160418147Y-95414574D01*
X160526320Y-95675727D01*
X160683363Y-95910759D01*
X160863000Y-96090396D01*
X160863001Y-99669707D01*
X155719340Y-104813369D01*
X155683655Y-104842655D01*
X155654375Y-104878333D01*
X154660709Y-105872000D01*
X150446396Y-105872000D01*
X150266759Y-105692363D01*
X150031727Y-105535320D01*
X149770574Y-105427147D01*
X149493335Y-105372000D01*
X149210665Y-105372000D01*
X148933426Y-105427147D01*
X148672273Y-105535320D01*
X148437241Y-105692363D01*
X148237363Y-105892241D01*
X148080320Y-106127273D01*
X147972147Y-106388426D01*
X147917000Y-106665665D01*
X147917000Y-106919711D01*
X147664311Y-107172400D01*
X146170430Y-107172400D01*
X146215000Y-106948335D01*
X146215000Y-106665665D01*
X146159853Y-106388426D01*
X146051680Y-106127273D01*
X145894637Y-105892241D01*
X145694759Y-105692363D01*
X145459727Y-105535320D01*
X145198574Y-105427147D01*
X144921335Y-105372000D01*
X144638665Y-105372000D01*
X144361426Y-105427147D01*
X144100273Y-105535320D01*
X143865241Y-105692363D01*
X143665363Y-105892241D01*
X143508320Y-106127273D01*
X143400147Y-106388426D01*
X143345000Y-106665665D01*
X143345000Y-106948335D01*
X143389570Y-107172400D01*
X138847690Y-107172400D01*
X138595000Y-106919710D01*
X138595000Y-106665665D01*
X138539853Y-106388426D01*
X138431680Y-106127273D01*
X138274637Y-105892241D01*
X138074759Y-105692363D01*
X137839727Y-105535320D01*
X137578574Y-105427147D01*
X137301335Y-105372000D01*
X137018665Y-105372000D01*
X136741426Y-105427147D01*
X136480273Y-105535320D01*
X136245241Y-105692363D01*
X136045363Y-105892241D01*
X135888320Y-106127273D01*
X135780147Y-106388426D01*
X135725000Y-106665665D01*
X135725000Y-106919711D01*
X135464211Y-107180500D01*
X133976819Y-107180500D01*
X134023000Y-106948335D01*
X134023000Y-106665665D01*
X133967853Y-106388426D01*
X133859680Y-106127273D01*
X133702637Y-105892241D01*
X133502759Y-105692363D01*
X133267727Y-105535320D01*
X133006574Y-105427147D01*
X132729335Y-105372000D01*
X132446665Y-105372000D01*
X132169426Y-105427147D01*
X132163000Y-105429809D01*
X132163000Y-102965040D01*
X133736091Y-102965040D01*
X133830930Y-103229881D01*
X133975615Y-103471131D01*
X134164586Y-103679519D01*
X134390580Y-103847037D01*
X134644913Y-103967246D01*
X134778961Y-104007904D01*
X135001000Y-103885915D01*
X135001000Y-102743000D01*
X133857376Y-102743000D01*
X133736091Y-102965040D01*
X132163000Y-102965040D01*
X132163000Y-102266960D01*
X133736091Y-102266960D01*
X133857376Y-102489000D01*
X135001000Y-102489000D01*
X135001000Y-101346085D01*
X135255000Y-101346085D01*
X135255000Y-102489000D01*
X135275000Y-102489000D01*
X135275000Y-102743000D01*
X135255000Y-102743000D01*
X135255000Y-103885915D01*
X135477039Y-104007904D01*
X135611087Y-103967246D01*
X135865420Y-103847037D01*
X136091414Y-103679519D01*
X136280385Y-103471131D01*
X136391933Y-103285135D01*
X136396320Y-103295727D01*
X136553363Y-103530759D01*
X136753241Y-103730637D01*
X136988273Y-103887680D01*
X137249426Y-103995853D01*
X137526665Y-104051000D01*
X137809335Y-104051000D01*
X138086574Y-103995853D01*
X138347727Y-103887680D01*
X138582759Y-103730637D01*
X138782637Y-103530759D01*
X138938000Y-103298241D01*
X139093363Y-103530759D01*
X139293241Y-103730637D01*
X139528273Y-103887680D01*
X139789426Y-103995853D01*
X140066665Y-104051000D01*
X140349335Y-104051000D01*
X140626574Y-103995853D01*
X140887727Y-103887680D01*
X141122759Y-103730637D01*
X141322637Y-103530759D01*
X141478000Y-103298241D01*
X141633363Y-103530759D01*
X141833241Y-103730637D01*
X142068273Y-103887680D01*
X142329426Y-103995853D01*
X142606665Y-104051000D01*
X142889335Y-104051000D01*
X143071886Y-104014688D01*
X143309201Y-104252003D01*
X143333000Y-104281002D01*
X143448725Y-104375975D01*
X143580754Y-104446547D01*
X143724015Y-104490004D01*
X143835668Y-104501001D01*
X143835676Y-104501001D01*
X143873001Y-104504677D01*
X143910326Y-104501001D01*
X149273200Y-104501001D01*
X149667028Y-104894830D01*
X149698892Y-105055022D01*
X149771259Y-105229731D01*
X149876319Y-105386964D01*
X150010036Y-105520681D01*
X150167269Y-105625741D01*
X150341978Y-105698108D01*
X150527448Y-105735000D01*
X150716552Y-105735000D01*
X150902022Y-105698108D01*
X151076731Y-105625741D01*
X151233964Y-105520681D01*
X151367681Y-105386964D01*
X151472741Y-105229731D01*
X151545108Y-105055022D01*
X151582000Y-104869552D01*
X151582000Y-104680448D01*
X151545108Y-104494978D01*
X151472741Y-104320269D01*
X151367681Y-104163036D01*
X151233964Y-104029319D01*
X151076731Y-103924259D01*
X151018074Y-103899963D01*
X151047727Y-103887680D01*
X151282759Y-103730637D01*
X151482637Y-103530759D01*
X151638000Y-103298241D01*
X151793363Y-103530759D01*
X151993241Y-103730637D01*
X152228273Y-103887680D01*
X152489426Y-103995853D01*
X152766665Y-104051000D01*
X153049335Y-104051000D01*
X153326574Y-103995853D01*
X153587727Y-103887680D01*
X153822759Y-103730637D01*
X154022637Y-103530759D01*
X154178000Y-103298241D01*
X154333363Y-103530759D01*
X154533241Y-103730637D01*
X154768273Y-103887680D01*
X155029426Y-103995853D01*
X155306665Y-104051000D01*
X155589335Y-104051000D01*
X155866574Y-103995853D01*
X156127727Y-103887680D01*
X156362759Y-103730637D01*
X156562637Y-103530759D01*
X156719680Y-103295727D01*
X156827853Y-103034574D01*
X156883000Y-102757335D01*
X156883000Y-102474665D01*
X156827853Y-102197426D01*
X156719680Y-101936273D01*
X156562637Y-101701241D01*
X156362759Y-101501363D01*
X156127727Y-101344320D01*
X155866574Y-101236147D01*
X155589335Y-101181000D01*
X155306665Y-101181000D01*
X155029426Y-101236147D01*
X154768273Y-101344320D01*
X154533241Y-101501363D01*
X154333363Y-101701241D01*
X154178000Y-101933759D01*
X154022637Y-101701241D01*
X153822759Y-101501363D01*
X153587727Y-101344320D01*
X153326574Y-101236147D01*
X153049335Y-101181000D01*
X152766665Y-101181000D01*
X152489426Y-101236147D01*
X152228273Y-101344320D01*
X151993241Y-101501363D01*
X151793363Y-101701241D01*
X151638000Y-101933759D01*
X151482637Y-101701241D01*
X151282759Y-101501363D01*
X151047727Y-101344320D01*
X150786574Y-101236147D01*
X150509335Y-101181000D01*
X150226665Y-101181000D01*
X149949426Y-101236147D01*
X149688273Y-101344320D01*
X149453241Y-101501363D01*
X149253363Y-101701241D01*
X149098000Y-101933759D01*
X148942637Y-101701241D01*
X148742759Y-101501363D01*
X148507727Y-101344320D01*
X148246574Y-101236147D01*
X147969335Y-101181000D01*
X147686665Y-101181000D01*
X147409426Y-101236147D01*
X147148273Y-101344320D01*
X146913241Y-101501363D01*
X146713363Y-101701241D01*
X146558000Y-101933759D01*
X146402637Y-101701241D01*
X146202759Y-101501363D01*
X145967727Y-101344320D01*
X145706574Y-101236147D01*
X145429335Y-101181000D01*
X145146665Y-101181000D01*
X144869426Y-101236147D01*
X144608273Y-101344320D01*
X144373241Y-101501363D01*
X144173363Y-101701241D01*
X144018000Y-101933759D01*
X143862637Y-101701241D01*
X143662759Y-101501363D01*
X143427727Y-101344320D01*
X143166574Y-101236147D01*
X142889335Y-101181000D01*
X142606665Y-101181000D01*
X142329426Y-101236147D01*
X142068273Y-101344320D01*
X141833241Y-101501363D01*
X141633363Y-101701241D01*
X141478000Y-101933759D01*
X141322637Y-101701241D01*
X141122759Y-101501363D01*
X140887727Y-101344320D01*
X140626574Y-101236147D01*
X140349335Y-101181000D01*
X140066665Y-101181000D01*
X139789426Y-101236147D01*
X139528273Y-101344320D01*
X139293241Y-101501363D01*
X139093363Y-101701241D01*
X138938000Y-101933759D01*
X138782637Y-101701241D01*
X138582759Y-101501363D01*
X138347727Y-101344320D01*
X138086574Y-101236147D01*
X137809335Y-101181000D01*
X137526665Y-101181000D01*
X137249426Y-101236147D01*
X136988273Y-101344320D01*
X136753241Y-101501363D01*
X136553363Y-101701241D01*
X136396320Y-101936273D01*
X136391933Y-101946865D01*
X136280385Y-101760869D01*
X136091414Y-101552481D01*
X135865420Y-101384963D01*
X135611087Y-101264754D01*
X135477039Y-101224096D01*
X135255000Y-101346085D01*
X135001000Y-101346085D01*
X134778961Y-101224096D01*
X134644913Y-101264754D01*
X134390580Y-101384963D01*
X134164586Y-101552481D01*
X133975615Y-101760869D01*
X133830930Y-102002119D01*
X133736091Y-102266960D01*
X132163000Y-102266960D01*
X132163000Y-99567589D01*
X135307101Y-96423488D01*
X135546574Y-96375853D01*
X135807727Y-96267680D01*
X136042759Y-96110637D01*
X136242637Y-95910759D01*
X136398000Y-95678241D01*
X136553363Y-95910759D01*
X136753241Y-96110637D01*
X136988273Y-96267680D01*
X137249426Y-96375853D01*
X137526665Y-96431000D01*
X137809335Y-96431000D01*
X138086574Y-96375853D01*
X138347727Y-96267680D01*
X138582759Y-96110637D01*
X138782637Y-95910759D01*
X138938000Y-95678241D01*
X139093363Y-95910759D01*
X139293241Y-96110637D01*
X139528273Y-96267680D01*
X139789426Y-96375853D01*
X140066665Y-96431000D01*
X140349335Y-96431000D01*
X140626574Y-96375853D01*
X140887727Y-96267680D01*
X141122759Y-96110637D01*
X141322637Y-95910759D01*
X141478000Y-95678241D01*
X141633363Y-95910759D01*
X141833241Y-96110637D01*
X142068273Y-96267680D01*
X142329426Y-96375853D01*
X142606665Y-96431000D01*
X142889335Y-96431000D01*
X143166574Y-96375853D01*
X143427727Y-96267680D01*
X143662759Y-96110637D01*
X143862637Y-95910759D01*
X144018000Y-95678241D01*
X144173363Y-95910759D01*
X144373241Y-96110637D01*
X144608273Y-96267680D01*
X144869426Y-96375853D01*
X145146665Y-96431000D01*
X145429335Y-96431000D01*
X145706574Y-96375853D01*
X145967727Y-96267680D01*
X146202759Y-96110637D01*
X146402637Y-95910759D01*
X146558000Y-95678241D01*
X146713363Y-95910759D01*
X146913241Y-96110637D01*
X147148273Y-96267680D01*
X147409426Y-96375853D01*
X147686665Y-96431000D01*
X147969335Y-96431000D01*
X148246574Y-96375853D01*
X148507727Y-96267680D01*
X148742759Y-96110637D01*
X148942637Y-95910759D01*
X149098000Y-95678241D01*
X149253363Y-95910759D01*
X149453241Y-96110637D01*
X149688273Y-96267680D01*
X149949426Y-96375853D01*
X150226665Y-96431000D01*
X150509335Y-96431000D01*
X150786574Y-96375853D01*
X151047727Y-96267680D01*
X151282759Y-96110637D01*
X151482637Y-95910759D01*
X151638000Y-95678241D01*
X151793363Y-95910759D01*
X151993241Y-96110637D01*
X152228273Y-96267680D01*
X152489426Y-96375853D01*
X152766665Y-96431000D01*
X153049335Y-96431000D01*
X153326574Y-96375853D01*
X153587727Y-96267680D01*
X153822759Y-96110637D01*
X154021357Y-95912039D01*
X154022188Y-95920482D01*
X154058498Y-96040180D01*
X154117463Y-96150494D01*
X154196815Y-96247185D01*
X154293506Y-96326537D01*
X154403820Y-96385502D01*
X154523518Y-96421812D01*
X154648000Y-96434072D01*
X156248000Y-96434072D01*
X156372482Y-96421812D01*
X156492180Y-96385502D01*
X156602494Y-96326537D01*
X156699185Y-96247185D01*
X156778537Y-96150494D01*
X156837502Y-96040180D01*
X156873812Y-95920482D01*
X156886072Y-95796000D01*
X156886072Y-94196000D01*
X156873812Y-94071518D01*
X156837502Y-93951820D01*
X156826665Y-93931546D01*
X160855915Y-89902297D01*
X160884912Y-89878500D01*
X160979885Y-89762775D01*
X161050457Y-89630746D01*
X161093914Y-89487485D01*
X161104911Y-89375832D01*
X161104911Y-89375831D01*
X161108588Y-89338499D01*
X161104911Y-89301166D01*
X161104911Y-85460891D01*
X161155830Y-85409972D01*
X161316022Y-85378108D01*
X161490731Y-85305741D01*
X161647964Y-85200681D01*
X161781681Y-85066964D01*
X161886741Y-84909731D01*
X161959108Y-84735022D01*
X161996000Y-84549552D01*
X161996000Y-84360448D01*
X161959108Y-84174978D01*
X161886741Y-84000269D01*
X161781681Y-83843036D01*
X161647964Y-83709319D01*
X161490731Y-83604259D01*
X161316022Y-83531892D01*
X161130552Y-83495000D01*
X160941448Y-83495000D01*
X160755978Y-83531892D01*
X160654901Y-83573760D01*
X160654901Y-83097234D01*
X160658578Y-83059901D01*
X160643904Y-82910915D01*
X160600447Y-82767654D01*
X160529875Y-82635625D01*
X160458700Y-82548898D01*
X160434902Y-82519900D01*
X160405904Y-82496102D01*
X159704972Y-81795171D01*
X159700695Y-81773665D01*
X165443000Y-81773665D01*
X165443000Y-82056335D01*
X165498147Y-82333574D01*
X165606320Y-82594727D01*
X165763363Y-82829759D01*
X165963241Y-83029637D01*
X166195759Y-83185000D01*
X165963241Y-83340363D01*
X165763363Y-83540241D01*
X165606320Y-83775273D01*
X165498147Y-84036426D01*
X165443000Y-84313665D01*
X165443000Y-84596335D01*
X165498147Y-84873574D01*
X165606320Y-85134727D01*
X165763363Y-85369759D01*
X165963241Y-85569637D01*
X166195759Y-85725000D01*
X165963241Y-85880363D01*
X165763363Y-86080241D01*
X165606320Y-86315273D01*
X165498147Y-86576426D01*
X165443000Y-86853665D01*
X165443000Y-87136335D01*
X165498147Y-87413574D01*
X165606320Y-87674727D01*
X165763363Y-87909759D01*
X165963241Y-88109637D01*
X166195759Y-88265000D01*
X165963241Y-88420363D01*
X165763363Y-88620241D01*
X165606320Y-88855273D01*
X165498147Y-89116426D01*
X165443000Y-89393665D01*
X165443000Y-89676335D01*
X165498147Y-89953574D01*
X165606320Y-90214727D01*
X165763363Y-90449759D01*
X165963241Y-90649637D01*
X166198273Y-90806680D01*
X166459426Y-90914853D01*
X166736665Y-90970000D01*
X167019335Y-90970000D01*
X167296574Y-90914853D01*
X167557727Y-90806680D01*
X167792759Y-90649637D01*
X167992637Y-90449759D01*
X168149680Y-90214727D01*
X168257853Y-89953574D01*
X168313000Y-89676335D01*
X168313000Y-89393665D01*
X168257853Y-89116426D01*
X168149680Y-88855273D01*
X168069317Y-88735000D01*
X173059928Y-88735000D01*
X173059928Y-90335000D01*
X173072188Y-90459482D01*
X173108498Y-90579180D01*
X173167463Y-90689494D01*
X173246815Y-90786185D01*
X173343506Y-90865537D01*
X173453820Y-90924502D01*
X173573518Y-90960812D01*
X173698000Y-90973072D01*
X175298000Y-90973072D01*
X175422482Y-90960812D01*
X175542180Y-90924502D01*
X175652494Y-90865537D01*
X175749185Y-90786185D01*
X175828537Y-90689494D01*
X175887502Y-90579180D01*
X175923812Y-90459482D01*
X175936072Y-90335000D01*
X175936072Y-88735000D01*
X175923812Y-88610518D01*
X175887502Y-88490820D01*
X175828537Y-88380506D01*
X175749185Y-88283815D01*
X175652494Y-88204463D01*
X175542180Y-88145498D01*
X175422482Y-88109188D01*
X175414039Y-88108357D01*
X175612637Y-87909759D01*
X175769680Y-87674727D01*
X175832439Y-87523212D01*
X177173000Y-87523212D01*
X177173000Y-87746788D01*
X177216617Y-87966067D01*
X177302176Y-88172624D01*
X177426388Y-88358520D01*
X177584480Y-88516612D01*
X177686830Y-88585000D01*
X177584480Y-88653388D01*
X177426388Y-88811480D01*
X177302176Y-88997376D01*
X177216617Y-89203933D01*
X177173000Y-89423212D01*
X177173000Y-89646788D01*
X177216617Y-89866067D01*
X177302176Y-90072624D01*
X177426388Y-90258520D01*
X177584480Y-90416612D01*
X177770376Y-90540824D01*
X177976933Y-90626383D01*
X178196212Y-90670000D01*
X178419788Y-90670000D01*
X178639067Y-90626383D01*
X178845624Y-90540824D01*
X179031520Y-90416612D01*
X179189612Y-90258520D01*
X179313824Y-90072624D01*
X179399383Y-89866067D01*
X179443000Y-89646788D01*
X179443000Y-89423212D01*
X179399383Y-89203933D01*
X179313824Y-88997376D01*
X179189612Y-88811480D01*
X179031520Y-88653388D01*
X178929170Y-88585000D01*
X179031520Y-88516612D01*
X179189612Y-88358520D01*
X179313824Y-88172624D01*
X179399383Y-87966067D01*
X179443000Y-87746788D01*
X179443000Y-87523212D01*
X179399383Y-87303933D01*
X179313824Y-87097376D01*
X179189612Y-86911480D01*
X179031520Y-86753388D01*
X178845624Y-86629176D01*
X178639067Y-86543617D01*
X178419788Y-86500000D01*
X178196212Y-86500000D01*
X177976933Y-86543617D01*
X177770376Y-86629176D01*
X177584480Y-86753388D01*
X177426388Y-86911480D01*
X177302176Y-87097376D01*
X177216617Y-87303933D01*
X177173000Y-87523212D01*
X175832439Y-87523212D01*
X175877853Y-87413574D01*
X175933000Y-87136335D01*
X175933000Y-86853665D01*
X175877853Y-86576426D01*
X175769680Y-86315273D01*
X175612637Y-86080241D01*
X175412759Y-85880363D01*
X175180241Y-85725000D01*
X175412759Y-85569637D01*
X175612637Y-85369759D01*
X175769680Y-85134727D01*
X175877853Y-84873574D01*
X175933000Y-84596335D01*
X175933000Y-84313665D01*
X175877853Y-84036426D01*
X175769680Y-83775273D01*
X175612637Y-83540241D01*
X175412759Y-83340363D01*
X175177727Y-83183320D01*
X175167135Y-83178933D01*
X175353131Y-83067385D01*
X175561519Y-82878414D01*
X175729037Y-82652420D01*
X175849246Y-82398087D01*
X175889904Y-82264039D01*
X175767915Y-82042000D01*
X174625000Y-82042000D01*
X174625000Y-82062000D01*
X174371000Y-82062000D01*
X174371000Y-82042000D01*
X173228085Y-82042000D01*
X173106096Y-82264039D01*
X173146754Y-82398087D01*
X173266963Y-82652420D01*
X173434481Y-82878414D01*
X173642869Y-83067385D01*
X173828865Y-83178933D01*
X173818273Y-83183320D01*
X173583241Y-83340363D01*
X173383363Y-83540241D01*
X173226320Y-83775273D01*
X173118147Y-84036426D01*
X173063000Y-84313665D01*
X173063000Y-84596335D01*
X173118147Y-84873574D01*
X173226320Y-85134727D01*
X173383363Y-85369759D01*
X173583241Y-85569637D01*
X173815759Y-85725000D01*
X173583241Y-85880363D01*
X173383363Y-86080241D01*
X173226320Y-86315273D01*
X173118147Y-86576426D01*
X173063000Y-86853665D01*
X173063000Y-87136335D01*
X173118147Y-87413574D01*
X173226320Y-87674727D01*
X173383363Y-87909759D01*
X173581961Y-88108357D01*
X173573518Y-88109188D01*
X173453820Y-88145498D01*
X173343506Y-88204463D01*
X173246815Y-88283815D01*
X173167463Y-88380506D01*
X173108498Y-88490820D01*
X173072188Y-88610518D01*
X173059928Y-88735000D01*
X168069317Y-88735000D01*
X167992637Y-88620241D01*
X167792759Y-88420363D01*
X167560241Y-88265000D01*
X167792759Y-88109637D01*
X167992637Y-87909759D01*
X168149680Y-87674727D01*
X168257853Y-87413574D01*
X168313000Y-87136335D01*
X168313000Y-86853665D01*
X168257853Y-86576426D01*
X168149680Y-86315273D01*
X167992637Y-86080241D01*
X167792759Y-85880363D01*
X167560241Y-85725000D01*
X167792759Y-85569637D01*
X167992637Y-85369759D01*
X168149680Y-85134727D01*
X168257853Y-84873574D01*
X168313000Y-84596335D01*
X168313000Y-84313665D01*
X168257853Y-84036426D01*
X168149680Y-83775273D01*
X167992637Y-83540241D01*
X167792759Y-83340363D01*
X167560241Y-83185000D01*
X167792759Y-83029637D01*
X167992637Y-82829759D01*
X168149680Y-82594727D01*
X168257853Y-82333574D01*
X168313000Y-82056335D01*
X168313000Y-81773665D01*
X168271685Y-81565961D01*
X173106096Y-81565961D01*
X173228085Y-81788000D01*
X174371000Y-81788000D01*
X174371000Y-80644376D01*
X174625000Y-80644376D01*
X174625000Y-81788000D01*
X175767915Y-81788000D01*
X175889904Y-81565961D01*
X175849246Y-81431913D01*
X175729037Y-81177580D01*
X175561519Y-80951586D01*
X175353131Y-80762615D01*
X175111881Y-80617930D01*
X174847040Y-80523091D01*
X174625000Y-80644376D01*
X174371000Y-80644376D01*
X174148960Y-80523091D01*
X173884119Y-80617930D01*
X173642869Y-80762615D01*
X173434481Y-80951586D01*
X173266963Y-81177580D01*
X173146754Y-81431913D01*
X173106096Y-81565961D01*
X168271685Y-81565961D01*
X168257853Y-81496426D01*
X168149680Y-81235273D01*
X167992637Y-81000241D01*
X167792759Y-80800363D01*
X167557727Y-80643320D01*
X167296574Y-80535147D01*
X167019335Y-80480000D01*
X166736665Y-80480000D01*
X166459426Y-80535147D01*
X166198273Y-80643320D01*
X165963241Y-80800363D01*
X165763363Y-81000241D01*
X165606320Y-81235273D01*
X165498147Y-81496426D01*
X165443000Y-81773665D01*
X159700695Y-81773665D01*
X159673108Y-81634978D01*
X159600741Y-81460269D01*
X159495681Y-81303036D01*
X159361964Y-81169319D01*
X159204731Y-81064259D01*
X159030022Y-80991892D01*
X158844552Y-80955000D01*
X158655448Y-80955000D01*
X158469978Y-80991892D01*
X158295269Y-81064259D01*
X158138036Y-81169319D01*
X158004319Y-81303036D01*
X157899259Y-81460269D01*
X157826892Y-81634978D01*
X157790000Y-81820448D01*
X157790000Y-82009552D01*
X157826892Y-82195022D01*
X157899259Y-82369731D01*
X158004319Y-82526964D01*
X158138036Y-82660681D01*
X158295269Y-82765741D01*
X158469978Y-82838108D01*
X158630171Y-82869972D01*
X159134902Y-83374704D01*
X159134901Y-87321173D01*
X158964878Y-87354992D01*
X158790169Y-87427359D01*
X158632936Y-87532419D01*
X158499219Y-87666136D01*
X158428025Y-87772685D01*
X156181549Y-90019162D01*
X156177502Y-90005820D01*
X156118537Y-89895506D01*
X156039185Y-89798815D01*
X155942494Y-89719463D01*
X155832180Y-89660498D01*
X155712482Y-89624188D01*
X155588000Y-89611928D01*
X155188000Y-89611928D01*
X155063518Y-89624188D01*
X154943820Y-89660498D01*
X154833506Y-89719463D01*
X154753000Y-89785532D01*
X154672494Y-89719463D01*
X154562180Y-89660498D01*
X154442482Y-89624188D01*
X154318000Y-89611928D01*
X153918000Y-89611928D01*
X153793518Y-89624188D01*
X153673820Y-89660498D01*
X153563506Y-89719463D01*
X153483000Y-89785532D01*
X153402494Y-89719463D01*
X153292180Y-89660498D01*
X153172482Y-89624188D01*
X153048000Y-89611928D01*
X152648000Y-89611928D01*
X152523518Y-89624188D01*
X152403820Y-89660498D01*
X152293506Y-89719463D01*
X152213000Y-89785532D01*
X152132494Y-89719463D01*
X152022180Y-89660498D01*
X151902482Y-89624188D01*
X151778000Y-89611928D01*
X151378000Y-89611928D01*
X151253518Y-89624188D01*
X151133820Y-89660498D01*
X151023506Y-89719463D01*
X150943000Y-89785532D01*
X150862494Y-89719463D01*
X150752180Y-89660498D01*
X150632482Y-89624188D01*
X150508000Y-89611928D01*
X150108000Y-89611928D01*
X149983518Y-89624188D01*
X149863820Y-89660498D01*
X149753506Y-89719463D01*
X149673000Y-89785532D01*
X149592494Y-89719463D01*
X149482180Y-89660498D01*
X149362482Y-89624188D01*
X149238000Y-89611928D01*
X148838000Y-89611928D01*
X148713518Y-89624188D01*
X148593820Y-89660498D01*
X148483506Y-89719463D01*
X148403000Y-89785532D01*
X148322494Y-89719463D01*
X148212180Y-89660498D01*
X148092482Y-89624188D01*
X147968000Y-89611928D01*
X147568000Y-89611928D01*
X147443518Y-89624188D01*
X147323820Y-89660498D01*
X147213506Y-89719463D01*
X147133000Y-89785532D01*
X147052494Y-89719463D01*
X146942180Y-89660498D01*
X146822482Y-89624188D01*
X146698000Y-89611928D01*
X146298000Y-89611928D01*
X146173518Y-89624188D01*
X146053820Y-89660498D01*
X145943506Y-89719463D01*
X145863000Y-89785532D01*
X145782494Y-89719463D01*
X145672180Y-89660498D01*
X145552482Y-89624188D01*
X145428000Y-89611928D01*
X145028000Y-89611928D01*
X144903518Y-89624188D01*
X144783820Y-89660498D01*
X144673506Y-89719463D01*
X144593000Y-89785532D01*
X144512494Y-89719463D01*
X144402180Y-89660498D01*
X144282482Y-89624188D01*
X144158000Y-89611928D01*
X143758000Y-89611928D01*
X143633518Y-89624188D01*
X143513820Y-89660498D01*
X143403506Y-89719463D01*
X143323000Y-89785532D01*
X143242494Y-89719463D01*
X143132180Y-89660498D01*
X143012482Y-89624188D01*
X142888000Y-89611928D01*
X142488000Y-89611928D01*
X142363518Y-89624188D01*
X142243820Y-89660498D01*
X142133506Y-89719463D01*
X142053000Y-89785532D01*
X141972494Y-89719463D01*
X141862180Y-89660498D01*
X141742482Y-89624188D01*
X141618000Y-89611928D01*
X141218000Y-89611928D01*
X141093518Y-89624188D01*
X140973820Y-89660498D01*
X140863506Y-89719463D01*
X140783000Y-89785532D01*
X140702494Y-89719463D01*
X140592180Y-89660498D01*
X140472482Y-89624188D01*
X140348000Y-89611928D01*
X139948000Y-89611928D01*
X139823518Y-89624188D01*
X139703820Y-89660498D01*
X139593506Y-89719463D01*
X139513000Y-89785532D01*
X139432494Y-89719463D01*
X139322180Y-89660498D01*
X139202482Y-89624188D01*
X139078000Y-89611928D01*
X138678000Y-89611928D01*
X138553518Y-89624188D01*
X138433820Y-89660498D01*
X138323506Y-89719463D01*
X138226815Y-89798815D01*
X138147463Y-89895506D01*
X138088498Y-90005820D01*
X138052188Y-90125518D01*
X138039928Y-90250000D01*
X138039928Y-92650000D01*
X138052188Y-92774482D01*
X138088498Y-92894180D01*
X138147463Y-93004494D01*
X138226815Y-93101185D01*
X138323506Y-93180537D01*
X138398020Y-93220366D01*
X138368725Y-93236025D01*
X138253000Y-93330998D01*
X138229202Y-93359996D01*
X137991886Y-93597312D01*
X137809335Y-93561000D01*
X137526665Y-93561000D01*
X137249426Y-93616147D01*
X136988273Y-93724320D01*
X136753241Y-93881363D01*
X136553363Y-94081241D01*
X136398000Y-94313759D01*
X136242637Y-94081241D01*
X136042759Y-93881363D01*
X135807727Y-93724320D01*
X135546574Y-93616147D01*
X135269335Y-93561000D01*
X134986665Y-93561000D01*
X134709426Y-93616147D01*
X134448273Y-93724320D01*
X134213241Y-93881363D01*
X134013363Y-94081241D01*
X133856320Y-94316273D01*
X133748147Y-94577426D01*
X133693000Y-94854665D01*
X133693000Y-95137335D01*
X133735420Y-95350591D01*
X130599336Y-98486675D01*
X130563657Y-98515956D01*
X130446815Y-98658328D01*
X130440555Y-98670040D01*
X130359994Y-98820760D01*
X130306529Y-98997009D01*
X130288476Y-99180300D01*
X130293001Y-99226242D01*
X130293000Y-105872000D01*
X126062396Y-105872000D01*
X125882759Y-105692363D01*
X125647727Y-105535320D01*
X125386574Y-105427147D01*
X125109335Y-105372000D01*
X124826665Y-105372000D01*
X124549426Y-105427147D01*
X124288273Y-105535320D01*
X124053241Y-105692363D01*
X123853363Y-105892241D01*
X123737800Y-106065194D01*
X123737800Y-100977489D01*
X124107587Y-100607702D01*
X127964903Y-100607702D01*
X128036486Y-100851671D01*
X128291996Y-100972571D01*
X128566184Y-101041300D01*
X128848512Y-101055217D01*
X129128130Y-101013787D01*
X129394292Y-100918603D01*
X129519514Y-100851671D01*
X129591097Y-100607702D01*
X128778000Y-99794605D01*
X127964903Y-100607702D01*
X124107587Y-100607702D01*
X125029777Y-99685512D01*
X127337783Y-99685512D01*
X127379213Y-99965130D01*
X127474397Y-100231292D01*
X127541329Y-100356514D01*
X127785298Y-100428097D01*
X128598395Y-99615000D01*
X128957605Y-99615000D01*
X129770702Y-100428097D01*
X130014671Y-100356514D01*
X130135571Y-100101004D01*
X130204300Y-99826816D01*
X130218217Y-99544488D01*
X130176787Y-99264870D01*
X130081603Y-98998708D01*
X130014671Y-98873486D01*
X129770702Y-98801903D01*
X128957605Y-99615000D01*
X128598395Y-99615000D01*
X127785298Y-98801903D01*
X127541329Y-98873486D01*
X127420429Y-99128996D01*
X127351700Y-99403184D01*
X127337783Y-99685512D01*
X125029777Y-99685512D01*
X126092991Y-98622298D01*
X127964903Y-98622298D01*
X128778000Y-99435395D01*
X129591097Y-98622298D01*
X129519514Y-98378329D01*
X129264004Y-98257429D01*
X128989816Y-98188700D01*
X128707488Y-98174783D01*
X128427870Y-98216213D01*
X128161708Y-98311397D01*
X128036486Y-98378329D01*
X127964903Y-98622298D01*
X126092991Y-98622298D01*
X128665289Y-96050000D01*
X128919335Y-96050000D01*
X129196574Y-95994853D01*
X129457727Y-95886680D01*
X129692759Y-95729637D01*
X129892637Y-95529759D01*
X130049680Y-95294727D01*
X130157853Y-95033574D01*
X130213000Y-94756335D01*
X130213000Y-94473665D01*
X130157853Y-94196426D01*
X130049680Y-93935273D01*
X129892637Y-93700241D01*
X129713000Y-93520604D01*
X129713000Y-89922289D01*
X129935289Y-89700000D01*
X130189335Y-89700000D01*
X130466574Y-89644853D01*
X130727727Y-89536680D01*
X130962759Y-89379637D01*
X131142396Y-89200000D01*
X134033604Y-89200000D01*
X134213241Y-89379637D01*
X134448273Y-89536680D01*
X134709426Y-89644853D01*
X134986665Y-89700000D01*
X135269335Y-89700000D01*
X135546574Y-89644853D01*
X135807727Y-89536680D01*
X136042759Y-89379637D01*
X136242637Y-89179759D01*
X136399680Y-88944727D01*
X136507853Y-88683574D01*
X136563000Y-88406335D01*
X136563000Y-88123665D01*
X136507853Y-87846426D01*
X136399680Y-87585273D01*
X136242637Y-87350241D01*
X136042759Y-87150363D01*
X135807727Y-86993320D01*
X135546574Y-86885147D01*
X135269335Y-86830000D01*
X134986665Y-86830000D01*
X134709426Y-86885147D01*
X134448273Y-86993320D01*
X134213241Y-87150363D01*
X134033604Y-87330000D01*
X131142396Y-87330000D01*
X130962759Y-87150363D01*
X130727727Y-86993320D01*
X130466574Y-86885147D01*
X130189335Y-86830000D01*
X129906665Y-86830000D01*
X129629426Y-86885147D01*
X129368273Y-86993320D01*
X129133241Y-87150363D01*
X128933363Y-87350241D01*
X128776320Y-87585273D01*
X128668147Y-87846426D01*
X128613000Y-88123665D01*
X128613000Y-88377711D01*
X128149336Y-88841375D01*
X128113657Y-88870656D01*
X127996815Y-89013028D01*
X127922480Y-89152100D01*
X127909994Y-89175460D01*
X127856529Y-89351709D01*
X127838476Y-89535000D01*
X127843001Y-89580942D01*
X127843000Y-93520604D01*
X127663363Y-93700241D01*
X127506320Y-93935273D01*
X127398147Y-94196426D01*
X127343000Y-94473665D01*
X127343000Y-94727711D01*
X122174136Y-99896575D01*
X122138457Y-99925856D01*
X122021615Y-100068228D01*
X122004096Y-100101004D01*
X121934794Y-100230660D01*
X121881329Y-100406909D01*
X121863276Y-100590200D01*
X121867801Y-100636142D01*
X121867800Y-117510468D01*
X121863276Y-117556400D01*
X121872234Y-117647354D01*
X121881329Y-117739691D01*
X121934793Y-117915939D01*
X122021614Y-118078371D01*
X122138456Y-118220744D01*
X122174141Y-118250030D01*
X129579110Y-125655000D01*
X111708000Y-125655000D01*
X111708000Y-108975000D01*
X114279928Y-108975000D01*
X114279928Y-110375000D01*
X114292188Y-110499482D01*
X114328498Y-110619180D01*
X114387463Y-110729494D01*
X114466815Y-110826185D01*
X114563506Y-110905537D01*
X114673820Y-110964502D01*
X114793518Y-111000812D01*
X114918000Y-111013072D01*
X118418000Y-111013072D01*
X118542482Y-111000812D01*
X118662180Y-110964502D01*
X118772494Y-110905537D01*
X118869185Y-110826185D01*
X118948537Y-110729494D01*
X119007502Y-110619180D01*
X119043812Y-110499482D01*
X119056072Y-110375000D01*
X119056072Y-108975000D01*
X119043812Y-108850518D01*
X119007502Y-108730820D01*
X118948537Y-108620506D01*
X118869185Y-108523815D01*
X118772494Y-108444463D01*
X118662180Y-108385498D01*
X118542482Y-108349188D01*
X118418000Y-108336928D01*
X114918000Y-108336928D01*
X114793518Y-108349188D01*
X114673820Y-108385498D01*
X114563506Y-108444463D01*
X114466815Y-108523815D01*
X114387463Y-108620506D01*
X114328498Y-108730820D01*
X114292188Y-108850518D01*
X114279928Y-108975000D01*
X111708000Y-108975000D01*
X111708000Y-106525000D01*
X112129928Y-106525000D01*
X112142188Y-106649482D01*
X112178498Y-106769180D01*
X112237463Y-106879494D01*
X112316815Y-106976185D01*
X112413506Y-107055537D01*
X112523820Y-107114502D01*
X112643518Y-107150812D01*
X112768000Y-107163072D01*
X113332250Y-107160000D01*
X113491000Y-107001250D01*
X113491000Y-104902000D01*
X113745000Y-104902000D01*
X113745000Y-107001250D01*
X113903750Y-107160000D01*
X114468000Y-107163072D01*
X114592482Y-107150812D01*
X114712180Y-107114502D01*
X114822494Y-107055537D01*
X114919185Y-106976185D01*
X114998537Y-106879494D01*
X115057502Y-106769180D01*
X115093812Y-106649482D01*
X115106072Y-106525000D01*
X115103000Y-105060750D01*
X114944250Y-104902000D01*
X113745000Y-104902000D01*
X113491000Y-104902000D01*
X112291750Y-104902000D01*
X112133000Y-105060750D01*
X112129928Y-106525000D01*
X111708000Y-106525000D01*
X111708000Y-103025000D01*
X112129928Y-103025000D01*
X112133000Y-104489250D01*
X112291750Y-104648000D01*
X113491000Y-104648000D01*
X113491000Y-102548750D01*
X113745000Y-102548750D01*
X113745000Y-104648000D01*
X114944250Y-104648000D01*
X115103000Y-104489250D01*
X115106072Y-103025000D01*
X115093812Y-102900518D01*
X115057502Y-102780820D01*
X115054392Y-102775000D01*
X118179928Y-102775000D01*
X118179928Y-106775000D01*
X118192188Y-106899482D01*
X118228498Y-107019180D01*
X118287463Y-107129494D01*
X118366815Y-107226185D01*
X118463506Y-107305537D01*
X118573820Y-107364502D01*
X118693518Y-107400812D01*
X118818000Y-107413072D01*
X120418000Y-107413072D01*
X120542482Y-107400812D01*
X120662180Y-107364502D01*
X120772494Y-107305537D01*
X120869185Y-107226185D01*
X120948537Y-107129494D01*
X121007502Y-107019180D01*
X121043812Y-106899482D01*
X121056072Y-106775000D01*
X121056072Y-102775000D01*
X121043812Y-102650518D01*
X121007502Y-102530820D01*
X120948537Y-102420506D01*
X120869185Y-102323815D01*
X120772494Y-102244463D01*
X120662180Y-102185498D01*
X120542482Y-102149188D01*
X120418000Y-102136928D01*
X118818000Y-102136928D01*
X118693518Y-102149188D01*
X118573820Y-102185498D01*
X118463506Y-102244463D01*
X118366815Y-102323815D01*
X118287463Y-102420506D01*
X118228498Y-102530820D01*
X118192188Y-102650518D01*
X118179928Y-102775000D01*
X115054392Y-102775000D01*
X114998537Y-102670506D01*
X114919185Y-102573815D01*
X114822494Y-102494463D01*
X114712180Y-102435498D01*
X114592482Y-102399188D01*
X114468000Y-102386928D01*
X113903750Y-102390000D01*
X113745000Y-102548750D01*
X113491000Y-102548750D01*
X113332250Y-102390000D01*
X112768000Y-102386928D01*
X112643518Y-102399188D01*
X112523820Y-102435498D01*
X112413506Y-102494463D01*
X112316815Y-102573815D01*
X112237463Y-102670506D01*
X112178498Y-102780820D01*
X112142188Y-102900518D01*
X112129928Y-103025000D01*
X111708000Y-103025000D01*
X111708000Y-96117541D01*
X121159418Y-96011992D01*
X121182776Y-96009560D01*
X121206601Y-96002333D01*
X121228557Y-95990597D01*
X121247803Y-95974803D01*
X122517803Y-94704803D01*
X122533597Y-94685557D01*
X122545333Y-94663601D01*
X122552560Y-94639776D01*
X122555000Y-94615000D01*
X122555000Y-81915000D01*
X122552560Y-81890224D01*
X122545333Y-81866399D01*
X122533597Y-81844443D01*
X122517803Y-81825197D01*
X121247803Y-80555197D01*
X121228557Y-80539403D01*
X121206601Y-80527667D01*
X121182776Y-80520440D01*
X121158000Y-80518000D01*
X111708000Y-80518000D01*
X111708000Y-80503665D01*
X128613000Y-80503665D01*
X128613000Y-80786335D01*
X128668147Y-81063574D01*
X128776320Y-81324727D01*
X128933363Y-81559759D01*
X129133241Y-81759637D01*
X129368273Y-81916680D01*
X129629426Y-82024853D01*
X129906665Y-82080000D01*
X130189335Y-82080000D01*
X130466574Y-82024853D01*
X130727727Y-81916680D01*
X130962759Y-81759637D01*
X131162637Y-81559759D01*
X131319680Y-81324727D01*
X131427853Y-81063574D01*
X131483000Y-80786335D01*
X131483000Y-80503665D01*
X133693000Y-80503665D01*
X133693000Y-80786335D01*
X133748147Y-81063574D01*
X133856320Y-81324727D01*
X134013363Y-81559759D01*
X134213241Y-81759637D01*
X134448273Y-81916680D01*
X134709426Y-82024853D01*
X134986665Y-82080000D01*
X135269335Y-82080000D01*
X135546574Y-82024853D01*
X135807727Y-81916680D01*
X136042759Y-81759637D01*
X136242637Y-81559759D01*
X136399680Y-81324727D01*
X136507853Y-81063574D01*
X136563000Y-80786335D01*
X136563000Y-80503665D01*
X136507853Y-80226426D01*
X136399680Y-79965273D01*
X136242637Y-79730241D01*
X136042759Y-79530363D01*
X135807727Y-79373320D01*
X135546574Y-79265147D01*
X135269335Y-79210000D01*
X134986665Y-79210000D01*
X134709426Y-79265147D01*
X134448273Y-79373320D01*
X134213241Y-79530363D01*
X134013363Y-79730241D01*
X133856320Y-79965273D01*
X133748147Y-80226426D01*
X133693000Y-80503665D01*
X131483000Y-80503665D01*
X131427853Y-80226426D01*
X131319680Y-79965273D01*
X131162637Y-79730241D01*
X130962759Y-79530363D01*
X130727727Y-79373320D01*
X130466574Y-79265147D01*
X130189335Y-79210000D01*
X129906665Y-79210000D01*
X129629426Y-79265147D01*
X129368273Y-79373320D01*
X129133241Y-79530363D01*
X128933363Y-79730241D01*
X128776320Y-79965273D01*
X128668147Y-80226426D01*
X128613000Y-80503665D01*
X111708000Y-80503665D01*
X111708000Y-75338982D01*
X128295400Y-75338982D01*
X128295400Y-75791019D01*
X128317084Y-76011177D01*
X128402775Y-76293664D01*
X128541931Y-76554006D01*
X128729203Y-76782197D01*
X128957395Y-76969469D01*
X129217737Y-77108625D01*
X129500224Y-77194316D01*
X129794000Y-77223251D01*
X130087777Y-77194316D01*
X130370264Y-77108625D01*
X130630606Y-76969469D01*
X130858797Y-76782197D01*
X131046069Y-76554006D01*
X131064000Y-76520459D01*
X131081931Y-76554006D01*
X131269203Y-76782197D01*
X131497395Y-76969469D01*
X131757737Y-77108625D01*
X132040224Y-77194316D01*
X132334000Y-77223251D01*
X132627777Y-77194316D01*
X132910264Y-77108625D01*
X133170606Y-76969469D01*
X133398797Y-76782197D01*
X133586069Y-76554006D01*
X133604000Y-76520459D01*
X133621931Y-76554006D01*
X133809203Y-76782197D01*
X134037395Y-76969469D01*
X134297737Y-77108625D01*
X134580224Y-77194316D01*
X134874000Y-77223251D01*
X135167777Y-77194316D01*
X135450264Y-77108625D01*
X135710606Y-76969469D01*
X135938797Y-76782197D01*
X136126069Y-76554006D01*
X136147424Y-76514053D01*
X136295514Y-76716729D01*
X136511965Y-76915733D01*
X136763081Y-77068686D01*
X137039211Y-77169709D01*
X137054974Y-77172358D01*
X137287000Y-77051217D01*
X137287000Y-75692000D01*
X137267000Y-75692000D01*
X137267000Y-75438000D01*
X137287000Y-75438000D01*
X137287000Y-74078783D01*
X137541000Y-74078783D01*
X137541000Y-75438000D01*
X137561000Y-75438000D01*
X137561000Y-75692000D01*
X137541000Y-75692000D01*
X137541000Y-77051217D01*
X137773026Y-77172358D01*
X137788789Y-77169709D01*
X138064919Y-77068686D01*
X138316035Y-76915733D01*
X138532486Y-76716729D01*
X138680576Y-76514053D01*
X138701931Y-76554006D01*
X138889203Y-76782197D01*
X139117395Y-76969469D01*
X139377737Y-77108625D01*
X139660224Y-77194316D01*
X139954000Y-77223251D01*
X140247777Y-77194316D01*
X140530264Y-77108625D01*
X140790606Y-76969469D01*
X141018797Y-76782197D01*
X141206069Y-76554006D01*
X141224000Y-76520459D01*
X141241931Y-76554006D01*
X141429203Y-76782197D01*
X141657395Y-76969469D01*
X141917737Y-77108625D01*
X142200224Y-77194316D01*
X142494000Y-77223251D01*
X142787777Y-77194316D01*
X143070264Y-77108625D01*
X143330606Y-76969469D01*
X143558797Y-76782197D01*
X143746069Y-76554006D01*
X143764000Y-76520459D01*
X143781931Y-76554006D01*
X143969203Y-76782197D01*
X144197395Y-76969469D01*
X144457737Y-77108625D01*
X144740224Y-77194316D01*
X145034000Y-77223251D01*
X145327777Y-77194316D01*
X145610264Y-77108625D01*
X145870606Y-76969469D01*
X146098797Y-76782197D01*
X146286069Y-76554006D01*
X146304000Y-76520459D01*
X146321931Y-76554006D01*
X146509203Y-76782197D01*
X146737395Y-76969469D01*
X146997737Y-77108625D01*
X147280224Y-77194316D01*
X147574000Y-77223251D01*
X147867777Y-77194316D01*
X148150264Y-77108625D01*
X148410606Y-76969469D01*
X148638797Y-76782197D01*
X148826069Y-76554006D01*
X148844000Y-76520459D01*
X148861931Y-76554006D01*
X149049203Y-76782197D01*
X149277395Y-76969469D01*
X149537737Y-77108625D01*
X149688761Y-77154437D01*
X147527258Y-79315941D01*
X147443518Y-79324188D01*
X147323820Y-79360498D01*
X147213506Y-79419463D01*
X147133000Y-79485532D01*
X147052494Y-79419463D01*
X146942180Y-79360498D01*
X146822482Y-79324188D01*
X146698000Y-79311928D01*
X146298000Y-79311928D01*
X146173518Y-79324188D01*
X146053820Y-79360498D01*
X145943506Y-79419463D01*
X145863000Y-79485532D01*
X145782494Y-79419463D01*
X145672180Y-79360498D01*
X145552482Y-79324188D01*
X145428000Y-79311928D01*
X145028000Y-79311928D01*
X144903518Y-79324188D01*
X144783820Y-79360498D01*
X144673506Y-79419463D01*
X144593000Y-79485532D01*
X144512494Y-79419463D01*
X144402180Y-79360498D01*
X144282482Y-79324188D01*
X144158000Y-79311928D01*
X143758000Y-79311928D01*
X143633518Y-79324188D01*
X143513820Y-79360498D01*
X143403506Y-79419463D01*
X143323000Y-79485532D01*
X143242494Y-79419463D01*
X143132180Y-79360498D01*
X143012482Y-79324188D01*
X142888000Y-79311928D01*
X142488000Y-79311928D01*
X142363518Y-79324188D01*
X142243820Y-79360498D01*
X142133506Y-79419463D01*
X142053000Y-79485532D01*
X141972494Y-79419463D01*
X141862180Y-79360498D01*
X141742482Y-79324188D01*
X141618000Y-79311928D01*
X141218000Y-79311928D01*
X141093518Y-79324188D01*
X140973820Y-79360498D01*
X140863506Y-79419463D01*
X140783000Y-79485532D01*
X140702494Y-79419463D01*
X140592180Y-79360498D01*
X140472482Y-79324188D01*
X140348000Y-79311928D01*
X139948000Y-79311928D01*
X139823518Y-79324188D01*
X139703820Y-79360498D01*
X139593506Y-79419463D01*
X139513000Y-79485532D01*
X139432494Y-79419463D01*
X139322180Y-79360498D01*
X139202482Y-79324188D01*
X139078000Y-79311928D01*
X138678000Y-79311928D01*
X138553518Y-79324188D01*
X138433820Y-79360498D01*
X138323506Y-79419463D01*
X138226815Y-79498815D01*
X138147463Y-79595506D01*
X138088498Y-79705820D01*
X138052188Y-79825518D01*
X138039928Y-79950000D01*
X138039928Y-82350000D01*
X138052188Y-82474482D01*
X138088498Y-82594180D01*
X138147463Y-82704494D01*
X138226815Y-82801185D01*
X138323506Y-82880537D01*
X138433820Y-82939502D01*
X138553518Y-82975812D01*
X138678000Y-82988072D01*
X139078000Y-82988072D01*
X139202482Y-82975812D01*
X139322180Y-82939502D01*
X139432494Y-82880537D01*
X139513000Y-82814468D01*
X139593506Y-82880537D01*
X139703820Y-82939502D01*
X139823518Y-82975812D01*
X139948000Y-82988072D01*
X140348000Y-82988072D01*
X140472482Y-82975812D01*
X140592180Y-82939502D01*
X140702494Y-82880537D01*
X140783000Y-82814468D01*
X140863506Y-82880537D01*
X140973820Y-82939502D01*
X141093518Y-82975812D01*
X141218000Y-82988072D01*
X141618000Y-82988072D01*
X141742482Y-82975812D01*
X141862180Y-82939502D01*
X141972494Y-82880537D01*
X142053000Y-82814468D01*
X142133506Y-82880537D01*
X142243820Y-82939502D01*
X142363518Y-82975812D01*
X142488000Y-82988072D01*
X142888000Y-82988072D01*
X143012482Y-82975812D01*
X143132180Y-82939502D01*
X143242494Y-82880537D01*
X143323000Y-82814468D01*
X143403506Y-82880537D01*
X143513820Y-82939502D01*
X143633518Y-82975812D01*
X143758000Y-82988072D01*
X144158000Y-82988072D01*
X144282482Y-82975812D01*
X144402180Y-82939502D01*
X144512494Y-82880537D01*
X144593000Y-82814468D01*
X144673506Y-82880537D01*
X144783820Y-82939502D01*
X144903518Y-82975812D01*
X145028000Y-82988072D01*
X145428000Y-82988072D01*
X145552482Y-82975812D01*
X145672180Y-82939502D01*
X145782494Y-82880537D01*
X145863000Y-82814468D01*
X145943506Y-82880537D01*
X146053820Y-82939502D01*
X146173518Y-82975812D01*
X146298000Y-82988072D01*
X146698000Y-82988072D01*
X146822482Y-82975812D01*
X146942180Y-82939502D01*
X147052494Y-82880537D01*
X147133000Y-82814468D01*
X147213506Y-82880537D01*
X147323820Y-82939502D01*
X147443518Y-82975812D01*
X147568000Y-82988072D01*
X147968000Y-82988072D01*
X148092482Y-82975812D01*
X148212180Y-82939502D01*
X148322494Y-82880537D01*
X148403000Y-82814468D01*
X148483506Y-82880537D01*
X148593820Y-82939502D01*
X148713518Y-82975812D01*
X148838000Y-82988072D01*
X149238000Y-82988072D01*
X149362482Y-82975812D01*
X149482180Y-82939502D01*
X149592494Y-82880537D01*
X149673000Y-82814468D01*
X149753506Y-82880537D01*
X149863820Y-82939502D01*
X149983518Y-82975812D01*
X150108000Y-82988072D01*
X150508000Y-82988072D01*
X150632482Y-82975812D01*
X150752180Y-82939502D01*
X150862494Y-82880537D01*
X150943000Y-82814468D01*
X151023506Y-82880537D01*
X151133820Y-82939502D01*
X151253518Y-82975812D01*
X151378000Y-82988072D01*
X151778000Y-82988072D01*
X151902482Y-82975812D01*
X152022180Y-82939502D01*
X152132494Y-82880537D01*
X152213000Y-82814468D01*
X152293506Y-82880537D01*
X152403820Y-82939502D01*
X152523518Y-82975812D01*
X152648000Y-82988072D01*
X153048000Y-82988072D01*
X153172482Y-82975812D01*
X153292180Y-82939502D01*
X153402494Y-82880537D01*
X153483000Y-82814468D01*
X153563506Y-82880537D01*
X153673820Y-82939502D01*
X153793518Y-82975812D01*
X153918000Y-82988072D01*
X154318000Y-82988072D01*
X154442482Y-82975812D01*
X154562180Y-82939502D01*
X154672494Y-82880537D01*
X154753315Y-82814209D01*
X154827976Y-82876800D01*
X154937667Y-82936915D01*
X155056979Y-82974475D01*
X155156250Y-82985000D01*
X155315000Y-82826250D01*
X155315000Y-81277000D01*
X155461000Y-81277000D01*
X155461000Y-82826250D01*
X155619750Y-82985000D01*
X155719021Y-82974475D01*
X155838333Y-82936915D01*
X155948024Y-82876800D01*
X156043880Y-82796441D01*
X156122217Y-82698925D01*
X156180024Y-82588000D01*
X156215080Y-82467928D01*
X156226037Y-82343325D01*
X156223000Y-81435750D01*
X156064250Y-81277000D01*
X155461000Y-81277000D01*
X155315000Y-81277000D01*
X155241000Y-81277000D01*
X155241000Y-81023000D01*
X155315000Y-81023000D01*
X155315000Y-81003000D01*
X155461000Y-81003000D01*
X155461000Y-81023000D01*
X156064250Y-81023000D01*
X156223000Y-80864250D01*
X156225440Y-80135000D01*
X174818199Y-80135000D01*
X181358000Y-86674802D01*
X181358001Y-93557928D01*
X181318000Y-93557928D01*
X181193518Y-93570188D01*
X181073820Y-93606498D01*
X180963506Y-93665463D01*
X180866815Y-93744815D01*
X180787463Y-93841506D01*
X180728498Y-93951820D01*
X180692188Y-94071518D01*
X180691357Y-94079961D01*
X180492759Y-93881363D01*
X180257727Y-93724320D01*
X179996574Y-93616147D01*
X179719335Y-93561000D01*
X179436665Y-93561000D01*
X179159426Y-93616147D01*
X178898273Y-93724320D01*
X178663241Y-93881363D01*
X178463363Y-94081241D01*
X178308000Y-94313759D01*
X178152637Y-94081241D01*
X177952759Y-93881363D01*
X177717727Y-93724320D01*
X177456574Y-93616147D01*
X177179335Y-93561000D01*
X176896665Y-93561000D01*
X176619426Y-93616147D01*
X176358273Y-93724320D01*
X176123241Y-93881363D01*
X175923363Y-94081241D01*
X175768000Y-94313759D01*
X175612637Y-94081241D01*
X175412759Y-93881363D01*
X175177727Y-93724320D01*
X174916574Y-93616147D01*
X174639335Y-93561000D01*
X174356665Y-93561000D01*
X174079426Y-93616147D01*
X173818273Y-93724320D01*
X173583241Y-93881363D01*
X173383363Y-94081241D01*
X173228000Y-94313759D01*
X173072637Y-94081241D01*
X172872759Y-93881363D01*
X172637727Y-93724320D01*
X172376574Y-93616147D01*
X172099335Y-93561000D01*
X171816665Y-93561000D01*
X171539426Y-93616147D01*
X171278273Y-93724320D01*
X171043241Y-93881363D01*
X170843363Y-94081241D01*
X170688000Y-94313759D01*
X170532637Y-94081241D01*
X170332759Y-93881363D01*
X170097727Y-93724320D01*
X169836574Y-93616147D01*
X169559335Y-93561000D01*
X169276665Y-93561000D01*
X168999426Y-93616147D01*
X168738273Y-93724320D01*
X168503241Y-93881363D01*
X168303363Y-94081241D01*
X168146320Y-94316273D01*
X168141933Y-94326865D01*
X168030385Y-94140869D01*
X167841414Y-93932481D01*
X167615420Y-93764963D01*
X167361087Y-93644754D01*
X167227039Y-93604096D01*
X167005000Y-93726085D01*
X167005000Y-94869000D01*
X167025000Y-94869000D01*
X167025000Y-95123000D01*
X167005000Y-95123000D01*
X167005000Y-96265915D01*
X167227039Y-96387904D01*
X167361087Y-96347246D01*
X167615420Y-96227037D01*
X167841414Y-96059519D01*
X168030385Y-95851131D01*
X168141933Y-95665135D01*
X168146320Y-95675727D01*
X168303363Y-95910759D01*
X168503241Y-96110637D01*
X168738273Y-96267680D01*
X168999426Y-96375853D01*
X169276665Y-96431000D01*
X169559335Y-96431000D01*
X169741886Y-96394688D01*
X171779238Y-98432040D01*
X171803036Y-98461038D01*
X171832034Y-98484836D01*
X171918760Y-98556011D01*
X172042773Y-98622298D01*
X172050790Y-98626583D01*
X172194051Y-98670040D01*
X172305704Y-98681037D01*
X172305714Y-98681037D01*
X172343037Y-98684713D01*
X172380359Y-98681037D01*
X183886283Y-98681037D01*
X183923605Y-98684713D01*
X183960927Y-98681037D01*
X183960938Y-98681037D01*
X184072591Y-98670040D01*
X184215852Y-98626583D01*
X184347881Y-98556011D01*
X184463606Y-98461038D01*
X184487409Y-98432035D01*
X185554044Y-97365400D01*
X185583037Y-97341606D01*
X185606831Y-97312613D01*
X185606836Y-97312608D01*
X185678011Y-97225882D01*
X185748583Y-97093852D01*
X185792039Y-96950591D01*
X185806713Y-96801605D01*
X185803036Y-96764272D01*
X185803036Y-93094117D01*
X187573000Y-93094117D01*
X187573000Y-93435883D01*
X187639675Y-93771081D01*
X187770463Y-94086831D01*
X187960337Y-94370998D01*
X188202002Y-94612663D01*
X188486169Y-94802537D01*
X188801919Y-94933325D01*
X189137117Y-95000000D01*
X189478883Y-95000000D01*
X189814081Y-94933325D01*
X190129831Y-94802537D01*
X190413998Y-94612663D01*
X190655663Y-94370998D01*
X190845537Y-94086831D01*
X190976325Y-93771081D01*
X191043000Y-93435883D01*
X191043000Y-93094117D01*
X190976325Y-92758919D01*
X190845537Y-92443169D01*
X190655663Y-92159002D01*
X190413998Y-91917337D01*
X190129831Y-91727463D01*
X189814081Y-91596675D01*
X189478883Y-91530000D01*
X189137117Y-91530000D01*
X188801919Y-91596675D01*
X188486169Y-91727463D01*
X188202002Y-91917337D01*
X187960337Y-92159002D01*
X187770463Y-92443169D01*
X187639675Y-92758919D01*
X187573000Y-93094117D01*
X185803036Y-93094117D01*
X185803036Y-89471712D01*
X191680893Y-89471712D01*
X191788726Y-89746338D01*
X192095384Y-89897216D01*
X192425585Y-89985369D01*
X192766639Y-90007409D01*
X193105439Y-89962489D01*
X193428966Y-89852336D01*
X193627274Y-89746338D01*
X193735107Y-89471712D01*
X192708000Y-88444605D01*
X191680893Y-89471712D01*
X185803036Y-89471712D01*
X185803037Y-88323639D01*
X190965591Y-88323639D01*
X191010511Y-88662439D01*
X191120664Y-88985966D01*
X191226662Y-89184274D01*
X191501288Y-89292107D01*
X192528395Y-88265000D01*
X192887605Y-88265000D01*
X193914712Y-89292107D01*
X194189338Y-89184274D01*
X194340216Y-88877616D01*
X194428369Y-88547415D01*
X194450409Y-88206361D01*
X194405489Y-87867561D01*
X194295336Y-87544034D01*
X194189338Y-87345726D01*
X193914712Y-87237893D01*
X192887605Y-88265000D01*
X192528395Y-88265000D01*
X191501288Y-87237893D01*
X191226662Y-87345726D01*
X191075784Y-87652384D01*
X190987631Y-87982585D01*
X190965591Y-88323639D01*
X185803037Y-88323639D01*
X185803037Y-87058288D01*
X191680893Y-87058288D01*
X192708000Y-88085395D01*
X193735107Y-87058288D01*
X193627274Y-86783662D01*
X193320616Y-86632784D01*
X192990415Y-86544631D01*
X192649361Y-86522591D01*
X192310561Y-86567511D01*
X191987034Y-86677664D01*
X191788726Y-86783662D01*
X191680893Y-87058288D01*
X185803037Y-87058288D01*
X185803038Y-86140317D01*
X185806714Y-86102994D01*
X185803038Y-86065671D01*
X185803038Y-86065662D01*
X185792041Y-85954009D01*
X185757706Y-85840819D01*
X185748584Y-85810747D01*
X185678012Y-85678717D01*
X185606837Y-85591991D01*
X185606833Y-85591987D01*
X185583039Y-85562994D01*
X185554047Y-85539201D01*
X183108965Y-83094117D01*
X187573000Y-83094117D01*
X187573000Y-83435883D01*
X187639675Y-83771081D01*
X187770463Y-84086831D01*
X187960337Y-84370998D01*
X188202002Y-84612663D01*
X188486169Y-84802537D01*
X188801919Y-84933325D01*
X189137117Y-85000000D01*
X189478883Y-85000000D01*
X189814081Y-84933325D01*
X190129831Y-84802537D01*
X190413998Y-84612663D01*
X190655663Y-84370998D01*
X190845537Y-84086831D01*
X190976325Y-83771081D01*
X191043000Y-83435883D01*
X191043000Y-83094117D01*
X190976325Y-82758919D01*
X190845537Y-82443169D01*
X190655663Y-82159002D01*
X190413998Y-81917337D01*
X190129831Y-81727463D01*
X189814081Y-81596675D01*
X189478883Y-81530000D01*
X189137117Y-81530000D01*
X188801919Y-81596675D01*
X188486169Y-81727463D01*
X188202002Y-81917337D01*
X187960337Y-82159002D01*
X187770463Y-82443169D01*
X187639675Y-82758919D01*
X187573000Y-83094117D01*
X183108965Y-83094117D01*
X176628805Y-76613954D01*
X176605007Y-76584956D01*
X176567295Y-76554006D01*
X176489281Y-76489982D01*
X176357251Y-76419409D01*
X176300905Y-76402317D01*
X176213993Y-76375953D01*
X176102340Y-76364956D01*
X176102338Y-76364956D01*
X176065005Y-76361279D01*
X176027675Y-76364956D01*
X175851119Y-76364955D01*
X175889225Y-76293663D01*
X175974916Y-76011176D01*
X175996600Y-75791018D01*
X175996600Y-75338981D01*
X175974916Y-75118823D01*
X175889225Y-74836336D01*
X175750069Y-74575994D01*
X175562797Y-74347803D01*
X175334605Y-74160531D01*
X175074263Y-74021375D01*
X174791776Y-73935684D01*
X174498000Y-73906749D01*
X174204223Y-73935684D01*
X173921736Y-74021375D01*
X173661394Y-74160531D01*
X173433203Y-74347803D01*
X173245931Y-74575995D01*
X173228000Y-74609541D01*
X173210069Y-74575994D01*
X173022797Y-74347803D01*
X172794605Y-74160531D01*
X172534263Y-74021375D01*
X172251776Y-73935684D01*
X171958000Y-73906749D01*
X171664223Y-73935684D01*
X171381736Y-74021375D01*
X171121394Y-74160531D01*
X170893203Y-74347803D01*
X170705931Y-74575995D01*
X170688000Y-74609541D01*
X170670069Y-74575994D01*
X170482797Y-74347803D01*
X170254605Y-74160531D01*
X169994263Y-74021375D01*
X169711776Y-73935684D01*
X169418000Y-73906749D01*
X169124223Y-73935684D01*
X168841736Y-74021375D01*
X168581394Y-74160531D01*
X168353203Y-74347803D01*
X168165931Y-74575995D01*
X168148000Y-74609541D01*
X168130069Y-74575994D01*
X167942797Y-74347803D01*
X167714605Y-74160531D01*
X167454263Y-74021375D01*
X167171776Y-73935684D01*
X166878000Y-73906749D01*
X166584223Y-73935684D01*
X166301736Y-74021375D01*
X166041394Y-74160531D01*
X165813203Y-74347803D01*
X165625931Y-74575995D01*
X165608000Y-74609541D01*
X165590069Y-74575994D01*
X165402797Y-74347803D01*
X165174605Y-74160531D01*
X164914263Y-74021375D01*
X164631776Y-73935684D01*
X164338000Y-73906749D01*
X164044223Y-73935684D01*
X163761736Y-74021375D01*
X163501394Y-74160531D01*
X163273203Y-74347803D01*
X163085931Y-74575995D01*
X163068000Y-74609541D01*
X163050069Y-74575994D01*
X162862797Y-74347803D01*
X162634605Y-74160531D01*
X162374263Y-74021375D01*
X162091776Y-73935684D01*
X161798000Y-73906749D01*
X161504223Y-73935684D01*
X161221736Y-74021375D01*
X160961394Y-74160531D01*
X160733203Y-74347803D01*
X160545931Y-74575995D01*
X160528000Y-74609541D01*
X160510069Y-74575994D01*
X160322797Y-74347803D01*
X160094605Y-74160531D01*
X159834263Y-74021375D01*
X159551776Y-73935684D01*
X159258000Y-73906749D01*
X158964223Y-73935684D01*
X158681736Y-74021375D01*
X158421394Y-74160531D01*
X158193203Y-74347803D01*
X158005931Y-74575995D01*
X157988000Y-74609541D01*
X157970069Y-74575994D01*
X157782797Y-74347803D01*
X157554605Y-74160531D01*
X157294263Y-74021375D01*
X157011776Y-73935684D01*
X156718000Y-73906749D01*
X156424223Y-73935684D01*
X156141736Y-74021375D01*
X155881394Y-74160531D01*
X155653203Y-74347803D01*
X155465931Y-74575995D01*
X155326775Y-74836337D01*
X155241084Y-75118824D01*
X155219400Y-75338982D01*
X155219400Y-75791019D01*
X155241084Y-76011177D01*
X155326775Y-76293664D01*
X155364878Y-76364950D01*
X154007121Y-76364950D01*
X154045225Y-76293663D01*
X154130916Y-76011176D01*
X154152600Y-75791018D01*
X154152600Y-75338981D01*
X154130916Y-75118823D01*
X154045225Y-74836336D01*
X153906069Y-74575994D01*
X153718797Y-74347803D01*
X153490605Y-74160531D01*
X153230263Y-74021375D01*
X152947776Y-73935684D01*
X152654000Y-73906749D01*
X152360223Y-73935684D01*
X152077736Y-74021375D01*
X151817394Y-74160531D01*
X151589203Y-74347803D01*
X151401931Y-74575995D01*
X151384000Y-74609541D01*
X151366069Y-74575994D01*
X151178797Y-74347803D01*
X150950605Y-74160531D01*
X150690263Y-74021375D01*
X150407776Y-73935684D01*
X150114000Y-73906749D01*
X149820223Y-73935684D01*
X149537736Y-74021375D01*
X149277394Y-74160531D01*
X149049203Y-74347803D01*
X148861931Y-74575995D01*
X148844000Y-74609541D01*
X148826069Y-74575994D01*
X148638797Y-74347803D01*
X148410605Y-74160531D01*
X148150263Y-74021375D01*
X147867776Y-73935684D01*
X147574000Y-73906749D01*
X147280223Y-73935684D01*
X146997736Y-74021375D01*
X146737394Y-74160531D01*
X146509203Y-74347803D01*
X146321931Y-74575995D01*
X146304000Y-74609541D01*
X146286069Y-74575994D01*
X146098797Y-74347803D01*
X145870605Y-74160531D01*
X145610263Y-74021375D01*
X145327776Y-73935684D01*
X145034000Y-73906749D01*
X144740223Y-73935684D01*
X144457736Y-74021375D01*
X144197394Y-74160531D01*
X143969203Y-74347803D01*
X143781931Y-74575995D01*
X143764000Y-74609541D01*
X143746069Y-74575994D01*
X143558797Y-74347803D01*
X143330605Y-74160531D01*
X143070263Y-74021375D01*
X142787776Y-73935684D01*
X142494000Y-73906749D01*
X142200223Y-73935684D01*
X141917736Y-74021375D01*
X141657394Y-74160531D01*
X141429203Y-74347803D01*
X141241931Y-74575995D01*
X141224000Y-74609541D01*
X141206069Y-74575994D01*
X141018797Y-74347803D01*
X140790605Y-74160531D01*
X140530263Y-74021375D01*
X140247776Y-73935684D01*
X139954000Y-73906749D01*
X139660223Y-73935684D01*
X139377736Y-74021375D01*
X139117394Y-74160531D01*
X138889203Y-74347803D01*
X138701931Y-74575995D01*
X138680576Y-74615947D01*
X138532486Y-74413271D01*
X138316035Y-74214267D01*
X138064919Y-74061314D01*
X137788789Y-73960291D01*
X137773026Y-73957642D01*
X137541000Y-74078783D01*
X137287000Y-74078783D01*
X137054974Y-73957642D01*
X137039211Y-73960291D01*
X136763081Y-74061314D01*
X136511965Y-74214267D01*
X136295514Y-74413271D01*
X136147424Y-74615947D01*
X136126069Y-74575994D01*
X135938797Y-74347803D01*
X135710605Y-74160531D01*
X135450263Y-74021375D01*
X135167776Y-73935684D01*
X134874000Y-73906749D01*
X134580223Y-73935684D01*
X134297736Y-74021375D01*
X134037394Y-74160531D01*
X133809203Y-74347803D01*
X133621931Y-74575995D01*
X133604000Y-74609541D01*
X133586069Y-74575994D01*
X133398797Y-74347803D01*
X133170605Y-74160531D01*
X132910263Y-74021375D01*
X132627776Y-73935684D01*
X132334000Y-73906749D01*
X132040223Y-73935684D01*
X131757736Y-74021375D01*
X131497394Y-74160531D01*
X131269203Y-74347803D01*
X131081931Y-74575995D01*
X131064000Y-74609541D01*
X131046069Y-74575994D01*
X130858797Y-74347803D01*
X130630605Y-74160531D01*
X130370263Y-74021375D01*
X130087776Y-73935684D01*
X129794000Y-73906749D01*
X129500223Y-73935684D01*
X129217736Y-74021375D01*
X128957394Y-74160531D01*
X128729203Y-74347803D01*
X128541931Y-74575995D01*
X128402775Y-74836337D01*
X128317084Y-75118824D01*
X128295400Y-75338982D01*
X111708000Y-75338982D01*
X111708000Y-73735000D01*
X196648001Y-73735000D01*
X196648000Y-106530785D01*
G37*
X196648000Y-106530785D02*
X192222216Y-102105003D01*
X192198413Y-102075999D01*
X192082688Y-101981026D01*
X191950659Y-101910454D01*
X191807398Y-101866997D01*
X191695745Y-101856000D01*
X191695734Y-101856000D01*
X191658412Y-101852324D01*
X191621090Y-101856000D01*
X183336043Y-101856000D01*
X183232637Y-101701241D01*
X183032759Y-101501363D01*
X182797727Y-101344320D01*
X182536574Y-101236147D01*
X182259335Y-101181000D01*
X181976665Y-101181000D01*
X181699426Y-101236147D01*
X181438273Y-101344320D01*
X181203241Y-101501363D01*
X181003363Y-101701241D01*
X180848000Y-101933759D01*
X180692637Y-101701241D01*
X180492759Y-101501363D01*
X180257727Y-101344320D01*
X179996574Y-101236147D01*
X179719335Y-101181000D01*
X179436665Y-101181000D01*
X179159426Y-101236147D01*
X178898273Y-101344320D01*
X178663241Y-101501363D01*
X178463363Y-101701241D01*
X178308000Y-101933759D01*
X178152637Y-101701241D01*
X177952759Y-101501363D01*
X177717727Y-101344320D01*
X177456574Y-101236147D01*
X177179335Y-101181000D01*
X176896665Y-101181000D01*
X176619426Y-101236147D01*
X176358273Y-101344320D01*
X176123241Y-101501363D01*
X175923363Y-101701241D01*
X175768000Y-101933759D01*
X175612637Y-101701241D01*
X175412759Y-101501363D01*
X175177727Y-101344320D01*
X174916574Y-101236147D01*
X174639335Y-101181000D01*
X174356665Y-101181000D01*
X174079426Y-101236147D01*
X173818273Y-101344320D01*
X173583241Y-101501363D01*
X173383363Y-101701241D01*
X173228000Y-101933759D01*
X173072637Y-101701241D01*
X172872759Y-101501363D01*
X172637727Y-101344320D01*
X172376574Y-101236147D01*
X172099335Y-101181000D01*
X171816665Y-101181000D01*
X171539426Y-101236147D01*
X171278273Y-101344320D01*
X171043241Y-101501363D01*
X170843363Y-101701241D01*
X170688000Y-101933759D01*
X170532637Y-101701241D01*
X170332759Y-101501363D01*
X170097727Y-101344320D01*
X169836574Y-101236147D01*
X169559335Y-101181000D01*
X169276665Y-101181000D01*
X168999426Y-101236147D01*
X168738273Y-101344320D01*
X168503241Y-101501363D01*
X168303363Y-101701241D01*
X168148000Y-101933759D01*
X167992637Y-101701241D01*
X167792759Y-101501363D01*
X167557727Y-101344320D01*
X167296574Y-101236147D01*
X167019335Y-101181000D01*
X166736665Y-101181000D01*
X166459426Y-101236147D01*
X166198273Y-101344320D01*
X165963241Y-101501363D01*
X165763363Y-101701241D01*
X165608000Y-101933759D01*
X165452637Y-101701241D01*
X165252759Y-101501363D01*
X165017727Y-101344320D01*
X164756574Y-101236147D01*
X164479335Y-101181000D01*
X164196665Y-101181000D01*
X163919426Y-101236147D01*
X163658273Y-101344320D01*
X163423241Y-101501363D01*
X163223363Y-101701241D01*
X163066320Y-101936273D01*
X163061933Y-101946865D01*
X162950385Y-101760869D01*
X162761414Y-101552481D01*
X162535420Y-101384963D01*
X162281087Y-101264754D01*
X162147039Y-101224096D01*
X161925002Y-101346084D01*
X161925002Y-101252286D01*
X162426664Y-100750623D01*
X162462344Y-100721342D01*
X162579186Y-100578970D01*
X162666007Y-100416538D01*
X162719471Y-100240290D01*
X162720357Y-100231292D01*
X162737524Y-100056999D01*
X162733000Y-100011067D01*
X162733000Y-96090396D01*
X162912637Y-95910759D01*
X163069680Y-95675727D01*
X163074067Y-95665135D01*
X163185615Y-95851131D01*
X163374586Y-96059519D01*
X163600580Y-96227037D01*
X163854913Y-96347246D01*
X163988961Y-96387904D01*
X164211000Y-96265915D01*
X164211000Y-95123000D01*
X164465000Y-95123000D01*
X164465000Y-96265915D01*
X164687039Y-96387904D01*
X164821087Y-96347246D01*
X165075420Y-96227037D01*
X165301414Y-96059519D01*
X165490385Y-95851131D01*
X165608000Y-95655018D01*
X165725615Y-95851131D01*
X165914586Y-96059519D01*
X166140580Y-96227037D01*
X166394913Y-96347246D01*
X166528961Y-96387904D01*
X166751000Y-96265915D01*
X166751000Y-95123000D01*
X164465000Y-95123000D01*
X164211000Y-95123000D01*
X164191000Y-95123000D01*
X164191000Y-94869000D01*
X164211000Y-94869000D01*
X164211000Y-93726085D01*
X164465000Y-93726085D01*
X164465000Y-94869000D01*
X166751000Y-94869000D01*
X166751000Y-93726085D01*
X166528961Y-93604096D01*
X166394913Y-93644754D01*
X166140580Y-93764963D01*
X165914586Y-93932481D01*
X165725615Y-94140869D01*
X165608000Y-94336982D01*
X165490385Y-94140869D01*
X165301414Y-93932481D01*
X165075420Y-93764963D01*
X164821087Y-93644754D01*
X164687039Y-93604096D01*
X164465000Y-93726085D01*
X164211000Y-93726085D01*
X163988961Y-93604096D01*
X163854913Y-93644754D01*
X163600580Y-93764963D01*
X163374586Y-93932481D01*
X163185615Y-94140869D01*
X163074067Y-94326865D01*
X163069680Y-94316273D01*
X162912637Y-94081241D01*
X162712759Y-93881363D01*
X162477727Y-93724320D01*
X162216574Y-93616147D01*
X161939335Y-93561000D01*
X161656665Y-93561000D01*
X161379426Y-93616147D01*
X161118273Y-93724320D01*
X160883241Y-93881363D01*
X160683363Y-94081241D01*
X160526320Y-94316273D01*
X160418147Y-94577426D01*
X160363000Y-94854665D01*
X160363000Y-95137335D01*
X160418147Y-95414574D01*
X160526320Y-95675727D01*
X160683363Y-95910759D01*
X160863000Y-96090396D01*
X160863001Y-99669707D01*
X155719340Y-104813369D01*
X155683655Y-104842655D01*
X155654375Y-104878333D01*
X154660709Y-105872000D01*
X150446396Y-105872000D01*
X150266759Y-105692363D01*
X150031727Y-105535320D01*
X149770574Y-105427147D01*
X149493335Y-105372000D01*
X149210665Y-105372000D01*
X148933426Y-105427147D01*
X148672273Y-105535320D01*
X148437241Y-105692363D01*
X148237363Y-105892241D01*
X148080320Y-106127273D01*
X147972147Y-106388426D01*
X147917000Y-106665665D01*
X147917000Y-106919711D01*
X147664311Y-107172400D01*
X146170430Y-107172400D01*
X146215000Y-106948335D01*
X146215000Y-106665665D01*
X146159853Y-106388426D01*
X146051680Y-106127273D01*
X145894637Y-105892241D01*
X145694759Y-105692363D01*
X145459727Y-105535320D01*
X145198574Y-105427147D01*
X144921335Y-105372000D01*
X144638665Y-105372000D01*
X144361426Y-105427147D01*
X144100273Y-105535320D01*
X143865241Y-105692363D01*
X143665363Y-105892241D01*
X143508320Y-106127273D01*
X143400147Y-106388426D01*
X143345000Y-106665665D01*
X143345000Y-106948335D01*
X143389570Y-107172400D01*
X138847690Y-107172400D01*
X138595000Y-106919710D01*
X138595000Y-106665665D01*
X138539853Y-106388426D01*
X138431680Y-106127273D01*
X138274637Y-105892241D01*
X138074759Y-105692363D01*
X137839727Y-105535320D01*
X137578574Y-105427147D01*
X137301335Y-105372000D01*
X137018665Y-105372000D01*
X136741426Y-105427147D01*
X136480273Y-105535320D01*
X136245241Y-105692363D01*
X136045363Y-105892241D01*
X135888320Y-106127273D01*
X135780147Y-106388426D01*
X135725000Y-106665665D01*
X135725000Y-106919711D01*
X135464211Y-107180500D01*
X133976819Y-107180500D01*
X134023000Y-106948335D01*
X134023000Y-106665665D01*
X133967853Y-106388426D01*
X133859680Y-106127273D01*
X133702637Y-105892241D01*
X133502759Y-105692363D01*
X133267727Y-105535320D01*
X133006574Y-105427147D01*
X132729335Y-105372000D01*
X132446665Y-105372000D01*
X132169426Y-105427147D01*
X132163000Y-105429809D01*
X132163000Y-102965040D01*
X133736091Y-102965040D01*
X133830930Y-103229881D01*
X133975615Y-103471131D01*
X134164586Y-103679519D01*
X134390580Y-103847037D01*
X134644913Y-103967246D01*
X134778961Y-104007904D01*
X135001000Y-103885915D01*
X135001000Y-102743000D01*
X133857376Y-102743000D01*
X133736091Y-102965040D01*
X132163000Y-102965040D01*
X132163000Y-102266960D01*
X133736091Y-102266960D01*
X133857376Y-102489000D01*
X135001000Y-102489000D01*
X135001000Y-101346085D01*
X135255000Y-101346085D01*
X135255000Y-102489000D01*
X135275000Y-102489000D01*
X135275000Y-102743000D01*
X135255000Y-102743000D01*
X135255000Y-103885915D01*
X135477039Y-104007904D01*
X135611087Y-103967246D01*
X135865420Y-103847037D01*
X136091414Y-103679519D01*
X136280385Y-103471131D01*
X136391933Y-103285135D01*
X136396320Y-103295727D01*
X136553363Y-103530759D01*
X136753241Y-103730637D01*
X136988273Y-103887680D01*
X137249426Y-103995853D01*
X137526665Y-104051000D01*
X137809335Y-104051000D01*
X138086574Y-103995853D01*
X138347727Y-103887680D01*
X138582759Y-103730637D01*
X138782637Y-103530759D01*
X138938000Y-103298241D01*
X139093363Y-103530759D01*
X139293241Y-103730637D01*
X139528273Y-103887680D01*
X139789426Y-103995853D01*
X140066665Y-104051000D01*
X140349335Y-104051000D01*
X140626574Y-103995853D01*
X140887727Y-103887680D01*
X141122759Y-103730637D01*
X141322637Y-103530759D01*
X141478000Y-103298241D01*
X141633363Y-103530759D01*
X141833241Y-103730637D01*
X142068273Y-103887680D01*
X142329426Y-103995853D01*
X142606665Y-104051000D01*
X142889335Y-104051000D01*
X143071886Y-104014688D01*
X143309201Y-104252003D01*
X143333000Y-104281002D01*
X143448725Y-104375975D01*
X143580754Y-104446547D01*
X143724015Y-104490004D01*
X143835668Y-104501001D01*
X143835676Y-104501001D01*
X143873001Y-104504677D01*
X143910326Y-104501001D01*
X149273200Y-104501001D01*
X149667028Y-104894830D01*
X149698892Y-105055022D01*
X149771259Y-105229731D01*
X149876319Y-105386964D01*
X150010036Y-105520681D01*
X150167269Y-105625741D01*
X150341978Y-105698108D01*
X150527448Y-105735000D01*
X150716552Y-105735000D01*
X150902022Y-105698108D01*
X151076731Y-105625741D01*
X151233964Y-105520681D01*
X151367681Y-105386964D01*
X151472741Y-105229731D01*
X151545108Y-105055022D01*
X151582000Y-104869552D01*
X151582000Y-104680448D01*
X151545108Y-104494978D01*
X151472741Y-104320269D01*
X151367681Y-104163036D01*
X151233964Y-104029319D01*
X151076731Y-103924259D01*
X151018074Y-103899963D01*
X151047727Y-103887680D01*
X151282759Y-103730637D01*
X151482637Y-103530759D01*
X151638000Y-103298241D01*
X151793363Y-103530759D01*
X151993241Y-103730637D01*
X152228273Y-103887680D01*
X152489426Y-103995853D01*
X152766665Y-104051000D01*
X153049335Y-104051000D01*
X153326574Y-103995853D01*
X153587727Y-103887680D01*
X153822759Y-103730637D01*
X154022637Y-103530759D01*
X154178000Y-103298241D01*
X154333363Y-103530759D01*
X154533241Y-103730637D01*
X154768273Y-103887680D01*
X155029426Y-103995853D01*
X155306665Y-104051000D01*
X155589335Y-104051000D01*
X155866574Y-103995853D01*
X156127727Y-103887680D01*
X156362759Y-103730637D01*
X156562637Y-103530759D01*
X156719680Y-103295727D01*
X156827853Y-103034574D01*
X156883000Y-102757335D01*
X156883000Y-102474665D01*
X156827853Y-102197426D01*
X156719680Y-101936273D01*
X156562637Y-101701241D01*
X156362759Y-101501363D01*
X156127727Y-101344320D01*
X155866574Y-101236147D01*
X155589335Y-101181000D01*
X155306665Y-101181000D01*
X155029426Y-101236147D01*
X154768273Y-101344320D01*
X154533241Y-101501363D01*
X154333363Y-101701241D01*
X154178000Y-101933759D01*
X154022637Y-101701241D01*
X153822759Y-101501363D01*
X153587727Y-101344320D01*
X153326574Y-101236147D01*
X153049335Y-101181000D01*
X152766665Y-101181000D01*
X152489426Y-101236147D01*
X152228273Y-101344320D01*
X151993241Y-101501363D01*
X151793363Y-101701241D01*
X151638000Y-101933759D01*
X151482637Y-101701241D01*
X151282759Y-101501363D01*
X151047727Y-101344320D01*
X150786574Y-101236147D01*
X150509335Y-101181000D01*
X150226665Y-101181000D01*
X149949426Y-101236147D01*
X149688273Y-101344320D01*
X149453241Y-101501363D01*
X149253363Y-101701241D01*
X149098000Y-101933759D01*
X148942637Y-101701241D01*
X148742759Y-101501363D01*
X148507727Y-101344320D01*
X148246574Y-101236147D01*
X147969335Y-101181000D01*
X147686665Y-101181000D01*
X147409426Y-101236147D01*
X147148273Y-101344320D01*
X146913241Y-101501363D01*
X146713363Y-101701241D01*
X146558000Y-101933759D01*
X146402637Y-101701241D01*
X146202759Y-101501363D01*
X145967727Y-101344320D01*
X145706574Y-101236147D01*
X145429335Y-101181000D01*
X145146665Y-101181000D01*
X144869426Y-101236147D01*
X144608273Y-101344320D01*
X144373241Y-101501363D01*
X144173363Y-101701241D01*
X144018000Y-101933759D01*
X143862637Y-101701241D01*
X143662759Y-101501363D01*
X143427727Y-101344320D01*
X143166574Y-101236147D01*
X142889335Y-101181000D01*
X142606665Y-101181000D01*
X142329426Y-101236147D01*
X142068273Y-101344320D01*
X141833241Y-101501363D01*
X141633363Y-101701241D01*
X141478000Y-101933759D01*
X141322637Y-101701241D01*
X141122759Y-101501363D01*
X140887727Y-101344320D01*
X140626574Y-101236147D01*
X140349335Y-101181000D01*
X140066665Y-101181000D01*
X139789426Y-101236147D01*
X139528273Y-101344320D01*
X139293241Y-101501363D01*
X139093363Y-101701241D01*
X138938000Y-101933759D01*
X138782637Y-101701241D01*
X138582759Y-101501363D01*
X138347727Y-101344320D01*
X138086574Y-101236147D01*
X137809335Y-101181000D01*
X137526665Y-101181000D01*
X137249426Y-101236147D01*
X136988273Y-101344320D01*
X136753241Y-101501363D01*
X136553363Y-101701241D01*
X136396320Y-101936273D01*
X136391933Y-101946865D01*
X136280385Y-101760869D01*
X136091414Y-101552481D01*
X135865420Y-101384963D01*
X135611087Y-101264754D01*
X135477039Y-101224096D01*
X135255000Y-101346085D01*
X135001000Y-101346085D01*
X134778961Y-101224096D01*
X134644913Y-101264754D01*
X134390580Y-101384963D01*
X134164586Y-101552481D01*
X133975615Y-101760869D01*
X133830930Y-102002119D01*
X133736091Y-102266960D01*
X132163000Y-102266960D01*
X132163000Y-99567589D01*
X135307101Y-96423488D01*
X135546574Y-96375853D01*
X135807727Y-96267680D01*
X136042759Y-96110637D01*
X136242637Y-95910759D01*
X136398000Y-95678241D01*
X136553363Y-95910759D01*
X136753241Y-96110637D01*
X136988273Y-96267680D01*
X137249426Y-96375853D01*
X137526665Y-96431000D01*
X137809335Y-96431000D01*
X138086574Y-96375853D01*
X138347727Y-96267680D01*
X138582759Y-96110637D01*
X138782637Y-95910759D01*
X138938000Y-95678241D01*
X139093363Y-95910759D01*
X139293241Y-96110637D01*
X139528273Y-96267680D01*
X139789426Y-96375853D01*
X140066665Y-96431000D01*
X140349335Y-96431000D01*
X140626574Y-96375853D01*
X140887727Y-96267680D01*
X141122759Y-96110637D01*
X141322637Y-95910759D01*
X141478000Y-95678241D01*
X141633363Y-95910759D01*
X141833241Y-96110637D01*
X142068273Y-96267680D01*
X142329426Y-96375853D01*
X142606665Y-96431000D01*
X142889335Y-96431000D01*
X143166574Y-96375853D01*
X143427727Y-96267680D01*
X143662759Y-96110637D01*
X143862637Y-95910759D01*
X144018000Y-95678241D01*
X144173363Y-95910759D01*
X144373241Y-96110637D01*
X144608273Y-96267680D01*
X144869426Y-96375853D01*
X145146665Y-96431000D01*
X145429335Y-96431000D01*
X145706574Y-96375853D01*
X145967727Y-96267680D01*
X146202759Y-96110637D01*
X146402637Y-95910759D01*
X146558000Y-95678241D01*
X146713363Y-95910759D01*
X146913241Y-96110637D01*
X147148273Y-96267680D01*
X147409426Y-96375853D01*
X147686665Y-96431000D01*
X147969335Y-96431000D01*
X148246574Y-96375853D01*
X148507727Y-96267680D01*
X148742759Y-96110637D01*
X148942637Y-95910759D01*
X149098000Y-95678241D01*
X149253363Y-95910759D01*
X149453241Y-96110637D01*
X149688273Y-96267680D01*
X149949426Y-96375853D01*
X150226665Y-96431000D01*
X150509335Y-96431000D01*
X150786574Y-96375853D01*
X151047727Y-96267680D01*
X151282759Y-96110637D01*
X151482637Y-95910759D01*
X151638000Y-95678241D01*
X151793363Y-95910759D01*
X151993241Y-96110637D01*
X152228273Y-96267680D01*
X152489426Y-96375853D01*
X152766665Y-96431000D01*
X153049335Y-96431000D01*
X153326574Y-96375853D01*
X153587727Y-96267680D01*
X153822759Y-96110637D01*
X154021357Y-95912039D01*
X154022188Y-95920482D01*
X154058498Y-96040180D01*
X154117463Y-96150494D01*
X154196815Y-96247185D01*
X154293506Y-96326537D01*
X154403820Y-96385502D01*
X154523518Y-96421812D01*
X154648000Y-96434072D01*
X156248000Y-96434072D01*
X156372482Y-96421812D01*
X156492180Y-96385502D01*
X156602494Y-96326537D01*
X156699185Y-96247185D01*
X156778537Y-96150494D01*
X156837502Y-96040180D01*
X156873812Y-95920482D01*
X156886072Y-95796000D01*
X156886072Y-94196000D01*
X156873812Y-94071518D01*
X156837502Y-93951820D01*
X156826665Y-93931546D01*
X160855915Y-89902297D01*
X160884912Y-89878500D01*
X160979885Y-89762775D01*
X161050457Y-89630746D01*
X161093914Y-89487485D01*
X161104911Y-89375832D01*
X161104911Y-89375831D01*
X161108588Y-89338499D01*
X161104911Y-89301166D01*
X161104911Y-85460891D01*
X161155830Y-85409972D01*
X161316022Y-85378108D01*
X161490731Y-85305741D01*
X161647964Y-85200681D01*
X161781681Y-85066964D01*
X161886741Y-84909731D01*
X161959108Y-84735022D01*
X161996000Y-84549552D01*
X161996000Y-84360448D01*
X161959108Y-84174978D01*
X161886741Y-84000269D01*
X161781681Y-83843036D01*
X161647964Y-83709319D01*
X161490731Y-83604259D01*
X161316022Y-83531892D01*
X161130552Y-83495000D01*
X160941448Y-83495000D01*
X160755978Y-83531892D01*
X160654901Y-83573760D01*
X160654901Y-83097234D01*
X160658578Y-83059901D01*
X160643904Y-82910915D01*
X160600447Y-82767654D01*
X160529875Y-82635625D01*
X160458700Y-82548898D01*
X160434902Y-82519900D01*
X160405904Y-82496102D01*
X159704972Y-81795171D01*
X159700695Y-81773665D01*
X165443000Y-81773665D01*
X165443000Y-82056335D01*
X165498147Y-82333574D01*
X165606320Y-82594727D01*
X165763363Y-82829759D01*
X165963241Y-83029637D01*
X166195759Y-83185000D01*
X165963241Y-83340363D01*
X165763363Y-83540241D01*
X165606320Y-83775273D01*
X165498147Y-84036426D01*
X165443000Y-84313665D01*
X165443000Y-84596335D01*
X165498147Y-84873574D01*
X165606320Y-85134727D01*
X165763363Y-85369759D01*
X165963241Y-85569637D01*
X166195759Y-85725000D01*
X165963241Y-85880363D01*
X165763363Y-86080241D01*
X165606320Y-86315273D01*
X165498147Y-86576426D01*
X165443000Y-86853665D01*
X165443000Y-87136335D01*
X165498147Y-87413574D01*
X165606320Y-87674727D01*
X165763363Y-87909759D01*
X165963241Y-88109637D01*
X166195759Y-88265000D01*
X165963241Y-88420363D01*
X165763363Y-88620241D01*
X165606320Y-88855273D01*
X165498147Y-89116426D01*
X165443000Y-89393665D01*
X165443000Y-89676335D01*
X165498147Y-89953574D01*
X165606320Y-90214727D01*
X165763363Y-90449759D01*
X165963241Y-90649637D01*
X166198273Y-90806680D01*
X166459426Y-90914853D01*
X166736665Y-90970000D01*
X167019335Y-90970000D01*
X167296574Y-90914853D01*
X167557727Y-90806680D01*
X167792759Y-90649637D01*
X167992637Y-90449759D01*
X168149680Y-90214727D01*
X168257853Y-89953574D01*
X168313000Y-89676335D01*
X168313000Y-89393665D01*
X168257853Y-89116426D01*
X168149680Y-88855273D01*
X168069317Y-88735000D01*
X173059928Y-88735000D01*
X173059928Y-90335000D01*
X173072188Y-90459482D01*
X173108498Y-90579180D01*
X173167463Y-90689494D01*
X173246815Y-90786185D01*
X173343506Y-90865537D01*
X173453820Y-90924502D01*
X173573518Y-90960812D01*
X173698000Y-90973072D01*
X175298000Y-90973072D01*
X175422482Y-90960812D01*
X175542180Y-90924502D01*
X175652494Y-90865537D01*
X175749185Y-90786185D01*
X175828537Y-90689494D01*
X175887502Y-90579180D01*
X175923812Y-90459482D01*
X175936072Y-90335000D01*
X175936072Y-88735000D01*
X175923812Y-88610518D01*
X175887502Y-88490820D01*
X175828537Y-88380506D01*
X175749185Y-88283815D01*
X175652494Y-88204463D01*
X175542180Y-88145498D01*
X175422482Y-88109188D01*
X175414039Y-88108357D01*
X175612637Y-87909759D01*
X175769680Y-87674727D01*
X175832439Y-87523212D01*
X177173000Y-87523212D01*
X177173000Y-87746788D01*
X177216617Y-87966067D01*
X177302176Y-88172624D01*
X177426388Y-88358520D01*
X177584480Y-88516612D01*
X177686830Y-88585000D01*
X177584480Y-88653388D01*
X177426388Y-88811480D01*
X177302176Y-88997376D01*
X177216617Y-89203933D01*
X177173000Y-89423212D01*
X177173000Y-89646788D01*
X177216617Y-89866067D01*
X177302176Y-90072624D01*
X177426388Y-90258520D01*
X177584480Y-90416612D01*
X177770376Y-90540824D01*
X177976933Y-90626383D01*
X178196212Y-90670000D01*
X178419788Y-90670000D01*
X178639067Y-90626383D01*
X178845624Y-90540824D01*
X179031520Y-90416612D01*
X179189612Y-90258520D01*
X179313824Y-90072624D01*
X179399383Y-89866067D01*
X179443000Y-89646788D01*
X179443000Y-89423212D01*
X179399383Y-89203933D01*
X179313824Y-88997376D01*
X179189612Y-88811480D01*
X179031520Y-88653388D01*
X178929170Y-88585000D01*
X179031520Y-88516612D01*
X179189612Y-88358520D01*
X179313824Y-88172624D01*
X179399383Y-87966067D01*
X179443000Y-87746788D01*
X179443000Y-87523212D01*
X179399383Y-87303933D01*
X179313824Y-87097376D01*
X179189612Y-86911480D01*
X179031520Y-86753388D01*
X178845624Y-86629176D01*
X178639067Y-86543617D01*
X178419788Y-86500000D01*
X178196212Y-86500000D01*
X177976933Y-86543617D01*
X177770376Y-86629176D01*
X177584480Y-86753388D01*
X177426388Y-86911480D01*
X177302176Y-87097376D01*
X177216617Y-87303933D01*
X177173000Y-87523212D01*
X175832439Y-87523212D01*
X175877853Y-87413574D01*
X175933000Y-87136335D01*
X175933000Y-86853665D01*
X175877853Y-86576426D01*
X175769680Y-86315273D01*
X175612637Y-86080241D01*
X175412759Y-85880363D01*
X175180241Y-85725000D01*
X175412759Y-85569637D01*
X175612637Y-85369759D01*
X175769680Y-85134727D01*
X175877853Y-84873574D01*
X175933000Y-84596335D01*
X175933000Y-84313665D01*
X175877853Y-84036426D01*
X175769680Y-83775273D01*
X175612637Y-83540241D01*
X175412759Y-83340363D01*
X175177727Y-83183320D01*
X175167135Y-83178933D01*
X175353131Y-83067385D01*
X175561519Y-82878414D01*
X175729037Y-82652420D01*
X175849246Y-82398087D01*
X175889904Y-82264039D01*
X175767915Y-82042000D01*
X174625000Y-82042000D01*
X174625000Y-82062000D01*
X174371000Y-82062000D01*
X174371000Y-82042000D01*
X173228085Y-82042000D01*
X173106096Y-82264039D01*
X173146754Y-82398087D01*
X173266963Y-82652420D01*
X173434481Y-82878414D01*
X173642869Y-83067385D01*
X173828865Y-83178933D01*
X173818273Y-83183320D01*
X173583241Y-83340363D01*
X173383363Y-83540241D01*
X173226320Y-83775273D01*
X173118147Y-84036426D01*
X173063000Y-84313665D01*
X173063000Y-84596335D01*
X173118147Y-84873574D01*
X173226320Y-85134727D01*
X173383363Y-85369759D01*
X173583241Y-85569637D01*
X173815759Y-85725000D01*
X173583241Y-85880363D01*
X173383363Y-86080241D01*
X173226320Y-86315273D01*
X173118147Y-86576426D01*
X173063000Y-86853665D01*
X173063000Y-87136335D01*
X173118147Y-87413574D01*
X173226320Y-87674727D01*
X173383363Y-87909759D01*
X173581961Y-88108357D01*
X173573518Y-88109188D01*
X173453820Y-88145498D01*
X173343506Y-88204463D01*
X173246815Y-88283815D01*
X173167463Y-88380506D01*
X173108498Y-88490820D01*
X173072188Y-88610518D01*
X173059928Y-88735000D01*
X168069317Y-88735000D01*
X167992637Y-88620241D01*
X167792759Y-88420363D01*
X167560241Y-88265000D01*
X167792759Y-88109637D01*
X167992637Y-87909759D01*
X168149680Y-87674727D01*
X168257853Y-87413574D01*
X168313000Y-87136335D01*
X168313000Y-86853665D01*
X168257853Y-86576426D01*
X168149680Y-86315273D01*
X167992637Y-86080241D01*
X167792759Y-85880363D01*
X167560241Y-85725000D01*
X167792759Y-85569637D01*
X167992637Y-85369759D01*
X168149680Y-85134727D01*
X168257853Y-84873574D01*
X168313000Y-84596335D01*
X168313000Y-84313665D01*
X168257853Y-84036426D01*
X168149680Y-83775273D01*
X167992637Y-83540241D01*
X167792759Y-83340363D01*
X167560241Y-83185000D01*
X167792759Y-83029637D01*
X167992637Y-82829759D01*
X168149680Y-82594727D01*
X168257853Y-82333574D01*
X168313000Y-82056335D01*
X168313000Y-81773665D01*
X168271685Y-81565961D01*
X173106096Y-81565961D01*
X173228085Y-81788000D01*
X174371000Y-81788000D01*
X174371000Y-80644376D01*
X174625000Y-80644376D01*
X174625000Y-81788000D01*
X175767915Y-81788000D01*
X175889904Y-81565961D01*
X175849246Y-81431913D01*
X175729037Y-81177580D01*
X175561519Y-80951586D01*
X175353131Y-80762615D01*
X175111881Y-80617930D01*
X174847040Y-80523091D01*
X174625000Y-80644376D01*
X174371000Y-80644376D01*
X174148960Y-80523091D01*
X173884119Y-80617930D01*
X173642869Y-80762615D01*
X173434481Y-80951586D01*
X173266963Y-81177580D01*
X173146754Y-81431913D01*
X173106096Y-81565961D01*
X168271685Y-81565961D01*
X168257853Y-81496426D01*
X168149680Y-81235273D01*
X167992637Y-81000241D01*
X167792759Y-80800363D01*
X167557727Y-80643320D01*
X167296574Y-80535147D01*
X167019335Y-80480000D01*
X166736665Y-80480000D01*
X166459426Y-80535147D01*
X166198273Y-80643320D01*
X165963241Y-80800363D01*
X165763363Y-81000241D01*
X165606320Y-81235273D01*
X165498147Y-81496426D01*
X165443000Y-81773665D01*
X159700695Y-81773665D01*
X159673108Y-81634978D01*
X159600741Y-81460269D01*
X159495681Y-81303036D01*
X159361964Y-81169319D01*
X159204731Y-81064259D01*
X159030022Y-80991892D01*
X158844552Y-80955000D01*
X158655448Y-80955000D01*
X158469978Y-80991892D01*
X158295269Y-81064259D01*
X158138036Y-81169319D01*
X158004319Y-81303036D01*
X157899259Y-81460269D01*
X157826892Y-81634978D01*
X157790000Y-81820448D01*
X157790000Y-82009552D01*
X157826892Y-82195022D01*
X157899259Y-82369731D01*
X158004319Y-82526964D01*
X158138036Y-82660681D01*
X158295269Y-82765741D01*
X158469978Y-82838108D01*
X158630171Y-82869972D01*
X159134902Y-83374704D01*
X159134901Y-87321173D01*
X158964878Y-87354992D01*
X158790169Y-87427359D01*
X158632936Y-87532419D01*
X158499219Y-87666136D01*
X158428025Y-87772685D01*
X156181549Y-90019162D01*
X156177502Y-90005820D01*
X156118537Y-89895506D01*
X156039185Y-89798815D01*
X155942494Y-89719463D01*
X155832180Y-89660498D01*
X155712482Y-89624188D01*
X155588000Y-89611928D01*
X155188000Y-89611928D01*
X155063518Y-89624188D01*
X154943820Y-89660498D01*
X154833506Y-89719463D01*
X154753000Y-89785532D01*
X154672494Y-89719463D01*
X154562180Y-89660498D01*
X154442482Y-89624188D01*
X154318000Y-89611928D01*
X153918000Y-89611928D01*
X153793518Y-89624188D01*
X153673820Y-89660498D01*
X153563506Y-89719463D01*
X153483000Y-89785532D01*
X153402494Y-89719463D01*
X153292180Y-89660498D01*
X153172482Y-89624188D01*
X153048000Y-89611928D01*
X152648000Y-89611928D01*
X152523518Y-89624188D01*
X152403820Y-89660498D01*
X152293506Y-89719463D01*
X152213000Y-89785532D01*
X152132494Y-89719463D01*
X152022180Y-89660498D01*
X151902482Y-89624188D01*
X151778000Y-89611928D01*
X151378000Y-89611928D01*
X151253518Y-89624188D01*
X151133820Y-89660498D01*
X151023506Y-89719463D01*
X150943000Y-89785532D01*
X150862494Y-89719463D01*
X150752180Y-89660498D01*
X150632482Y-89624188D01*
X150508000Y-89611928D01*
X150108000Y-89611928D01*
X149983518Y-89624188D01*
X149863820Y-89660498D01*
X149753506Y-89719463D01*
X149673000Y-89785532D01*
X149592494Y-89719463D01*
X149482180Y-89660498D01*
X149362482Y-89624188D01*
X149238000Y-89611928D01*
X148838000Y-89611928D01*
X148713518Y-89624188D01*
X148593820Y-89660498D01*
X148483506Y-89719463D01*
X148403000Y-89785532D01*
X148322494Y-89719463D01*
X148212180Y-89660498D01*
X148092482Y-89624188D01*
X147968000Y-89611928D01*
X147568000Y-89611928D01*
X147443518Y-89624188D01*
X147323820Y-89660498D01*
X147213506Y-89719463D01*
X147133000Y-89785532D01*
X147052494Y-89719463D01*
X146942180Y-89660498D01*
X146822482Y-89624188D01*
X146698000Y-89611928D01*
X146298000Y-89611928D01*
X146173518Y-89624188D01*
X146053820Y-89660498D01*
X145943506Y-89719463D01*
X145863000Y-89785532D01*
X145782494Y-89719463D01*
X145672180Y-89660498D01*
X145552482Y-89624188D01*
X145428000Y-89611928D01*
X145028000Y-89611928D01*
X144903518Y-89624188D01*
X144783820Y-89660498D01*
X144673506Y-89719463D01*
X144593000Y-89785532D01*
X144512494Y-89719463D01*
X144402180Y-89660498D01*
X144282482Y-89624188D01*
X144158000Y-89611928D01*
X143758000Y-89611928D01*
X143633518Y-89624188D01*
X143513820Y-89660498D01*
X143403506Y-89719463D01*
X143323000Y-89785532D01*
X143242494Y-89719463D01*
X143132180Y-89660498D01*
X143012482Y-89624188D01*
X142888000Y-89611928D01*
X142488000Y-89611928D01*
X142363518Y-89624188D01*
X142243820Y-89660498D01*
X142133506Y-89719463D01*
X142053000Y-89785532D01*
X141972494Y-89719463D01*
X141862180Y-89660498D01*
X141742482Y-89624188D01*
X141618000Y-89611928D01*
X141218000Y-89611928D01*
X141093518Y-89624188D01*
X140973820Y-89660498D01*
X140863506Y-89719463D01*
X140783000Y-89785532D01*
X140702494Y-89719463D01*
X140592180Y-89660498D01*
X140472482Y-89624188D01*
X140348000Y-89611928D01*
X139948000Y-89611928D01*
X139823518Y-89624188D01*
X139703820Y-89660498D01*
X139593506Y-89719463D01*
X139513000Y-89785532D01*
X139432494Y-89719463D01*
X139322180Y-89660498D01*
X139202482Y-89624188D01*
X139078000Y-89611928D01*
X138678000Y-89611928D01*
X138553518Y-89624188D01*
X138433820Y-89660498D01*
X138323506Y-89719463D01*
X138226815Y-89798815D01*
X138147463Y-89895506D01*
X138088498Y-90005820D01*
X138052188Y-90125518D01*
X138039928Y-90250000D01*
X138039928Y-92650000D01*
X138052188Y-92774482D01*
X138088498Y-92894180D01*
X138147463Y-93004494D01*
X138226815Y-93101185D01*
X138323506Y-93180537D01*
X138398020Y-93220366D01*
X138368725Y-93236025D01*
X138253000Y-93330998D01*
X138229202Y-93359996D01*
X137991886Y-93597312D01*
X137809335Y-93561000D01*
X137526665Y-93561000D01*
X137249426Y-93616147D01*
X136988273Y-93724320D01*
X136753241Y-93881363D01*
X136553363Y-94081241D01*
X136398000Y-94313759D01*
X136242637Y-94081241D01*
X136042759Y-93881363D01*
X135807727Y-93724320D01*
X135546574Y-93616147D01*
X135269335Y-93561000D01*
X134986665Y-93561000D01*
X134709426Y-93616147D01*
X134448273Y-93724320D01*
X134213241Y-93881363D01*
X134013363Y-94081241D01*
X133856320Y-94316273D01*
X133748147Y-94577426D01*
X133693000Y-94854665D01*
X133693000Y-95137335D01*
X133735420Y-95350591D01*
X130599336Y-98486675D01*
X130563657Y-98515956D01*
X130446815Y-98658328D01*
X130440555Y-98670040D01*
X130359994Y-98820760D01*
X130306529Y-98997009D01*
X130288476Y-99180300D01*
X130293001Y-99226242D01*
X130293000Y-105872000D01*
X126062396Y-105872000D01*
X125882759Y-105692363D01*
X125647727Y-105535320D01*
X125386574Y-105427147D01*
X125109335Y-105372000D01*
X124826665Y-105372000D01*
X124549426Y-105427147D01*
X124288273Y-105535320D01*
X124053241Y-105692363D01*
X123853363Y-105892241D01*
X123737800Y-106065194D01*
X123737800Y-100977489D01*
X124107587Y-100607702D01*
X127964903Y-100607702D01*
X128036486Y-100851671D01*
X128291996Y-100972571D01*
X128566184Y-101041300D01*
X128848512Y-101055217D01*
X129128130Y-101013787D01*
X129394292Y-100918603D01*
X129519514Y-100851671D01*
X129591097Y-100607702D01*
X128778000Y-99794605D01*
X127964903Y-100607702D01*
X124107587Y-100607702D01*
X125029777Y-99685512D01*
X127337783Y-99685512D01*
X127379213Y-99965130D01*
X127474397Y-100231292D01*
X127541329Y-100356514D01*
X127785298Y-100428097D01*
X128598395Y-99615000D01*
X128957605Y-99615000D01*
X129770702Y-100428097D01*
X130014671Y-100356514D01*
X130135571Y-100101004D01*
X130204300Y-99826816D01*
X130218217Y-99544488D01*
X130176787Y-99264870D01*
X130081603Y-98998708D01*
X130014671Y-98873486D01*
X129770702Y-98801903D01*
X128957605Y-99615000D01*
X128598395Y-99615000D01*
X127785298Y-98801903D01*
X127541329Y-98873486D01*
X127420429Y-99128996D01*
X127351700Y-99403184D01*
X127337783Y-99685512D01*
X125029777Y-99685512D01*
X126092991Y-98622298D01*
X127964903Y-98622298D01*
X128778000Y-99435395D01*
X129591097Y-98622298D01*
X129519514Y-98378329D01*
X129264004Y-98257429D01*
X128989816Y-98188700D01*
X128707488Y-98174783D01*
X128427870Y-98216213D01*
X128161708Y-98311397D01*
X128036486Y-98378329D01*
X127964903Y-98622298D01*
X126092991Y-98622298D01*
X128665289Y-96050000D01*
X128919335Y-96050000D01*
X129196574Y-95994853D01*
X129457727Y-95886680D01*
X129692759Y-95729637D01*
X129892637Y-95529759D01*
X130049680Y-95294727D01*
X130157853Y-95033574D01*
X130213000Y-94756335D01*
X130213000Y-94473665D01*
X130157853Y-94196426D01*
X130049680Y-93935273D01*
X129892637Y-93700241D01*
X129713000Y-93520604D01*
X129713000Y-89922289D01*
X129935289Y-89700000D01*
X130189335Y-89700000D01*
X130466574Y-89644853D01*
X130727727Y-89536680D01*
X130962759Y-89379637D01*
X131142396Y-89200000D01*
X134033604Y-89200000D01*
X134213241Y-89379637D01*
X134448273Y-89536680D01*
X134709426Y-89644853D01*
X134986665Y-89700000D01*
X135269335Y-89700000D01*
X135546574Y-89644853D01*
X135807727Y-89536680D01*
X136042759Y-89379637D01*
X136242637Y-89179759D01*
X136399680Y-88944727D01*
X136507853Y-88683574D01*
X136563000Y-88406335D01*
X136563000Y-88123665D01*
X136507853Y-87846426D01*
X136399680Y-87585273D01*
X136242637Y-87350241D01*
X136042759Y-87150363D01*
X135807727Y-86993320D01*
X135546574Y-86885147D01*
X135269335Y-86830000D01*
X134986665Y-86830000D01*
X134709426Y-86885147D01*
X134448273Y-86993320D01*
X134213241Y-87150363D01*
X134033604Y-87330000D01*
X131142396Y-87330000D01*
X130962759Y-87150363D01*
X130727727Y-86993320D01*
X130466574Y-86885147D01*
X130189335Y-86830000D01*
X129906665Y-86830000D01*
X129629426Y-86885147D01*
X129368273Y-86993320D01*
X129133241Y-87150363D01*
X128933363Y-87350241D01*
X128776320Y-87585273D01*
X128668147Y-87846426D01*
X128613000Y-88123665D01*
X128613000Y-88377711D01*
X128149336Y-88841375D01*
X128113657Y-88870656D01*
X127996815Y-89013028D01*
X127922480Y-89152100D01*
X127909994Y-89175460D01*
X127856529Y-89351709D01*
X127838476Y-89535000D01*
X127843001Y-89580942D01*
X127843000Y-93520604D01*
X127663363Y-93700241D01*
X127506320Y-93935273D01*
X127398147Y-94196426D01*
X127343000Y-94473665D01*
X127343000Y-94727711D01*
X122174136Y-99896575D01*
X122138457Y-99925856D01*
X122021615Y-100068228D01*
X122004096Y-100101004D01*
X121934794Y-100230660D01*
X121881329Y-100406909D01*
X121863276Y-100590200D01*
X121867801Y-100636142D01*
X121867800Y-117510468D01*
X121863276Y-117556400D01*
X121872234Y-117647354D01*
X121881329Y-117739691D01*
X121934793Y-117915939D01*
X122021614Y-118078371D01*
X122138456Y-118220744D01*
X122174141Y-118250030D01*
X129579110Y-125655000D01*
X111708000Y-125655000D01*
X111708000Y-108975000D01*
X114279928Y-108975000D01*
X114279928Y-110375000D01*
X114292188Y-110499482D01*
X114328498Y-110619180D01*
X114387463Y-110729494D01*
X114466815Y-110826185D01*
X114563506Y-110905537D01*
X114673820Y-110964502D01*
X114793518Y-111000812D01*
X114918000Y-111013072D01*
X118418000Y-111013072D01*
X118542482Y-111000812D01*
X118662180Y-110964502D01*
X118772494Y-110905537D01*
X118869185Y-110826185D01*
X118948537Y-110729494D01*
X119007502Y-110619180D01*
X119043812Y-110499482D01*
X119056072Y-110375000D01*
X119056072Y-108975000D01*
X119043812Y-108850518D01*
X119007502Y-108730820D01*
X118948537Y-108620506D01*
X118869185Y-108523815D01*
X118772494Y-108444463D01*
X118662180Y-108385498D01*
X118542482Y-108349188D01*
X118418000Y-108336928D01*
X114918000Y-108336928D01*
X114793518Y-108349188D01*
X114673820Y-108385498D01*
X114563506Y-108444463D01*
X114466815Y-108523815D01*
X114387463Y-108620506D01*
X114328498Y-108730820D01*
X114292188Y-108850518D01*
X114279928Y-108975000D01*
X111708000Y-108975000D01*
X111708000Y-106525000D01*
X112129928Y-106525000D01*
X112142188Y-106649482D01*
X112178498Y-106769180D01*
X112237463Y-106879494D01*
X112316815Y-106976185D01*
X112413506Y-107055537D01*
X112523820Y-107114502D01*
X112643518Y-107150812D01*
X112768000Y-107163072D01*
X113332250Y-107160000D01*
X113491000Y-107001250D01*
X113491000Y-104902000D01*
X113745000Y-104902000D01*
X113745000Y-107001250D01*
X113903750Y-107160000D01*
X114468000Y-107163072D01*
X114592482Y-107150812D01*
X114712180Y-107114502D01*
X114822494Y-107055537D01*
X114919185Y-106976185D01*
X114998537Y-106879494D01*
X115057502Y-106769180D01*
X115093812Y-106649482D01*
X115106072Y-106525000D01*
X115103000Y-105060750D01*
X114944250Y-104902000D01*
X113745000Y-104902000D01*
X113491000Y-104902000D01*
X112291750Y-104902000D01*
X112133000Y-105060750D01*
X112129928Y-106525000D01*
X111708000Y-106525000D01*
X111708000Y-103025000D01*
X112129928Y-103025000D01*
X112133000Y-104489250D01*
X112291750Y-104648000D01*
X113491000Y-104648000D01*
X113491000Y-102548750D01*
X113745000Y-102548750D01*
X113745000Y-104648000D01*
X114944250Y-104648000D01*
X115103000Y-104489250D01*
X115106072Y-103025000D01*
X115093812Y-102900518D01*
X115057502Y-102780820D01*
X115054392Y-102775000D01*
X118179928Y-102775000D01*
X118179928Y-106775000D01*
X118192188Y-106899482D01*
X118228498Y-107019180D01*
X118287463Y-107129494D01*
X118366815Y-107226185D01*
X118463506Y-107305537D01*
X118573820Y-107364502D01*
X118693518Y-107400812D01*
X118818000Y-107413072D01*
X120418000Y-107413072D01*
X120542482Y-107400812D01*
X120662180Y-107364502D01*
X120772494Y-107305537D01*
X120869185Y-107226185D01*
X120948537Y-107129494D01*
X121007502Y-107019180D01*
X121043812Y-106899482D01*
X121056072Y-106775000D01*
X121056072Y-102775000D01*
X121043812Y-102650518D01*
X121007502Y-102530820D01*
X120948537Y-102420506D01*
X120869185Y-102323815D01*
X120772494Y-102244463D01*
X120662180Y-102185498D01*
X120542482Y-102149188D01*
X120418000Y-102136928D01*
X118818000Y-102136928D01*
X118693518Y-102149188D01*
X118573820Y-102185498D01*
X118463506Y-102244463D01*
X118366815Y-102323815D01*
X118287463Y-102420506D01*
X118228498Y-102530820D01*
X118192188Y-102650518D01*
X118179928Y-102775000D01*
X115054392Y-102775000D01*
X114998537Y-102670506D01*
X114919185Y-102573815D01*
X114822494Y-102494463D01*
X114712180Y-102435498D01*
X114592482Y-102399188D01*
X114468000Y-102386928D01*
X113903750Y-102390000D01*
X113745000Y-102548750D01*
X113491000Y-102548750D01*
X113332250Y-102390000D01*
X112768000Y-102386928D01*
X112643518Y-102399188D01*
X112523820Y-102435498D01*
X112413506Y-102494463D01*
X112316815Y-102573815D01*
X112237463Y-102670506D01*
X112178498Y-102780820D01*
X112142188Y-102900518D01*
X112129928Y-103025000D01*
X111708000Y-103025000D01*
X111708000Y-96117541D01*
X121159418Y-96011992D01*
X121182776Y-96009560D01*
X121206601Y-96002333D01*
X121228557Y-95990597D01*
X121247803Y-95974803D01*
X122517803Y-94704803D01*
X122533597Y-94685557D01*
X122545333Y-94663601D01*
X122552560Y-94639776D01*
X122555000Y-94615000D01*
X122555000Y-81915000D01*
X122552560Y-81890224D01*
X122545333Y-81866399D01*
X122533597Y-81844443D01*
X122517803Y-81825197D01*
X121247803Y-80555197D01*
X121228557Y-80539403D01*
X121206601Y-80527667D01*
X121182776Y-80520440D01*
X121158000Y-80518000D01*
X111708000Y-80518000D01*
X111708000Y-80503665D01*
X128613000Y-80503665D01*
X128613000Y-80786335D01*
X128668147Y-81063574D01*
X128776320Y-81324727D01*
X128933363Y-81559759D01*
X129133241Y-81759637D01*
X129368273Y-81916680D01*
X129629426Y-82024853D01*
X129906665Y-82080000D01*
X130189335Y-82080000D01*
X130466574Y-82024853D01*
X130727727Y-81916680D01*
X130962759Y-81759637D01*
X131162637Y-81559759D01*
X131319680Y-81324727D01*
X131427853Y-81063574D01*
X131483000Y-80786335D01*
X131483000Y-80503665D01*
X133693000Y-80503665D01*
X133693000Y-80786335D01*
X133748147Y-81063574D01*
X133856320Y-81324727D01*
X134013363Y-81559759D01*
X134213241Y-81759637D01*
X134448273Y-81916680D01*
X134709426Y-82024853D01*
X134986665Y-82080000D01*
X135269335Y-82080000D01*
X135546574Y-82024853D01*
X135807727Y-81916680D01*
X136042759Y-81759637D01*
X136242637Y-81559759D01*
X136399680Y-81324727D01*
X136507853Y-81063574D01*
X136563000Y-80786335D01*
X136563000Y-80503665D01*
X136507853Y-80226426D01*
X136399680Y-79965273D01*
X136242637Y-79730241D01*
X136042759Y-79530363D01*
X135807727Y-79373320D01*
X135546574Y-79265147D01*
X135269335Y-79210000D01*
X134986665Y-79210000D01*
X134709426Y-79265147D01*
X134448273Y-79373320D01*
X134213241Y-79530363D01*
X134013363Y-79730241D01*
X133856320Y-79965273D01*
X133748147Y-80226426D01*
X133693000Y-80503665D01*
X131483000Y-80503665D01*
X131427853Y-80226426D01*
X131319680Y-79965273D01*
X131162637Y-79730241D01*
X130962759Y-79530363D01*
X130727727Y-79373320D01*
X130466574Y-79265147D01*
X130189335Y-79210000D01*
X129906665Y-79210000D01*
X129629426Y-79265147D01*
X129368273Y-79373320D01*
X129133241Y-79530363D01*
X128933363Y-79730241D01*
X128776320Y-79965273D01*
X128668147Y-80226426D01*
X128613000Y-80503665D01*
X111708000Y-80503665D01*
X111708000Y-75338982D01*
X128295400Y-75338982D01*
X128295400Y-75791019D01*
X128317084Y-76011177D01*
X128402775Y-76293664D01*
X128541931Y-76554006D01*
X128729203Y-76782197D01*
X128957395Y-76969469D01*
X129217737Y-77108625D01*
X129500224Y-77194316D01*
X129794000Y-77223251D01*
X130087777Y-77194316D01*
X130370264Y-77108625D01*
X130630606Y-76969469D01*
X130858797Y-76782197D01*
X131046069Y-76554006D01*
X131064000Y-76520459D01*
X131081931Y-76554006D01*
X131269203Y-76782197D01*
X131497395Y-76969469D01*
X131757737Y-77108625D01*
X132040224Y-77194316D01*
X132334000Y-77223251D01*
X132627777Y-77194316D01*
X132910264Y-77108625D01*
X133170606Y-76969469D01*
X133398797Y-76782197D01*
X133586069Y-76554006D01*
X133604000Y-76520459D01*
X133621931Y-76554006D01*
X133809203Y-76782197D01*
X134037395Y-76969469D01*
X134297737Y-77108625D01*
X134580224Y-77194316D01*
X134874000Y-77223251D01*
X135167777Y-77194316D01*
X135450264Y-77108625D01*
X135710606Y-76969469D01*
X135938797Y-76782197D01*
X136126069Y-76554006D01*
X136147424Y-76514053D01*
X136295514Y-76716729D01*
X136511965Y-76915733D01*
X136763081Y-77068686D01*
X137039211Y-77169709D01*
X137054974Y-77172358D01*
X137287000Y-77051217D01*
X137287000Y-75692000D01*
X137267000Y-75692000D01*
X137267000Y-75438000D01*
X137287000Y-75438000D01*
X137287000Y-74078783D01*
X137541000Y-74078783D01*
X137541000Y-75438000D01*
X137561000Y-75438000D01*
X137561000Y-75692000D01*
X137541000Y-75692000D01*
X137541000Y-77051217D01*
X137773026Y-77172358D01*
X137788789Y-77169709D01*
X138064919Y-77068686D01*
X138316035Y-76915733D01*
X138532486Y-76716729D01*
X138680576Y-76514053D01*
X138701931Y-76554006D01*
X138889203Y-76782197D01*
X139117395Y-76969469D01*
X139377737Y-77108625D01*
X139660224Y-77194316D01*
X139954000Y-77223251D01*
X140247777Y-77194316D01*
X140530264Y-77108625D01*
X140790606Y-76969469D01*
X141018797Y-76782197D01*
X141206069Y-76554006D01*
X141224000Y-76520459D01*
X141241931Y-76554006D01*
X141429203Y-76782197D01*
X141657395Y-76969469D01*
X141917737Y-77108625D01*
X142200224Y-77194316D01*
X142494000Y-77223251D01*
X142787777Y-77194316D01*
X143070264Y-77108625D01*
X143330606Y-76969469D01*
X143558797Y-76782197D01*
X143746069Y-76554006D01*
X143764000Y-76520459D01*
X143781931Y-76554006D01*
X143969203Y-76782197D01*
X144197395Y-76969469D01*
X144457737Y-77108625D01*
X144740224Y-77194316D01*
X145034000Y-77223251D01*
X145327777Y-77194316D01*
X145610264Y-77108625D01*
X145870606Y-76969469D01*
X146098797Y-76782197D01*
X146286069Y-76554006D01*
X146304000Y-76520459D01*
X146321931Y-76554006D01*
X146509203Y-76782197D01*
X146737395Y-76969469D01*
X146997737Y-77108625D01*
X147280224Y-77194316D01*
X147574000Y-77223251D01*
X147867777Y-77194316D01*
X148150264Y-77108625D01*
X148410606Y-76969469D01*
X148638797Y-76782197D01*
X148826069Y-76554006D01*
X148844000Y-76520459D01*
X148861931Y-76554006D01*
X149049203Y-76782197D01*
X149277395Y-76969469D01*
X149537737Y-77108625D01*
X149688761Y-77154437D01*
X147527258Y-79315941D01*
X147443518Y-79324188D01*
X147323820Y-79360498D01*
X147213506Y-79419463D01*
X147133000Y-79485532D01*
X147052494Y-79419463D01*
X146942180Y-79360498D01*
X146822482Y-79324188D01*
X146698000Y-79311928D01*
X146298000Y-79311928D01*
X146173518Y-79324188D01*
X146053820Y-79360498D01*
X145943506Y-79419463D01*
X145863000Y-79485532D01*
X145782494Y-79419463D01*
X145672180Y-79360498D01*
X145552482Y-79324188D01*
X145428000Y-79311928D01*
X145028000Y-79311928D01*
X144903518Y-79324188D01*
X144783820Y-79360498D01*
X144673506Y-79419463D01*
X144593000Y-79485532D01*
X144512494Y-79419463D01*
X144402180Y-79360498D01*
X144282482Y-79324188D01*
X144158000Y-79311928D01*
X143758000Y-79311928D01*
X143633518Y-79324188D01*
X143513820Y-79360498D01*
X143403506Y-79419463D01*
X143323000Y-79485532D01*
X143242494Y-79419463D01*
X143132180Y-79360498D01*
X143012482Y-79324188D01*
X142888000Y-79311928D01*
X142488000Y-79311928D01*
X142363518Y-79324188D01*
X142243820Y-79360498D01*
X142133506Y-79419463D01*
X142053000Y-79485532D01*
X141972494Y-79419463D01*
X141862180Y-79360498D01*
X141742482Y-79324188D01*
X141618000Y-79311928D01*
X141218000Y-79311928D01*
X141093518Y-79324188D01*
X140973820Y-79360498D01*
X140863506Y-79419463D01*
X140783000Y-79485532D01*
X140702494Y-79419463D01*
X140592180Y-79360498D01*
X140472482Y-79324188D01*
X140348000Y-79311928D01*
X139948000Y-79311928D01*
X139823518Y-79324188D01*
X139703820Y-79360498D01*
X139593506Y-79419463D01*
X139513000Y-79485532D01*
X139432494Y-79419463D01*
X139322180Y-79360498D01*
X139202482Y-79324188D01*
X139078000Y-79311928D01*
X138678000Y-79311928D01*
X138553518Y-79324188D01*
X138433820Y-79360498D01*
X138323506Y-79419463D01*
X138226815Y-79498815D01*
X138147463Y-79595506D01*
X138088498Y-79705820D01*
X138052188Y-79825518D01*
X138039928Y-79950000D01*
X138039928Y-82350000D01*
X138052188Y-82474482D01*
X138088498Y-82594180D01*
X138147463Y-82704494D01*
X138226815Y-82801185D01*
X138323506Y-82880537D01*
X138433820Y-82939502D01*
X138553518Y-82975812D01*
X138678000Y-82988072D01*
X139078000Y-82988072D01*
X139202482Y-82975812D01*
X139322180Y-82939502D01*
X139432494Y-82880537D01*
X139513000Y-82814468D01*
X139593506Y-82880537D01*
X139703820Y-82939502D01*
X139823518Y-82975812D01*
X139948000Y-82988072D01*
X140348000Y-82988072D01*
X140472482Y-82975812D01*
X140592180Y-82939502D01*
X140702494Y-82880537D01*
X140783000Y-82814468D01*
X140863506Y-82880537D01*
X140973820Y-82939502D01*
X141093518Y-82975812D01*
X141218000Y-82988072D01*
X141618000Y-82988072D01*
X141742482Y-82975812D01*
X141862180Y-82939502D01*
X141972494Y-82880537D01*
X142053000Y-82814468D01*
X142133506Y-82880537D01*
X142243820Y-82939502D01*
X142363518Y-82975812D01*
X142488000Y-82988072D01*
X142888000Y-82988072D01*
X143012482Y-82975812D01*
X143132180Y-82939502D01*
X143242494Y-82880537D01*
X143323000Y-82814468D01*
X143403506Y-82880537D01*
X143513820Y-82939502D01*
X143633518Y-82975812D01*
X143758000Y-82988072D01*
X144158000Y-82988072D01*
X144282482Y-82975812D01*
X144402180Y-82939502D01*
X144512494Y-82880537D01*
X144593000Y-82814468D01*
X144673506Y-82880537D01*
X144783820Y-82939502D01*
X144903518Y-82975812D01*
X145028000Y-82988072D01*
X145428000Y-82988072D01*
X145552482Y-82975812D01*
X145672180Y-82939502D01*
X145782494Y-82880537D01*
X145863000Y-82814468D01*
X145943506Y-82880537D01*
X146053820Y-82939502D01*
X146173518Y-82975812D01*
X146298000Y-82988072D01*
X146698000Y-82988072D01*
X146822482Y-82975812D01*
X146942180Y-82939502D01*
X147052494Y-82880537D01*
X147133000Y-82814468D01*
X147213506Y-82880537D01*
X147323820Y-82939502D01*
X147443518Y-82975812D01*
X147568000Y-82988072D01*
X147968000Y-82988072D01*
X148092482Y-82975812D01*
X148212180Y-82939502D01*
X148322494Y-82880537D01*
X148403000Y-82814468D01*
X148483506Y-82880537D01*
X148593820Y-82939502D01*
X148713518Y-82975812D01*
X148838000Y-82988072D01*
X149238000Y-82988072D01*
X149362482Y-82975812D01*
X149482180Y-82939502D01*
X149592494Y-82880537D01*
X149673000Y-82814468D01*
X149753506Y-82880537D01*
X149863820Y-82939502D01*
X149983518Y-82975812D01*
X150108000Y-82988072D01*
X150508000Y-82988072D01*
X150632482Y-82975812D01*
X150752180Y-82939502D01*
X150862494Y-82880537D01*
X150943000Y-82814468D01*
X151023506Y-82880537D01*
X151133820Y-82939502D01*
X151253518Y-82975812D01*
X151378000Y-82988072D01*
X151778000Y-82988072D01*
X151902482Y-82975812D01*
X152022180Y-82939502D01*
X152132494Y-82880537D01*
X152213000Y-82814468D01*
X152293506Y-82880537D01*
X152403820Y-82939502D01*
X152523518Y-82975812D01*
X152648000Y-82988072D01*
X153048000Y-82988072D01*
X153172482Y-82975812D01*
X153292180Y-82939502D01*
X153402494Y-82880537D01*
X153483000Y-82814468D01*
X153563506Y-82880537D01*
X153673820Y-82939502D01*
X153793518Y-82975812D01*
X153918000Y-82988072D01*
X154318000Y-82988072D01*
X154442482Y-82975812D01*
X154562180Y-82939502D01*
X154672494Y-82880537D01*
X154753315Y-82814209D01*
X154827976Y-82876800D01*
X154937667Y-82936915D01*
X155056979Y-82974475D01*
X155156250Y-82985000D01*
X155315000Y-82826250D01*
X155315000Y-81277000D01*
X155461000Y-81277000D01*
X155461000Y-82826250D01*
X155619750Y-82985000D01*
X155719021Y-82974475D01*
X155838333Y-82936915D01*
X155948024Y-82876800D01*
X156043880Y-82796441D01*
X156122217Y-82698925D01*
X156180024Y-82588000D01*
X156215080Y-82467928D01*
X156226037Y-82343325D01*
X156223000Y-81435750D01*
X156064250Y-81277000D01*
X155461000Y-81277000D01*
X155315000Y-81277000D01*
X155241000Y-81277000D01*
X155241000Y-81023000D01*
X155315000Y-81023000D01*
X155315000Y-81003000D01*
X155461000Y-81003000D01*
X155461000Y-81023000D01*
X156064250Y-81023000D01*
X156223000Y-80864250D01*
X156225440Y-80135000D01*
X174818199Y-80135000D01*
X181358000Y-86674802D01*
X181358001Y-93557928D01*
X181318000Y-93557928D01*
X181193518Y-93570188D01*
X181073820Y-93606498D01*
X180963506Y-93665463D01*
X180866815Y-93744815D01*
X180787463Y-93841506D01*
X180728498Y-93951820D01*
X180692188Y-94071518D01*
X180691357Y-94079961D01*
X180492759Y-93881363D01*
X180257727Y-93724320D01*
X179996574Y-93616147D01*
X179719335Y-93561000D01*
X179436665Y-93561000D01*
X179159426Y-93616147D01*
X178898273Y-93724320D01*
X178663241Y-93881363D01*
X178463363Y-94081241D01*
X178308000Y-94313759D01*
X178152637Y-94081241D01*
X177952759Y-93881363D01*
X177717727Y-93724320D01*
X177456574Y-93616147D01*
X177179335Y-93561000D01*
X176896665Y-93561000D01*
X176619426Y-93616147D01*
X176358273Y-93724320D01*
X176123241Y-93881363D01*
X175923363Y-94081241D01*
X175768000Y-94313759D01*
X175612637Y-94081241D01*
X175412759Y-93881363D01*
X175177727Y-93724320D01*
X174916574Y-93616147D01*
X174639335Y-93561000D01*
X174356665Y-93561000D01*
X174079426Y-93616147D01*
X173818273Y-93724320D01*
X173583241Y-93881363D01*
X173383363Y-94081241D01*
X173228000Y-94313759D01*
X173072637Y-94081241D01*
X172872759Y-93881363D01*
X172637727Y-93724320D01*
X172376574Y-93616147D01*
X172099335Y-93561000D01*
X171816665Y-93561000D01*
X171539426Y-93616147D01*
X171278273Y-93724320D01*
X171043241Y-93881363D01*
X170843363Y-94081241D01*
X170688000Y-94313759D01*
X170532637Y-94081241D01*
X170332759Y-93881363D01*
X170097727Y-93724320D01*
X169836574Y-93616147D01*
X169559335Y-93561000D01*
X169276665Y-93561000D01*
X168999426Y-93616147D01*
X168738273Y-93724320D01*
X168503241Y-93881363D01*
X168303363Y-94081241D01*
X168146320Y-94316273D01*
X168141933Y-94326865D01*
X168030385Y-94140869D01*
X167841414Y-93932481D01*
X167615420Y-93764963D01*
X167361087Y-93644754D01*
X167227039Y-93604096D01*
X167005000Y-93726085D01*
X167005000Y-94869000D01*
X167025000Y-94869000D01*
X167025000Y-95123000D01*
X167005000Y-95123000D01*
X167005000Y-96265915D01*
X167227039Y-96387904D01*
X167361087Y-96347246D01*
X167615420Y-96227037D01*
X167841414Y-96059519D01*
X168030385Y-95851131D01*
X168141933Y-95665135D01*
X168146320Y-95675727D01*
X168303363Y-95910759D01*
X168503241Y-96110637D01*
X168738273Y-96267680D01*
X168999426Y-96375853D01*
X169276665Y-96431000D01*
X169559335Y-96431000D01*
X169741886Y-96394688D01*
X171779238Y-98432040D01*
X171803036Y-98461038D01*
X171832034Y-98484836D01*
X171918760Y-98556011D01*
X172042773Y-98622298D01*
X172050790Y-98626583D01*
X172194051Y-98670040D01*
X172305704Y-98681037D01*
X172305714Y-98681037D01*
X172343037Y-98684713D01*
X172380359Y-98681037D01*
X183886283Y-98681037D01*
X183923605Y-98684713D01*
X183960927Y-98681037D01*
X183960938Y-98681037D01*
X184072591Y-98670040D01*
X184215852Y-98626583D01*
X184347881Y-98556011D01*
X184463606Y-98461038D01*
X184487409Y-98432035D01*
X185554044Y-97365400D01*
X185583037Y-97341606D01*
X185606831Y-97312613D01*
X185606836Y-97312608D01*
X185678011Y-97225882D01*
X185748583Y-97093852D01*
X185792039Y-96950591D01*
X185806713Y-96801605D01*
X185803036Y-96764272D01*
X185803036Y-93094117D01*
X187573000Y-93094117D01*
X187573000Y-93435883D01*
X187639675Y-93771081D01*
X187770463Y-94086831D01*
X187960337Y-94370998D01*
X188202002Y-94612663D01*
X188486169Y-94802537D01*
X188801919Y-94933325D01*
X189137117Y-95000000D01*
X189478883Y-95000000D01*
X189814081Y-94933325D01*
X190129831Y-94802537D01*
X190413998Y-94612663D01*
X190655663Y-94370998D01*
X190845537Y-94086831D01*
X190976325Y-93771081D01*
X191043000Y-93435883D01*
X191043000Y-93094117D01*
X190976325Y-92758919D01*
X190845537Y-92443169D01*
X190655663Y-92159002D01*
X190413998Y-91917337D01*
X190129831Y-91727463D01*
X189814081Y-91596675D01*
X189478883Y-91530000D01*
X189137117Y-91530000D01*
X188801919Y-91596675D01*
X188486169Y-91727463D01*
X188202002Y-91917337D01*
X187960337Y-92159002D01*
X187770463Y-92443169D01*
X187639675Y-92758919D01*
X187573000Y-93094117D01*
X185803036Y-93094117D01*
X185803036Y-89471712D01*
X191680893Y-89471712D01*
X191788726Y-89746338D01*
X192095384Y-89897216D01*
X192425585Y-89985369D01*
X192766639Y-90007409D01*
X193105439Y-89962489D01*
X193428966Y-89852336D01*
X193627274Y-89746338D01*
X193735107Y-89471712D01*
X192708000Y-88444605D01*
X191680893Y-89471712D01*
X185803036Y-89471712D01*
X185803037Y-88323639D01*
X190965591Y-88323639D01*
X191010511Y-88662439D01*
X191120664Y-88985966D01*
X191226662Y-89184274D01*
X191501288Y-89292107D01*
X192528395Y-88265000D01*
X192887605Y-88265000D01*
X193914712Y-89292107D01*
X194189338Y-89184274D01*
X194340216Y-88877616D01*
X194428369Y-88547415D01*
X194450409Y-88206361D01*
X194405489Y-87867561D01*
X194295336Y-87544034D01*
X194189338Y-87345726D01*
X193914712Y-87237893D01*
X192887605Y-88265000D01*
X192528395Y-88265000D01*
X191501288Y-87237893D01*
X191226662Y-87345726D01*
X191075784Y-87652384D01*
X190987631Y-87982585D01*
X190965591Y-88323639D01*
X185803037Y-88323639D01*
X185803037Y-87058288D01*
X191680893Y-87058288D01*
X192708000Y-88085395D01*
X193735107Y-87058288D01*
X193627274Y-86783662D01*
X193320616Y-86632784D01*
X192990415Y-86544631D01*
X192649361Y-86522591D01*
X192310561Y-86567511D01*
X191987034Y-86677664D01*
X191788726Y-86783662D01*
X191680893Y-87058288D01*
X185803037Y-87058288D01*
X185803038Y-86140317D01*
X185806714Y-86102994D01*
X185803038Y-86065671D01*
X185803038Y-86065662D01*
X185792041Y-85954009D01*
X185757706Y-85840819D01*
X185748584Y-85810747D01*
X185678012Y-85678717D01*
X185606837Y-85591991D01*
X185606833Y-85591987D01*
X185583039Y-85562994D01*
X185554047Y-85539201D01*
X183108965Y-83094117D01*
X187573000Y-83094117D01*
X187573000Y-83435883D01*
X187639675Y-83771081D01*
X187770463Y-84086831D01*
X187960337Y-84370998D01*
X188202002Y-84612663D01*
X188486169Y-84802537D01*
X188801919Y-84933325D01*
X189137117Y-85000000D01*
X189478883Y-85000000D01*
X189814081Y-84933325D01*
X190129831Y-84802537D01*
X190413998Y-84612663D01*
X190655663Y-84370998D01*
X190845537Y-84086831D01*
X190976325Y-83771081D01*
X191043000Y-83435883D01*
X191043000Y-83094117D01*
X190976325Y-82758919D01*
X190845537Y-82443169D01*
X190655663Y-82159002D01*
X190413998Y-81917337D01*
X190129831Y-81727463D01*
X189814081Y-81596675D01*
X189478883Y-81530000D01*
X189137117Y-81530000D01*
X188801919Y-81596675D01*
X188486169Y-81727463D01*
X188202002Y-81917337D01*
X187960337Y-82159002D01*
X187770463Y-82443169D01*
X187639675Y-82758919D01*
X187573000Y-83094117D01*
X183108965Y-83094117D01*
X176628805Y-76613954D01*
X176605007Y-76584956D01*
X176567295Y-76554006D01*
X176489281Y-76489982D01*
X176357251Y-76419409D01*
X176300905Y-76402317D01*
X176213993Y-76375953D01*
X176102340Y-76364956D01*
X176102338Y-76364956D01*
X176065005Y-76361279D01*
X176027675Y-76364956D01*
X175851119Y-76364955D01*
X175889225Y-76293663D01*
X175974916Y-76011176D01*
X175996600Y-75791018D01*
X175996600Y-75338981D01*
X175974916Y-75118823D01*
X175889225Y-74836336D01*
X175750069Y-74575994D01*
X175562797Y-74347803D01*
X175334605Y-74160531D01*
X175074263Y-74021375D01*
X174791776Y-73935684D01*
X174498000Y-73906749D01*
X174204223Y-73935684D01*
X173921736Y-74021375D01*
X173661394Y-74160531D01*
X173433203Y-74347803D01*
X173245931Y-74575995D01*
X173228000Y-74609541D01*
X173210069Y-74575994D01*
X173022797Y-74347803D01*
X172794605Y-74160531D01*
X172534263Y-74021375D01*
X172251776Y-73935684D01*
X171958000Y-73906749D01*
X171664223Y-73935684D01*
X171381736Y-74021375D01*
X171121394Y-74160531D01*
X170893203Y-74347803D01*
X170705931Y-74575995D01*
X170688000Y-74609541D01*
X170670069Y-74575994D01*
X170482797Y-74347803D01*
X170254605Y-74160531D01*
X169994263Y-74021375D01*
X169711776Y-73935684D01*
X169418000Y-73906749D01*
X169124223Y-73935684D01*
X168841736Y-74021375D01*
X168581394Y-74160531D01*
X168353203Y-74347803D01*
X168165931Y-74575995D01*
X168148000Y-74609541D01*
X168130069Y-74575994D01*
X167942797Y-74347803D01*
X167714605Y-74160531D01*
X167454263Y-74021375D01*
X167171776Y-73935684D01*
X166878000Y-73906749D01*
X166584223Y-73935684D01*
X166301736Y-74021375D01*
X166041394Y-74160531D01*
X165813203Y-74347803D01*
X165625931Y-74575995D01*
X165608000Y-74609541D01*
X165590069Y-74575994D01*
X165402797Y-74347803D01*
X165174605Y-74160531D01*
X164914263Y-74021375D01*
X164631776Y-73935684D01*
X164338000Y-73906749D01*
X164044223Y-73935684D01*
X163761736Y-74021375D01*
X163501394Y-74160531D01*
X163273203Y-74347803D01*
X163085931Y-74575995D01*
X163068000Y-74609541D01*
X163050069Y-74575994D01*
X162862797Y-74347803D01*
X162634605Y-74160531D01*
X162374263Y-74021375D01*
X162091776Y-73935684D01*
X161798000Y-73906749D01*
X161504223Y-73935684D01*
X161221736Y-74021375D01*
X160961394Y-74160531D01*
X160733203Y-74347803D01*
X160545931Y-74575995D01*
X160528000Y-74609541D01*
X160510069Y-74575994D01*
X160322797Y-74347803D01*
X160094605Y-74160531D01*
X159834263Y-74021375D01*
X159551776Y-73935684D01*
X159258000Y-73906749D01*
X158964223Y-73935684D01*
X158681736Y-74021375D01*
X158421394Y-74160531D01*
X158193203Y-74347803D01*
X158005931Y-74575995D01*
X157988000Y-74609541D01*
X157970069Y-74575994D01*
X157782797Y-74347803D01*
X157554605Y-74160531D01*
X157294263Y-74021375D01*
X157011776Y-73935684D01*
X156718000Y-73906749D01*
X156424223Y-73935684D01*
X156141736Y-74021375D01*
X155881394Y-74160531D01*
X155653203Y-74347803D01*
X155465931Y-74575995D01*
X155326775Y-74836337D01*
X155241084Y-75118824D01*
X155219400Y-75338982D01*
X155219400Y-75791019D01*
X155241084Y-76011177D01*
X155326775Y-76293664D01*
X155364878Y-76364950D01*
X154007121Y-76364950D01*
X154045225Y-76293663D01*
X154130916Y-76011176D01*
X154152600Y-75791018D01*
X154152600Y-75338981D01*
X154130916Y-75118823D01*
X154045225Y-74836336D01*
X153906069Y-74575994D01*
X153718797Y-74347803D01*
X153490605Y-74160531D01*
X153230263Y-74021375D01*
X152947776Y-73935684D01*
X152654000Y-73906749D01*
X152360223Y-73935684D01*
X152077736Y-74021375D01*
X151817394Y-74160531D01*
X151589203Y-74347803D01*
X151401931Y-74575995D01*
X151384000Y-74609541D01*
X151366069Y-74575994D01*
X151178797Y-74347803D01*
X150950605Y-74160531D01*
X150690263Y-74021375D01*
X150407776Y-73935684D01*
X150114000Y-73906749D01*
X149820223Y-73935684D01*
X149537736Y-74021375D01*
X149277394Y-74160531D01*
X149049203Y-74347803D01*
X148861931Y-74575995D01*
X148844000Y-74609541D01*
X148826069Y-74575994D01*
X148638797Y-74347803D01*
X148410605Y-74160531D01*
X148150263Y-74021375D01*
X147867776Y-73935684D01*
X147574000Y-73906749D01*
X147280223Y-73935684D01*
X146997736Y-74021375D01*
X146737394Y-74160531D01*
X146509203Y-74347803D01*
X146321931Y-74575995D01*
X146304000Y-74609541D01*
X146286069Y-74575994D01*
X146098797Y-74347803D01*
X145870605Y-74160531D01*
X145610263Y-74021375D01*
X145327776Y-73935684D01*
X145034000Y-73906749D01*
X144740223Y-73935684D01*
X144457736Y-74021375D01*
X144197394Y-74160531D01*
X143969203Y-74347803D01*
X143781931Y-74575995D01*
X143764000Y-74609541D01*
X143746069Y-74575994D01*
X143558797Y-74347803D01*
X143330605Y-74160531D01*
X143070263Y-74021375D01*
X142787776Y-73935684D01*
X142494000Y-73906749D01*
X142200223Y-73935684D01*
X141917736Y-74021375D01*
X141657394Y-74160531D01*
X141429203Y-74347803D01*
X141241931Y-74575995D01*
X141224000Y-74609541D01*
X141206069Y-74575994D01*
X141018797Y-74347803D01*
X140790605Y-74160531D01*
X140530263Y-74021375D01*
X140247776Y-73935684D01*
X139954000Y-73906749D01*
X139660223Y-73935684D01*
X139377736Y-74021375D01*
X139117394Y-74160531D01*
X138889203Y-74347803D01*
X138701931Y-74575995D01*
X138680576Y-74615947D01*
X138532486Y-74413271D01*
X138316035Y-74214267D01*
X138064919Y-74061314D01*
X137788789Y-73960291D01*
X137773026Y-73957642D01*
X137541000Y-74078783D01*
X137287000Y-74078783D01*
X137054974Y-73957642D01*
X137039211Y-73960291D01*
X136763081Y-74061314D01*
X136511965Y-74214267D01*
X136295514Y-74413271D01*
X136147424Y-74615947D01*
X136126069Y-74575994D01*
X135938797Y-74347803D01*
X135710605Y-74160531D01*
X135450263Y-74021375D01*
X135167776Y-73935684D01*
X134874000Y-73906749D01*
X134580223Y-73935684D01*
X134297736Y-74021375D01*
X134037394Y-74160531D01*
X133809203Y-74347803D01*
X133621931Y-74575995D01*
X133604000Y-74609541D01*
X133586069Y-74575994D01*
X133398797Y-74347803D01*
X133170605Y-74160531D01*
X132910263Y-74021375D01*
X132627776Y-73935684D01*
X132334000Y-73906749D01*
X132040223Y-73935684D01*
X131757736Y-74021375D01*
X131497394Y-74160531D01*
X131269203Y-74347803D01*
X131081931Y-74575995D01*
X131064000Y-74609541D01*
X131046069Y-74575994D01*
X130858797Y-74347803D01*
X130630605Y-74160531D01*
X130370263Y-74021375D01*
X130087776Y-73935684D01*
X129794000Y-73906749D01*
X129500223Y-73935684D01*
X129217736Y-74021375D01*
X128957394Y-74160531D01*
X128729203Y-74347803D01*
X128541931Y-74575995D01*
X128402775Y-74836337D01*
X128317084Y-75118824D01*
X128295400Y-75338982D01*
X111708000Y-75338982D01*
X111708000Y-73735000D01*
X196648001Y-73735000D01*
X196648000Y-106530785D01*
G36*
X196648000Y-125655000D02*
G01*
X148590289Y-125655000D01*
X148794057Y-125451232D01*
X148804224Y-125454316D01*
X149098000Y-125483251D01*
X149391777Y-125454316D01*
X149674264Y-125368625D01*
X149934606Y-125229469D01*
X150162797Y-125042197D01*
X150350069Y-124814006D01*
X150371424Y-124774053D01*
X150519514Y-124976729D01*
X150735965Y-125175733D01*
X150987081Y-125328686D01*
X151263211Y-125429709D01*
X151278974Y-125432358D01*
X151511000Y-125311217D01*
X151511000Y-123952000D01*
X151765000Y-123952000D01*
X151765000Y-125311217D01*
X151997026Y-125432358D01*
X152012789Y-125429709D01*
X152288919Y-125328686D01*
X152540035Y-125175733D01*
X152756486Y-124976729D01*
X152908000Y-124769367D01*
X153059514Y-124976729D01*
X153275965Y-125175733D01*
X153527081Y-125328686D01*
X153803211Y-125429709D01*
X153818974Y-125432358D01*
X154051000Y-125311217D01*
X154051000Y-123952000D01*
X151765000Y-123952000D01*
X151511000Y-123952000D01*
X151491000Y-123952000D01*
X151491000Y-123698000D01*
X151511000Y-123698000D01*
X151511000Y-123678000D01*
X151765000Y-123678000D01*
X151765000Y-123698000D01*
X154051000Y-123698000D01*
X154051000Y-123678000D01*
X154305000Y-123678000D01*
X154305000Y-123698000D01*
X154325000Y-123698000D01*
X154325000Y-123952000D01*
X154305000Y-123952000D01*
X154305000Y-125311217D01*
X154537026Y-125432358D01*
X154552789Y-125429709D01*
X154828919Y-125328686D01*
X155080035Y-125175733D01*
X155296486Y-124976729D01*
X155444576Y-124774053D01*
X155465931Y-124814006D01*
X155653203Y-125042197D01*
X155881395Y-125229469D01*
X156141737Y-125368625D01*
X156424224Y-125454316D01*
X156718000Y-125483251D01*
X157011777Y-125454316D01*
X157294264Y-125368625D01*
X157554606Y-125229469D01*
X157782797Y-125042197D01*
X157970069Y-124814006D01*
X158109225Y-124553663D01*
X158194916Y-124271176D01*
X158216600Y-124051018D01*
X158216600Y-123598981D01*
X158194916Y-123378823D01*
X158109225Y-123096336D01*
X157970069Y-122835994D01*
X157859379Y-122701118D01*
X160656621Y-122701118D01*
X160545931Y-122835995D01*
X160406775Y-123096337D01*
X160321084Y-123378824D01*
X160299400Y-123598982D01*
X160299400Y-124051019D01*
X160321084Y-124271177D01*
X160406775Y-124553664D01*
X160545931Y-124814006D01*
X160733203Y-125042197D01*
X160961395Y-125229469D01*
X161221737Y-125368625D01*
X161504224Y-125454316D01*
X161798000Y-125483251D01*
X162091777Y-125454316D01*
X162374264Y-125368625D01*
X162634606Y-125229469D01*
X162862797Y-125042197D01*
X163050069Y-124814006D01*
X163068000Y-124780459D01*
X163085931Y-124814006D01*
X163273203Y-125042197D01*
X163501395Y-125229469D01*
X163761737Y-125368625D01*
X164044224Y-125454316D01*
X164338000Y-125483251D01*
X164631777Y-125454316D01*
X164914264Y-125368625D01*
X165174606Y-125229469D01*
X165402797Y-125042197D01*
X165590069Y-124814006D01*
X165608000Y-124780459D01*
X165625931Y-124814006D01*
X165813203Y-125042197D01*
X166041395Y-125229469D01*
X166301737Y-125368625D01*
X166584224Y-125454316D01*
X166878000Y-125483251D01*
X167171777Y-125454316D01*
X167454264Y-125368625D01*
X167714606Y-125229469D01*
X167942797Y-125042197D01*
X168130069Y-124814006D01*
X168148000Y-124780459D01*
X168165931Y-124814006D01*
X168353203Y-125042197D01*
X168581395Y-125229469D01*
X168841737Y-125368625D01*
X169124224Y-125454316D01*
X169418000Y-125483251D01*
X169711777Y-125454316D01*
X169994264Y-125368625D01*
X170254606Y-125229469D01*
X170482797Y-125042197D01*
X170670069Y-124814006D01*
X170688000Y-124780459D01*
X170705931Y-124814006D01*
X170893203Y-125042197D01*
X171121395Y-125229469D01*
X171381737Y-125368625D01*
X171664224Y-125454316D01*
X171958000Y-125483251D01*
X172251777Y-125454316D01*
X172534264Y-125368625D01*
X172794606Y-125229469D01*
X173022797Y-125042197D01*
X173210069Y-124814006D01*
X173228000Y-124780459D01*
X173245931Y-124814006D01*
X173433203Y-125042197D01*
X173661395Y-125229469D01*
X173921737Y-125368625D01*
X174204224Y-125454316D01*
X174498000Y-125483251D01*
X174791777Y-125454316D01*
X175074264Y-125368625D01*
X175334606Y-125229469D01*
X175562797Y-125042197D01*
X175750069Y-124814006D01*
X175889225Y-124553663D01*
X175974916Y-124271176D01*
X175996600Y-124051018D01*
X175996600Y-123598981D01*
X175974916Y-123378823D01*
X175889225Y-123096336D01*
X175750069Y-122835994D01*
X175639379Y-122701118D01*
X192008567Y-122701118D01*
X192045889Y-122704794D01*
X192083211Y-122701118D01*
X192083222Y-122701118D01*
X192194875Y-122690121D01*
X192338136Y-122646664D01*
X192470165Y-122576092D01*
X192585890Y-122481119D01*
X192609693Y-122452115D01*
X196648000Y-118413809D01*
X196648000Y-125655000D01*
G37*
X196648000Y-125655000D02*
X148590289Y-125655000D01*
X148794057Y-125451232D01*
X148804224Y-125454316D01*
X149098000Y-125483251D01*
X149391777Y-125454316D01*
X149674264Y-125368625D01*
X149934606Y-125229469D01*
X150162797Y-125042197D01*
X150350069Y-124814006D01*
X150371424Y-124774053D01*
X150519514Y-124976729D01*
X150735965Y-125175733D01*
X150987081Y-125328686D01*
X151263211Y-125429709D01*
X151278974Y-125432358D01*
X151511000Y-125311217D01*
X151511000Y-123952000D01*
X151765000Y-123952000D01*
X151765000Y-125311217D01*
X151997026Y-125432358D01*
X152012789Y-125429709D01*
X152288919Y-125328686D01*
X152540035Y-125175733D01*
X152756486Y-124976729D01*
X152908000Y-124769367D01*
X153059514Y-124976729D01*
X153275965Y-125175733D01*
X153527081Y-125328686D01*
X153803211Y-125429709D01*
X153818974Y-125432358D01*
X154051000Y-125311217D01*
X154051000Y-123952000D01*
X151765000Y-123952000D01*
X151511000Y-123952000D01*
X151491000Y-123952000D01*
X151491000Y-123698000D01*
X151511000Y-123698000D01*
X151511000Y-123678000D01*
X151765000Y-123678000D01*
X151765000Y-123698000D01*
X154051000Y-123698000D01*
X154051000Y-123678000D01*
X154305000Y-123678000D01*
X154305000Y-123698000D01*
X154325000Y-123698000D01*
X154325000Y-123952000D01*
X154305000Y-123952000D01*
X154305000Y-125311217D01*
X154537026Y-125432358D01*
X154552789Y-125429709D01*
X154828919Y-125328686D01*
X155080035Y-125175733D01*
X155296486Y-124976729D01*
X155444576Y-124774053D01*
X155465931Y-124814006D01*
X155653203Y-125042197D01*
X155881395Y-125229469D01*
X156141737Y-125368625D01*
X156424224Y-125454316D01*
X156718000Y-125483251D01*
X157011777Y-125454316D01*
X157294264Y-125368625D01*
X157554606Y-125229469D01*
X157782797Y-125042197D01*
X157970069Y-124814006D01*
X158109225Y-124553663D01*
X158194916Y-124271176D01*
X158216600Y-124051018D01*
X158216600Y-123598981D01*
X158194916Y-123378823D01*
X158109225Y-123096336D01*
X157970069Y-122835994D01*
X157859379Y-122701118D01*
X160656621Y-122701118D01*
X160545931Y-122835995D01*
X160406775Y-123096337D01*
X160321084Y-123378824D01*
X160299400Y-123598982D01*
X160299400Y-124051019D01*
X160321084Y-124271177D01*
X160406775Y-124553664D01*
X160545931Y-124814006D01*
X160733203Y-125042197D01*
X160961395Y-125229469D01*
X161221737Y-125368625D01*
X161504224Y-125454316D01*
X161798000Y-125483251D01*
X162091777Y-125454316D01*
X162374264Y-125368625D01*
X162634606Y-125229469D01*
X162862797Y-125042197D01*
X163050069Y-124814006D01*
X163068000Y-124780459D01*
X163085931Y-124814006D01*
X163273203Y-125042197D01*
X163501395Y-125229469D01*
X163761737Y-125368625D01*
X164044224Y-125454316D01*
X164338000Y-125483251D01*
X164631777Y-125454316D01*
X164914264Y-125368625D01*
X165174606Y-125229469D01*
X165402797Y-125042197D01*
X165590069Y-124814006D01*
X165608000Y-124780459D01*
X165625931Y-124814006D01*
X165813203Y-125042197D01*
X166041395Y-125229469D01*
X166301737Y-125368625D01*
X166584224Y-125454316D01*
X166878000Y-125483251D01*
X167171777Y-125454316D01*
X167454264Y-125368625D01*
X167714606Y-125229469D01*
X167942797Y-125042197D01*
X168130069Y-124814006D01*
X168148000Y-124780459D01*
X168165931Y-124814006D01*
X168353203Y-125042197D01*
X168581395Y-125229469D01*
X168841737Y-125368625D01*
X169124224Y-125454316D01*
X169418000Y-125483251D01*
X169711777Y-125454316D01*
X169994264Y-125368625D01*
X170254606Y-125229469D01*
X170482797Y-125042197D01*
X170670069Y-124814006D01*
X170688000Y-124780459D01*
X170705931Y-124814006D01*
X170893203Y-125042197D01*
X171121395Y-125229469D01*
X171381737Y-125368625D01*
X171664224Y-125454316D01*
X171958000Y-125483251D01*
X172251777Y-125454316D01*
X172534264Y-125368625D01*
X172794606Y-125229469D01*
X173022797Y-125042197D01*
X173210069Y-124814006D01*
X173228000Y-124780459D01*
X173245931Y-124814006D01*
X173433203Y-125042197D01*
X173661395Y-125229469D01*
X173921737Y-125368625D01*
X174204224Y-125454316D01*
X174498000Y-125483251D01*
X174791777Y-125454316D01*
X175074264Y-125368625D01*
X175334606Y-125229469D01*
X175562797Y-125042197D01*
X175750069Y-124814006D01*
X175889225Y-124553663D01*
X175974916Y-124271176D01*
X175996600Y-124051018D01*
X175996600Y-123598981D01*
X175974916Y-123378823D01*
X175889225Y-123096336D01*
X175750069Y-122835994D01*
X175639379Y-122701118D01*
X192008567Y-122701118D01*
X192045889Y-122704794D01*
X192083211Y-122701118D01*
X192083222Y-122701118D01*
X192194875Y-122690121D01*
X192338136Y-122646664D01*
X192470165Y-122576092D01*
X192585890Y-122481119D01*
X192609693Y-122452115D01*
X196648000Y-118413809D01*
X196648000Y-125655000D01*
M02*
