G04 #@! TF.GenerationSoftware,KiCad,Pcbnew,(5.1.6)-1*
G04 #@! TF.CreationDate,2020-07-30T22:19:11+09:00*
G04 #@! TF.ProjectId,VFDClock,56464443-6c6f-4636-9b2e-6b696361645f,rev?*
G04 #@! TF.SameCoordinates,Original*
G04 #@! TF.FileFunction,Legend,Top*
G04 #@! TF.FilePolarity,Positive*
%FSLAX46Y46*%
G04 Gerber Fmt 4.6, Leading zero omitted, Abs format (unit mm)*
G04 Created by KiCad (PCBNEW (5.1.6)-1) date 2020-07-30 22:19:11*
%MOMM*%
%LPD*%
G01*
G04 APERTURE LIST*
%ADD10C,0.200000*%
%ADD11C,0.010000*%
%ADD12C,0.120000*%
%ADD13C,0.150000*%
G04 APERTURE END LIST*
D10*
X113752977Y-113484702D02*
X114667263Y-113484702D01*
X114210120Y-113941845D02*
X114210120Y-113027559D01*
X115867263Y-113941845D02*
X115181548Y-113941845D01*
X115524405Y-113941845D02*
X115524405Y-112741845D01*
X115410120Y-112913273D01*
X115295834Y-113027559D01*
X115181548Y-113084702D01*
X116324405Y-112856130D02*
X116381548Y-112798988D01*
X116495834Y-112741845D01*
X116781548Y-112741845D01*
X116895834Y-112798988D01*
X116952977Y-112856130D01*
X117010120Y-112970416D01*
X117010120Y-113084702D01*
X116952977Y-113256130D01*
X116267263Y-113941845D01*
X117010120Y-113941845D01*
X117352977Y-112741845D02*
X117752977Y-113941845D01*
X118152977Y-112741845D01*
X119231142Y-101472514D02*
X120145427Y-101472514D01*
X119688285Y-101929657D02*
X119688285Y-101015371D01*
X191095685Y-93359949D02*
X192009970Y-93359949D01*
X191552828Y-93817092D02*
X191552828Y-92902806D01*
X191095685Y-83258331D02*
X192009970Y-83258331D01*
X191552828Y-83715474D02*
X191552828Y-82801188D01*
D11*
G36*
X115505083Y-88678534D02*
G01*
X115497587Y-88774217D01*
X115481635Y-88850587D01*
X115454351Y-88924689D01*
X115436543Y-88964120D01*
X115385574Y-89057463D01*
X115321929Y-89152214D01*
X115254693Y-89237164D01*
X115192956Y-89301099D01*
X115145805Y-89332811D01*
X115136399Y-89334387D01*
X115100020Y-89314059D01*
X115060765Y-89271143D01*
X115034654Y-89229405D01*
X115036407Y-89197454D01*
X115070873Y-89156454D01*
X115096680Y-89131615D01*
X115210790Y-88988111D01*
X115288192Y-88815578D01*
X115326377Y-88626092D01*
X115322835Y-88431733D01*
X115278906Y-88254556D01*
X115183517Y-88068246D01*
X115054841Y-87921936D01*
X114896533Y-87818246D01*
X114712248Y-87759798D01*
X114571352Y-87747213D01*
X114387463Y-87764504D01*
X114229864Y-87822104D01*
X114087056Y-87925210D01*
X114014699Y-87998671D01*
X113899905Y-88164008D01*
X113831406Y-88347490D01*
X113809049Y-88540765D01*
X113832680Y-88735481D01*
X113902148Y-88923287D01*
X114017299Y-89095831D01*
X114035144Y-89116183D01*
X114087277Y-89176253D01*
X114107419Y-89213445D01*
X114099836Y-89244186D01*
X114076490Y-89275399D01*
X114032724Y-89318911D01*
X114000992Y-89335227D01*
X113962611Y-89313965D01*
X113906699Y-89257877D01*
X113842355Y-89178507D01*
X113778675Y-89087403D01*
X113724757Y-88996108D01*
X113709325Y-88965070D01*
X113660370Y-88816126D01*
X113633621Y-88638927D01*
X113630458Y-88454469D01*
X113652267Y-88283750D01*
X113661925Y-88245170D01*
X113711347Y-88096925D01*
X113771821Y-87980139D01*
X113856292Y-87872833D01*
X113919183Y-87808419D01*
X114067378Y-87689472D01*
X114230356Y-87611238D01*
X114418867Y-87569722D01*
X114586579Y-87560263D01*
X114710626Y-87562545D01*
X114801635Y-87572833D01*
X114879884Y-87595011D01*
X114965271Y-87632776D01*
X115153657Y-87754196D01*
X115309834Y-87916873D01*
X115424403Y-88105333D01*
X115463254Y-88191800D01*
X115487630Y-88264728D01*
X115500835Y-88341762D01*
X115506173Y-88440544D01*
X115506999Y-88546490D01*
X115505083Y-88678534D01*
G37*
X115505083Y-88678534D02*
X115497587Y-88774217D01*
X115481635Y-88850587D01*
X115454351Y-88924689D01*
X115436543Y-88964120D01*
X115385574Y-89057463D01*
X115321929Y-89152214D01*
X115254693Y-89237164D01*
X115192956Y-89301099D01*
X115145805Y-89332811D01*
X115136399Y-89334387D01*
X115100020Y-89314059D01*
X115060765Y-89271143D01*
X115034654Y-89229405D01*
X115036407Y-89197454D01*
X115070873Y-89156454D01*
X115096680Y-89131615D01*
X115210790Y-88988111D01*
X115288192Y-88815578D01*
X115326377Y-88626092D01*
X115322835Y-88431733D01*
X115278906Y-88254556D01*
X115183517Y-88068246D01*
X115054841Y-87921936D01*
X114896533Y-87818246D01*
X114712248Y-87759798D01*
X114571352Y-87747213D01*
X114387463Y-87764504D01*
X114229864Y-87822104D01*
X114087056Y-87925210D01*
X114014699Y-87998671D01*
X113899905Y-88164008D01*
X113831406Y-88347490D01*
X113809049Y-88540765D01*
X113832680Y-88735481D01*
X113902148Y-88923287D01*
X114017299Y-89095831D01*
X114035144Y-89116183D01*
X114087277Y-89176253D01*
X114107419Y-89213445D01*
X114099836Y-89244186D01*
X114076490Y-89275399D01*
X114032724Y-89318911D01*
X114000992Y-89335227D01*
X113962611Y-89313965D01*
X113906699Y-89257877D01*
X113842355Y-89178507D01*
X113778675Y-89087403D01*
X113724757Y-88996108D01*
X113709325Y-88965070D01*
X113660370Y-88816126D01*
X113633621Y-88638927D01*
X113630458Y-88454469D01*
X113652267Y-88283750D01*
X113661925Y-88245170D01*
X113711347Y-88096925D01*
X113771821Y-87980139D01*
X113856292Y-87872833D01*
X113919183Y-87808419D01*
X114067378Y-87689472D01*
X114230356Y-87611238D01*
X114418867Y-87569722D01*
X114586579Y-87560263D01*
X114710626Y-87562545D01*
X114801635Y-87572833D01*
X114879884Y-87595011D01*
X114965271Y-87632776D01*
X115153657Y-87754196D01*
X115309834Y-87916873D01*
X115424403Y-88105333D01*
X115463254Y-88191800D01*
X115487630Y-88264728D01*
X115500835Y-88341762D01*
X115506173Y-88440544D01*
X115506999Y-88546490D01*
X115505083Y-88678534D01*
G36*
X115011599Y-91029467D02*
G01*
X114966948Y-91167902D01*
X114884012Y-91290661D01*
X114786634Y-91387158D01*
X114646703Y-91484178D01*
X114491970Y-91537769D01*
X114311700Y-91551146D01*
X114250514Y-91547756D01*
X114066912Y-91508909D01*
X113910002Y-91427996D01*
X113783740Y-91311351D01*
X113692081Y-91165306D01*
X113638982Y-90996196D01*
X113628398Y-90810353D01*
X113664284Y-90614112D01*
X113665304Y-90610769D01*
X113728484Y-90481435D01*
X113830220Y-90358520D01*
X113956335Y-90257285D01*
X114032298Y-90215763D01*
X114145357Y-90182373D01*
X114285134Y-90166319D01*
X114327576Y-90166847D01*
X114327576Y-90330337D01*
X114189658Y-90347934D01*
X114061805Y-90398132D01*
X113950506Y-90476737D01*
X113862251Y-90579556D01*
X113803531Y-90702399D01*
X113780834Y-90841071D01*
X113800651Y-90991381D01*
X113839942Y-91094450D01*
X113928737Y-91221340D01*
X114048826Y-91312947D01*
X114189775Y-91367425D01*
X114341149Y-91382930D01*
X114492515Y-91357616D01*
X114633437Y-91289638D01*
X114690435Y-91244845D01*
X114803207Y-91113031D01*
X114866779Y-90969936D01*
X114880735Y-90822141D01*
X114844656Y-90676223D01*
X114758124Y-90538764D01*
X114736818Y-90515068D01*
X114607645Y-90409711D01*
X114469068Y-90349531D01*
X114327576Y-90330337D01*
X114327576Y-90166847D01*
X114429294Y-90168114D01*
X114555502Y-90188266D01*
X114598937Y-90202806D01*
X114764360Y-90298805D01*
X114895159Y-90434996D01*
X114948036Y-90518217D01*
X114990533Y-90603287D01*
X115014116Y-90679853D01*
X115023895Y-90770489D01*
X115025255Y-90859227D01*
X115011599Y-91029467D01*
G37*
X115011599Y-91029467D02*
X114966948Y-91167902D01*
X114884012Y-91290661D01*
X114786634Y-91387158D01*
X114646703Y-91484178D01*
X114491970Y-91537769D01*
X114311700Y-91551146D01*
X114250514Y-91547756D01*
X114066912Y-91508909D01*
X113910002Y-91427996D01*
X113783740Y-91311351D01*
X113692081Y-91165306D01*
X113638982Y-90996196D01*
X113628398Y-90810353D01*
X113664284Y-90614112D01*
X113665304Y-90610769D01*
X113728484Y-90481435D01*
X113830220Y-90358520D01*
X113956335Y-90257285D01*
X114032298Y-90215763D01*
X114145357Y-90182373D01*
X114285134Y-90166319D01*
X114327576Y-90166847D01*
X114327576Y-90330337D01*
X114189658Y-90347934D01*
X114061805Y-90398132D01*
X113950506Y-90476737D01*
X113862251Y-90579556D01*
X113803531Y-90702399D01*
X113780834Y-90841071D01*
X113800651Y-90991381D01*
X113839942Y-91094450D01*
X113928737Y-91221340D01*
X114048826Y-91312947D01*
X114189775Y-91367425D01*
X114341149Y-91382930D01*
X114492515Y-91357616D01*
X114633437Y-91289638D01*
X114690435Y-91244845D01*
X114803207Y-91113031D01*
X114866779Y-90969936D01*
X114880735Y-90822141D01*
X114844656Y-90676223D01*
X114758124Y-90538764D01*
X114736818Y-90515068D01*
X114607645Y-90409711D01*
X114469068Y-90349531D01*
X114327576Y-90330337D01*
X114327576Y-90166847D01*
X114429294Y-90168114D01*
X114555502Y-90188266D01*
X114598937Y-90202806D01*
X114764360Y-90298805D01*
X114895159Y-90434996D01*
X114948036Y-90518217D01*
X114990533Y-90603287D01*
X115014116Y-90679853D01*
X115023895Y-90770489D01*
X115025255Y-90859227D01*
X115011599Y-91029467D01*
G36*
X115025444Y-92709931D02*
G01*
X114981669Y-92884316D01*
X114904242Y-93036774D01*
X114796161Y-93155880D01*
X114783398Y-93165805D01*
X114738637Y-93195295D01*
X114711950Y-93189042D01*
X114683128Y-93141189D01*
X114680418Y-93135955D01*
X114656779Y-93081135D01*
X114663598Y-93043626D01*
X114706076Y-92998427D01*
X114709724Y-92995061D01*
X114805515Y-92872438D01*
X114861446Y-92724935D01*
X114876886Y-92564012D01*
X114851207Y-92401125D01*
X114783778Y-92247732D01*
X114753269Y-92202507D01*
X114645931Y-92099170D01*
X114514212Y-92035247D01*
X114368743Y-92009737D01*
X114220158Y-92021638D01*
X114079089Y-92069949D01*
X113956168Y-92153668D01*
X113862028Y-92271795D01*
X113853684Y-92287237D01*
X113808087Y-92416265D01*
X113787538Y-92564639D01*
X113794318Y-92707367D01*
X113809517Y-92771410D01*
X113848828Y-92854034D01*
X113908073Y-92941979D01*
X113931415Y-92969851D01*
X113983301Y-93029615D01*
X114003505Y-93067753D01*
X113996334Y-93102190D01*
X113972521Y-93141038D01*
X113924755Y-93213854D01*
X113815370Y-93095185D01*
X113715746Y-92950534D01*
X113650423Y-92778146D01*
X113622598Y-92593781D01*
X113635469Y-92413201D01*
X113659336Y-92325939D01*
X113737457Y-92156734D01*
X113840601Y-92025051D01*
X113912010Y-91963242D01*
X114070466Y-91873026D01*
X114239327Y-91830163D01*
X114410486Y-91831837D01*
X114575836Y-91875234D01*
X114727271Y-91957538D01*
X114856684Y-92075934D01*
X114955970Y-92227606D01*
X115000028Y-92341079D01*
X115032564Y-92525043D01*
X115025444Y-92709931D01*
G37*
X115025444Y-92709931D02*
X114981669Y-92884316D01*
X114904242Y-93036774D01*
X114796161Y-93155880D01*
X114783398Y-93165805D01*
X114738637Y-93195295D01*
X114711950Y-93189042D01*
X114683128Y-93141189D01*
X114680418Y-93135955D01*
X114656779Y-93081135D01*
X114663598Y-93043626D01*
X114706076Y-92998427D01*
X114709724Y-92995061D01*
X114805515Y-92872438D01*
X114861446Y-92724935D01*
X114876886Y-92564012D01*
X114851207Y-92401125D01*
X114783778Y-92247732D01*
X114753269Y-92202507D01*
X114645931Y-92099170D01*
X114514212Y-92035247D01*
X114368743Y-92009737D01*
X114220158Y-92021638D01*
X114079089Y-92069949D01*
X113956168Y-92153668D01*
X113862028Y-92271795D01*
X113853684Y-92287237D01*
X113808087Y-92416265D01*
X113787538Y-92564639D01*
X113794318Y-92707367D01*
X113809517Y-92771410D01*
X113848828Y-92854034D01*
X113908073Y-92941979D01*
X113931415Y-92969851D01*
X113983301Y-93029615D01*
X114003505Y-93067753D01*
X113996334Y-93102190D01*
X113972521Y-93141038D01*
X113924755Y-93213854D01*
X113815370Y-93095185D01*
X113715746Y-92950534D01*
X113650423Y-92778146D01*
X113622598Y-92593781D01*
X113635469Y-92413201D01*
X113659336Y-92325939D01*
X113737457Y-92156734D01*
X113840601Y-92025051D01*
X113912010Y-91963242D01*
X114070466Y-91873026D01*
X114239327Y-91830163D01*
X114410486Y-91831837D01*
X114575836Y-91875234D01*
X114727271Y-91957538D01*
X114856684Y-92075934D01*
X114955970Y-92227606D01*
X115000028Y-92341079D01*
X115032564Y-92525043D01*
X115025444Y-92709931D01*
G36*
X115488572Y-83289616D02*
G01*
X115475837Y-83319013D01*
X115473721Y-83319527D01*
X115442452Y-83309225D01*
X115369776Y-83280176D01*
X115262273Y-83235280D01*
X115126520Y-83177434D01*
X114969098Y-83109536D01*
X114796584Y-83034486D01*
X114615558Y-82955180D01*
X114432598Y-82874517D01*
X114254284Y-82795396D01*
X114087193Y-82720715D01*
X113937905Y-82653372D01*
X113812999Y-82596265D01*
X113719053Y-82552293D01*
X113662646Y-82524354D01*
X113648931Y-82515625D01*
X113672629Y-82501066D01*
X113740049Y-82468123D01*
X113845676Y-82419277D01*
X113983999Y-82357013D01*
X114149505Y-82283812D01*
X114336681Y-82202158D01*
X114528763Y-82119355D01*
X114733491Y-82031648D01*
X114923811Y-81950216D01*
X115093850Y-81877566D01*
X115237735Y-81816202D01*
X115349594Y-81768630D01*
X115423554Y-81737353D01*
X115453011Y-81725148D01*
X115481379Y-81722144D01*
X115491372Y-81750720D01*
X115488915Y-81809455D01*
X115480405Y-81910806D01*
X114791931Y-82205154D01*
X114613509Y-82282023D01*
X114452273Y-82352617D01*
X114314461Y-82414112D01*
X114206313Y-82463685D01*
X114134064Y-82498516D01*
X114103955Y-82515780D01*
X114103458Y-82516647D01*
X114126994Y-82531300D01*
X114193483Y-82564213D01*
X114296739Y-82612542D01*
X114430581Y-82673446D01*
X114588824Y-82744084D01*
X114765286Y-82821613D01*
X114798615Y-82836129D01*
X115493773Y-83138465D01*
X115493773Y-83228951D01*
X115488572Y-83289616D01*
G37*
X115488572Y-83289616D02*
X115475837Y-83319013D01*
X115473721Y-83319527D01*
X115442452Y-83309225D01*
X115369776Y-83280176D01*
X115262273Y-83235280D01*
X115126520Y-83177434D01*
X114969098Y-83109536D01*
X114796584Y-83034486D01*
X114615558Y-82955180D01*
X114432598Y-82874517D01*
X114254284Y-82795396D01*
X114087193Y-82720715D01*
X113937905Y-82653372D01*
X113812999Y-82596265D01*
X113719053Y-82552293D01*
X113662646Y-82524354D01*
X113648931Y-82515625D01*
X113672629Y-82501066D01*
X113740049Y-82468123D01*
X113845676Y-82419277D01*
X113983999Y-82357013D01*
X114149505Y-82283812D01*
X114336681Y-82202158D01*
X114528763Y-82119355D01*
X114733491Y-82031648D01*
X114923811Y-81950216D01*
X115093850Y-81877566D01*
X115237735Y-81816202D01*
X115349594Y-81768630D01*
X115423554Y-81737353D01*
X115453011Y-81725148D01*
X115481379Y-81722144D01*
X115491372Y-81750720D01*
X115488915Y-81809455D01*
X115480405Y-81910806D01*
X114791931Y-82205154D01*
X114613509Y-82282023D01*
X114452273Y-82352617D01*
X114314461Y-82414112D01*
X114206313Y-82463685D01*
X114134064Y-82498516D01*
X114103955Y-82515780D01*
X114103458Y-82516647D01*
X114126994Y-82531300D01*
X114193483Y-82564213D01*
X114296739Y-82612542D01*
X114430581Y-82673446D01*
X114588824Y-82744084D01*
X114765286Y-82821613D01*
X114798615Y-82836129D01*
X115493773Y-83138465D01*
X115493773Y-83228951D01*
X115488572Y-83289616D01*
G36*
X115306615Y-84576069D02*
G01*
X115306615Y-83827438D01*
X114745142Y-83827438D01*
X114745142Y-84576069D01*
X114557984Y-84576069D01*
X114557984Y-83827438D01*
X113648931Y-83827438D01*
X113648931Y-83640280D01*
X115493773Y-83640280D01*
X115493773Y-84576069D01*
X115306615Y-84576069D01*
G37*
X115306615Y-84576069D02*
X115306615Y-83827438D01*
X114745142Y-83827438D01*
X114745142Y-84576069D01*
X114557984Y-84576069D01*
X114557984Y-83827438D01*
X113648931Y-83827438D01*
X113648931Y-83640280D01*
X115493773Y-83640280D01*
X115493773Y-84576069D01*
X115306615Y-84576069D01*
G36*
X115493244Y-85197701D02*
G01*
X115485756Y-85461338D01*
X115463073Y-85679656D01*
X115423343Y-85859118D01*
X115364713Y-86006186D01*
X115285333Y-86127323D01*
X115202321Y-86212838D01*
X115032768Y-86328425D01*
X114840335Y-86403513D01*
X114634823Y-86438463D01*
X114426030Y-86433635D01*
X114223758Y-86389392D01*
X114037805Y-86306095D01*
X113877971Y-86184105D01*
X113857575Y-86163258D01*
X113792784Y-86086371D01*
X113743576Y-86005461D01*
X113707664Y-85911490D01*
X113682765Y-85795422D01*
X113666590Y-85648222D01*
X113656855Y-85460852D01*
X113653897Y-85358122D01*
X113642866Y-84896912D01*
X113836089Y-84896912D01*
X113836089Y-85057333D01*
X113836089Y-85332452D01*
X113841023Y-85489775D01*
X113854511Y-85637808D01*
X113874582Y-85755793D01*
X113877334Y-85766926D01*
X113943788Y-85938722D01*
X114046324Y-86072939D01*
X114189063Y-86174865D01*
X114199174Y-86180160D01*
X114276791Y-86215216D01*
X114353136Y-86235678D01*
X114447276Y-86245111D01*
X114557270Y-86247122D01*
X114676447Y-86244992D01*
X114761459Y-86235857D01*
X114831534Y-86215603D01*
X114905904Y-86180113D01*
X114928831Y-86167597D01*
X115051047Y-86087109D01*
X115144205Y-85993118D01*
X115212076Y-85877523D01*
X115258434Y-85732222D01*
X115287051Y-85549117D01*
X115299638Y-85371490D01*
X115313956Y-85057333D01*
X113836089Y-85057333D01*
X113836089Y-84896912D01*
X115493773Y-84896912D01*
X115493244Y-85197701D01*
G37*
X115493244Y-85197701D02*
X115485756Y-85461338D01*
X115463073Y-85679656D01*
X115423343Y-85859118D01*
X115364713Y-86006186D01*
X115285333Y-86127323D01*
X115202321Y-86212838D01*
X115032768Y-86328425D01*
X114840335Y-86403513D01*
X114634823Y-86438463D01*
X114426030Y-86433635D01*
X114223758Y-86389392D01*
X114037805Y-86306095D01*
X113877971Y-86184105D01*
X113857575Y-86163258D01*
X113792784Y-86086371D01*
X113743576Y-86005461D01*
X113707664Y-85911490D01*
X113682765Y-85795422D01*
X113666590Y-85648222D01*
X113656855Y-85460852D01*
X113653897Y-85358122D01*
X113642866Y-84896912D01*
X113836089Y-84896912D01*
X113836089Y-85057333D01*
X113836089Y-85332452D01*
X113841023Y-85489775D01*
X113854511Y-85637808D01*
X113874582Y-85755793D01*
X113877334Y-85766926D01*
X113943788Y-85938722D01*
X114046324Y-86072939D01*
X114189063Y-86174865D01*
X114199174Y-86180160D01*
X114276791Y-86215216D01*
X114353136Y-86235678D01*
X114447276Y-86245111D01*
X114557270Y-86247122D01*
X114676447Y-86244992D01*
X114761459Y-86235857D01*
X114831534Y-86215603D01*
X114905904Y-86180113D01*
X114928831Y-86167597D01*
X115051047Y-86087109D01*
X115144205Y-85993118D01*
X115212076Y-85877523D01*
X115258434Y-85732222D01*
X115287051Y-85549117D01*
X115299638Y-85371490D01*
X115313956Y-85057333D01*
X113836089Y-85057333D01*
X113836089Y-84896912D01*
X115493773Y-84896912D01*
X115493244Y-85197701D01*
G36*
X113648931Y-89843227D02*
G01*
X113648931Y-89656069D01*
X115547247Y-89656069D01*
X115547247Y-89843227D01*
X113648931Y-89843227D01*
G37*
X113648931Y-89843227D02*
X113648931Y-89656069D01*
X115547247Y-89656069D01*
X115547247Y-89843227D01*
X113648931Y-89843227D01*
G36*
X114475742Y-93720069D02*
G01*
X114744126Y-94031616D01*
X114846385Y-94150975D01*
X114918698Y-94238578D01*
X114966250Y-94302987D01*
X114994222Y-94352763D01*
X115007798Y-94396467D01*
X115012160Y-94442662D01*
X115012510Y-94474958D01*
X115012510Y-94606753D01*
X114701554Y-94243622D01*
X114600497Y-94126908D01*
X114510798Y-94025769D01*
X114438390Y-93946695D01*
X114389204Y-93896177D01*
X114369710Y-93880490D01*
X114346018Y-93899382D01*
X114292578Y-93951956D01*
X114215320Y-94032062D01*
X114120170Y-94133549D01*
X114013057Y-94250267D01*
X114008934Y-94254806D01*
X113902201Y-94371793D01*
X113808135Y-94473836D01*
X113732460Y-94554812D01*
X113680899Y-94608601D01*
X113659173Y-94629082D01*
X113658989Y-94629122D01*
X113652869Y-94605269D01*
X113649304Y-94545222D01*
X113648931Y-94514329D01*
X113650790Y-94470440D01*
X113659747Y-94430374D01*
X113680869Y-94386678D01*
X113719226Y-94331903D01*
X113779886Y-94258598D01*
X113867918Y-94159313D01*
X113958153Y-94059802D01*
X114267376Y-93720069D01*
X113648931Y-93720069D01*
X113648931Y-93532912D01*
X115547247Y-93532912D01*
X115547247Y-93720069D01*
X114475742Y-93720069D01*
G37*
X114475742Y-93720069D02*
X114744126Y-94031616D01*
X114846385Y-94150975D01*
X114918698Y-94238578D01*
X114966250Y-94302987D01*
X114994222Y-94352763D01*
X115007798Y-94396467D01*
X115012160Y-94442662D01*
X115012510Y-94474958D01*
X115012510Y-94606753D01*
X114701554Y-94243622D01*
X114600497Y-94126908D01*
X114510798Y-94025769D01*
X114438390Y-93946695D01*
X114389204Y-93896177D01*
X114369710Y-93880490D01*
X114346018Y-93899382D01*
X114292578Y-93951956D01*
X114215320Y-94032062D01*
X114120170Y-94133549D01*
X114013057Y-94250267D01*
X114008934Y-94254806D01*
X113902201Y-94371793D01*
X113808135Y-94473836D01*
X113732460Y-94554812D01*
X113680899Y-94608601D01*
X113659173Y-94629082D01*
X113658989Y-94629122D01*
X113652869Y-94605269D01*
X113649304Y-94545222D01*
X113648931Y-94514329D01*
X113650790Y-94470440D01*
X113659747Y-94430374D01*
X113680869Y-94386678D01*
X113719226Y-94331903D01*
X113779886Y-94258598D01*
X113867918Y-94159313D01*
X113958153Y-94059802D01*
X114267376Y-93720069D01*
X113648931Y-93720069D01*
X113648931Y-93532912D01*
X115547247Y-93532912D01*
X115547247Y-93720069D01*
X114475742Y-93720069D01*
G36*
X118581249Y-87250025D02*
G01*
X118529586Y-87399184D01*
X118437368Y-87524813D01*
X118310431Y-87617839D01*
X118221375Y-87653832D01*
X118084124Y-87669255D01*
X117954807Y-87632749D01*
X117837888Y-87545750D01*
X117818052Y-87524325D01*
X117765246Y-87467192D01*
X117734263Y-87446499D01*
X117713275Y-87457128D01*
X117701941Y-87474079D01*
X117592706Y-87614121D01*
X117462434Y-87707939D01*
X117316604Y-87753634D01*
X117160693Y-87749310D01*
X117029250Y-87707146D01*
X116901375Y-87621175D01*
X116800720Y-87497662D01*
X116731458Y-87347316D01*
X116697762Y-87180847D01*
X116703805Y-87008965D01*
X116723554Y-86922603D01*
X116796114Y-86764439D01*
X116904631Y-86643497D01*
X117043846Y-86563737D01*
X117208499Y-86529122D01*
X117225858Y-86528603D01*
X117225858Y-86707380D01*
X117112200Y-86730167D01*
X117059941Y-86756230D01*
X116977106Y-86839808D01*
X116918985Y-86957124D01*
X116889272Y-87092749D01*
X116891663Y-87231251D01*
X116920749Y-87337507D01*
X116993537Y-87450741D01*
X117093806Y-87528424D01*
X117210259Y-87566764D01*
X117331602Y-87561968D01*
X117442846Y-87512821D01*
X117546990Y-87410843D01*
X117612845Y-87281045D01*
X117632721Y-87155573D01*
X117613791Y-87038754D01*
X117564088Y-86916541D01*
X117494244Y-86810806D01*
X117439902Y-86758915D01*
X117342761Y-86717017D01*
X117225858Y-86707380D01*
X117225858Y-86528603D01*
X117247386Y-86527959D01*
X117372289Y-86538621D01*
X117476642Y-86574987D01*
X117570854Y-86643891D01*
X117665332Y-86752168D01*
X117730804Y-86845374D01*
X117750137Y-86833473D01*
X117790674Y-86791619D01*
X117808596Y-86770887D01*
X117920473Y-86672032D01*
X118043376Y-86620267D01*
X118127352Y-86615130D01*
X118127352Y-86795227D01*
X118022533Y-86819617D01*
X117932802Y-86884653D01*
X117865069Y-86978138D01*
X117826242Y-87087875D01*
X117823232Y-87201665D01*
X117849957Y-87284932D01*
X117929678Y-87396937D01*
X118026760Y-87463730D01*
X118134654Y-87482573D01*
X118246526Y-87450870D01*
X118332081Y-87381378D01*
X118384495Y-87286491D01*
X118405753Y-87177131D01*
X118397840Y-87064223D01*
X118362744Y-86958689D01*
X118302447Y-86871452D01*
X118218937Y-86813436D01*
X118127352Y-86795227D01*
X118127352Y-86615130D01*
X118169766Y-86612535D01*
X118292107Y-86645777D01*
X118402859Y-86716937D01*
X118494483Y-86822956D01*
X118559441Y-86960777D01*
X118586516Y-87086410D01*
X118581249Y-87250025D01*
G37*
X118581249Y-87250025D02*
X118529586Y-87399184D01*
X118437368Y-87524813D01*
X118310431Y-87617839D01*
X118221375Y-87653832D01*
X118084124Y-87669255D01*
X117954807Y-87632749D01*
X117837888Y-87545750D01*
X117818052Y-87524325D01*
X117765246Y-87467192D01*
X117734263Y-87446499D01*
X117713275Y-87457128D01*
X117701941Y-87474079D01*
X117592706Y-87614121D01*
X117462434Y-87707939D01*
X117316604Y-87753634D01*
X117160693Y-87749310D01*
X117029250Y-87707146D01*
X116901375Y-87621175D01*
X116800720Y-87497662D01*
X116731458Y-87347316D01*
X116697762Y-87180847D01*
X116703805Y-87008965D01*
X116723554Y-86922603D01*
X116796114Y-86764439D01*
X116904631Y-86643497D01*
X117043846Y-86563737D01*
X117208499Y-86529122D01*
X117225858Y-86528603D01*
X117225858Y-86707380D01*
X117112200Y-86730167D01*
X117059941Y-86756230D01*
X116977106Y-86839808D01*
X116918985Y-86957124D01*
X116889272Y-87092749D01*
X116891663Y-87231251D01*
X116920749Y-87337507D01*
X116993537Y-87450741D01*
X117093806Y-87528424D01*
X117210259Y-87566764D01*
X117331602Y-87561968D01*
X117442846Y-87512821D01*
X117546990Y-87410843D01*
X117612845Y-87281045D01*
X117632721Y-87155573D01*
X117613791Y-87038754D01*
X117564088Y-86916541D01*
X117494244Y-86810806D01*
X117439902Y-86758915D01*
X117342761Y-86717017D01*
X117225858Y-86707380D01*
X117225858Y-86528603D01*
X117247386Y-86527959D01*
X117372289Y-86538621D01*
X117476642Y-86574987D01*
X117570854Y-86643891D01*
X117665332Y-86752168D01*
X117730804Y-86845374D01*
X117750137Y-86833473D01*
X117790674Y-86791619D01*
X117808596Y-86770887D01*
X117920473Y-86672032D01*
X118043376Y-86620267D01*
X118127352Y-86615130D01*
X118127352Y-86795227D01*
X118022533Y-86819617D01*
X117932802Y-86884653D01*
X117865069Y-86978138D01*
X117826242Y-87087875D01*
X117823232Y-87201665D01*
X117849957Y-87284932D01*
X117929678Y-87396937D01*
X118026760Y-87463730D01*
X118134654Y-87482573D01*
X118246526Y-87450870D01*
X118332081Y-87381378D01*
X118384495Y-87286491D01*
X118405753Y-87177131D01*
X118397840Y-87064223D01*
X118362744Y-86958689D01*
X118302447Y-86871452D01*
X118218937Y-86813436D01*
X118127352Y-86795227D01*
X118127352Y-86615130D01*
X118169766Y-86612535D01*
X118292107Y-86645777D01*
X118402859Y-86716937D01*
X118494483Y-86822956D01*
X118559441Y-86960777D01*
X118586516Y-87086410D01*
X118581249Y-87250025D01*
G36*
X118580044Y-88931322D02*
G01*
X118525555Y-89084741D01*
X118427462Y-89220461D01*
X118290627Y-89331630D01*
X118131912Y-89407311D01*
X118017013Y-89434227D01*
X117865538Y-89451301D01*
X117693466Y-89458562D01*
X117516774Y-89456043D01*
X117351439Y-89443774D01*
X117213441Y-89421787D01*
X117154502Y-89405396D01*
X116987264Y-89323524D01*
X116854437Y-89210214D01*
X116760185Y-89072695D01*
X116708672Y-88918193D01*
X116704063Y-88753937D01*
X116724119Y-88658384D01*
X116792351Y-88521690D01*
X116905981Y-88407553D01*
X117061085Y-88317869D01*
X117253740Y-88254535D01*
X117480023Y-88219447D01*
X117521450Y-88217760D01*
X117521450Y-88401957D01*
X117373113Y-88409988D01*
X117256030Y-88429617D01*
X117159382Y-88462690D01*
X117072353Y-88511055D01*
X117068601Y-88513545D01*
X116967789Y-88609739D01*
X116907863Y-88729288D01*
X116891197Y-88860072D01*
X116920167Y-88989968D01*
X116960927Y-89063122D01*
X117052251Y-89149326D01*
X117185477Y-89217335D01*
X117351467Y-89264903D01*
X117541082Y-89289783D01*
X117745183Y-89289730D01*
X117844539Y-89280324D01*
X118046504Y-89240293D01*
X118201306Y-89176478D01*
X118310142Y-89087912D01*
X118374211Y-88973625D01*
X118394721Y-88835872D01*
X118379119Y-88709512D01*
X118327661Y-88608625D01*
X118233367Y-88522388D01*
X118165089Y-88479742D01*
X118109323Y-88451138D01*
X118053044Y-88431440D01*
X117983880Y-88418569D01*
X117889460Y-88410450D01*
X117757414Y-88405007D01*
X117711855Y-88403675D01*
X117521450Y-88401957D01*
X117521450Y-88217760D01*
X117646089Y-88212684D01*
X117901939Y-88228446D01*
X118120558Y-88274954D01*
X118299962Y-88351037D01*
X118438168Y-88455524D01*
X118533192Y-88587247D01*
X118583049Y-88745035D01*
X118586070Y-88767058D01*
X118580044Y-88931322D01*
G37*
X118580044Y-88931322D02*
X118525555Y-89084741D01*
X118427462Y-89220461D01*
X118290627Y-89331630D01*
X118131912Y-89407311D01*
X118017013Y-89434227D01*
X117865538Y-89451301D01*
X117693466Y-89458562D01*
X117516774Y-89456043D01*
X117351439Y-89443774D01*
X117213441Y-89421787D01*
X117154502Y-89405396D01*
X116987264Y-89323524D01*
X116854437Y-89210214D01*
X116760185Y-89072695D01*
X116708672Y-88918193D01*
X116704063Y-88753937D01*
X116724119Y-88658384D01*
X116792351Y-88521690D01*
X116905981Y-88407553D01*
X117061085Y-88317869D01*
X117253740Y-88254535D01*
X117480023Y-88219447D01*
X117521450Y-88217760D01*
X117521450Y-88401957D01*
X117373113Y-88409988D01*
X117256030Y-88429617D01*
X117159382Y-88462690D01*
X117072353Y-88511055D01*
X117068601Y-88513545D01*
X116967789Y-88609739D01*
X116907863Y-88729288D01*
X116891197Y-88860072D01*
X116920167Y-88989968D01*
X116960927Y-89063122D01*
X117052251Y-89149326D01*
X117185477Y-89217335D01*
X117351467Y-89264903D01*
X117541082Y-89289783D01*
X117745183Y-89289730D01*
X117844539Y-89280324D01*
X118046504Y-89240293D01*
X118201306Y-89176478D01*
X118310142Y-89087912D01*
X118374211Y-88973625D01*
X118394721Y-88835872D01*
X118379119Y-88709512D01*
X118327661Y-88608625D01*
X118233367Y-88522388D01*
X118165089Y-88479742D01*
X118109323Y-88451138D01*
X118053044Y-88431440D01*
X117983880Y-88418569D01*
X117889460Y-88410450D01*
X117757414Y-88405007D01*
X117711855Y-88403675D01*
X117521450Y-88401957D01*
X117521450Y-88217760D01*
X117646089Y-88212684D01*
X117901939Y-88228446D01*
X118120558Y-88274954D01*
X118299962Y-88351037D01*
X118438168Y-88455524D01*
X118533192Y-88587247D01*
X118583049Y-88745035D01*
X118586070Y-88767058D01*
X118580044Y-88931322D01*
G36*
X118584933Y-90621437D02*
G01*
X118543808Y-90759200D01*
X118472030Y-90876274D01*
X118376840Y-90968323D01*
X118265478Y-91031009D01*
X118145185Y-91059995D01*
X118023202Y-91050944D01*
X117906771Y-90999519D01*
X117823056Y-90925603D01*
X117741138Y-90832304D01*
X117700326Y-90911226D01*
X117611248Y-91027869D01*
X117485942Y-91106909D01*
X117328397Y-91145985D01*
X117299481Y-91148434D01*
X117125210Y-91137533D01*
X116977947Y-91080538D01*
X116856796Y-90976936D01*
X116770988Y-90846645D01*
X116734496Y-90742835D01*
X116711701Y-90612948D01*
X116704816Y-90479998D01*
X116716057Y-90366999D01*
X116722516Y-90342805D01*
X116788636Y-90214772D01*
X116894744Y-90099643D01*
X117018542Y-90016627D01*
X117128870Y-89967053D01*
X117202215Y-89950763D01*
X117243643Y-89968003D01*
X117258218Y-90019020D01*
X117258405Y-90028312D01*
X117249003Y-90085858D01*
X117210581Y-90119806D01*
X117169236Y-90135877D01*
X117047869Y-90202455D01*
X116954245Y-90306482D01*
X116897321Y-90435342D01*
X116884089Y-90537486D01*
X116906355Y-90683052D01*
X116968025Y-90811191D01*
X117061404Y-90911289D01*
X117178800Y-90972730D01*
X117204402Y-90979427D01*
X117314078Y-90978066D01*
X117419091Y-90931349D01*
X117510911Y-90847253D01*
X117581007Y-90733756D01*
X117620847Y-90598836D01*
X117622303Y-90588637D01*
X117634739Y-90510888D01*
X117652573Y-90472447D01*
X117687192Y-90459489D01*
X117729744Y-90458175D01*
X117792103Y-90464128D01*
X117817045Y-90488783D01*
X117820466Y-90518333D01*
X117831727Y-90579095D01*
X117859354Y-90660793D01*
X117873083Y-90693128D01*
X117941761Y-90794401D01*
X118029092Y-90852707D01*
X118125189Y-90870297D01*
X118220166Y-90849426D01*
X118304135Y-90792346D01*
X118367210Y-90701310D01*
X118399504Y-90578572D01*
X118400014Y-90573056D01*
X118388928Y-90434891D01*
X118331633Y-90321513D01*
X118230614Y-90237409D01*
X118207746Y-90225614D01*
X118144692Y-90188046D01*
X118118420Y-90143430D01*
X118113984Y-90089377D01*
X118117508Y-90028648D01*
X118136786Y-90008250D01*
X118184873Y-90015107D01*
X118187510Y-90015746D01*
X118327026Y-90075271D01*
X118446976Y-90174836D01*
X118536599Y-90302311D01*
X118585132Y-90445566D01*
X118588164Y-90467322D01*
X118584933Y-90621437D01*
G37*
X118584933Y-90621437D02*
X118543808Y-90759200D01*
X118472030Y-90876274D01*
X118376840Y-90968323D01*
X118265478Y-91031009D01*
X118145185Y-91059995D01*
X118023202Y-91050944D01*
X117906771Y-90999519D01*
X117823056Y-90925603D01*
X117741138Y-90832304D01*
X117700326Y-90911226D01*
X117611248Y-91027869D01*
X117485942Y-91106909D01*
X117328397Y-91145985D01*
X117299481Y-91148434D01*
X117125210Y-91137533D01*
X116977947Y-91080538D01*
X116856796Y-90976936D01*
X116770988Y-90846645D01*
X116734496Y-90742835D01*
X116711701Y-90612948D01*
X116704816Y-90479998D01*
X116716057Y-90366999D01*
X116722516Y-90342805D01*
X116788636Y-90214772D01*
X116894744Y-90099643D01*
X117018542Y-90016627D01*
X117128870Y-89967053D01*
X117202215Y-89950763D01*
X117243643Y-89968003D01*
X117258218Y-90019020D01*
X117258405Y-90028312D01*
X117249003Y-90085858D01*
X117210581Y-90119806D01*
X117169236Y-90135877D01*
X117047869Y-90202455D01*
X116954245Y-90306482D01*
X116897321Y-90435342D01*
X116884089Y-90537486D01*
X116906355Y-90683052D01*
X116968025Y-90811191D01*
X117061404Y-90911289D01*
X117178800Y-90972730D01*
X117204402Y-90979427D01*
X117314078Y-90978066D01*
X117419091Y-90931349D01*
X117510911Y-90847253D01*
X117581007Y-90733756D01*
X117620847Y-90598836D01*
X117622303Y-90588637D01*
X117634739Y-90510888D01*
X117652573Y-90472447D01*
X117687192Y-90459489D01*
X117729744Y-90458175D01*
X117792103Y-90464128D01*
X117817045Y-90488783D01*
X117820466Y-90518333D01*
X117831727Y-90579095D01*
X117859354Y-90660793D01*
X117873083Y-90693128D01*
X117941761Y-90794401D01*
X118029092Y-90852707D01*
X118125189Y-90870297D01*
X118220166Y-90849426D01*
X118304135Y-90792346D01*
X118367210Y-90701310D01*
X118399504Y-90578572D01*
X118400014Y-90573056D01*
X118388928Y-90434891D01*
X118331633Y-90321513D01*
X118230614Y-90237409D01*
X118207746Y-90225614D01*
X118144692Y-90188046D01*
X118118420Y-90143430D01*
X118113984Y-90089377D01*
X118117508Y-90028648D01*
X118136786Y-90008250D01*
X118184873Y-90015107D01*
X118187510Y-90015746D01*
X118327026Y-90075271D01*
X118446976Y-90174836D01*
X118536599Y-90302311D01*
X118585132Y-90445566D01*
X118588164Y-90467322D01*
X118584933Y-90621437D01*
G36*
X118381352Y-92811017D02*
G01*
X118381352Y-92149932D01*
X118175862Y-92116783D01*
X118074245Y-92099598D01*
X117992205Y-92084268D01*
X117944947Y-92073665D01*
X117941176Y-92072431D01*
X117924734Y-92090251D01*
X117915298Y-92159574D01*
X117912720Y-92273355D01*
X117911206Y-92384558D01*
X117902745Y-92460550D01*
X117882859Y-92519537D01*
X117847074Y-92579723D01*
X117832060Y-92601461D01*
X117718478Y-92726227D01*
X117582188Y-92805473D01*
X117417164Y-92842174D01*
X117337511Y-92845617D01*
X117149925Y-92822612D01*
X116989163Y-92756509D01*
X116860010Y-92651674D01*
X116767254Y-92512476D01*
X116715679Y-92343282D01*
X116707814Y-92271025D01*
X116707190Y-92167089D01*
X116715851Y-92072734D01*
X116727559Y-92022280D01*
X116807796Y-91876062D01*
X116924675Y-91761725D01*
X116998751Y-91717543D01*
X117098179Y-91674556D01*
X117160762Y-91662824D01*
X117193839Y-91683487D01*
X117204752Y-91737684D01*
X117204931Y-91749540D01*
X117197555Y-91811965D01*
X117165147Y-91848138D01*
X117112145Y-91871300D01*
X117009656Y-91934878D01*
X116935210Y-92034190D01*
X116894060Y-92156594D01*
X116891460Y-92289452D01*
X116908227Y-92361985D01*
X116971890Y-92477180D01*
X117074283Y-92575126D01*
X117200836Y-92642884D01*
X117237477Y-92654382D01*
X117321472Y-92672386D01*
X117387623Y-92670429D01*
X117464605Y-92646398D01*
X117491477Y-92635642D01*
X117609708Y-92561020D01*
X117689928Y-92452606D01*
X117730477Y-92315825D01*
X117729693Y-92156102D01*
X117689430Y-91988859D01*
X117665818Y-91912570D01*
X117655292Y-91861590D01*
X117657901Y-91848490D01*
X117688605Y-91853069D01*
X117762834Y-91865743D01*
X117871524Y-91884919D01*
X118005613Y-91909001D01*
X118113984Y-91928701D01*
X118260015Y-91955295D01*
X118386419Y-91978163D01*
X118484378Y-91995722D01*
X118545073Y-92006387D01*
X118560807Y-92008912D01*
X118563488Y-92034108D01*
X118565763Y-92103535D01*
X118567455Y-92207951D01*
X118568386Y-92338113D01*
X118568510Y-92409964D01*
X118568510Y-92811017D01*
X118381352Y-92811017D01*
G37*
X118381352Y-92811017D02*
X118381352Y-92149932D01*
X118175862Y-92116783D01*
X118074245Y-92099598D01*
X117992205Y-92084268D01*
X117944947Y-92073665D01*
X117941176Y-92072431D01*
X117924734Y-92090251D01*
X117915298Y-92159574D01*
X117912720Y-92273355D01*
X117911206Y-92384558D01*
X117902745Y-92460550D01*
X117882859Y-92519537D01*
X117847074Y-92579723D01*
X117832060Y-92601461D01*
X117718478Y-92726227D01*
X117582188Y-92805473D01*
X117417164Y-92842174D01*
X117337511Y-92845617D01*
X117149925Y-92822612D01*
X116989163Y-92756509D01*
X116860010Y-92651674D01*
X116767254Y-92512476D01*
X116715679Y-92343282D01*
X116707814Y-92271025D01*
X116707190Y-92167089D01*
X116715851Y-92072734D01*
X116727559Y-92022280D01*
X116807796Y-91876062D01*
X116924675Y-91761725D01*
X116998751Y-91717543D01*
X117098179Y-91674556D01*
X117160762Y-91662824D01*
X117193839Y-91683487D01*
X117204752Y-91737684D01*
X117204931Y-91749540D01*
X117197555Y-91811965D01*
X117165147Y-91848138D01*
X117112145Y-91871300D01*
X117009656Y-91934878D01*
X116935210Y-92034190D01*
X116894060Y-92156594D01*
X116891460Y-92289452D01*
X116908227Y-92361985D01*
X116971890Y-92477180D01*
X117074283Y-92575126D01*
X117200836Y-92642884D01*
X117237477Y-92654382D01*
X117321472Y-92672386D01*
X117387623Y-92670429D01*
X117464605Y-92646398D01*
X117491477Y-92635642D01*
X117609708Y-92561020D01*
X117689928Y-92452606D01*
X117730477Y-92315825D01*
X117729693Y-92156102D01*
X117689430Y-91988859D01*
X117665818Y-91912570D01*
X117655292Y-91861590D01*
X117657901Y-91848490D01*
X117688605Y-91853069D01*
X117762834Y-91865743D01*
X117871524Y-91884919D01*
X118005613Y-91909001D01*
X118113984Y-91928701D01*
X118260015Y-91955295D01*
X118386419Y-91978163D01*
X118484378Y-91995722D01*
X118545073Y-92006387D01*
X118560807Y-92008912D01*
X118563488Y-92034108D01*
X118565763Y-92103535D01*
X118567455Y-92207951D01*
X118568386Y-92338113D01*
X118568510Y-92409964D01*
X118568510Y-92811017D01*
X118381352Y-92811017D01*
G36*
X116910826Y-82036069D02*
G01*
X116910826Y-82731227D01*
X116723668Y-82731227D01*
X116723668Y-81848912D01*
X118568510Y-81848912D01*
X118568510Y-82036069D01*
X116910826Y-82036069D01*
G37*
X116910826Y-82036069D02*
X116910826Y-82731227D01*
X116723668Y-82731227D01*
X116723668Y-81848912D01*
X118568510Y-81848912D01*
X118568510Y-82036069D01*
X116910826Y-82036069D01*
G36*
X118568308Y-83633596D02*
G01*
X118561544Y-83889969D01*
X118540186Y-84101637D01*
X118502095Y-84275899D01*
X118445133Y-84420052D01*
X118367161Y-84541396D01*
X118273070Y-84640936D01*
X118158552Y-84733319D01*
X118046163Y-84796110D01*
X117921330Y-84834209D01*
X117769480Y-84852513D01*
X117632721Y-84856193D01*
X117499234Y-84854964D01*
X117403291Y-84848869D01*
X117329013Y-84835327D01*
X117260519Y-84811759D01*
X117204931Y-84786686D01*
X117030387Y-84679312D01*
X116896354Y-84540492D01*
X116807316Y-84388912D01*
X116782088Y-84331141D01*
X116763594Y-84275915D01*
X116750517Y-84213116D01*
X116741542Y-84132623D01*
X116735354Y-84024318D01*
X116730637Y-83878081D01*
X116728260Y-83780648D01*
X116717603Y-83319438D01*
X116903729Y-83319438D01*
X116903729Y-83506596D01*
X116916708Y-83847490D01*
X116926922Y-84024580D01*
X116942275Y-84164416D01*
X116961931Y-84260137D01*
X116969679Y-84281964D01*
X117059372Y-84431553D01*
X117184263Y-84555660D01*
X117268452Y-84610204D01*
X117336480Y-84640448D01*
X117411163Y-84658517D01*
X117508967Y-84667173D01*
X117619915Y-84669189D01*
X117745628Y-84667173D01*
X117835904Y-84658390D01*
X117908666Y-84639588D01*
X117981836Y-84607517D01*
X117993984Y-84601346D01*
X118123925Y-84510574D01*
X118235350Y-84387909D01*
X118313430Y-84250791D01*
X118328639Y-84207763D01*
X118342208Y-84139896D01*
X118355657Y-84034500D01*
X118367199Y-83907496D01*
X118373544Y-83807385D01*
X118388811Y-83506596D01*
X116903729Y-83506596D01*
X116903729Y-83319438D01*
X118568510Y-83319438D01*
X118568308Y-83633596D01*
G37*
X118568308Y-83633596D02*
X118561544Y-83889969D01*
X118540186Y-84101637D01*
X118502095Y-84275899D01*
X118445133Y-84420052D01*
X118367161Y-84541396D01*
X118273070Y-84640936D01*
X118158552Y-84733319D01*
X118046163Y-84796110D01*
X117921330Y-84834209D01*
X117769480Y-84852513D01*
X117632721Y-84856193D01*
X117499234Y-84854964D01*
X117403291Y-84848869D01*
X117329013Y-84835327D01*
X117260519Y-84811759D01*
X117204931Y-84786686D01*
X117030387Y-84679312D01*
X116896354Y-84540492D01*
X116807316Y-84388912D01*
X116782088Y-84331141D01*
X116763594Y-84275915D01*
X116750517Y-84213116D01*
X116741542Y-84132623D01*
X116735354Y-84024318D01*
X116730637Y-83878081D01*
X116728260Y-83780648D01*
X116717603Y-83319438D01*
X116903729Y-83319438D01*
X116903729Y-83506596D01*
X116916708Y-83847490D01*
X116926922Y-84024580D01*
X116942275Y-84164416D01*
X116961931Y-84260137D01*
X116969679Y-84281964D01*
X117059372Y-84431553D01*
X117184263Y-84555660D01*
X117268452Y-84610204D01*
X117336480Y-84640448D01*
X117411163Y-84658517D01*
X117508967Y-84667173D01*
X117619915Y-84669189D01*
X117745628Y-84667173D01*
X117835904Y-84658390D01*
X117908666Y-84639588D01*
X117981836Y-84607517D01*
X117993984Y-84601346D01*
X118123925Y-84510574D01*
X118235350Y-84387909D01*
X118313430Y-84250791D01*
X118328639Y-84207763D01*
X118342208Y-84139896D01*
X118355657Y-84034500D01*
X118367199Y-83907496D01*
X118373544Y-83807385D01*
X118388811Y-83506596D01*
X116903729Y-83506596D01*
X116903729Y-83319438D01*
X118568510Y-83319438D01*
X118568308Y-83633596D01*
G36*
X118381352Y-94548912D02*
G01*
X118381352Y-93666596D01*
X117819879Y-93666596D01*
X117819879Y-94522175D01*
X117632721Y-94522175D01*
X117632721Y-93666596D01*
X116910826Y-93666596D01*
X116910826Y-94522175D01*
X116723668Y-94522175D01*
X116723668Y-93479438D01*
X118568510Y-93479438D01*
X118568510Y-94548912D01*
X118381352Y-94548912D01*
G37*
X118381352Y-94548912D02*
X118381352Y-93666596D01*
X117819879Y-93666596D01*
X117819879Y-94522175D01*
X117632721Y-94522175D01*
X117632721Y-93666596D01*
X116910826Y-93666596D01*
X116910826Y-94522175D01*
X116723668Y-94522175D01*
X116723668Y-93479438D01*
X118568510Y-93479438D01*
X118568510Y-94548912D01*
X118381352Y-94548912D01*
G36*
X117338615Y-86046596D02*
G01*
X117338615Y-85378175D01*
X117525773Y-85378175D01*
X117525773Y-86046596D01*
X117338615Y-86046596D01*
G37*
X117338615Y-86046596D02*
X117338615Y-85378175D01*
X117525773Y-85378175D01*
X117525773Y-86046596D01*
X117338615Y-86046596D01*
D12*
X177812325Y-118860523D02*
G75*
G03*
X177812325Y-118860523I-1058166J0D01*
G01*
X177806000Y-114300000D02*
X177806000Y-115570000D01*
X177171000Y-114935000D02*
X178441000Y-114935000D01*
X183106000Y-114935000D02*
G75*
G03*
X183106000Y-114935000I-5300000J0D01*
G01*
X138303000Y-82804000D02*
X156083000Y-82804000D01*
X138303000Y-89796000D02*
X138303000Y-82804000D01*
X156083000Y-89796000D02*
X138303000Y-89796000D01*
X156083000Y-82804000D02*
X156083000Y-89796000D01*
X156083000Y-87630000D02*
G75*
G02*
X156083000Y-85090000I0J1270000D01*
G01*
X179040863Y-87634783D02*
G75*
G02*
X179041144Y-89535000I-732863J-950217D01*
G01*
X177575137Y-87634783D02*
G75*
G03*
X177574856Y-89535000I732863J-950217D01*
G01*
X187808000Y-81715000D02*
X187808000Y-94815000D01*
X194208000Y-81715000D02*
X194208000Y-94815000D01*
X187808000Y-81715000D02*
X194208000Y-81715000D01*
X187808000Y-94815000D02*
X194208000Y-94815000D01*
X171688000Y-90865000D02*
X173338000Y-90865000D01*
X173338000Y-90865000D02*
X173338000Y-80585000D01*
X173338000Y-80585000D02*
X168038000Y-80585000D01*
X168038000Y-80585000D02*
X168038000Y-90865000D01*
X168038000Y-90865000D02*
X169688000Y-90865000D01*
X169688000Y-90865000D02*
G75*
G02*
X171688000Y-90865000I1000000J0D01*
G01*
X186468000Y-105767000D02*
X186468000Y-105437000D01*
X186468000Y-105437000D02*
X193008000Y-105437000D01*
X193008000Y-105437000D02*
X193008000Y-105767000D01*
X186468000Y-107847000D02*
X186468000Y-108177000D01*
X186468000Y-108177000D02*
X193008000Y-108177000D01*
X193008000Y-108177000D02*
X193008000Y-107847000D01*
X174276000Y-105767000D02*
X174276000Y-105437000D01*
X174276000Y-105437000D02*
X180816000Y-105437000D01*
X180816000Y-105437000D02*
X180816000Y-105767000D01*
X174276000Y-107847000D02*
X174276000Y-108177000D01*
X174276000Y-108177000D02*
X180816000Y-108177000D01*
X180816000Y-108177000D02*
X180816000Y-107847000D01*
X162084000Y-105767000D02*
X162084000Y-105437000D01*
X162084000Y-105437000D02*
X168624000Y-105437000D01*
X168624000Y-105437000D02*
X168624000Y-105767000D01*
X162084000Y-107847000D02*
X162084000Y-108177000D01*
X162084000Y-108177000D02*
X168624000Y-108177000D01*
X168624000Y-108177000D02*
X168624000Y-107847000D01*
X149892000Y-105767000D02*
X149892000Y-105437000D01*
X149892000Y-105437000D02*
X156432000Y-105437000D01*
X156432000Y-105437000D02*
X156432000Y-105767000D01*
X149892000Y-107847000D02*
X149892000Y-108177000D01*
X149892000Y-108177000D02*
X156432000Y-108177000D01*
X156432000Y-108177000D02*
X156432000Y-107847000D01*
X137700000Y-105767000D02*
X137700000Y-105437000D01*
X137700000Y-105437000D02*
X144240000Y-105437000D01*
X144240000Y-105437000D02*
X144240000Y-105767000D01*
X137700000Y-107847000D02*
X137700000Y-108177000D01*
X137700000Y-108177000D02*
X144240000Y-108177000D01*
X144240000Y-108177000D02*
X144240000Y-107847000D01*
X125508000Y-105767000D02*
X125508000Y-105437000D01*
X125508000Y-105437000D02*
X132048000Y-105437000D01*
X132048000Y-105437000D02*
X132048000Y-105767000D01*
X125508000Y-107847000D02*
X125508000Y-108177000D01*
X125508000Y-108177000D02*
X132048000Y-108177000D01*
X132048000Y-108177000D02*
X132048000Y-107847000D01*
X134088000Y-87725000D02*
X133758000Y-87725000D01*
X133758000Y-87725000D02*
X133758000Y-81185000D01*
X133758000Y-81185000D02*
X134088000Y-81185000D01*
X136168000Y-87725000D02*
X136498000Y-87725000D01*
X136498000Y-87725000D02*
X136498000Y-81185000D01*
X136498000Y-81185000D02*
X136168000Y-81185000D01*
X129008000Y-87725000D02*
X128678000Y-87725000D01*
X128678000Y-87725000D02*
X128678000Y-81185000D01*
X128678000Y-81185000D02*
X129008000Y-81185000D01*
X131088000Y-87725000D02*
X131418000Y-87725000D01*
X131418000Y-87725000D02*
X131418000Y-81185000D01*
X131418000Y-81185000D02*
X131088000Y-81185000D01*
X183448000Y-97806000D02*
X183448000Y-96156000D01*
X183448000Y-96156000D02*
X160468000Y-96156000D01*
X160468000Y-96156000D02*
X160468000Y-101456000D01*
X160468000Y-101456000D02*
X183448000Y-101456000D01*
X183448000Y-101456000D02*
X183448000Y-99806000D01*
X183448000Y-99806000D02*
G75*
G02*
X183448000Y-97806000I0J1000000D01*
G01*
X156778000Y-97806000D02*
X156778000Y-96156000D01*
X156778000Y-96156000D02*
X133798000Y-96156000D01*
X133798000Y-96156000D02*
X133798000Y-101456000D01*
X133798000Y-101456000D02*
X156778000Y-101456000D01*
X156778000Y-101456000D02*
X156778000Y-99806000D01*
X156778000Y-99806000D02*
G75*
G02*
X156778000Y-97806000I0J1000000D01*
G01*
X120142000Y-99875000D02*
X121158000Y-99875000D01*
X121158000Y-109675000D02*
X121158000Y-108585000D01*
X121158000Y-99875000D02*
X121158000Y-100891000D01*
X121158000Y-109675000D02*
X120068000Y-109675000D01*
X190069325Y-118860523D02*
G75*
G03*
X190069325Y-118860523I-1058166J0D01*
G01*
X190063000Y-114300000D02*
X190063000Y-115570000D01*
X189428000Y-114935000D02*
X190698000Y-114935000D01*
X195363000Y-114935000D02*
G75*
G03*
X195363000Y-114935000I-5300000J0D01*
G01*
X165555325Y-118860523D02*
G75*
G03*
X165555325Y-118860523I-1058166J0D01*
G01*
X165549000Y-114300000D02*
X165549000Y-115570000D01*
X164914000Y-114935000D02*
X166184000Y-114935000D01*
X170849000Y-114935000D02*
G75*
G03*
X170849000Y-114935000I-5300000J0D01*
G01*
X153298325Y-118860523D02*
G75*
G03*
X153298325Y-118860523I-1058166J0D01*
G01*
X153292000Y-114300000D02*
X153292000Y-115570000D01*
X152657000Y-114935000D02*
X153927000Y-114935000D01*
X158592000Y-114935000D02*
G75*
G03*
X158592000Y-114935000I-5300000J0D01*
G01*
X141041325Y-118860523D02*
G75*
G03*
X141041325Y-118860523I-1058166J0D01*
G01*
X141035000Y-114300000D02*
X141035000Y-115570000D01*
X140400000Y-114935000D02*
X141670000Y-114935000D01*
X146335000Y-114935000D02*
G75*
G03*
X146335000Y-114935000I-5300000J0D01*
G01*
X128784325Y-118860523D02*
G75*
G03*
X128784325Y-118860523I-1058166J0D01*
G01*
X128778000Y-114300000D02*
X128778000Y-115570000D01*
X128143000Y-114935000D02*
X129413000Y-114935000D01*
X134078000Y-114935000D02*
G75*
G03*
X134078000Y-114935000I-5300000J0D01*
G01*
X130148000Y-91995000D02*
X130148000Y-102235000D01*
X127408000Y-91995000D02*
X127408000Y-102235000D01*
X130148000Y-91995000D02*
X127408000Y-91995000D01*
X130148000Y-102235000D02*
X127408000Y-102235000D01*
D13*
X140208000Y-125095000D02*
X157988000Y-125095000D01*
X157988000Y-125095000D02*
X157988000Y-122555000D01*
X157988000Y-122555000D02*
X140208000Y-122555000D01*
X137388000Y-125375000D02*
X138938000Y-125375000D01*
X140208000Y-125095000D02*
X140208000Y-122555000D01*
X138938000Y-122275000D02*
X137388000Y-122275000D01*
X137388000Y-122275000D02*
X137388000Y-125375000D01*
X163068000Y-125095000D02*
X175768000Y-125095000D01*
X175768000Y-125095000D02*
X175768000Y-122555000D01*
X175768000Y-122555000D02*
X163068000Y-122555000D01*
X160248000Y-125375000D02*
X161798000Y-125375000D01*
X163068000Y-125095000D02*
X163068000Y-122555000D01*
X161798000Y-122275000D02*
X160248000Y-122275000D01*
X160248000Y-122275000D02*
X160248000Y-125375000D01*
X131064000Y-76835000D02*
X153924000Y-76835000D01*
X153924000Y-76835000D02*
X153924000Y-74295000D01*
X153924000Y-74295000D02*
X131064000Y-74295000D01*
X128244000Y-77115000D02*
X129794000Y-77115000D01*
X131064000Y-76835000D02*
X131064000Y-74295000D01*
X129794000Y-74015000D02*
X128244000Y-74015000D01*
X128244000Y-74015000D02*
X128244000Y-77115000D01*
X157988000Y-76835000D02*
X175768000Y-76835000D01*
X175768000Y-76835000D02*
X175768000Y-74295000D01*
X175768000Y-74295000D02*
X157988000Y-74295000D01*
X155168000Y-77115000D02*
X156718000Y-77115000D01*
X157988000Y-76835000D02*
X157988000Y-74295000D01*
X156718000Y-74015000D02*
X155168000Y-74015000D01*
X155168000Y-74015000D02*
X155168000Y-77115000D01*
X177710761Y-121832619D02*
X177615523Y-121785000D01*
X177520285Y-121689761D01*
X177377428Y-121546904D01*
X177282190Y-121499285D01*
X177186952Y-121499285D01*
X177234571Y-121737380D02*
X177139333Y-121689761D01*
X177044095Y-121594523D01*
X176996476Y-121404047D01*
X176996476Y-121070714D01*
X177044095Y-120880238D01*
X177139333Y-120785000D01*
X177234571Y-120737380D01*
X177425047Y-120737380D01*
X177520285Y-120785000D01*
X177615523Y-120880238D01*
X177663142Y-121070714D01*
X177663142Y-121404047D01*
X177615523Y-121594523D01*
X177520285Y-121689761D01*
X177425047Y-121737380D01*
X177234571Y-121737380D01*
X178567904Y-120737380D02*
X178091714Y-120737380D01*
X178044095Y-121213571D01*
X178091714Y-121165952D01*
X178186952Y-121118333D01*
X178425047Y-121118333D01*
X178520285Y-121165952D01*
X178567904Y-121213571D01*
X178615523Y-121308809D01*
X178615523Y-121546904D01*
X178567904Y-121642142D01*
X178520285Y-121689761D01*
X178425047Y-121737380D01*
X178186952Y-121737380D01*
X178091714Y-121689761D01*
X178044095Y-121642142D01*
X156605378Y-86826123D02*
X157414902Y-86826123D01*
X157510140Y-86778504D01*
X157557759Y-86730885D01*
X157605378Y-86635647D01*
X157605378Y-86445171D01*
X157557759Y-86349933D01*
X157510140Y-86302314D01*
X157414902Y-86254695D01*
X156605378Y-86254695D01*
X157605378Y-85254695D02*
X157605378Y-85826123D01*
X157605378Y-85540409D02*
X156605378Y-85540409D01*
X156748236Y-85635647D01*
X156843474Y-85730885D01*
X156891093Y-85826123D01*
X143130229Y-86768046D02*
X143130229Y-85768046D01*
X144177848Y-86672808D02*
X144130229Y-86720427D01*
X143987372Y-86768046D01*
X143892134Y-86768046D01*
X143749277Y-86720427D01*
X143654039Y-86625189D01*
X143606420Y-86529951D01*
X143558801Y-86339475D01*
X143558801Y-86196618D01*
X143606420Y-86006142D01*
X143654039Y-85910904D01*
X143749277Y-85815666D01*
X143892134Y-85768046D01*
X143987372Y-85768046D01*
X144130229Y-85815666D01*
X144177848Y-85863285D01*
X144368325Y-86863285D02*
X145130229Y-86863285D01*
X145368325Y-86768046D02*
X145368325Y-85768046D01*
X145368325Y-86244237D02*
X145939753Y-86244237D01*
X145939753Y-86768046D02*
X145939753Y-85768046D01*
X146273086Y-85768046D02*
X146844515Y-85768046D01*
X146558801Y-86768046D02*
X146558801Y-85768046D01*
X147701658Y-86768046D02*
X147130229Y-86768046D01*
X147415944Y-86768046D02*
X147415944Y-85768046D01*
X147320706Y-85910904D01*
X147225467Y-86006142D01*
X147130229Y-86053761D01*
X148558801Y-85768046D02*
X148368325Y-85768046D01*
X148273086Y-85815666D01*
X148225467Y-85863285D01*
X148130229Y-86006142D01*
X148082610Y-86196618D01*
X148082610Y-86577570D01*
X148130229Y-86672808D01*
X148177848Y-86720427D01*
X148273086Y-86768046D01*
X148463563Y-86768046D01*
X148558801Y-86720427D01*
X148606420Y-86672808D01*
X148654039Y-86577570D01*
X148654039Y-86339475D01*
X148606420Y-86244237D01*
X148558801Y-86196618D01*
X148463563Y-86148999D01*
X148273086Y-86148999D01*
X148177848Y-86196618D01*
X148130229Y-86244237D01*
X148082610Y-86339475D01*
X149082610Y-86768046D02*
X149082610Y-85768046D01*
X149654039Y-86768046D02*
X149225467Y-86196618D01*
X149654039Y-85768046D02*
X149082610Y-86339475D01*
X149987372Y-85768046D02*
X150606420Y-85768046D01*
X150273086Y-86148999D01*
X150415944Y-86148999D01*
X150511182Y-86196618D01*
X150558801Y-86244237D01*
X150606420Y-86339475D01*
X150606420Y-86577570D01*
X150558801Y-86672808D01*
X150511182Y-86720427D01*
X150415944Y-86768046D01*
X150130229Y-86768046D01*
X150034991Y-86720427D01*
X149987372Y-86672808D01*
X150939753Y-85768046D02*
X151558801Y-85768046D01*
X151225467Y-86148999D01*
X151368325Y-86148999D01*
X151463563Y-86196618D01*
X151511182Y-86244237D01*
X151558801Y-86339475D01*
X151558801Y-86577570D01*
X151511182Y-86672808D01*
X151463563Y-86720427D01*
X151368325Y-86768046D01*
X151082610Y-86768046D01*
X150987372Y-86720427D01*
X150939753Y-86672808D01*
X177831809Y-91841190D02*
X177831809Y-92317380D01*
X177498476Y-91317380D02*
X177831809Y-91841190D01*
X178165142Y-91317380D01*
X179022285Y-92317380D02*
X178450857Y-92317380D01*
X178736571Y-92317380D02*
X178736571Y-91317380D01*
X178641333Y-91460238D01*
X178546095Y-91555476D01*
X178450857Y-91603095D01*
X195381550Y-89040395D02*
X195429169Y-88897538D01*
X195476788Y-88849919D01*
X195572026Y-88802300D01*
X195714883Y-88802300D01*
X195810121Y-88849919D01*
X195857740Y-88897538D01*
X195905359Y-88992776D01*
X195905359Y-89373728D01*
X194905359Y-89373728D01*
X194905359Y-89040395D01*
X194952979Y-88945157D01*
X195000598Y-88897538D01*
X195095836Y-88849919D01*
X195191074Y-88849919D01*
X195286312Y-88897538D01*
X195333931Y-88945157D01*
X195381550Y-89040395D01*
X195381550Y-89373728D01*
X194905359Y-88516585D02*
X194905359Y-87945157D01*
X195905359Y-88230871D02*
X194905359Y-88230871D01*
X195905359Y-87088014D02*
X195905359Y-87659442D01*
X195905359Y-87373728D02*
X194905359Y-87373728D01*
X195048217Y-87468966D01*
X195143455Y-87564204D01*
X195191074Y-87659442D01*
X169926095Y-91317380D02*
X169926095Y-92126904D01*
X169973714Y-92222142D01*
X170021333Y-92269761D01*
X170116571Y-92317380D01*
X170307047Y-92317380D01*
X170402285Y-92269761D01*
X170449904Y-92222142D01*
X170497523Y-92126904D01*
X170497523Y-91317380D01*
X171402285Y-91317380D02*
X171211809Y-91317380D01*
X171116571Y-91365000D01*
X171068952Y-91412619D01*
X170973714Y-91555476D01*
X170926095Y-91745952D01*
X170926095Y-92126904D01*
X170973714Y-92222142D01*
X171021333Y-92269761D01*
X171116571Y-92317380D01*
X171307047Y-92317380D01*
X171402285Y-92269761D01*
X171449904Y-92222142D01*
X171497523Y-92126904D01*
X171497523Y-91888809D01*
X171449904Y-91793571D01*
X171402285Y-91745952D01*
X171307047Y-91698333D01*
X171116571Y-91698333D01*
X171021333Y-91745952D01*
X170973714Y-91793571D01*
X170926095Y-91888809D01*
X171137448Y-88399469D02*
X170137448Y-88399469D01*
X170137448Y-88161374D01*
X170185068Y-88018517D01*
X170280306Y-87923279D01*
X170375544Y-87875660D01*
X170566020Y-87828041D01*
X170708877Y-87828041D01*
X170899353Y-87875660D01*
X170994591Y-87923279D01*
X171089829Y-88018517D01*
X171137448Y-88161374D01*
X171137448Y-88399469D01*
X171089829Y-87447088D02*
X171137448Y-87304231D01*
X171137448Y-87066136D01*
X171089829Y-86970898D01*
X171042210Y-86923279D01*
X170946972Y-86875660D01*
X170851734Y-86875660D01*
X170756496Y-86923279D01*
X170708877Y-86970898D01*
X170661258Y-87066136D01*
X170613639Y-87256612D01*
X170566020Y-87351850D01*
X170518401Y-87399469D01*
X170423163Y-87447088D01*
X170327925Y-87447088D01*
X170232687Y-87399469D01*
X170185068Y-87351850D01*
X170137448Y-87256612D01*
X170137448Y-87018517D01*
X170185068Y-86875660D01*
X171137448Y-85923279D02*
X171137448Y-86494707D01*
X171137448Y-86208993D02*
X170137448Y-86208993D01*
X170280306Y-86304231D01*
X170375544Y-86399469D01*
X170423163Y-86494707D01*
X170137448Y-85589945D02*
X170137448Y-84970898D01*
X170518401Y-85304231D01*
X170518401Y-85161374D01*
X170566020Y-85066136D01*
X170613639Y-85018517D01*
X170708877Y-84970898D01*
X170946972Y-84970898D01*
X171042210Y-85018517D01*
X171089829Y-85066136D01*
X171137448Y-85161374D01*
X171137448Y-85447088D01*
X171089829Y-85542326D01*
X171042210Y-85589945D01*
X170137448Y-84351850D02*
X170137448Y-84256612D01*
X170185068Y-84161374D01*
X170232687Y-84113755D01*
X170327925Y-84066136D01*
X170518401Y-84018517D01*
X170756496Y-84018517D01*
X170946972Y-84066136D01*
X171042210Y-84113755D01*
X171089829Y-84161374D01*
X171137448Y-84256612D01*
X171137448Y-84351850D01*
X171089829Y-84447088D01*
X171042210Y-84494707D01*
X170946972Y-84542326D01*
X170756496Y-84589945D01*
X170518401Y-84589945D01*
X170327925Y-84542326D01*
X170232687Y-84494707D01*
X170185068Y-84447088D01*
X170137448Y-84351850D01*
X170137448Y-83685184D02*
X170137448Y-83018517D01*
X171137448Y-83447088D01*
X170756496Y-82637565D02*
X170756496Y-81875660D01*
X171137448Y-82256612D02*
X170375544Y-82256612D01*
X189571333Y-104889380D02*
X189238000Y-104413190D01*
X188999904Y-104889380D02*
X188999904Y-103889380D01*
X189380857Y-103889380D01*
X189476095Y-103937000D01*
X189523714Y-103984619D01*
X189571333Y-104079857D01*
X189571333Y-104222714D01*
X189523714Y-104317952D01*
X189476095Y-104365571D01*
X189380857Y-104413190D01*
X188999904Y-104413190D01*
X190142761Y-104317952D02*
X190047523Y-104270333D01*
X189999904Y-104222714D01*
X189952285Y-104127476D01*
X189952285Y-104079857D01*
X189999904Y-103984619D01*
X190047523Y-103937000D01*
X190142761Y-103889380D01*
X190333238Y-103889380D01*
X190428476Y-103937000D01*
X190476095Y-103984619D01*
X190523714Y-104079857D01*
X190523714Y-104127476D01*
X190476095Y-104222714D01*
X190428476Y-104270333D01*
X190333238Y-104317952D01*
X190142761Y-104317952D01*
X190047523Y-104365571D01*
X189999904Y-104413190D01*
X189952285Y-104508428D01*
X189952285Y-104698904D01*
X189999904Y-104794142D01*
X190047523Y-104841761D01*
X190142761Y-104889380D01*
X190333238Y-104889380D01*
X190428476Y-104841761D01*
X190476095Y-104794142D01*
X190523714Y-104698904D01*
X190523714Y-104508428D01*
X190476095Y-104413190D01*
X190428476Y-104365571D01*
X190333238Y-104317952D01*
X189021309Y-106338759D02*
X188545118Y-106338759D01*
X188497499Y-106814950D01*
X188545118Y-106767331D01*
X188640356Y-106719712D01*
X188878452Y-106719712D01*
X188973690Y-106767331D01*
X189021309Y-106814950D01*
X189068928Y-106910188D01*
X189068928Y-107148283D01*
X189021309Y-107243521D01*
X188973690Y-107291140D01*
X188878452Y-107338759D01*
X188640356Y-107338759D01*
X188545118Y-107291140D01*
X188497499Y-107243521D01*
X190021309Y-107338759D02*
X189449880Y-107338759D01*
X189735595Y-107338759D02*
X189735595Y-106338759D01*
X189640356Y-106481617D01*
X189545118Y-106576855D01*
X189449880Y-106624474D01*
X190640356Y-106338759D02*
X190735595Y-106338759D01*
X190830833Y-106386379D01*
X190878452Y-106433998D01*
X190926071Y-106529236D01*
X190973690Y-106719712D01*
X190973690Y-106957807D01*
X190926071Y-107148283D01*
X190878452Y-107243521D01*
X190830833Y-107291140D01*
X190735595Y-107338759D01*
X190640356Y-107338759D01*
X190545118Y-107291140D01*
X190497499Y-107243521D01*
X190449880Y-107148283D01*
X190402261Y-106957807D01*
X190402261Y-106719712D01*
X190449880Y-106529236D01*
X190497499Y-106433998D01*
X190545118Y-106386379D01*
X190640356Y-106338759D01*
X177379333Y-104889380D02*
X177046000Y-104413190D01*
X176807904Y-104889380D02*
X176807904Y-103889380D01*
X177188857Y-103889380D01*
X177284095Y-103937000D01*
X177331714Y-103984619D01*
X177379333Y-104079857D01*
X177379333Y-104222714D01*
X177331714Y-104317952D01*
X177284095Y-104365571D01*
X177188857Y-104413190D01*
X176807904Y-104413190D01*
X177712666Y-103889380D02*
X178379333Y-103889380D01*
X177950761Y-104889380D01*
X176818239Y-106338759D02*
X176342048Y-106338759D01*
X176294429Y-106814950D01*
X176342048Y-106767331D01*
X176437286Y-106719712D01*
X176675382Y-106719712D01*
X176770620Y-106767331D01*
X176818239Y-106814950D01*
X176865858Y-106910188D01*
X176865858Y-107148283D01*
X176818239Y-107243521D01*
X176770620Y-107291140D01*
X176675382Y-107338759D01*
X176437286Y-107338759D01*
X176342048Y-107291140D01*
X176294429Y-107243521D01*
X177818239Y-107338759D02*
X177246810Y-107338759D01*
X177532525Y-107338759D02*
X177532525Y-106338759D01*
X177437286Y-106481617D01*
X177342048Y-106576855D01*
X177246810Y-106624474D01*
X178437286Y-106338759D02*
X178532525Y-106338759D01*
X178627763Y-106386379D01*
X178675382Y-106433998D01*
X178723001Y-106529236D01*
X178770620Y-106719712D01*
X178770620Y-106957807D01*
X178723001Y-107148283D01*
X178675382Y-107243521D01*
X178627763Y-107291140D01*
X178532525Y-107338759D01*
X178437286Y-107338759D01*
X178342048Y-107291140D01*
X178294429Y-107243521D01*
X178246810Y-107148283D01*
X178199191Y-106957807D01*
X178199191Y-106719712D01*
X178246810Y-106529236D01*
X178294429Y-106433998D01*
X178342048Y-106386379D01*
X178437286Y-106338759D01*
X165187333Y-104889380D02*
X164854000Y-104413190D01*
X164615904Y-104889380D02*
X164615904Y-103889380D01*
X164996857Y-103889380D01*
X165092095Y-103937000D01*
X165139714Y-103984619D01*
X165187333Y-104079857D01*
X165187333Y-104222714D01*
X165139714Y-104317952D01*
X165092095Y-104365571D01*
X164996857Y-104413190D01*
X164615904Y-104413190D01*
X166044476Y-103889380D02*
X165854000Y-103889380D01*
X165758761Y-103937000D01*
X165711142Y-103984619D01*
X165615904Y-104127476D01*
X165568285Y-104317952D01*
X165568285Y-104698904D01*
X165615904Y-104794142D01*
X165663523Y-104841761D01*
X165758761Y-104889380D01*
X165949238Y-104889380D01*
X166044476Y-104841761D01*
X166092095Y-104794142D01*
X166139714Y-104698904D01*
X166139714Y-104460809D01*
X166092095Y-104365571D01*
X166044476Y-104317952D01*
X165949238Y-104270333D01*
X165758761Y-104270333D01*
X165663523Y-104317952D01*
X165615904Y-104365571D01*
X165568285Y-104460809D01*
X164648786Y-106271525D02*
X164172595Y-106271525D01*
X164124976Y-106747716D01*
X164172595Y-106700097D01*
X164267833Y-106652478D01*
X164505929Y-106652478D01*
X164601167Y-106700097D01*
X164648786Y-106747716D01*
X164696405Y-106842954D01*
X164696405Y-107081049D01*
X164648786Y-107176287D01*
X164601167Y-107223906D01*
X164505929Y-107271525D01*
X164267833Y-107271525D01*
X164172595Y-107223906D01*
X164124976Y-107176287D01*
X165648786Y-107271525D02*
X165077357Y-107271525D01*
X165363072Y-107271525D02*
X165363072Y-106271525D01*
X165267833Y-106414383D01*
X165172595Y-106509621D01*
X165077357Y-106557240D01*
X166267833Y-106271525D02*
X166363072Y-106271525D01*
X166458310Y-106319145D01*
X166505929Y-106366764D01*
X166553548Y-106462002D01*
X166601167Y-106652478D01*
X166601167Y-106890573D01*
X166553548Y-107081049D01*
X166505929Y-107176287D01*
X166458310Y-107223906D01*
X166363072Y-107271525D01*
X166267833Y-107271525D01*
X166172595Y-107223906D01*
X166124976Y-107176287D01*
X166077357Y-107081049D01*
X166029738Y-106890573D01*
X166029738Y-106652478D01*
X166077357Y-106462002D01*
X166124976Y-106366764D01*
X166172595Y-106319145D01*
X166267833Y-106271525D01*
X152995333Y-104889380D02*
X152662000Y-104413190D01*
X152423904Y-104889380D02*
X152423904Y-103889380D01*
X152804857Y-103889380D01*
X152900095Y-103937000D01*
X152947714Y-103984619D01*
X152995333Y-104079857D01*
X152995333Y-104222714D01*
X152947714Y-104317952D01*
X152900095Y-104365571D01*
X152804857Y-104413190D01*
X152423904Y-104413190D01*
X153900095Y-103889380D02*
X153423904Y-103889380D01*
X153376285Y-104365571D01*
X153423904Y-104317952D01*
X153519142Y-104270333D01*
X153757238Y-104270333D01*
X153852476Y-104317952D01*
X153900095Y-104365571D01*
X153947714Y-104460809D01*
X153947714Y-104698904D01*
X153900095Y-104794142D01*
X153852476Y-104841761D01*
X153757238Y-104889380D01*
X153519142Y-104889380D01*
X153423904Y-104841761D01*
X153376285Y-104794142D01*
X152496142Y-106254716D02*
X152019951Y-106254716D01*
X151972332Y-106730907D01*
X152019951Y-106683288D01*
X152115189Y-106635669D01*
X152353285Y-106635669D01*
X152448523Y-106683288D01*
X152496142Y-106730907D01*
X152543761Y-106826145D01*
X152543761Y-107064240D01*
X152496142Y-107159478D01*
X152448523Y-107207097D01*
X152353285Y-107254716D01*
X152115189Y-107254716D01*
X152019951Y-107207097D01*
X151972332Y-107159478D01*
X153496142Y-107254716D02*
X152924713Y-107254716D01*
X153210428Y-107254716D02*
X153210428Y-106254716D01*
X153115189Y-106397574D01*
X153019951Y-106492812D01*
X152924713Y-106540431D01*
X154115189Y-106254716D02*
X154210428Y-106254716D01*
X154305666Y-106302336D01*
X154353285Y-106349955D01*
X154400904Y-106445193D01*
X154448523Y-106635669D01*
X154448523Y-106873764D01*
X154400904Y-107064240D01*
X154353285Y-107159478D01*
X154305666Y-107207097D01*
X154210428Y-107254716D01*
X154115189Y-107254716D01*
X154019951Y-107207097D01*
X153972332Y-107159478D01*
X153924713Y-107064240D01*
X153877094Y-106873764D01*
X153877094Y-106635669D01*
X153924713Y-106445193D01*
X153972332Y-106349955D01*
X154019951Y-106302336D01*
X154115189Y-106254716D01*
X140803333Y-104889380D02*
X140470000Y-104413190D01*
X140231904Y-104889380D02*
X140231904Y-103889380D01*
X140612857Y-103889380D01*
X140708095Y-103937000D01*
X140755714Y-103984619D01*
X140803333Y-104079857D01*
X140803333Y-104222714D01*
X140755714Y-104317952D01*
X140708095Y-104365571D01*
X140612857Y-104413190D01*
X140231904Y-104413190D01*
X141660476Y-104222714D02*
X141660476Y-104889380D01*
X141422380Y-103841761D02*
X141184285Y-104556047D01*
X141803333Y-104556047D01*
X140494775Y-106271525D02*
X140018584Y-106271525D01*
X139970965Y-106747716D01*
X140018584Y-106700097D01*
X140113822Y-106652478D01*
X140351918Y-106652478D01*
X140447156Y-106700097D01*
X140494775Y-106747716D01*
X140542394Y-106842954D01*
X140542394Y-107081049D01*
X140494775Y-107176287D01*
X140447156Y-107223906D01*
X140351918Y-107271525D01*
X140113822Y-107271525D01*
X140018584Y-107223906D01*
X139970965Y-107176287D01*
X141494775Y-107271525D02*
X140923346Y-107271525D01*
X141209061Y-107271525D02*
X141209061Y-106271525D01*
X141113822Y-106414383D01*
X141018584Y-106509621D01*
X140923346Y-106557240D01*
X142113822Y-106271525D02*
X142209061Y-106271525D01*
X142304299Y-106319145D01*
X142351918Y-106366764D01*
X142399537Y-106462002D01*
X142447156Y-106652478D01*
X142447156Y-106890573D01*
X142399537Y-107081049D01*
X142351918Y-107176287D01*
X142304299Y-107223906D01*
X142209061Y-107271525D01*
X142113822Y-107271525D01*
X142018584Y-107223906D01*
X141970965Y-107176287D01*
X141923346Y-107081049D01*
X141875727Y-106890573D01*
X141875727Y-106652478D01*
X141923346Y-106462002D01*
X141970965Y-106366764D01*
X142018584Y-106319145D01*
X142113822Y-106271525D01*
X128611333Y-104889380D02*
X128278000Y-104413190D01*
X128039904Y-104889380D02*
X128039904Y-103889380D01*
X128420857Y-103889380D01*
X128516095Y-103937000D01*
X128563714Y-103984619D01*
X128611333Y-104079857D01*
X128611333Y-104222714D01*
X128563714Y-104317952D01*
X128516095Y-104365571D01*
X128420857Y-104413190D01*
X128039904Y-104413190D01*
X128944666Y-103889380D02*
X129563714Y-103889380D01*
X129230380Y-104270333D01*
X129373238Y-104270333D01*
X129468476Y-104317952D01*
X129516095Y-104365571D01*
X129563714Y-104460809D01*
X129563714Y-104698904D01*
X129516095Y-104794142D01*
X129468476Y-104841761D01*
X129373238Y-104889380D01*
X129087523Y-104889380D01*
X128992285Y-104841761D01*
X128944666Y-104794142D01*
X128124225Y-106273206D02*
X127648034Y-106273206D01*
X127600415Y-106749397D01*
X127648034Y-106701778D01*
X127743272Y-106654159D01*
X127981368Y-106654159D01*
X128076606Y-106701778D01*
X128124225Y-106749397D01*
X128171844Y-106844635D01*
X128171844Y-107082730D01*
X128124225Y-107177968D01*
X128076606Y-107225587D01*
X127981368Y-107273206D01*
X127743272Y-107273206D01*
X127648034Y-107225587D01*
X127600415Y-107177968D01*
X129124225Y-107273206D02*
X128552796Y-107273206D01*
X128838511Y-107273206D02*
X128838511Y-106273206D01*
X128743272Y-106416064D01*
X128648034Y-106511302D01*
X128552796Y-106558921D01*
X129743272Y-106273206D02*
X129838511Y-106273206D01*
X129933749Y-106320826D01*
X129981368Y-106368445D01*
X130028987Y-106463683D01*
X130076606Y-106654159D01*
X130076606Y-106892254D01*
X130028987Y-107082730D01*
X129981368Y-107177968D01*
X129933749Y-107225587D01*
X129838511Y-107273206D01*
X129743272Y-107273206D01*
X129648034Y-107225587D01*
X129600415Y-107177968D01*
X129552796Y-107082730D01*
X129505177Y-106892254D01*
X129505177Y-106654159D01*
X129552796Y-106463683D01*
X129600415Y-106368445D01*
X129648034Y-106320826D01*
X129743272Y-106273206D01*
X133210380Y-84621666D02*
X132734190Y-84955000D01*
X133210380Y-85193095D02*
X132210380Y-85193095D01*
X132210380Y-84812142D01*
X132258000Y-84716904D01*
X132305619Y-84669285D01*
X132400857Y-84621666D01*
X132543714Y-84621666D01*
X132638952Y-84669285D01*
X132686571Y-84716904D01*
X132734190Y-84812142D01*
X132734190Y-85193095D01*
X132305619Y-84240714D02*
X132258000Y-84193095D01*
X132210380Y-84097857D01*
X132210380Y-83859761D01*
X132258000Y-83764523D01*
X132305619Y-83716904D01*
X132400857Y-83669285D01*
X132496095Y-83669285D01*
X132638952Y-83716904D01*
X133210380Y-84288333D01*
X133210380Y-83669285D01*
X134913714Y-85383571D02*
X135580380Y-85383571D01*
X134532761Y-85621666D02*
X135247047Y-85859761D01*
X135247047Y-85240714D01*
X135485142Y-84859761D02*
X135532761Y-84812142D01*
X135580380Y-84859761D01*
X135532761Y-84907380D01*
X135485142Y-84859761D01*
X135580380Y-84859761D01*
X134580380Y-84478809D02*
X134580380Y-83812142D01*
X135580380Y-84240714D01*
X135580380Y-83431190D02*
X134580380Y-83431190D01*
X135199428Y-83335952D02*
X135580380Y-83050238D01*
X134913714Y-83050238D02*
X135294666Y-83431190D01*
X128130380Y-84621666D02*
X127654190Y-84955000D01*
X128130380Y-85193095D02*
X127130380Y-85193095D01*
X127130380Y-84812142D01*
X127178000Y-84716904D01*
X127225619Y-84669285D01*
X127320857Y-84621666D01*
X127463714Y-84621666D01*
X127558952Y-84669285D01*
X127606571Y-84716904D01*
X127654190Y-84812142D01*
X127654190Y-85193095D01*
X128130380Y-83669285D02*
X128130380Y-84240714D01*
X128130380Y-83955000D02*
X127130380Y-83955000D01*
X127273238Y-84050238D01*
X127368476Y-84145476D01*
X127416095Y-84240714D01*
X129833714Y-85383571D02*
X130500380Y-85383571D01*
X129452761Y-85621666D02*
X130167047Y-85859761D01*
X130167047Y-85240714D01*
X130405142Y-84859761D02*
X130452761Y-84812142D01*
X130500380Y-84859761D01*
X130452761Y-84907380D01*
X130405142Y-84859761D01*
X130500380Y-84859761D01*
X129500380Y-84478809D02*
X129500380Y-83812142D01*
X130500380Y-84240714D01*
X130500380Y-83431190D02*
X129500380Y-83431190D01*
X130119428Y-83335952D02*
X130500380Y-83050238D01*
X129833714Y-83050238D02*
X130214666Y-83431190D01*
X183900380Y-99567904D02*
X184709904Y-99567904D01*
X184805142Y-99520285D01*
X184852761Y-99472666D01*
X184900380Y-99377428D01*
X184900380Y-99186952D01*
X184852761Y-99091714D01*
X184805142Y-99044095D01*
X184709904Y-98996476D01*
X183900380Y-98996476D01*
X184233714Y-98091714D02*
X184900380Y-98091714D01*
X183852761Y-98329809D02*
X184567047Y-98567904D01*
X184567047Y-97948857D01*
X166862761Y-98249523D02*
X167434190Y-98249523D01*
X167148476Y-99249523D02*
X167148476Y-98249523D01*
X168100857Y-98725714D02*
X168243714Y-98773333D01*
X168291333Y-98820952D01*
X168338952Y-98916190D01*
X168338952Y-99059047D01*
X168291333Y-99154285D01*
X168243714Y-99201904D01*
X168148476Y-99249523D01*
X167767523Y-99249523D01*
X167767523Y-98249523D01*
X168100857Y-98249523D01*
X168196095Y-98297143D01*
X168243714Y-98344762D01*
X168291333Y-98440000D01*
X168291333Y-98535238D01*
X168243714Y-98630476D01*
X168196095Y-98678095D01*
X168100857Y-98725714D01*
X167767523Y-98725714D01*
X168767523Y-99249523D02*
X168767523Y-98249523D01*
X169005619Y-98249523D01*
X169148476Y-98297143D01*
X169243714Y-98392381D01*
X169291333Y-98487619D01*
X169338952Y-98678095D01*
X169338952Y-98820952D01*
X169291333Y-99011428D01*
X169243714Y-99106666D01*
X169148476Y-99201904D01*
X169005619Y-99249523D01*
X168767523Y-99249523D01*
X170196095Y-98249523D02*
X170005619Y-98249523D01*
X169910380Y-98297143D01*
X169862761Y-98344762D01*
X169767523Y-98487619D01*
X169719904Y-98678095D01*
X169719904Y-99059047D01*
X169767523Y-99154285D01*
X169815142Y-99201904D01*
X169910380Y-99249523D01*
X170100857Y-99249523D01*
X170196095Y-99201904D01*
X170243714Y-99154285D01*
X170291333Y-99059047D01*
X170291333Y-98820952D01*
X170243714Y-98725714D01*
X170196095Y-98678095D01*
X170100857Y-98630476D01*
X169910380Y-98630476D01*
X169815142Y-98678095D01*
X169767523Y-98725714D01*
X169719904Y-98820952D01*
X170672285Y-98344762D02*
X170719904Y-98297143D01*
X170815142Y-98249523D01*
X171053238Y-98249523D01*
X171148476Y-98297143D01*
X171196095Y-98344762D01*
X171243714Y-98440000D01*
X171243714Y-98535238D01*
X171196095Y-98678095D01*
X170624666Y-99249523D01*
X171243714Y-99249523D01*
X171577047Y-98249523D02*
X172243714Y-98249523D01*
X171815142Y-99249523D01*
X172767523Y-98678095D02*
X172672285Y-98630476D01*
X172624666Y-98582857D01*
X172577047Y-98487619D01*
X172577047Y-98440000D01*
X172624666Y-98344762D01*
X172672285Y-98297143D01*
X172767523Y-98249523D01*
X172958000Y-98249523D01*
X173053238Y-98297143D01*
X173100857Y-98344762D01*
X173148476Y-98440000D01*
X173148476Y-98487619D01*
X173100857Y-98582857D01*
X173053238Y-98630476D01*
X172958000Y-98678095D01*
X172767523Y-98678095D01*
X172672285Y-98725714D01*
X172624666Y-98773333D01*
X172577047Y-98868571D01*
X172577047Y-99059047D01*
X172624666Y-99154285D01*
X172672285Y-99201904D01*
X172767523Y-99249523D01*
X172958000Y-99249523D01*
X173053238Y-99201904D01*
X173100857Y-99154285D01*
X173148476Y-99059047D01*
X173148476Y-98868571D01*
X173100857Y-98773333D01*
X173053238Y-98725714D01*
X172958000Y-98678095D01*
X173481809Y-98249523D02*
X174100857Y-98249523D01*
X173767523Y-98630476D01*
X173910380Y-98630476D01*
X174005619Y-98678095D01*
X174053238Y-98725714D01*
X174100857Y-98820952D01*
X174100857Y-99059047D01*
X174053238Y-99154285D01*
X174005619Y-99201904D01*
X173910380Y-99249523D01*
X173624666Y-99249523D01*
X173529428Y-99201904D01*
X173481809Y-99154285D01*
X174481809Y-98963809D02*
X174958000Y-98963809D01*
X174386571Y-99249523D02*
X174719904Y-98249523D01*
X175053238Y-99249523D01*
X175386571Y-99249523D02*
X175386571Y-98249523D01*
X175767523Y-98249523D01*
X175862761Y-98297143D01*
X175910380Y-98344762D01*
X175958000Y-98440000D01*
X175958000Y-98582857D01*
X175910380Y-98678095D01*
X175862761Y-98725714D01*
X175767523Y-98773333D01*
X175386571Y-98773333D01*
X176910380Y-98297143D02*
X176815142Y-98249523D01*
X176672285Y-98249523D01*
X176529428Y-98297143D01*
X176434190Y-98392381D01*
X176386571Y-98487619D01*
X176338952Y-98678095D01*
X176338952Y-98820952D01*
X176386571Y-99011428D01*
X176434190Y-99106666D01*
X176529428Y-99201904D01*
X176672285Y-99249523D01*
X176767523Y-99249523D01*
X176910380Y-99201904D01*
X176958000Y-99154285D01*
X176958000Y-98820952D01*
X176767523Y-98820952D01*
X157230380Y-99567904D02*
X158039904Y-99567904D01*
X158135142Y-99520285D01*
X158182761Y-99472666D01*
X158230380Y-99377428D01*
X158230380Y-99186952D01*
X158182761Y-99091714D01*
X158135142Y-99044095D01*
X158039904Y-98996476D01*
X157230380Y-98996476D01*
X157230380Y-98615523D02*
X157230380Y-97996476D01*
X157611333Y-98329809D01*
X157611333Y-98186952D01*
X157658952Y-98091714D01*
X157706571Y-98044095D01*
X157801809Y-97996476D01*
X158039904Y-97996476D01*
X158135142Y-98044095D01*
X158182761Y-98091714D01*
X158230380Y-98186952D01*
X158230380Y-98472666D01*
X158182761Y-98567904D01*
X158135142Y-98615523D01*
X140228334Y-98336531D02*
X140799763Y-98336531D01*
X140514049Y-99336531D02*
X140514049Y-98336531D01*
X141466430Y-98812722D02*
X141609287Y-98860341D01*
X141656906Y-98907960D01*
X141704525Y-99003198D01*
X141704525Y-99146055D01*
X141656906Y-99241293D01*
X141609287Y-99288912D01*
X141514049Y-99336531D01*
X141133096Y-99336531D01*
X141133096Y-98336531D01*
X141466430Y-98336531D01*
X141561668Y-98384151D01*
X141609287Y-98431770D01*
X141656906Y-98527008D01*
X141656906Y-98622246D01*
X141609287Y-98717484D01*
X141561668Y-98765103D01*
X141466430Y-98812722D01*
X141133096Y-98812722D01*
X142133096Y-99336531D02*
X142133096Y-98336531D01*
X142371192Y-98336531D01*
X142514049Y-98384151D01*
X142609287Y-98479389D01*
X142656906Y-98574627D01*
X142704525Y-98765103D01*
X142704525Y-98907960D01*
X142656906Y-99098436D01*
X142609287Y-99193674D01*
X142514049Y-99288912D01*
X142371192Y-99336531D01*
X142133096Y-99336531D01*
X143561668Y-98336531D02*
X143371192Y-98336531D01*
X143275953Y-98384151D01*
X143228334Y-98431770D01*
X143133096Y-98574627D01*
X143085477Y-98765103D01*
X143085477Y-99146055D01*
X143133096Y-99241293D01*
X143180715Y-99288912D01*
X143275953Y-99336531D01*
X143466430Y-99336531D01*
X143561668Y-99288912D01*
X143609287Y-99241293D01*
X143656906Y-99146055D01*
X143656906Y-98907960D01*
X143609287Y-98812722D01*
X143561668Y-98765103D01*
X143466430Y-98717484D01*
X143275953Y-98717484D01*
X143180715Y-98765103D01*
X143133096Y-98812722D01*
X143085477Y-98907960D01*
X144037858Y-98431770D02*
X144085477Y-98384151D01*
X144180715Y-98336531D01*
X144418811Y-98336531D01*
X144514049Y-98384151D01*
X144561668Y-98431770D01*
X144609287Y-98527008D01*
X144609287Y-98622246D01*
X144561668Y-98765103D01*
X143990239Y-99336531D01*
X144609287Y-99336531D01*
X144942620Y-98336531D02*
X145609287Y-98336531D01*
X145180715Y-99336531D01*
X146133096Y-98765103D02*
X146037858Y-98717484D01*
X145990239Y-98669865D01*
X145942620Y-98574627D01*
X145942620Y-98527008D01*
X145990239Y-98431770D01*
X146037858Y-98384151D01*
X146133096Y-98336531D01*
X146323573Y-98336531D01*
X146418811Y-98384151D01*
X146466430Y-98431770D01*
X146514049Y-98527008D01*
X146514049Y-98574627D01*
X146466430Y-98669865D01*
X146418811Y-98717484D01*
X146323573Y-98765103D01*
X146133096Y-98765103D01*
X146037858Y-98812722D01*
X145990239Y-98860341D01*
X145942620Y-98955579D01*
X145942620Y-99146055D01*
X145990239Y-99241293D01*
X146037858Y-99288912D01*
X146133096Y-99336531D01*
X146323573Y-99336531D01*
X146418811Y-99288912D01*
X146466430Y-99241293D01*
X146514049Y-99146055D01*
X146514049Y-98955579D01*
X146466430Y-98860341D01*
X146418811Y-98812722D01*
X146323573Y-98765103D01*
X146847382Y-98336531D02*
X147466430Y-98336531D01*
X147133096Y-98717484D01*
X147275953Y-98717484D01*
X147371192Y-98765103D01*
X147418811Y-98812722D01*
X147466430Y-98907960D01*
X147466430Y-99146055D01*
X147418811Y-99241293D01*
X147371192Y-99288912D01*
X147275953Y-99336531D01*
X146990239Y-99336531D01*
X146895001Y-99288912D01*
X146847382Y-99241293D01*
X147847382Y-99050817D02*
X148323573Y-99050817D01*
X147752144Y-99336531D02*
X148085477Y-98336531D01*
X148418811Y-99336531D01*
X148752144Y-99336531D02*
X148752144Y-98336531D01*
X149133096Y-98336531D01*
X149228334Y-98384151D01*
X149275953Y-98431770D01*
X149323573Y-98527008D01*
X149323573Y-98669865D01*
X149275953Y-98765103D01*
X149228334Y-98812722D01*
X149133096Y-98860341D01*
X148752144Y-98860341D01*
X150275953Y-98384151D02*
X150180715Y-98336531D01*
X150037858Y-98336531D01*
X149895001Y-98384151D01*
X149799763Y-98479389D01*
X149752144Y-98574627D01*
X149704525Y-98765103D01*
X149704525Y-98907960D01*
X149752144Y-99098436D01*
X149799763Y-99193674D01*
X149895001Y-99288912D01*
X150037858Y-99336531D01*
X150133096Y-99336531D01*
X150275953Y-99288912D01*
X150323573Y-99241293D01*
X150323573Y-98907960D01*
X150133096Y-98907960D01*
X115744666Y-97877380D02*
X115744666Y-98591666D01*
X115697047Y-98734523D01*
X115601809Y-98829761D01*
X115458952Y-98877380D01*
X115363714Y-98877380D01*
X116744666Y-98877380D02*
X116173238Y-98877380D01*
X116458952Y-98877380D02*
X116458952Y-97877380D01*
X116363714Y-98020238D01*
X116268476Y-98115476D01*
X116173238Y-98163095D01*
X189967761Y-121832619D02*
X189872523Y-121785000D01*
X189777285Y-121689761D01*
X189634428Y-121546904D01*
X189539190Y-121499285D01*
X189443952Y-121499285D01*
X189491571Y-121737380D02*
X189396333Y-121689761D01*
X189301095Y-121594523D01*
X189253476Y-121404047D01*
X189253476Y-121070714D01*
X189301095Y-120880238D01*
X189396333Y-120785000D01*
X189491571Y-120737380D01*
X189682047Y-120737380D01*
X189777285Y-120785000D01*
X189872523Y-120880238D01*
X189920142Y-121070714D01*
X189920142Y-121404047D01*
X189872523Y-121594523D01*
X189777285Y-121689761D01*
X189682047Y-121737380D01*
X189491571Y-121737380D01*
X190777285Y-120737380D02*
X190586809Y-120737380D01*
X190491571Y-120785000D01*
X190443952Y-120832619D01*
X190348714Y-120975476D01*
X190301095Y-121165952D01*
X190301095Y-121546904D01*
X190348714Y-121642142D01*
X190396333Y-121689761D01*
X190491571Y-121737380D01*
X190682047Y-121737380D01*
X190777285Y-121689761D01*
X190824904Y-121642142D01*
X190872523Y-121546904D01*
X190872523Y-121308809D01*
X190824904Y-121213571D01*
X190777285Y-121165952D01*
X190682047Y-121118333D01*
X190491571Y-121118333D01*
X190396333Y-121165952D01*
X190348714Y-121213571D01*
X190301095Y-121308809D01*
X165453761Y-121832619D02*
X165358523Y-121785000D01*
X165263285Y-121689761D01*
X165120428Y-121546904D01*
X165025190Y-121499285D01*
X164929952Y-121499285D01*
X164977571Y-121737380D02*
X164882333Y-121689761D01*
X164787095Y-121594523D01*
X164739476Y-121404047D01*
X164739476Y-121070714D01*
X164787095Y-120880238D01*
X164882333Y-120785000D01*
X164977571Y-120737380D01*
X165168047Y-120737380D01*
X165263285Y-120785000D01*
X165358523Y-120880238D01*
X165406142Y-121070714D01*
X165406142Y-121404047D01*
X165358523Y-121594523D01*
X165263285Y-121689761D01*
X165168047Y-121737380D01*
X164977571Y-121737380D01*
X166263285Y-121070714D02*
X166263285Y-121737380D01*
X166025190Y-120689761D02*
X165787095Y-121404047D01*
X166406142Y-121404047D01*
X153196761Y-121832619D02*
X153101523Y-121785000D01*
X153006285Y-121689761D01*
X152863428Y-121546904D01*
X152768190Y-121499285D01*
X152672952Y-121499285D01*
X152720571Y-121737380D02*
X152625333Y-121689761D01*
X152530095Y-121594523D01*
X152482476Y-121404047D01*
X152482476Y-121070714D01*
X152530095Y-120880238D01*
X152625333Y-120785000D01*
X152720571Y-120737380D01*
X152911047Y-120737380D01*
X153006285Y-120785000D01*
X153101523Y-120880238D01*
X153149142Y-121070714D01*
X153149142Y-121404047D01*
X153101523Y-121594523D01*
X153006285Y-121689761D01*
X152911047Y-121737380D01*
X152720571Y-121737380D01*
X153482476Y-120737380D02*
X154101523Y-120737380D01*
X153768190Y-121118333D01*
X153911047Y-121118333D01*
X154006285Y-121165952D01*
X154053904Y-121213571D01*
X154101523Y-121308809D01*
X154101523Y-121546904D01*
X154053904Y-121642142D01*
X154006285Y-121689761D01*
X153911047Y-121737380D01*
X153625333Y-121737380D01*
X153530095Y-121689761D01*
X153482476Y-121642142D01*
X140939761Y-121832619D02*
X140844523Y-121785000D01*
X140749285Y-121689761D01*
X140606428Y-121546904D01*
X140511190Y-121499285D01*
X140415952Y-121499285D01*
X140463571Y-121737380D02*
X140368333Y-121689761D01*
X140273095Y-121594523D01*
X140225476Y-121404047D01*
X140225476Y-121070714D01*
X140273095Y-120880238D01*
X140368333Y-120785000D01*
X140463571Y-120737380D01*
X140654047Y-120737380D01*
X140749285Y-120785000D01*
X140844523Y-120880238D01*
X140892142Y-121070714D01*
X140892142Y-121404047D01*
X140844523Y-121594523D01*
X140749285Y-121689761D01*
X140654047Y-121737380D01*
X140463571Y-121737380D01*
X141273095Y-120832619D02*
X141320714Y-120785000D01*
X141415952Y-120737380D01*
X141654047Y-120737380D01*
X141749285Y-120785000D01*
X141796904Y-120832619D01*
X141844523Y-120927857D01*
X141844523Y-121023095D01*
X141796904Y-121165952D01*
X141225476Y-121737380D01*
X141844523Y-121737380D01*
X128682761Y-121832619D02*
X128587523Y-121785000D01*
X128492285Y-121689761D01*
X128349428Y-121546904D01*
X128254190Y-121499285D01*
X128158952Y-121499285D01*
X128206571Y-121737380D02*
X128111333Y-121689761D01*
X128016095Y-121594523D01*
X127968476Y-121404047D01*
X127968476Y-121070714D01*
X128016095Y-120880238D01*
X128111333Y-120785000D01*
X128206571Y-120737380D01*
X128397047Y-120737380D01*
X128492285Y-120785000D01*
X128587523Y-120880238D01*
X128635142Y-121070714D01*
X128635142Y-121404047D01*
X128587523Y-121594523D01*
X128492285Y-121689761D01*
X128397047Y-121737380D01*
X128206571Y-121737380D01*
X129587523Y-121737380D02*
X129016095Y-121737380D01*
X129301809Y-121737380D02*
X129301809Y-120737380D01*
X129206571Y-120880238D01*
X129111333Y-120975476D01*
X129016095Y-121023095D01*
X126595142Y-97281666D02*
X126642761Y-97329285D01*
X126690380Y-97472142D01*
X126690380Y-97567380D01*
X126642761Y-97710238D01*
X126547523Y-97805476D01*
X126452285Y-97853095D01*
X126261809Y-97900714D01*
X126118952Y-97900714D01*
X125928476Y-97853095D01*
X125833238Y-97805476D01*
X125738000Y-97710238D01*
X125690380Y-97567380D01*
X125690380Y-97472142D01*
X125738000Y-97329285D01*
X125785619Y-97281666D01*
X126690380Y-96329285D02*
X126690380Y-96900714D01*
X126690380Y-96615000D02*
X125690380Y-96615000D01*
X125833238Y-96710238D01*
X125928476Y-96805476D01*
X125976095Y-96900714D01*
M02*
