G04 #@! TF.GenerationSoftware,KiCad,Pcbnew,(5.1.6)-1*
G04 #@! TF.CreationDate,2020-07-30T22:19:11+09:00*
G04 #@! TF.ProjectId,VFDClock,56464443-6c6f-4636-9b2e-6b696361645f,rev?*
G04 #@! TF.SameCoordinates,Original*
G04 #@! TF.FileFunction,Copper,L2,Bot*
G04 #@! TF.FilePolarity,Positive*
%FSLAX46Y46*%
G04 Gerber Fmt 4.6, Leading zero omitted, Abs format (unit mm)*
G04 Created by KiCad (PCBNEW (5.1.6)-1) date 2020-07-30 22:19:11*
%MOMM*%
%LPD*%
G01*
G04 APERTURE LIST*
G04 #@! TA.AperFunction,ComponentPad*
%ADD10C,1.400000*%
G04 #@! TD*
G04 #@! TA.AperFunction,ComponentPad*
%ADD11C,1.000000*%
G04 #@! TD*
G04 #@! TA.AperFunction,ComponentPad*
%ADD12C,2.200000*%
G04 #@! TD*
G04 #@! TA.AperFunction,ComponentPad*
%ADD13O,1.600000X1.600000*%
G04 #@! TD*
G04 #@! TA.AperFunction,ComponentPad*
%ADD14R,1.600000X1.600000*%
G04 #@! TD*
G04 #@! TA.AperFunction,ComponentPad*
%ADD15C,1.600000*%
G04 #@! TD*
G04 #@! TA.AperFunction,ComponentPad*
%ADD16R,3.500000X1.400000*%
G04 #@! TD*
G04 #@! TA.AperFunction,ComponentPad*
%ADD17R,1.600000X4.000000*%
G04 #@! TD*
G04 #@! TA.AperFunction,ComponentPad*
%ADD18R,1.700000X3.500000*%
G04 #@! TD*
G04 #@! TA.AperFunction,ComponentPad*
%ADD19O,1.727200X2.032000*%
G04 #@! TD*
G04 #@! TA.AperFunction,ViaPad*
%ADD20C,0.650000*%
G04 #@! TD*
G04 #@! TA.AperFunction,Conductor*
%ADD21C,0.600000*%
G04 #@! TD*
G04 #@! TA.AperFunction,Conductor*
%ADD22C,0.250000*%
G04 #@! TD*
G04 #@! TA.AperFunction,Conductor*
%ADD23C,0.254000*%
G04 #@! TD*
G04 APERTURE END LIST*
D10*
X174932318Y-117808682D03*
X173880478Y-115986841D03*
X173880477Y-113883159D03*
X174932318Y-112061318D03*
X176754159Y-111009478D03*
X178857841Y-111009477D03*
X180679682Y-112061318D03*
X181731522Y-113883159D03*
X181731523Y-115986841D03*
X180679682Y-117808682D03*
X178857841Y-118860522D03*
X176754159Y-118860523D03*
D11*
X178308000Y-87635000D03*
X178308000Y-89535000D03*
D12*
X189308000Y-83265000D03*
X189308000Y-93265000D03*
X192708000Y-88265000D03*
D13*
X166878000Y-89535000D03*
X174498000Y-81915000D03*
X166878000Y-86995000D03*
X174498000Y-84455000D03*
X166878000Y-84455000D03*
X174498000Y-86995000D03*
X166878000Y-81915000D03*
D14*
X174498000Y-89535000D03*
D13*
X193548000Y-106807000D03*
D15*
X185928000Y-106807000D03*
D13*
X181356000Y-106807000D03*
D15*
X173736000Y-106807000D03*
D13*
X169164000Y-106807000D03*
D15*
X161544000Y-106807000D03*
D13*
X156972000Y-106807000D03*
D15*
X149352000Y-106807000D03*
D13*
X144780000Y-106807000D03*
D15*
X137160000Y-106807000D03*
D13*
X132588000Y-106807000D03*
D15*
X124968000Y-106807000D03*
D13*
X135128000Y-80645000D03*
D15*
X135128000Y-88265000D03*
D13*
X130048000Y-80645000D03*
D15*
X130048000Y-88265000D03*
D13*
X182118000Y-102616000D03*
X161798000Y-94996000D03*
X179578000Y-102616000D03*
X164338000Y-94996000D03*
X177038000Y-102616000D03*
X166878000Y-94996000D03*
X174498000Y-102616000D03*
X169418000Y-94996000D03*
X171958000Y-102616000D03*
X171958000Y-94996000D03*
X169418000Y-102616000D03*
X174498000Y-94996000D03*
X166878000Y-102616000D03*
X177038000Y-94996000D03*
X164338000Y-102616000D03*
X179578000Y-94996000D03*
X161798000Y-102616000D03*
D14*
X182118000Y-94996000D03*
D13*
X155448000Y-102616000D03*
X135128000Y-94996000D03*
X152908000Y-102616000D03*
X137668000Y-94996000D03*
X150368000Y-102616000D03*
X140208000Y-94996000D03*
X147828000Y-102616000D03*
X142748000Y-94996000D03*
X145288000Y-102616000D03*
X145288000Y-94996000D03*
X142748000Y-102616000D03*
X147828000Y-94996000D03*
X140208000Y-102616000D03*
X150368000Y-94996000D03*
X137668000Y-102616000D03*
X152908000Y-94996000D03*
X135128000Y-102616000D03*
D14*
X155448000Y-94996000D03*
D16*
X116668000Y-109675000D03*
D17*
X119618000Y-104775000D03*
D18*
X113618000Y-104775000D03*
D10*
X187189318Y-117808682D03*
X186137478Y-115986841D03*
X186137477Y-113883159D03*
X187189318Y-112061318D03*
X189011159Y-111009478D03*
X191114841Y-111009477D03*
X192936682Y-112061318D03*
X193988522Y-113883159D03*
X193988523Y-115986841D03*
X192936682Y-117808682D03*
X191114841Y-118860522D03*
X189011159Y-118860523D03*
X162675318Y-117808682D03*
X161623478Y-115986841D03*
X161623477Y-113883159D03*
X162675318Y-112061318D03*
X164497159Y-111009478D03*
X166600841Y-111009477D03*
X168422682Y-112061318D03*
X169474522Y-113883159D03*
X169474523Y-115986841D03*
X168422682Y-117808682D03*
X166600841Y-118860522D03*
X164497159Y-118860523D03*
X150418318Y-117808682D03*
X149366478Y-115986841D03*
X149366477Y-113883159D03*
X150418318Y-112061318D03*
X152240159Y-111009478D03*
X154343841Y-111009477D03*
X156165682Y-112061318D03*
X157217522Y-113883159D03*
X157217523Y-115986841D03*
X156165682Y-117808682D03*
X154343841Y-118860522D03*
X152240159Y-118860523D03*
X138161318Y-117808682D03*
X137109478Y-115986841D03*
X137109477Y-113883159D03*
X138161318Y-112061318D03*
X139983159Y-111009478D03*
X142086841Y-111009477D03*
X143908682Y-112061318D03*
X144960522Y-113883159D03*
X144960523Y-115986841D03*
X143908682Y-117808682D03*
X142086841Y-118860522D03*
X139983159Y-118860523D03*
X125904318Y-117808682D03*
X124852478Y-115986841D03*
X124852477Y-113883159D03*
X125904318Y-112061318D03*
X127726159Y-111009478D03*
X129829841Y-111009477D03*
X131651682Y-112061318D03*
X132703522Y-113883159D03*
X132703523Y-115986841D03*
X131651682Y-117808682D03*
X129829841Y-118860522D03*
X127726159Y-118860523D03*
D15*
X128778000Y-99615000D03*
X128778000Y-94615000D03*
D19*
X156718000Y-123825000D03*
X154178000Y-123825000D03*
X151638000Y-123825000D03*
X149098000Y-123825000D03*
X146558000Y-123825000D03*
X144018000Y-123825000D03*
X141478000Y-123825000D03*
X138938000Y-123825000D03*
X174498000Y-123825000D03*
X171958000Y-123825000D03*
X169418000Y-123825000D03*
X166878000Y-123825000D03*
X164338000Y-123825000D03*
X161798000Y-123825000D03*
X152654000Y-75565000D03*
X150114000Y-75565000D03*
X147574000Y-75565000D03*
X145034000Y-75565000D03*
X142494000Y-75565000D03*
X139954000Y-75565000D03*
X137414000Y-75565000D03*
X134874000Y-75565000D03*
X132334000Y-75565000D03*
X129794000Y-75565000D03*
X174498000Y-75565000D03*
X171958000Y-75565000D03*
X169418000Y-75565000D03*
X166878000Y-75565000D03*
X164338000Y-75565000D03*
X161798000Y-75565000D03*
X159258000Y-75565000D03*
X156718000Y-75565000D03*
D20*
X159244900Y-88278100D03*
X157587100Y-112340500D03*
X178816000Y-113157000D03*
X150779000Y-108408200D03*
X167640000Y-107823000D03*
X184873600Y-114356800D03*
X179578000Y-75565000D03*
X194818000Y-75565000D03*
X187198000Y-75565000D03*
X194818000Y-81915000D03*
X113538000Y-75565000D03*
X121158000Y-75565000D03*
X194818000Y-123825000D03*
X113538000Y-123825000D03*
X121158000Y-123825000D03*
X194818000Y-94615000D03*
X158750000Y-81915000D03*
X161036000Y-84455000D03*
X145074476Y-109895476D03*
X157480000Y-110617000D03*
X150622000Y-104775000D03*
X167132000Y-109274091D03*
X135713119Y-121616119D03*
X185545800Y-117939600D03*
X148076300Y-117909000D03*
X172282200Y-117474400D03*
X146558000Y-117729000D03*
X149995109Y-121166109D03*
X142006700Y-109130900D03*
X157708000Y-119421700D03*
X172466000Y-106045000D03*
X173465700Y-117511600D03*
D21*
X166878000Y-89535000D02*
X165577700Y-89535000D01*
X164320800Y-88278100D02*
X165577700Y-89535000D01*
X135128000Y-88265000D02*
X155319400Y-88265000D01*
X155319400Y-88265000D02*
X155332500Y-88278100D01*
X155332500Y-88278100D02*
X159244900Y-88278100D01*
X159244900Y-88278100D02*
X164320800Y-88278100D01*
X174498000Y-81207876D02*
X174498000Y-81915000D01*
D22*
X136398000Y-81915000D02*
X135128000Y-80645000D01*
X150418300Y-117808700D02*
X150418300Y-115529100D01*
X150418300Y-115529100D02*
X149824200Y-114935000D01*
X149824200Y-114935000D02*
X148960300Y-114935000D01*
X148960300Y-114935000D02*
X147690700Y-113665400D01*
X147690700Y-113665400D02*
X147690700Y-105402600D01*
X147690700Y-105402600D02*
X150368000Y-102725300D01*
X146771900Y-113750400D02*
X149008300Y-115986800D01*
X149008300Y-115986800D02*
X149366500Y-115986800D01*
X147828000Y-102725300D02*
X146771900Y-103781400D01*
X146771900Y-103781400D02*
X146771900Y-113750400D01*
X146771900Y-113750400D02*
X145587300Y-114935000D01*
X145587300Y-114935000D02*
X144533300Y-114935000D01*
X144533300Y-114935000D02*
X143481500Y-115986800D01*
X143481500Y-115986800D02*
X137109500Y-115986800D01*
X124852500Y-115986800D02*
X125904300Y-114935000D01*
X125904300Y-114935000D02*
X133304900Y-114935000D01*
X133304900Y-114935000D02*
X134356700Y-115986800D01*
X134356700Y-115986800D02*
X137109500Y-115986800D01*
X161623500Y-115986800D02*
X161233400Y-115986800D01*
X161233400Y-115986800D02*
X157587100Y-112340500D01*
X186137500Y-113883200D02*
X185960800Y-113706500D01*
X185960800Y-113706500D02*
X183484700Y-113706500D01*
X183484700Y-113706500D02*
X182282600Y-114908600D01*
X149366500Y-113883200D02*
X150848200Y-113883200D01*
X150848200Y-113883200D02*
X153292000Y-111439400D01*
X153292000Y-111439400D02*
X153292000Y-110594600D01*
X153292000Y-110594600D02*
X153902500Y-109984100D01*
X138626480Y-113883159D02*
X137109477Y-113883159D01*
X141061840Y-111447799D02*
X138626480Y-113883159D01*
X141061840Y-110517476D02*
X141061840Y-111447799D01*
X141594840Y-109984476D02*
X141061840Y-110517476D01*
X144985476Y-109984476D02*
X141594840Y-109984476D01*
X146087999Y-108881953D02*
X145074476Y-109895476D01*
X146087999Y-103415999D02*
X146087999Y-108881953D01*
X145288000Y-102616000D02*
X146087999Y-103415999D01*
X136065100Y-109965100D02*
X138161300Y-112061300D01*
X125904300Y-112061300D02*
X128168900Y-112061300D01*
X128168900Y-112061300D02*
X128778000Y-111452200D01*
X128778000Y-111452200D02*
X128778000Y-110594600D01*
X128778000Y-110594600D02*
X129407500Y-109965100D01*
X129407500Y-109965100D02*
X136065100Y-109965100D01*
X138161318Y-108334052D02*
X138161318Y-112061318D01*
X142748000Y-103747370D02*
X138161318Y-108334052D01*
X142748000Y-102616000D02*
X142748000Y-103747370D01*
X152240200Y-111009500D02*
X153715900Y-109533800D01*
X153715900Y-109533800D02*
X163021500Y-109533800D01*
X163021500Y-109533800D02*
X164497200Y-111009500D01*
X139983159Y-109419644D02*
X139983159Y-111009478D01*
X143873001Y-105529802D02*
X139983159Y-109419644D01*
X143873001Y-102075999D02*
X143873001Y-105529802D01*
X143288001Y-101490999D02*
X143873001Y-102075999D01*
X141333001Y-101490999D02*
X143288001Y-101490999D01*
X140208000Y-102616000D02*
X141333001Y-101490999D01*
X150779000Y-108408200D02*
X150779000Y-107394300D01*
X150779000Y-107394300D02*
X155448000Y-102725300D01*
X191114800Y-111009500D02*
X190085800Y-109980500D01*
X190085800Y-109980500D02*
X179886800Y-109980500D01*
X179886800Y-109980500D02*
X178857800Y-111009500D01*
X168422700Y-112061300D02*
X168886500Y-111597500D01*
X184873600Y-114356800D02*
X185451800Y-114935000D01*
X185451800Y-114935000D02*
X190063000Y-114935000D01*
X190063000Y-114935000D02*
X192936700Y-112061300D01*
X156165700Y-112061300D02*
X156538300Y-111688700D01*
X156538300Y-111688700D02*
X157877100Y-111688700D01*
X157877100Y-111688700D02*
X161110000Y-114921600D01*
X161110000Y-114921600D02*
X165562400Y-114921600D01*
X165562400Y-114921600D02*
X168422700Y-112061300D01*
X131651700Y-112061300D02*
X132406100Y-112061300D01*
X132406100Y-112061300D02*
X135253400Y-114908600D01*
X135253400Y-114908600D02*
X141061400Y-114908600D01*
X141061400Y-114908600D02*
X143908700Y-112061300D01*
D21*
X140335000Y-122174000D02*
X149987000Y-122174000D01*
X132703523Y-115986841D02*
X138890682Y-122174000D01*
X141319366Y-122174000D02*
X140335000Y-122174000D01*
X145660522Y-117832844D02*
X141319366Y-122174000D01*
X145660522Y-116686840D02*
X145660522Y-117832844D01*
X144960523Y-115986841D02*
X145660522Y-116686840D01*
X138890682Y-122174000D02*
X140335000Y-122174000D01*
X163195000Y-121964318D02*
X163195000Y-122174000D01*
X157217523Y-115986841D02*
X163195000Y-121964318D01*
X149987000Y-122174000D02*
X163195000Y-122174000D01*
X163195000Y-122174000D02*
X175895000Y-122174000D01*
X175661682Y-122174000D02*
X175895000Y-122174000D01*
X169474523Y-115986841D02*
X175661682Y-122174000D01*
X187833000Y-122088318D02*
X187833000Y-122174000D01*
X181731523Y-115986841D02*
X187833000Y-122088318D01*
X194688522Y-119610478D02*
X192125000Y-122174000D01*
X194688522Y-116686840D02*
X194688522Y-119610478D01*
X193988523Y-115986841D02*
X194688522Y-116686840D01*
X151638000Y-123825000D02*
X149987000Y-122174000D01*
X175895000Y-122174000D02*
X187325000Y-122174000D01*
X192125000Y-122174000D02*
X187325000Y-122174000D01*
X187325000Y-122174000D02*
X187833000Y-122174000D01*
D22*
X158750000Y-81915000D02*
X136398000Y-81915000D01*
X166878000Y-81915000D02*
X158750000Y-81915000D01*
X132334000Y-77851000D02*
X135128000Y-80645000D01*
X132334000Y-75565000D02*
X132334000Y-77851000D01*
X161036000Y-84455000D02*
X166878000Y-84455000D01*
X133858000Y-84455000D02*
X161036000Y-84455000D01*
X129794000Y-80391000D02*
X130048000Y-80645000D01*
X129794000Y-75565000D02*
X129794000Y-80391000D01*
X130048000Y-80645000D02*
X133858000Y-84455000D01*
X145074476Y-109895476D02*
X144985476Y-109984476D01*
X156847476Y-109984476D02*
X157480000Y-110617000D01*
X154053476Y-109984476D02*
X156847476Y-109984476D01*
X154053100Y-109984100D02*
X154053476Y-109984476D01*
X153902500Y-109984100D02*
X154053100Y-109984100D01*
X158357318Y-110617000D02*
X161623477Y-113883159D01*
X157480000Y-110617000D02*
X158357318Y-110617000D01*
X180567160Y-114908160D02*
X178816000Y-113157000D01*
X181583600Y-114908600D02*
X181583160Y-114908160D01*
X181583160Y-114908160D02*
X180567160Y-114908160D01*
X182282600Y-114908600D02*
X181583600Y-114908600D01*
X149718998Y-104775000D02*
X150622000Y-104775000D01*
X148226999Y-106266999D02*
X149718998Y-104775000D01*
X148226999Y-109869999D02*
X148226999Y-106266999D01*
X150418318Y-112061318D02*
X148226999Y-109869999D01*
X165522160Y-110517477D02*
X165522160Y-111501479D01*
X165522160Y-111501479D02*
X164962321Y-112061318D01*
X166819225Y-109274091D02*
X167132000Y-109274091D01*
X165522160Y-110517477D02*
X165522160Y-110571156D01*
X165522160Y-110571156D02*
X166819225Y-109274091D01*
X152717700Y-109074100D02*
X164078783Y-109074100D01*
X164078783Y-109074100D02*
X165522160Y-110517477D01*
X150418300Y-111373500D02*
X152717700Y-109074100D01*
X150418300Y-112061300D02*
X150418300Y-111373500D01*
X162675318Y-112061318D02*
X164962321Y-112061318D01*
X136868992Y-104191010D02*
X131544912Y-109515090D01*
X129220547Y-109515090D02*
X127726159Y-111009478D01*
X131544912Y-109515090D02*
X129220547Y-109515090D01*
X138632990Y-104191010D02*
X136868992Y-104191010D01*
X140208000Y-102616000D02*
X138632990Y-104191010D01*
X161456091Y-108624091D02*
X165205404Y-108624091D01*
X155448000Y-102616000D02*
X161456091Y-108624091D01*
X168236200Y-109374118D02*
X168236200Y-108419200D01*
X166600841Y-111009477D02*
X168236200Y-109374118D01*
X166006495Y-107823000D02*
X165205404Y-108624091D01*
X167640000Y-107823000D02*
X166006495Y-107823000D01*
X167640000Y-107823000D02*
X168236200Y-108419200D01*
X170289001Y-110194999D02*
X168422682Y-112061318D01*
X170289001Y-106266999D02*
X170289001Y-110194999D01*
X163198997Y-105681999D02*
X169704001Y-105681999D01*
X169704001Y-105681999D02*
X170289001Y-106266999D01*
X159007997Y-101490999D02*
X163198997Y-105681999D01*
X154033001Y-101490999D02*
X159007997Y-101490999D01*
X152908000Y-102616000D02*
X154033001Y-101490999D01*
X131651682Y-117973882D02*
X131651682Y-117808682D01*
X131651682Y-118062682D02*
X131651682Y-117808682D01*
X131651682Y-117808682D02*
X131905682Y-117808682D01*
X131905682Y-117808682D02*
X135713119Y-121616119D01*
X154343800Y-118860500D02*
X154343800Y-117374000D01*
X154343800Y-117374000D02*
X156782800Y-114935000D01*
X156782800Y-114935000D02*
X157860700Y-114935000D01*
X157860700Y-114935000D02*
X162815500Y-119889800D01*
X162815500Y-119889800D02*
X165571500Y-119889800D01*
X165571500Y-119889800D02*
X166600800Y-118860500D01*
X153314500Y-119889800D02*
X154343800Y-118860500D01*
X185545800Y-117939600D02*
X187496000Y-119889800D01*
X187496000Y-119889800D02*
X190085500Y-119889800D01*
X190085500Y-119889800D02*
X191114800Y-118860500D01*
X174588800Y-119889800D02*
X177828500Y-119889800D01*
X177828500Y-119889800D02*
X178857800Y-118860500D01*
X122936000Y-117447396D02*
X125374128Y-119885524D01*
X122936000Y-112361303D02*
X122936000Y-117447396D01*
X128804839Y-119885524D02*
X129829841Y-118860522D01*
X131556302Y-103741001D02*
X122936000Y-112361303D01*
X125374128Y-119885524D02*
X128804839Y-119885524D01*
X136542999Y-103741001D02*
X131556302Y-103741001D01*
X137668000Y-102616000D02*
X136542999Y-103741001D01*
X172282200Y-117474400D02*
X172282200Y-117583200D01*
X172282200Y-117583200D02*
X174588800Y-119889800D01*
X153310224Y-119885524D02*
X153314500Y-119889800D01*
X150052824Y-119885524D02*
X153310224Y-119885524D01*
X148076300Y-117909000D02*
X150052824Y-119885524D01*
D21*
X127726200Y-118860500D02*
X127556800Y-119029900D01*
X127556800Y-119029900D02*
X125402400Y-119029900D01*
X125402400Y-119029900D02*
X123607800Y-117235300D01*
X123607800Y-117235300D02*
X123607800Y-112573400D01*
X123607800Y-112573400D02*
X129374200Y-106807000D01*
X129374200Y-106807000D02*
X132588000Y-106807000D01*
D22*
X146558000Y-117729000D02*
X149995109Y-121166109D01*
D21*
X144780000Y-106807000D02*
X143479700Y-106807000D01*
X143479700Y-106807000D02*
X143479700Y-107657900D01*
X143479700Y-107657900D02*
X142006700Y-109130900D01*
D22*
X156165700Y-117808700D02*
X157708000Y-119351000D01*
X157708000Y-119351000D02*
X157708000Y-119421700D01*
X172829001Y-105681999D02*
X173972001Y-105681999D01*
X173972001Y-105681999D02*
X177038000Y-102616000D01*
X172466000Y-106045000D02*
X172829001Y-105681999D01*
X168422700Y-115542500D02*
X168422700Y-117808700D01*
X174498000Y-102616000D02*
X171557001Y-105556999D01*
X171557001Y-113251099D02*
X169873100Y-114935000D01*
X169873100Y-114935000D02*
X169030200Y-114935000D01*
X171557001Y-105556999D02*
X171557001Y-113251099D01*
X169030200Y-114935000D02*
X168422700Y-115542500D01*
D21*
X122290800Y-109484200D02*
X124968000Y-106807000D01*
X156718000Y-123825000D02*
X155195800Y-125347200D01*
X155195800Y-125347200D02*
X129849000Y-125347200D01*
X129849000Y-125347200D02*
X122290800Y-117789000D01*
X122290800Y-117789000D02*
X122290800Y-109484200D01*
X119618000Y-106811400D02*
X122290800Y-109484200D01*
X119618000Y-104775000D02*
X119618000Y-106811400D01*
D22*
X177779160Y-110571156D02*
X177779160Y-114908160D01*
X178819826Y-109530490D02*
X177779160Y-110571156D01*
X180297512Y-109530490D02*
X178819826Y-109530490D01*
X173083001Y-101490999D02*
X182658001Y-101490999D01*
X177779160Y-114908160D02*
X180679682Y-117808682D01*
X171958000Y-102616000D02*
X173083001Y-101490999D01*
X183243001Y-106585001D02*
X180297512Y-109530490D01*
X182658001Y-101490999D02*
X183243001Y-102075999D01*
X183243001Y-102075999D02*
X183243001Y-106585001D01*
D21*
X173465700Y-117511600D02*
X173465700Y-117380000D01*
X173465700Y-117380000D02*
X172671400Y-116585700D01*
X172671400Y-116585700D02*
X172671400Y-112590300D01*
X172671400Y-112590300D02*
X178454700Y-106807000D01*
X178454700Y-106807000D02*
X181356000Y-106807000D01*
D22*
X170993010Y-101040990D02*
X169418000Y-102616000D01*
X183433356Y-101040990D02*
X170993010Y-101040990D01*
X195013523Y-112621157D02*
X183433356Y-101040990D01*
X192936682Y-117808682D02*
X192936682Y-115467999D01*
X194480523Y-114908160D02*
X195013523Y-114375160D01*
X192936682Y-115467999D02*
X193496521Y-114908160D01*
X195013523Y-114375160D02*
X195013523Y-112621157D01*
X193496521Y-114908160D02*
X194480523Y-114908160D01*
D21*
X184912000Y-84455000D02*
X189308000Y-88851000D01*
X189308000Y-93265000D02*
X189308000Y-88851000D01*
X174498000Y-84455000D02*
X184912000Y-84455000D01*
X189308000Y-88851000D02*
X189308000Y-83265000D01*
D22*
X175138000Y-87635000D02*
X174498000Y-86995000D01*
X178308000Y-87635000D02*
X175138000Y-87635000D01*
X178308000Y-89535000D02*
X174498000Y-89535000D01*
D23*
G36*
X196648000Y-125655000D02*
G01*
X156210289Y-125655000D01*
X156414057Y-125451232D01*
X156424224Y-125454316D01*
X156718000Y-125483251D01*
X157011777Y-125454316D01*
X157294264Y-125368625D01*
X157554606Y-125229469D01*
X157782797Y-125042197D01*
X157970069Y-124814006D01*
X158109225Y-124553663D01*
X158194916Y-124271176D01*
X158216600Y-124051018D01*
X158216600Y-123598982D01*
X160299400Y-123598982D01*
X160299400Y-124051019D01*
X160321084Y-124271177D01*
X160406775Y-124553664D01*
X160545931Y-124814006D01*
X160733203Y-125042197D01*
X160961395Y-125229469D01*
X161221737Y-125368625D01*
X161504224Y-125454316D01*
X161798000Y-125483251D01*
X162091777Y-125454316D01*
X162374264Y-125368625D01*
X162634606Y-125229469D01*
X162862797Y-125042197D01*
X163050069Y-124814006D01*
X163068000Y-124780459D01*
X163085931Y-124814006D01*
X163273203Y-125042197D01*
X163501395Y-125229469D01*
X163761737Y-125368625D01*
X164044224Y-125454316D01*
X164338000Y-125483251D01*
X164631777Y-125454316D01*
X164914264Y-125368625D01*
X165174606Y-125229469D01*
X165402797Y-125042197D01*
X165590069Y-124814006D01*
X165608000Y-124780459D01*
X165625931Y-124814006D01*
X165813203Y-125042197D01*
X166041395Y-125229469D01*
X166301737Y-125368625D01*
X166584224Y-125454316D01*
X166878000Y-125483251D01*
X167171777Y-125454316D01*
X167454264Y-125368625D01*
X167714606Y-125229469D01*
X167942797Y-125042197D01*
X168130069Y-124814006D01*
X168148000Y-124780459D01*
X168165931Y-124814006D01*
X168353203Y-125042197D01*
X168581395Y-125229469D01*
X168841737Y-125368625D01*
X169124224Y-125454316D01*
X169418000Y-125483251D01*
X169711777Y-125454316D01*
X169994264Y-125368625D01*
X170254606Y-125229469D01*
X170482797Y-125042197D01*
X170670069Y-124814006D01*
X170688000Y-124780459D01*
X170705931Y-124814006D01*
X170893203Y-125042197D01*
X171121395Y-125229469D01*
X171381737Y-125368625D01*
X171664224Y-125454316D01*
X171958000Y-125483251D01*
X172251777Y-125454316D01*
X172534264Y-125368625D01*
X172794606Y-125229469D01*
X173022797Y-125042197D01*
X173210069Y-124814006D01*
X173228000Y-124780459D01*
X173245931Y-124814006D01*
X173433203Y-125042197D01*
X173661395Y-125229469D01*
X173921737Y-125368625D01*
X174204224Y-125454316D01*
X174498000Y-125483251D01*
X174791777Y-125454316D01*
X175074264Y-125368625D01*
X175334606Y-125229469D01*
X175562797Y-125042197D01*
X175750069Y-124814006D01*
X175889225Y-124553663D01*
X175974916Y-124271176D01*
X175996600Y-124051018D01*
X175996600Y-123598981D01*
X175974916Y-123378823D01*
X175889225Y-123096336D01*
X175750069Y-122835994D01*
X175562797Y-122607803D01*
X175334605Y-122420531D01*
X175074263Y-122281375D01*
X174791776Y-122195684D01*
X174498000Y-122166749D01*
X174204223Y-122195684D01*
X173921736Y-122281375D01*
X173661394Y-122420531D01*
X173433203Y-122607803D01*
X173245931Y-122835995D01*
X173228000Y-122869541D01*
X173210069Y-122835994D01*
X173022797Y-122607803D01*
X172794605Y-122420531D01*
X172534263Y-122281375D01*
X172251776Y-122195684D01*
X171958000Y-122166749D01*
X171664223Y-122195684D01*
X171381736Y-122281375D01*
X171121394Y-122420531D01*
X170893203Y-122607803D01*
X170705931Y-122835995D01*
X170688000Y-122869541D01*
X170670069Y-122835994D01*
X170482797Y-122607803D01*
X170254605Y-122420531D01*
X169994263Y-122281375D01*
X169711776Y-122195684D01*
X169418000Y-122166749D01*
X169124223Y-122195684D01*
X168841736Y-122281375D01*
X168581394Y-122420531D01*
X168353203Y-122607803D01*
X168165931Y-122835995D01*
X168148000Y-122869541D01*
X168130069Y-122835994D01*
X167942797Y-122607803D01*
X167714605Y-122420531D01*
X167454263Y-122281375D01*
X167171776Y-122195684D01*
X166878000Y-122166749D01*
X166584223Y-122195684D01*
X166301736Y-122281375D01*
X166041394Y-122420531D01*
X165813203Y-122607803D01*
X165625931Y-122835995D01*
X165608000Y-122869541D01*
X165590069Y-122835994D01*
X165402797Y-122607803D01*
X165174605Y-122420531D01*
X164914263Y-122281375D01*
X164631776Y-122195684D01*
X164338000Y-122166749D01*
X164044223Y-122195684D01*
X163761736Y-122281375D01*
X163501394Y-122420531D01*
X163273203Y-122607803D01*
X163085931Y-122835995D01*
X163068000Y-122869541D01*
X163050069Y-122835994D01*
X162862797Y-122607803D01*
X162634605Y-122420531D01*
X162374263Y-122281375D01*
X162091776Y-122195684D01*
X161798000Y-122166749D01*
X161504223Y-122195684D01*
X161221736Y-122281375D01*
X160961394Y-122420531D01*
X160733203Y-122607803D01*
X160545931Y-122835995D01*
X160406775Y-123096337D01*
X160321084Y-123378824D01*
X160299400Y-123598982D01*
X158216600Y-123598982D01*
X158216600Y-123598981D01*
X158194916Y-123378823D01*
X158109225Y-123096336D01*
X157970069Y-122835994D01*
X157782797Y-122607803D01*
X157554605Y-122420531D01*
X157294263Y-122281375D01*
X157011776Y-122195684D01*
X156718000Y-122166749D01*
X156424223Y-122195684D01*
X156141736Y-122281375D01*
X155881394Y-122420531D01*
X155653203Y-122607803D01*
X155465931Y-122835995D01*
X155444576Y-122875947D01*
X155296486Y-122673271D01*
X155080035Y-122474267D01*
X154828919Y-122321314D01*
X154552789Y-122220291D01*
X154537026Y-122217642D01*
X154305000Y-122338783D01*
X154305000Y-123698000D01*
X154325000Y-123698000D01*
X154325000Y-123952000D01*
X154305000Y-123952000D01*
X154305000Y-123972000D01*
X154051000Y-123972000D01*
X154051000Y-123952000D01*
X151765000Y-123952000D01*
X151765000Y-123972000D01*
X151511000Y-123972000D01*
X151511000Y-123952000D01*
X151491000Y-123952000D01*
X151491000Y-123698000D01*
X151511000Y-123698000D01*
X151511000Y-122338783D01*
X151765000Y-122338783D01*
X151765000Y-123698000D01*
X154051000Y-123698000D01*
X154051000Y-122338783D01*
X153818974Y-122217642D01*
X153803211Y-122220291D01*
X153527081Y-122321314D01*
X153275965Y-122474267D01*
X153059514Y-122673271D01*
X152908000Y-122880633D01*
X152756486Y-122673271D01*
X152540035Y-122474267D01*
X152288919Y-122321314D01*
X152012789Y-122220291D01*
X151997026Y-122217642D01*
X151765000Y-122338783D01*
X151511000Y-122338783D01*
X151278974Y-122217642D01*
X151263211Y-122220291D01*
X150987081Y-122321314D01*
X150735965Y-122474267D01*
X150519514Y-122673271D01*
X150371424Y-122875947D01*
X150350069Y-122835994D01*
X150162797Y-122607803D01*
X149934605Y-122420531D01*
X149674263Y-122281375D01*
X149391776Y-122195684D01*
X149098000Y-122166749D01*
X148804223Y-122195684D01*
X148521736Y-122281375D01*
X148261394Y-122420531D01*
X148033203Y-122607803D01*
X147845931Y-122835995D01*
X147828000Y-122869541D01*
X147810069Y-122835994D01*
X147622797Y-122607803D01*
X147394605Y-122420531D01*
X147134263Y-122281375D01*
X146851776Y-122195684D01*
X146558000Y-122166749D01*
X146264223Y-122195684D01*
X145981736Y-122281375D01*
X145721394Y-122420531D01*
X145493203Y-122607803D01*
X145305931Y-122835995D01*
X145288000Y-122869541D01*
X145270069Y-122835994D01*
X145082797Y-122607803D01*
X144854605Y-122420531D01*
X144594263Y-122281375D01*
X144311776Y-122195684D01*
X144018000Y-122166749D01*
X143724223Y-122195684D01*
X143441736Y-122281375D01*
X143181394Y-122420531D01*
X142953203Y-122607803D01*
X142765931Y-122835995D01*
X142748000Y-122869541D01*
X142730069Y-122835994D01*
X142542797Y-122607803D01*
X142314605Y-122420531D01*
X142054263Y-122281375D01*
X141771776Y-122195684D01*
X141478000Y-122166749D01*
X141184223Y-122195684D01*
X140901736Y-122281375D01*
X140641394Y-122420531D01*
X140413203Y-122607803D01*
X140225931Y-122835995D01*
X140208000Y-122869541D01*
X140190069Y-122835994D01*
X140002797Y-122607803D01*
X139774605Y-122420531D01*
X139514263Y-122281375D01*
X139231776Y-122195684D01*
X138938000Y-122166749D01*
X138644223Y-122195684D01*
X138361736Y-122281375D01*
X138101394Y-122420531D01*
X137873203Y-122607803D01*
X137685931Y-122835995D01*
X137546775Y-123096337D01*
X137461084Y-123378824D01*
X137439400Y-123598982D01*
X137439400Y-124051019D01*
X137461084Y-124271177D01*
X137503863Y-124412200D01*
X130236289Y-124412200D01*
X126601089Y-120777000D01*
X133799198Y-120777000D01*
X134758147Y-121735949D01*
X134790011Y-121896141D01*
X134862378Y-122070850D01*
X134967438Y-122228083D01*
X135101155Y-122361800D01*
X135258388Y-122466860D01*
X135433097Y-122539227D01*
X135618567Y-122576119D01*
X135807671Y-122576119D01*
X135993141Y-122539227D01*
X136167850Y-122466860D01*
X136325083Y-122361800D01*
X136458800Y-122228083D01*
X136563860Y-122070850D01*
X136636227Y-121896141D01*
X136673119Y-121710671D01*
X136673119Y-121521567D01*
X136636227Y-121336097D01*
X136563860Y-121161388D01*
X136458800Y-121004155D01*
X136325083Y-120870438D01*
X136185244Y-120777000D01*
X148531198Y-120777000D01*
X149040137Y-121285939D01*
X149072001Y-121446131D01*
X149144368Y-121620840D01*
X149249428Y-121778073D01*
X149383145Y-121911790D01*
X149540378Y-122016850D01*
X149715087Y-122089217D01*
X149900557Y-122126109D01*
X150089661Y-122126109D01*
X150275131Y-122089217D01*
X150449840Y-122016850D01*
X150607073Y-121911790D01*
X150740790Y-121778073D01*
X150845850Y-121620840D01*
X150918217Y-121446131D01*
X150955109Y-121260661D01*
X150955109Y-121071557D01*
X150918217Y-120886087D01*
X150873032Y-120777000D01*
X192278000Y-120777000D01*
X192302776Y-120774560D01*
X192326601Y-120767333D01*
X192348557Y-120755597D01*
X192367803Y-120739803D01*
X195542803Y-117564803D01*
X195558597Y-117545557D01*
X195570333Y-117523601D01*
X195577560Y-117499776D01*
X195580000Y-117475000D01*
X195580000Y-114882900D01*
X195648497Y-114799436D01*
X195719069Y-114667407D01*
X195762526Y-114524146D01*
X195773523Y-114412493D01*
X195773523Y-114412483D01*
X195777199Y-114375160D01*
X195773523Y-114337837D01*
X195773523Y-112658479D01*
X195777199Y-112621156D01*
X195773523Y-112583833D01*
X195773523Y-112583824D01*
X195762526Y-112472171D01*
X195719069Y-112328910D01*
X195648497Y-112196881D01*
X195553524Y-112081156D01*
X195524526Y-112057358D01*
X190132833Y-106665665D01*
X192113000Y-106665665D01*
X192113000Y-106948335D01*
X192168147Y-107225574D01*
X192276320Y-107486727D01*
X192433363Y-107721759D01*
X192633241Y-107921637D01*
X192868273Y-108078680D01*
X193129426Y-108186853D01*
X193406665Y-108242000D01*
X193689335Y-108242000D01*
X193966574Y-108186853D01*
X194227727Y-108078680D01*
X194462759Y-107921637D01*
X194662637Y-107721759D01*
X194819680Y-107486727D01*
X194927853Y-107225574D01*
X194983000Y-106948335D01*
X194983000Y-106665665D01*
X194927853Y-106388426D01*
X194819680Y-106127273D01*
X194662637Y-105892241D01*
X194462759Y-105692363D01*
X194227727Y-105535320D01*
X193966574Y-105427147D01*
X193689335Y-105372000D01*
X193406665Y-105372000D01*
X193129426Y-105427147D01*
X192868273Y-105535320D01*
X192633241Y-105692363D01*
X192433363Y-105892241D01*
X192276320Y-106127273D01*
X192168147Y-106388426D01*
X192113000Y-106665665D01*
X190132833Y-106665665D01*
X183997160Y-100529993D01*
X183973357Y-100500989D01*
X183857632Y-100406016D01*
X183725603Y-100335444D01*
X183582342Y-100291987D01*
X183470689Y-100280990D01*
X183470678Y-100280990D01*
X183433356Y-100277314D01*
X183396034Y-100280990D01*
X171030343Y-100280990D01*
X170993010Y-100277313D01*
X170955677Y-100280990D01*
X170844024Y-100291987D01*
X170700763Y-100335444D01*
X170568734Y-100406016D01*
X170453009Y-100500989D01*
X170429211Y-100529987D01*
X169741886Y-101217312D01*
X169559335Y-101181000D01*
X169276665Y-101181000D01*
X168999426Y-101236147D01*
X168738273Y-101344320D01*
X168503241Y-101501363D01*
X168303363Y-101701241D01*
X168148000Y-101933759D01*
X167992637Y-101701241D01*
X167792759Y-101501363D01*
X167557727Y-101344320D01*
X167296574Y-101236147D01*
X167019335Y-101181000D01*
X166736665Y-101181000D01*
X166459426Y-101236147D01*
X166198273Y-101344320D01*
X165963241Y-101501363D01*
X165763363Y-101701241D01*
X165608000Y-101933759D01*
X165452637Y-101701241D01*
X165252759Y-101501363D01*
X165017727Y-101344320D01*
X164756574Y-101236147D01*
X164479335Y-101181000D01*
X164196665Y-101181000D01*
X163919426Y-101236147D01*
X163658273Y-101344320D01*
X163423241Y-101501363D01*
X163223363Y-101701241D01*
X163066320Y-101936273D01*
X163061933Y-101946865D01*
X162950385Y-101760869D01*
X162761414Y-101552481D01*
X162535420Y-101384963D01*
X162281087Y-101264754D01*
X162147039Y-101224096D01*
X161925000Y-101346085D01*
X161925000Y-102489000D01*
X161945000Y-102489000D01*
X161945000Y-102743000D01*
X161925000Y-102743000D01*
X161925000Y-102763000D01*
X161671000Y-102763000D01*
X161671000Y-102743000D01*
X161651000Y-102743000D01*
X161651000Y-102489000D01*
X161671000Y-102489000D01*
X161671000Y-101346085D01*
X161448961Y-101224096D01*
X161314913Y-101264754D01*
X161060580Y-101384963D01*
X160834586Y-101552481D01*
X160645615Y-101760869D01*
X160535791Y-101943992D01*
X159571801Y-100980002D01*
X159547998Y-100950998D01*
X159432273Y-100856025D01*
X159300244Y-100785453D01*
X159156983Y-100741996D01*
X159045330Y-100730999D01*
X159045319Y-100730999D01*
X159007997Y-100727323D01*
X158970675Y-100730999D01*
X154070326Y-100730999D01*
X154033001Y-100727323D01*
X153995676Y-100730999D01*
X153995668Y-100730999D01*
X153884015Y-100741996D01*
X153740754Y-100785453D01*
X153608725Y-100856025D01*
X153493000Y-100950998D01*
X153469202Y-100979996D01*
X153231886Y-101217312D01*
X153049335Y-101181000D01*
X152766665Y-101181000D01*
X152489426Y-101236147D01*
X152228273Y-101344320D01*
X151993241Y-101501363D01*
X151793363Y-101701241D01*
X151638000Y-101933759D01*
X151482637Y-101701241D01*
X151282759Y-101501363D01*
X151047727Y-101344320D01*
X150786574Y-101236147D01*
X150509335Y-101181000D01*
X150226665Y-101181000D01*
X149949426Y-101236147D01*
X149688273Y-101344320D01*
X149453241Y-101501363D01*
X149253363Y-101701241D01*
X149098000Y-101933759D01*
X148942637Y-101701241D01*
X148742759Y-101501363D01*
X148507727Y-101344320D01*
X148246574Y-101236147D01*
X147969335Y-101181000D01*
X147686665Y-101181000D01*
X147409426Y-101236147D01*
X147148273Y-101344320D01*
X146913241Y-101501363D01*
X146713363Y-101701241D01*
X146558000Y-101933759D01*
X146402637Y-101701241D01*
X146202759Y-101501363D01*
X145967727Y-101344320D01*
X145706574Y-101236147D01*
X145429335Y-101181000D01*
X145146665Y-101181000D01*
X144869426Y-101236147D01*
X144608273Y-101344320D01*
X144373241Y-101501363D01*
X144373204Y-101501400D01*
X143851804Y-100980001D01*
X143828002Y-100950998D01*
X143712277Y-100856025D01*
X143580248Y-100785453D01*
X143436987Y-100741996D01*
X143325334Y-100730999D01*
X143325323Y-100730999D01*
X143288001Y-100727323D01*
X143250679Y-100730999D01*
X141370326Y-100730999D01*
X141333001Y-100727323D01*
X141295676Y-100730999D01*
X141295668Y-100730999D01*
X141184015Y-100741996D01*
X141040754Y-100785453D01*
X140908725Y-100856025D01*
X140793000Y-100950998D01*
X140769202Y-100979996D01*
X140531886Y-101217312D01*
X140349335Y-101181000D01*
X140066665Y-101181000D01*
X139789426Y-101236147D01*
X139528273Y-101344320D01*
X139293241Y-101501363D01*
X139093363Y-101701241D01*
X138938000Y-101933759D01*
X138782637Y-101701241D01*
X138582759Y-101501363D01*
X138347727Y-101344320D01*
X138086574Y-101236147D01*
X137809335Y-101181000D01*
X137526665Y-101181000D01*
X137249426Y-101236147D01*
X136988273Y-101344320D01*
X136753241Y-101501363D01*
X136553363Y-101701241D01*
X136396320Y-101936273D01*
X136391933Y-101946865D01*
X136280385Y-101760869D01*
X136091414Y-101552481D01*
X135865420Y-101384963D01*
X135611087Y-101264754D01*
X135477039Y-101224096D01*
X135255000Y-101346085D01*
X135255000Y-102489000D01*
X135275000Y-102489000D01*
X135275000Y-102743000D01*
X135255000Y-102743000D01*
X135255000Y-102763000D01*
X135001000Y-102763000D01*
X135001000Y-102743000D01*
X133857376Y-102743000D01*
X133736091Y-102965040D01*
X133741807Y-102981001D01*
X131593624Y-102981001D01*
X131556301Y-102977325D01*
X131518979Y-102981001D01*
X131518969Y-102981001D01*
X131407316Y-102991998D01*
X131274136Y-103032397D01*
X131264055Y-103035455D01*
X131132025Y-103106027D01*
X131078960Y-103149577D01*
X131016301Y-103201000D01*
X130992503Y-103229998D01*
X126780501Y-107442000D01*
X126258207Y-107442000D01*
X126347853Y-107225574D01*
X126403000Y-106948335D01*
X126403000Y-106665665D01*
X126347853Y-106388426D01*
X126239680Y-106127273D01*
X126082637Y-105892241D01*
X125882759Y-105692363D01*
X125647727Y-105535320D01*
X125386574Y-105427147D01*
X125109335Y-105372000D01*
X124826665Y-105372000D01*
X124549426Y-105427147D01*
X124288273Y-105535320D01*
X124053241Y-105692363D01*
X123853363Y-105892241D01*
X123696320Y-106127273D01*
X123588147Y-106388426D01*
X123533000Y-106665665D01*
X123533000Y-106919711D01*
X122290800Y-108161911D01*
X121040218Y-106911329D01*
X121043812Y-106899482D01*
X121056072Y-106775000D01*
X121056072Y-102775000D01*
X121043812Y-102650518D01*
X121007502Y-102530820D01*
X120948537Y-102420506D01*
X120869185Y-102323815D01*
X120799907Y-102266960D01*
X133736091Y-102266960D01*
X133857376Y-102489000D01*
X135001000Y-102489000D01*
X135001000Y-101346085D01*
X134778961Y-101224096D01*
X134644913Y-101264754D01*
X134390580Y-101384963D01*
X134164586Y-101552481D01*
X133975615Y-101760869D01*
X133830930Y-102002119D01*
X133736091Y-102266960D01*
X120799907Y-102266960D01*
X120772494Y-102244463D01*
X120662180Y-102185498D01*
X120542482Y-102149188D01*
X120418000Y-102136928D01*
X118818000Y-102136928D01*
X118693518Y-102149188D01*
X118573820Y-102185498D01*
X118463506Y-102244463D01*
X118366815Y-102323815D01*
X118287463Y-102420506D01*
X118228498Y-102530820D01*
X118192188Y-102650518D01*
X118179928Y-102775000D01*
X118179928Y-106775000D01*
X118192188Y-106899482D01*
X118228498Y-107019180D01*
X118287463Y-107129494D01*
X118366815Y-107226185D01*
X118463506Y-107305537D01*
X118573820Y-107364502D01*
X118693518Y-107400812D01*
X118818000Y-107413072D01*
X118902223Y-107413072D01*
X118953657Y-107475744D01*
X118989336Y-107505025D01*
X121355801Y-109871491D01*
X121355800Y-117743068D01*
X121351276Y-117789000D01*
X121362174Y-117899644D01*
X121369329Y-117972291D01*
X121422793Y-118148539D01*
X121509614Y-118310971D01*
X121626456Y-118453344D01*
X121662141Y-118482630D01*
X128834511Y-125655000D01*
X111708000Y-125655000D01*
X111708000Y-108975000D01*
X114279928Y-108975000D01*
X114279928Y-110375000D01*
X114292188Y-110499482D01*
X114328498Y-110619180D01*
X114387463Y-110729494D01*
X114466815Y-110826185D01*
X114563506Y-110905537D01*
X114673820Y-110964502D01*
X114793518Y-111000812D01*
X114918000Y-111013072D01*
X118418000Y-111013072D01*
X118542482Y-111000812D01*
X118662180Y-110964502D01*
X118772494Y-110905537D01*
X118869185Y-110826185D01*
X118948537Y-110729494D01*
X119007502Y-110619180D01*
X119043812Y-110499482D01*
X119056072Y-110375000D01*
X119056072Y-108975000D01*
X119043812Y-108850518D01*
X119007502Y-108730820D01*
X118948537Y-108620506D01*
X118869185Y-108523815D01*
X118772494Y-108444463D01*
X118662180Y-108385498D01*
X118542482Y-108349188D01*
X118418000Y-108336928D01*
X114918000Y-108336928D01*
X114793518Y-108349188D01*
X114673820Y-108385498D01*
X114563506Y-108444463D01*
X114466815Y-108523815D01*
X114387463Y-108620506D01*
X114328498Y-108730820D01*
X114292188Y-108850518D01*
X114279928Y-108975000D01*
X111708000Y-108975000D01*
X111708000Y-106525000D01*
X112129928Y-106525000D01*
X112142188Y-106649482D01*
X112178498Y-106769180D01*
X112237463Y-106879494D01*
X112316815Y-106976185D01*
X112413506Y-107055537D01*
X112523820Y-107114502D01*
X112643518Y-107150812D01*
X112768000Y-107163072D01*
X113332250Y-107160000D01*
X113491000Y-107001250D01*
X113491000Y-104902000D01*
X113745000Y-104902000D01*
X113745000Y-107001250D01*
X113903750Y-107160000D01*
X114468000Y-107163072D01*
X114592482Y-107150812D01*
X114712180Y-107114502D01*
X114822494Y-107055537D01*
X114919185Y-106976185D01*
X114998537Y-106879494D01*
X115057502Y-106769180D01*
X115093812Y-106649482D01*
X115106072Y-106525000D01*
X115103000Y-105060750D01*
X114944250Y-104902000D01*
X113745000Y-104902000D01*
X113491000Y-104902000D01*
X112291750Y-104902000D01*
X112133000Y-105060750D01*
X112129928Y-106525000D01*
X111708000Y-106525000D01*
X111708000Y-103025000D01*
X112129928Y-103025000D01*
X112133000Y-104489250D01*
X112291750Y-104648000D01*
X113491000Y-104648000D01*
X113491000Y-102548750D01*
X113745000Y-102548750D01*
X113745000Y-104648000D01*
X114944250Y-104648000D01*
X115103000Y-104489250D01*
X115106072Y-103025000D01*
X115093812Y-102900518D01*
X115057502Y-102780820D01*
X114998537Y-102670506D01*
X114919185Y-102573815D01*
X114822494Y-102494463D01*
X114712180Y-102435498D01*
X114592482Y-102399188D01*
X114468000Y-102386928D01*
X113903750Y-102390000D01*
X113745000Y-102548750D01*
X113491000Y-102548750D01*
X113332250Y-102390000D01*
X112768000Y-102386928D01*
X112643518Y-102399188D01*
X112523820Y-102435498D01*
X112413506Y-102494463D01*
X112316815Y-102573815D01*
X112237463Y-102670506D01*
X112178498Y-102780820D01*
X112142188Y-102900518D01*
X112129928Y-103025000D01*
X111708000Y-103025000D01*
X111708000Y-100607702D01*
X127964903Y-100607702D01*
X128036486Y-100851671D01*
X128291996Y-100972571D01*
X128566184Y-101041300D01*
X128848512Y-101055217D01*
X129128130Y-101013787D01*
X129394292Y-100918603D01*
X129519514Y-100851671D01*
X129591097Y-100607702D01*
X128778000Y-99794605D01*
X127964903Y-100607702D01*
X111708000Y-100607702D01*
X111708000Y-99685512D01*
X127337783Y-99685512D01*
X127379213Y-99965130D01*
X127474397Y-100231292D01*
X127541329Y-100356514D01*
X127785298Y-100428097D01*
X128598395Y-99615000D01*
X128957605Y-99615000D01*
X129770702Y-100428097D01*
X130014671Y-100356514D01*
X130135571Y-100101004D01*
X130204300Y-99826816D01*
X130218217Y-99544488D01*
X130176787Y-99264870D01*
X130081603Y-98998708D01*
X130014671Y-98873486D01*
X129770702Y-98801903D01*
X128957605Y-99615000D01*
X128598395Y-99615000D01*
X127785298Y-98801903D01*
X127541329Y-98873486D01*
X127420429Y-99128996D01*
X127351700Y-99403184D01*
X127337783Y-99685512D01*
X111708000Y-99685512D01*
X111708000Y-98622298D01*
X127964903Y-98622298D01*
X128778000Y-99435395D01*
X129591097Y-98622298D01*
X129519514Y-98378329D01*
X129264004Y-98257429D01*
X128989816Y-98188700D01*
X128707488Y-98174783D01*
X128427870Y-98216213D01*
X128161708Y-98311397D01*
X128036486Y-98378329D01*
X127964903Y-98622298D01*
X111708000Y-98622298D01*
X111708000Y-96117541D01*
X121159418Y-96011992D01*
X121182776Y-96009560D01*
X121206601Y-96002333D01*
X121228557Y-95990597D01*
X121247803Y-95974803D01*
X122517803Y-94704803D01*
X122533597Y-94685557D01*
X122545333Y-94663601D01*
X122552560Y-94639776D01*
X122555000Y-94615000D01*
X122555000Y-94473665D01*
X127343000Y-94473665D01*
X127343000Y-94756335D01*
X127398147Y-95033574D01*
X127506320Y-95294727D01*
X127663363Y-95529759D01*
X127863241Y-95729637D01*
X128098273Y-95886680D01*
X128359426Y-95994853D01*
X128636665Y-96050000D01*
X128919335Y-96050000D01*
X129196574Y-95994853D01*
X129457727Y-95886680D01*
X129692759Y-95729637D01*
X129892637Y-95529759D01*
X130049680Y-95294727D01*
X130157853Y-95033574D01*
X130193440Y-94854665D01*
X133693000Y-94854665D01*
X133693000Y-95137335D01*
X133748147Y-95414574D01*
X133856320Y-95675727D01*
X134013363Y-95910759D01*
X134213241Y-96110637D01*
X134448273Y-96267680D01*
X134709426Y-96375853D01*
X134986665Y-96431000D01*
X135269335Y-96431000D01*
X135546574Y-96375853D01*
X135807727Y-96267680D01*
X136042759Y-96110637D01*
X136242637Y-95910759D01*
X136398000Y-95678241D01*
X136553363Y-95910759D01*
X136753241Y-96110637D01*
X136988273Y-96267680D01*
X137249426Y-96375853D01*
X137526665Y-96431000D01*
X137809335Y-96431000D01*
X138086574Y-96375853D01*
X138347727Y-96267680D01*
X138582759Y-96110637D01*
X138782637Y-95910759D01*
X138938000Y-95678241D01*
X139093363Y-95910759D01*
X139293241Y-96110637D01*
X139528273Y-96267680D01*
X139789426Y-96375853D01*
X140066665Y-96431000D01*
X140349335Y-96431000D01*
X140626574Y-96375853D01*
X140887727Y-96267680D01*
X141122759Y-96110637D01*
X141322637Y-95910759D01*
X141478000Y-95678241D01*
X141633363Y-95910759D01*
X141833241Y-96110637D01*
X142068273Y-96267680D01*
X142329426Y-96375853D01*
X142606665Y-96431000D01*
X142889335Y-96431000D01*
X143166574Y-96375853D01*
X143427727Y-96267680D01*
X143662759Y-96110637D01*
X143862637Y-95910759D01*
X144018000Y-95678241D01*
X144173363Y-95910759D01*
X144373241Y-96110637D01*
X144608273Y-96267680D01*
X144869426Y-96375853D01*
X145146665Y-96431000D01*
X145429335Y-96431000D01*
X145706574Y-96375853D01*
X145967727Y-96267680D01*
X146202759Y-96110637D01*
X146402637Y-95910759D01*
X146558000Y-95678241D01*
X146713363Y-95910759D01*
X146913241Y-96110637D01*
X147148273Y-96267680D01*
X147409426Y-96375853D01*
X147686665Y-96431000D01*
X147969335Y-96431000D01*
X148246574Y-96375853D01*
X148507727Y-96267680D01*
X148742759Y-96110637D01*
X148942637Y-95910759D01*
X149098000Y-95678241D01*
X149253363Y-95910759D01*
X149453241Y-96110637D01*
X149688273Y-96267680D01*
X149949426Y-96375853D01*
X150226665Y-96431000D01*
X150509335Y-96431000D01*
X150786574Y-96375853D01*
X151047727Y-96267680D01*
X151282759Y-96110637D01*
X151482637Y-95910759D01*
X151638000Y-95678241D01*
X151793363Y-95910759D01*
X151993241Y-96110637D01*
X152228273Y-96267680D01*
X152489426Y-96375853D01*
X152766665Y-96431000D01*
X153049335Y-96431000D01*
X153326574Y-96375853D01*
X153587727Y-96267680D01*
X153822759Y-96110637D01*
X154021357Y-95912039D01*
X154022188Y-95920482D01*
X154058498Y-96040180D01*
X154117463Y-96150494D01*
X154196815Y-96247185D01*
X154293506Y-96326537D01*
X154403820Y-96385502D01*
X154523518Y-96421812D01*
X154648000Y-96434072D01*
X156248000Y-96434072D01*
X156372482Y-96421812D01*
X156492180Y-96385502D01*
X156602494Y-96326537D01*
X156699185Y-96247185D01*
X156778537Y-96150494D01*
X156837502Y-96040180D01*
X156873812Y-95920482D01*
X156886072Y-95796000D01*
X156886072Y-94854665D01*
X160363000Y-94854665D01*
X160363000Y-95137335D01*
X160418147Y-95414574D01*
X160526320Y-95675727D01*
X160683363Y-95910759D01*
X160883241Y-96110637D01*
X161118273Y-96267680D01*
X161379426Y-96375853D01*
X161656665Y-96431000D01*
X161939335Y-96431000D01*
X162216574Y-96375853D01*
X162477727Y-96267680D01*
X162712759Y-96110637D01*
X162912637Y-95910759D01*
X163069680Y-95675727D01*
X163074067Y-95665135D01*
X163185615Y-95851131D01*
X163374586Y-96059519D01*
X163600580Y-96227037D01*
X163854913Y-96347246D01*
X163988961Y-96387904D01*
X164211000Y-96265915D01*
X164211000Y-95123000D01*
X164465000Y-95123000D01*
X164465000Y-96265915D01*
X164687039Y-96387904D01*
X164821087Y-96347246D01*
X165075420Y-96227037D01*
X165301414Y-96059519D01*
X165490385Y-95851131D01*
X165608000Y-95655018D01*
X165725615Y-95851131D01*
X165914586Y-96059519D01*
X166140580Y-96227037D01*
X166394913Y-96347246D01*
X166528961Y-96387904D01*
X166751000Y-96265915D01*
X166751000Y-95123000D01*
X164465000Y-95123000D01*
X164211000Y-95123000D01*
X164191000Y-95123000D01*
X164191000Y-94869000D01*
X164211000Y-94869000D01*
X164211000Y-93726085D01*
X164465000Y-93726085D01*
X164465000Y-94869000D01*
X166751000Y-94869000D01*
X166751000Y-93726085D01*
X167005000Y-93726085D01*
X167005000Y-94869000D01*
X167025000Y-94869000D01*
X167025000Y-95123000D01*
X167005000Y-95123000D01*
X167005000Y-96265915D01*
X167227039Y-96387904D01*
X167361087Y-96347246D01*
X167615420Y-96227037D01*
X167841414Y-96059519D01*
X168030385Y-95851131D01*
X168141933Y-95665135D01*
X168146320Y-95675727D01*
X168303363Y-95910759D01*
X168503241Y-96110637D01*
X168738273Y-96267680D01*
X168999426Y-96375853D01*
X169276665Y-96431000D01*
X169559335Y-96431000D01*
X169836574Y-96375853D01*
X170097727Y-96267680D01*
X170332759Y-96110637D01*
X170532637Y-95910759D01*
X170688000Y-95678241D01*
X170843363Y-95910759D01*
X171043241Y-96110637D01*
X171278273Y-96267680D01*
X171539426Y-96375853D01*
X171816665Y-96431000D01*
X172099335Y-96431000D01*
X172376574Y-96375853D01*
X172637727Y-96267680D01*
X172872759Y-96110637D01*
X173072637Y-95910759D01*
X173228000Y-95678241D01*
X173383363Y-95910759D01*
X173583241Y-96110637D01*
X173818273Y-96267680D01*
X174079426Y-96375853D01*
X174356665Y-96431000D01*
X174639335Y-96431000D01*
X174916574Y-96375853D01*
X175177727Y-96267680D01*
X175412759Y-96110637D01*
X175612637Y-95910759D01*
X175768000Y-95678241D01*
X175923363Y-95910759D01*
X176123241Y-96110637D01*
X176358273Y-96267680D01*
X176619426Y-96375853D01*
X176896665Y-96431000D01*
X177179335Y-96431000D01*
X177456574Y-96375853D01*
X177717727Y-96267680D01*
X177952759Y-96110637D01*
X178152637Y-95910759D01*
X178308000Y-95678241D01*
X178463363Y-95910759D01*
X178663241Y-96110637D01*
X178898273Y-96267680D01*
X179159426Y-96375853D01*
X179436665Y-96431000D01*
X179719335Y-96431000D01*
X179996574Y-96375853D01*
X180257727Y-96267680D01*
X180492759Y-96110637D01*
X180691357Y-95912039D01*
X180692188Y-95920482D01*
X180728498Y-96040180D01*
X180787463Y-96150494D01*
X180866815Y-96247185D01*
X180963506Y-96326537D01*
X181073820Y-96385502D01*
X181193518Y-96421812D01*
X181318000Y-96434072D01*
X182918000Y-96434072D01*
X183042482Y-96421812D01*
X183162180Y-96385502D01*
X183272494Y-96326537D01*
X183369185Y-96247185D01*
X183448537Y-96150494D01*
X183507502Y-96040180D01*
X183543812Y-95920482D01*
X183556072Y-95796000D01*
X183556072Y-94196000D01*
X183543812Y-94071518D01*
X183507502Y-93951820D01*
X183448537Y-93841506D01*
X183369185Y-93744815D01*
X183272494Y-93665463D01*
X183162180Y-93606498D01*
X183042482Y-93570188D01*
X182918000Y-93557928D01*
X181318000Y-93557928D01*
X181193518Y-93570188D01*
X181073820Y-93606498D01*
X180963506Y-93665463D01*
X180866815Y-93744815D01*
X180787463Y-93841506D01*
X180728498Y-93951820D01*
X180692188Y-94071518D01*
X180691357Y-94079961D01*
X180492759Y-93881363D01*
X180257727Y-93724320D01*
X179996574Y-93616147D01*
X179719335Y-93561000D01*
X179436665Y-93561000D01*
X179159426Y-93616147D01*
X178898273Y-93724320D01*
X178663241Y-93881363D01*
X178463363Y-94081241D01*
X178308000Y-94313759D01*
X178152637Y-94081241D01*
X177952759Y-93881363D01*
X177717727Y-93724320D01*
X177456574Y-93616147D01*
X177179335Y-93561000D01*
X176896665Y-93561000D01*
X176619426Y-93616147D01*
X176358273Y-93724320D01*
X176123241Y-93881363D01*
X175923363Y-94081241D01*
X175768000Y-94313759D01*
X175612637Y-94081241D01*
X175412759Y-93881363D01*
X175177727Y-93724320D01*
X174916574Y-93616147D01*
X174639335Y-93561000D01*
X174356665Y-93561000D01*
X174079426Y-93616147D01*
X173818273Y-93724320D01*
X173583241Y-93881363D01*
X173383363Y-94081241D01*
X173228000Y-94313759D01*
X173072637Y-94081241D01*
X172872759Y-93881363D01*
X172637727Y-93724320D01*
X172376574Y-93616147D01*
X172099335Y-93561000D01*
X171816665Y-93561000D01*
X171539426Y-93616147D01*
X171278273Y-93724320D01*
X171043241Y-93881363D01*
X170843363Y-94081241D01*
X170688000Y-94313759D01*
X170532637Y-94081241D01*
X170332759Y-93881363D01*
X170097727Y-93724320D01*
X169836574Y-93616147D01*
X169559335Y-93561000D01*
X169276665Y-93561000D01*
X168999426Y-93616147D01*
X168738273Y-93724320D01*
X168503241Y-93881363D01*
X168303363Y-94081241D01*
X168146320Y-94316273D01*
X168141933Y-94326865D01*
X168030385Y-94140869D01*
X167841414Y-93932481D01*
X167615420Y-93764963D01*
X167361087Y-93644754D01*
X167227039Y-93604096D01*
X167005000Y-93726085D01*
X166751000Y-93726085D01*
X166528961Y-93604096D01*
X166394913Y-93644754D01*
X166140580Y-93764963D01*
X165914586Y-93932481D01*
X165725615Y-94140869D01*
X165608000Y-94336982D01*
X165490385Y-94140869D01*
X165301414Y-93932481D01*
X165075420Y-93764963D01*
X164821087Y-93644754D01*
X164687039Y-93604096D01*
X164465000Y-93726085D01*
X164211000Y-93726085D01*
X163988961Y-93604096D01*
X163854913Y-93644754D01*
X163600580Y-93764963D01*
X163374586Y-93932481D01*
X163185615Y-94140869D01*
X163074067Y-94326865D01*
X163069680Y-94316273D01*
X162912637Y-94081241D01*
X162712759Y-93881363D01*
X162477727Y-93724320D01*
X162216574Y-93616147D01*
X161939335Y-93561000D01*
X161656665Y-93561000D01*
X161379426Y-93616147D01*
X161118273Y-93724320D01*
X160883241Y-93881363D01*
X160683363Y-94081241D01*
X160526320Y-94316273D01*
X160418147Y-94577426D01*
X160363000Y-94854665D01*
X156886072Y-94854665D01*
X156886072Y-94196000D01*
X156873812Y-94071518D01*
X156837502Y-93951820D01*
X156778537Y-93841506D01*
X156699185Y-93744815D01*
X156602494Y-93665463D01*
X156492180Y-93606498D01*
X156372482Y-93570188D01*
X156248000Y-93557928D01*
X154648000Y-93557928D01*
X154523518Y-93570188D01*
X154403820Y-93606498D01*
X154293506Y-93665463D01*
X154196815Y-93744815D01*
X154117463Y-93841506D01*
X154058498Y-93951820D01*
X154022188Y-94071518D01*
X154021357Y-94079961D01*
X153822759Y-93881363D01*
X153587727Y-93724320D01*
X153326574Y-93616147D01*
X153049335Y-93561000D01*
X152766665Y-93561000D01*
X152489426Y-93616147D01*
X152228273Y-93724320D01*
X151993241Y-93881363D01*
X151793363Y-94081241D01*
X151638000Y-94313759D01*
X151482637Y-94081241D01*
X151282759Y-93881363D01*
X151047727Y-93724320D01*
X150786574Y-93616147D01*
X150509335Y-93561000D01*
X150226665Y-93561000D01*
X149949426Y-93616147D01*
X149688273Y-93724320D01*
X149453241Y-93881363D01*
X149253363Y-94081241D01*
X149098000Y-94313759D01*
X148942637Y-94081241D01*
X148742759Y-93881363D01*
X148507727Y-93724320D01*
X148246574Y-93616147D01*
X147969335Y-93561000D01*
X147686665Y-93561000D01*
X147409426Y-93616147D01*
X147148273Y-93724320D01*
X146913241Y-93881363D01*
X146713363Y-94081241D01*
X146558000Y-94313759D01*
X146402637Y-94081241D01*
X146202759Y-93881363D01*
X145967727Y-93724320D01*
X145706574Y-93616147D01*
X145429335Y-93561000D01*
X145146665Y-93561000D01*
X144869426Y-93616147D01*
X144608273Y-93724320D01*
X144373241Y-93881363D01*
X144173363Y-94081241D01*
X144018000Y-94313759D01*
X143862637Y-94081241D01*
X143662759Y-93881363D01*
X143427727Y-93724320D01*
X143166574Y-93616147D01*
X142889335Y-93561000D01*
X142606665Y-93561000D01*
X142329426Y-93616147D01*
X142068273Y-93724320D01*
X141833241Y-93881363D01*
X141633363Y-94081241D01*
X141478000Y-94313759D01*
X141322637Y-94081241D01*
X141122759Y-93881363D01*
X140887727Y-93724320D01*
X140626574Y-93616147D01*
X140349335Y-93561000D01*
X140066665Y-93561000D01*
X139789426Y-93616147D01*
X139528273Y-93724320D01*
X139293241Y-93881363D01*
X139093363Y-94081241D01*
X138938000Y-94313759D01*
X138782637Y-94081241D01*
X138582759Y-93881363D01*
X138347727Y-93724320D01*
X138086574Y-93616147D01*
X137809335Y-93561000D01*
X137526665Y-93561000D01*
X137249426Y-93616147D01*
X136988273Y-93724320D01*
X136753241Y-93881363D01*
X136553363Y-94081241D01*
X136398000Y-94313759D01*
X136242637Y-94081241D01*
X136042759Y-93881363D01*
X135807727Y-93724320D01*
X135546574Y-93616147D01*
X135269335Y-93561000D01*
X134986665Y-93561000D01*
X134709426Y-93616147D01*
X134448273Y-93724320D01*
X134213241Y-93881363D01*
X134013363Y-94081241D01*
X133856320Y-94316273D01*
X133748147Y-94577426D01*
X133693000Y-94854665D01*
X130193440Y-94854665D01*
X130213000Y-94756335D01*
X130213000Y-94473665D01*
X130157853Y-94196426D01*
X130049680Y-93935273D01*
X129892637Y-93700241D01*
X129692759Y-93500363D01*
X129457727Y-93343320D01*
X129196574Y-93235147D01*
X128919335Y-93180000D01*
X128636665Y-93180000D01*
X128359426Y-93235147D01*
X128098273Y-93343320D01*
X127863241Y-93500363D01*
X127663363Y-93700241D01*
X127506320Y-93935273D01*
X127398147Y-94196426D01*
X127343000Y-94473665D01*
X122555000Y-94473665D01*
X122555000Y-88123665D01*
X128613000Y-88123665D01*
X128613000Y-88406335D01*
X128668147Y-88683574D01*
X128776320Y-88944727D01*
X128933363Y-89179759D01*
X129133241Y-89379637D01*
X129368273Y-89536680D01*
X129629426Y-89644853D01*
X129906665Y-89700000D01*
X130189335Y-89700000D01*
X130466574Y-89644853D01*
X130727727Y-89536680D01*
X130962759Y-89379637D01*
X131162637Y-89179759D01*
X131319680Y-88944727D01*
X131427853Y-88683574D01*
X131483000Y-88406335D01*
X131483000Y-88123665D01*
X131427853Y-87846426D01*
X131319680Y-87585273D01*
X131162637Y-87350241D01*
X130962759Y-87150363D01*
X130727727Y-86993320D01*
X130466574Y-86885147D01*
X130189335Y-86830000D01*
X129906665Y-86830000D01*
X129629426Y-86885147D01*
X129368273Y-86993320D01*
X129133241Y-87150363D01*
X128933363Y-87350241D01*
X128776320Y-87585273D01*
X128668147Y-87846426D01*
X128613000Y-88123665D01*
X122555000Y-88123665D01*
X122555000Y-81915000D01*
X122552560Y-81890224D01*
X122545333Y-81866399D01*
X122533597Y-81844443D01*
X122517803Y-81825197D01*
X121247803Y-80555197D01*
X121228557Y-80539403D01*
X121206601Y-80527667D01*
X121182776Y-80520440D01*
X121158000Y-80518000D01*
X111708000Y-80518000D01*
X111708000Y-75338982D01*
X128295400Y-75338982D01*
X128295400Y-75791019D01*
X128317084Y-76011177D01*
X128402775Y-76293664D01*
X128541931Y-76554006D01*
X128729203Y-76782197D01*
X128957395Y-76969469D01*
X129034000Y-77010415D01*
X129034001Y-79629603D01*
X128933363Y-79730241D01*
X128776320Y-79965273D01*
X128668147Y-80226426D01*
X128613000Y-80503665D01*
X128613000Y-80786335D01*
X128668147Y-81063574D01*
X128776320Y-81324727D01*
X128933363Y-81559759D01*
X129133241Y-81759637D01*
X129368273Y-81916680D01*
X129629426Y-82024853D01*
X129906665Y-82080000D01*
X130189335Y-82080000D01*
X130371887Y-82043688D01*
X133294201Y-84966003D01*
X133317999Y-84995001D01*
X133433724Y-85089974D01*
X133565753Y-85160546D01*
X133709014Y-85204003D01*
X133820667Y-85215000D01*
X133820675Y-85215000D01*
X133858000Y-85218676D01*
X133895325Y-85215000D01*
X160445466Y-85215000D01*
X160581269Y-85305741D01*
X160755978Y-85378108D01*
X160941448Y-85415000D01*
X161130552Y-85415000D01*
X161316022Y-85378108D01*
X161490731Y-85305741D01*
X161626534Y-85215000D01*
X165659957Y-85215000D01*
X165763363Y-85369759D01*
X165963241Y-85569637D01*
X166195759Y-85725000D01*
X165963241Y-85880363D01*
X165763363Y-86080241D01*
X165606320Y-86315273D01*
X165498147Y-86576426D01*
X165443000Y-86853665D01*
X165443000Y-87136335D01*
X165498147Y-87413574D01*
X165606320Y-87674727D01*
X165763363Y-87909759D01*
X165963241Y-88109637D01*
X166195759Y-88265000D01*
X165963241Y-88420363D01*
X165874297Y-88509307D01*
X165014430Y-87649441D01*
X164985144Y-87613756D01*
X164842772Y-87496914D01*
X164680340Y-87410093D01*
X164504092Y-87356629D01*
X164366732Y-87343100D01*
X164320800Y-87338576D01*
X164274868Y-87343100D01*
X159465136Y-87343100D01*
X159339452Y-87318100D01*
X159150348Y-87318100D01*
X159024664Y-87343100D01*
X155498336Y-87343100D01*
X155365332Y-87330000D01*
X155319400Y-87325476D01*
X155273468Y-87330000D01*
X136222396Y-87330000D01*
X136042759Y-87150363D01*
X135807727Y-86993320D01*
X135546574Y-86885147D01*
X135269335Y-86830000D01*
X134986665Y-86830000D01*
X134709426Y-86885147D01*
X134448273Y-86993320D01*
X134213241Y-87150363D01*
X134013363Y-87350241D01*
X133856320Y-87585273D01*
X133748147Y-87846426D01*
X133693000Y-88123665D01*
X133693000Y-88406335D01*
X133748147Y-88683574D01*
X133856320Y-88944727D01*
X134013363Y-89179759D01*
X134213241Y-89379637D01*
X134448273Y-89536680D01*
X134709426Y-89644853D01*
X134986665Y-89700000D01*
X135269335Y-89700000D01*
X135546574Y-89644853D01*
X135807727Y-89536680D01*
X136042759Y-89379637D01*
X136222396Y-89200000D01*
X155153564Y-89200000D01*
X155332499Y-89217624D01*
X155378431Y-89213100D01*
X159024664Y-89213100D01*
X159150348Y-89238100D01*
X159339452Y-89238100D01*
X159465136Y-89213100D01*
X163933511Y-89213100D01*
X164884074Y-90163664D01*
X164913356Y-90199344D01*
X165055728Y-90316186D01*
X165218160Y-90403007D01*
X165394408Y-90456471D01*
X165577699Y-90474524D01*
X165623631Y-90470000D01*
X165783604Y-90470000D01*
X165963241Y-90649637D01*
X166198273Y-90806680D01*
X166459426Y-90914853D01*
X166736665Y-90970000D01*
X167019335Y-90970000D01*
X167296574Y-90914853D01*
X167557727Y-90806680D01*
X167792759Y-90649637D01*
X167992637Y-90449759D01*
X168149680Y-90214727D01*
X168257853Y-89953574D01*
X168313000Y-89676335D01*
X168313000Y-89393665D01*
X168257853Y-89116426D01*
X168149680Y-88855273D01*
X168069317Y-88735000D01*
X173059928Y-88735000D01*
X173059928Y-90335000D01*
X173072188Y-90459482D01*
X173108498Y-90579180D01*
X173167463Y-90689494D01*
X173246815Y-90786185D01*
X173343506Y-90865537D01*
X173453820Y-90924502D01*
X173573518Y-90960812D01*
X173698000Y-90973072D01*
X175298000Y-90973072D01*
X175422482Y-90960812D01*
X175542180Y-90924502D01*
X175652494Y-90865537D01*
X175749185Y-90786185D01*
X175828537Y-90689494D01*
X175887502Y-90579180D01*
X175923812Y-90459482D01*
X175936072Y-90335000D01*
X175936072Y-90295000D01*
X177462868Y-90295000D01*
X177584480Y-90416612D01*
X177770376Y-90540824D01*
X177976933Y-90626383D01*
X178196212Y-90670000D01*
X178419788Y-90670000D01*
X178639067Y-90626383D01*
X178845624Y-90540824D01*
X179031520Y-90416612D01*
X179189612Y-90258520D01*
X179313824Y-90072624D01*
X179399383Y-89866067D01*
X179443000Y-89646788D01*
X179443000Y-89423212D01*
X179399383Y-89203933D01*
X179313824Y-88997376D01*
X179189612Y-88811480D01*
X179031520Y-88653388D01*
X178929170Y-88585000D01*
X179031520Y-88516612D01*
X179189612Y-88358520D01*
X179313824Y-88172624D01*
X179399383Y-87966067D01*
X179443000Y-87746788D01*
X179443000Y-87523212D01*
X179399383Y-87303933D01*
X179313824Y-87097376D01*
X179189612Y-86911480D01*
X179031520Y-86753388D01*
X178845624Y-86629176D01*
X178639067Y-86543617D01*
X178419788Y-86500000D01*
X178196212Y-86500000D01*
X177976933Y-86543617D01*
X177770376Y-86629176D01*
X177584480Y-86753388D01*
X177462868Y-86875000D01*
X175933000Y-86875000D01*
X175933000Y-86853665D01*
X175877853Y-86576426D01*
X175769680Y-86315273D01*
X175612637Y-86080241D01*
X175412759Y-85880363D01*
X175180241Y-85725000D01*
X175412759Y-85569637D01*
X175592396Y-85390000D01*
X184524711Y-85390000D01*
X188373001Y-89238290D01*
X188373000Y-91803080D01*
X188202002Y-91917337D01*
X187960337Y-92159002D01*
X187770463Y-92443169D01*
X187639675Y-92758919D01*
X187573000Y-93094117D01*
X187573000Y-93435883D01*
X187639675Y-93771081D01*
X187770463Y-94086831D01*
X187960337Y-94370998D01*
X188202002Y-94612663D01*
X188486169Y-94802537D01*
X188801919Y-94933325D01*
X189137117Y-95000000D01*
X189478883Y-95000000D01*
X189814081Y-94933325D01*
X190129831Y-94802537D01*
X190413998Y-94612663D01*
X190655663Y-94370998D01*
X190845537Y-94086831D01*
X190976325Y-93771081D01*
X191043000Y-93435883D01*
X191043000Y-93094117D01*
X190976325Y-92758919D01*
X190845537Y-92443169D01*
X190655663Y-92159002D01*
X190413998Y-91917337D01*
X190243000Y-91803080D01*
X190243000Y-89471712D01*
X191680893Y-89471712D01*
X191788726Y-89746338D01*
X192095384Y-89897216D01*
X192425585Y-89985369D01*
X192766639Y-90007409D01*
X193105439Y-89962489D01*
X193428966Y-89852336D01*
X193627274Y-89746338D01*
X193735107Y-89471712D01*
X192708000Y-88444605D01*
X191680893Y-89471712D01*
X190243000Y-89471712D01*
X190243000Y-88896931D01*
X190247524Y-88851000D01*
X190243000Y-88805068D01*
X190243000Y-88323639D01*
X190965591Y-88323639D01*
X191010511Y-88662439D01*
X191120664Y-88985966D01*
X191226662Y-89184274D01*
X191501288Y-89292107D01*
X192528395Y-88265000D01*
X192887605Y-88265000D01*
X193914712Y-89292107D01*
X194189338Y-89184274D01*
X194340216Y-88877616D01*
X194428369Y-88547415D01*
X194450409Y-88206361D01*
X194405489Y-87867561D01*
X194295336Y-87544034D01*
X194189338Y-87345726D01*
X193914712Y-87237893D01*
X192887605Y-88265000D01*
X192528395Y-88265000D01*
X191501288Y-87237893D01*
X191226662Y-87345726D01*
X191075784Y-87652384D01*
X190987631Y-87982585D01*
X190965591Y-88323639D01*
X190243000Y-88323639D01*
X190243000Y-87058288D01*
X191680893Y-87058288D01*
X192708000Y-88085395D01*
X193735107Y-87058288D01*
X193627274Y-86783662D01*
X193320616Y-86632784D01*
X192990415Y-86544631D01*
X192649361Y-86522591D01*
X192310561Y-86567511D01*
X191987034Y-86677664D01*
X191788726Y-86783662D01*
X191680893Y-87058288D01*
X190243000Y-87058288D01*
X190243000Y-84726920D01*
X190413998Y-84612663D01*
X190655663Y-84370998D01*
X190845537Y-84086831D01*
X190976325Y-83771081D01*
X191043000Y-83435883D01*
X191043000Y-83094117D01*
X190976325Y-82758919D01*
X190845537Y-82443169D01*
X190655663Y-82159002D01*
X190413998Y-81917337D01*
X190129831Y-81727463D01*
X189814081Y-81596675D01*
X189478883Y-81530000D01*
X189137117Y-81530000D01*
X188801919Y-81596675D01*
X188486169Y-81727463D01*
X188202002Y-81917337D01*
X187960337Y-82159002D01*
X187770463Y-82443169D01*
X187639675Y-82758919D01*
X187573000Y-83094117D01*
X187573000Y-83435883D01*
X187639675Y-83771081D01*
X187770463Y-84086831D01*
X187960337Y-84370998D01*
X188202002Y-84612663D01*
X188373001Y-84726921D01*
X188373000Y-86593711D01*
X185605630Y-83826341D01*
X185576344Y-83790656D01*
X185433972Y-83673814D01*
X185271540Y-83586993D01*
X185095292Y-83533529D01*
X184957932Y-83520000D01*
X184912000Y-83515476D01*
X184866068Y-83520000D01*
X175592396Y-83520000D01*
X175412759Y-83340363D01*
X175177727Y-83183320D01*
X175167135Y-83178933D01*
X175353131Y-83067385D01*
X175561519Y-82878414D01*
X175729037Y-82652420D01*
X175849246Y-82398087D01*
X175889904Y-82264039D01*
X175767915Y-82042000D01*
X174625000Y-82042000D01*
X174625000Y-82062000D01*
X174371000Y-82062000D01*
X174371000Y-82042000D01*
X173228085Y-82042000D01*
X173106096Y-82264039D01*
X173146754Y-82398087D01*
X173266963Y-82652420D01*
X173434481Y-82878414D01*
X173642869Y-83067385D01*
X173828865Y-83178933D01*
X173818273Y-83183320D01*
X173583241Y-83340363D01*
X173383363Y-83540241D01*
X173226320Y-83775273D01*
X173118147Y-84036426D01*
X173063000Y-84313665D01*
X173063000Y-84596335D01*
X173118147Y-84873574D01*
X173226320Y-85134727D01*
X173383363Y-85369759D01*
X173583241Y-85569637D01*
X173815759Y-85725000D01*
X173583241Y-85880363D01*
X173383363Y-86080241D01*
X173226320Y-86315273D01*
X173118147Y-86576426D01*
X173063000Y-86853665D01*
X173063000Y-87136335D01*
X173118147Y-87413574D01*
X173226320Y-87674727D01*
X173383363Y-87909759D01*
X173581961Y-88108357D01*
X173573518Y-88109188D01*
X173453820Y-88145498D01*
X173343506Y-88204463D01*
X173246815Y-88283815D01*
X173167463Y-88380506D01*
X173108498Y-88490820D01*
X173072188Y-88610518D01*
X173059928Y-88735000D01*
X168069317Y-88735000D01*
X167992637Y-88620241D01*
X167792759Y-88420363D01*
X167560241Y-88265000D01*
X167792759Y-88109637D01*
X167992637Y-87909759D01*
X168149680Y-87674727D01*
X168257853Y-87413574D01*
X168313000Y-87136335D01*
X168313000Y-86853665D01*
X168257853Y-86576426D01*
X168149680Y-86315273D01*
X167992637Y-86080241D01*
X167792759Y-85880363D01*
X167560241Y-85725000D01*
X167792759Y-85569637D01*
X167992637Y-85369759D01*
X168149680Y-85134727D01*
X168257853Y-84873574D01*
X168313000Y-84596335D01*
X168313000Y-84313665D01*
X168257853Y-84036426D01*
X168149680Y-83775273D01*
X167992637Y-83540241D01*
X167792759Y-83340363D01*
X167560241Y-83185000D01*
X167792759Y-83029637D01*
X167992637Y-82829759D01*
X168149680Y-82594727D01*
X168257853Y-82333574D01*
X168313000Y-82056335D01*
X168313000Y-81773665D01*
X168271685Y-81565961D01*
X173106096Y-81565961D01*
X173228085Y-81788000D01*
X174371000Y-81788000D01*
X174371000Y-80644376D01*
X174625000Y-80644376D01*
X174625000Y-81788000D01*
X175767915Y-81788000D01*
X175889904Y-81565961D01*
X175849246Y-81431913D01*
X175729037Y-81177580D01*
X175561519Y-80951586D01*
X175353131Y-80762615D01*
X175111881Y-80617930D01*
X174847040Y-80523091D01*
X174625000Y-80644376D01*
X174371000Y-80644376D01*
X174148960Y-80523091D01*
X173884119Y-80617930D01*
X173642869Y-80762615D01*
X173434481Y-80951586D01*
X173266963Y-81177580D01*
X173146754Y-81431913D01*
X173106096Y-81565961D01*
X168271685Y-81565961D01*
X168257853Y-81496426D01*
X168149680Y-81235273D01*
X167992637Y-81000241D01*
X167792759Y-80800363D01*
X167557727Y-80643320D01*
X167296574Y-80535147D01*
X167019335Y-80480000D01*
X166736665Y-80480000D01*
X166459426Y-80535147D01*
X166198273Y-80643320D01*
X165963241Y-80800363D01*
X165763363Y-81000241D01*
X165659957Y-81155000D01*
X159340534Y-81155000D01*
X159204731Y-81064259D01*
X159030022Y-80991892D01*
X158844552Y-80955000D01*
X158655448Y-80955000D01*
X158469978Y-80991892D01*
X158295269Y-81064259D01*
X158159466Y-81155000D01*
X136712802Y-81155000D01*
X136526688Y-80968886D01*
X136563000Y-80786335D01*
X136563000Y-80503665D01*
X136507853Y-80226426D01*
X136399680Y-79965273D01*
X136242637Y-79730241D01*
X136042759Y-79530363D01*
X135807727Y-79373320D01*
X135546574Y-79265147D01*
X135269335Y-79210000D01*
X134986665Y-79210000D01*
X134804114Y-79246312D01*
X133094000Y-77536199D01*
X133094000Y-77010416D01*
X133170606Y-76969469D01*
X133398797Y-76782197D01*
X133586069Y-76554006D01*
X133604000Y-76520459D01*
X133621931Y-76554006D01*
X133809203Y-76782197D01*
X134037395Y-76969469D01*
X134297737Y-77108625D01*
X134580224Y-77194316D01*
X134874000Y-77223251D01*
X135167777Y-77194316D01*
X135450264Y-77108625D01*
X135710606Y-76969469D01*
X135938797Y-76782197D01*
X136126069Y-76554006D01*
X136147424Y-76514053D01*
X136295514Y-76716729D01*
X136511965Y-76915733D01*
X136763081Y-77068686D01*
X137039211Y-77169709D01*
X137054974Y-77172358D01*
X137287000Y-77051217D01*
X137287000Y-75692000D01*
X137267000Y-75692000D01*
X137267000Y-75438000D01*
X137287000Y-75438000D01*
X137287000Y-74078783D01*
X137541000Y-74078783D01*
X137541000Y-75438000D01*
X137561000Y-75438000D01*
X137561000Y-75692000D01*
X137541000Y-75692000D01*
X137541000Y-77051217D01*
X137773026Y-77172358D01*
X137788789Y-77169709D01*
X138064919Y-77068686D01*
X138316035Y-76915733D01*
X138532486Y-76716729D01*
X138680576Y-76514053D01*
X138701931Y-76554006D01*
X138889203Y-76782197D01*
X139117395Y-76969469D01*
X139377737Y-77108625D01*
X139660224Y-77194316D01*
X139954000Y-77223251D01*
X140247777Y-77194316D01*
X140530264Y-77108625D01*
X140790606Y-76969469D01*
X141018797Y-76782197D01*
X141206069Y-76554006D01*
X141224000Y-76520459D01*
X141241931Y-76554006D01*
X141429203Y-76782197D01*
X141657395Y-76969469D01*
X141917737Y-77108625D01*
X142200224Y-77194316D01*
X142494000Y-77223251D01*
X142787777Y-77194316D01*
X143070264Y-77108625D01*
X143330606Y-76969469D01*
X143558797Y-76782197D01*
X143746069Y-76554006D01*
X143764000Y-76520459D01*
X143781931Y-76554006D01*
X143969203Y-76782197D01*
X144197395Y-76969469D01*
X144457737Y-77108625D01*
X144740224Y-77194316D01*
X145034000Y-77223251D01*
X145327777Y-77194316D01*
X145610264Y-77108625D01*
X145870606Y-76969469D01*
X146098797Y-76782197D01*
X146286069Y-76554006D01*
X146304000Y-76520459D01*
X146321931Y-76554006D01*
X146509203Y-76782197D01*
X146737395Y-76969469D01*
X146997737Y-77108625D01*
X147280224Y-77194316D01*
X147574000Y-77223251D01*
X147867777Y-77194316D01*
X148150264Y-77108625D01*
X148410606Y-76969469D01*
X148638797Y-76782197D01*
X148826069Y-76554006D01*
X148844000Y-76520459D01*
X148861931Y-76554006D01*
X149049203Y-76782197D01*
X149277395Y-76969469D01*
X149537737Y-77108625D01*
X149820224Y-77194316D01*
X150114000Y-77223251D01*
X150407777Y-77194316D01*
X150690264Y-77108625D01*
X150950606Y-76969469D01*
X151178797Y-76782197D01*
X151366069Y-76554006D01*
X151384000Y-76520459D01*
X151401931Y-76554006D01*
X151589203Y-76782197D01*
X151817395Y-76969469D01*
X152077737Y-77108625D01*
X152360224Y-77194316D01*
X152654000Y-77223251D01*
X152947777Y-77194316D01*
X153230264Y-77108625D01*
X153490606Y-76969469D01*
X153718797Y-76782197D01*
X153906069Y-76554006D01*
X154045225Y-76293663D01*
X154130916Y-76011176D01*
X154152600Y-75791018D01*
X154152600Y-75338982D01*
X155219400Y-75338982D01*
X155219400Y-75791019D01*
X155241084Y-76011177D01*
X155326775Y-76293664D01*
X155465931Y-76554006D01*
X155653203Y-76782197D01*
X155881395Y-76969469D01*
X156141737Y-77108625D01*
X156424224Y-77194316D01*
X156718000Y-77223251D01*
X157011777Y-77194316D01*
X157294264Y-77108625D01*
X157554606Y-76969469D01*
X157782797Y-76782197D01*
X157970069Y-76554006D01*
X157988000Y-76520459D01*
X158005931Y-76554006D01*
X158193203Y-76782197D01*
X158421395Y-76969469D01*
X158681737Y-77108625D01*
X158964224Y-77194316D01*
X159258000Y-77223251D01*
X159551777Y-77194316D01*
X159834264Y-77108625D01*
X160094606Y-76969469D01*
X160322797Y-76782197D01*
X160510069Y-76554006D01*
X160528000Y-76520459D01*
X160545931Y-76554006D01*
X160733203Y-76782197D01*
X160961395Y-76969469D01*
X161221737Y-77108625D01*
X161504224Y-77194316D01*
X161798000Y-77223251D01*
X162091777Y-77194316D01*
X162374264Y-77108625D01*
X162634606Y-76969469D01*
X162862797Y-76782197D01*
X163050069Y-76554006D01*
X163068000Y-76520459D01*
X163085931Y-76554006D01*
X163273203Y-76782197D01*
X163501395Y-76969469D01*
X163761737Y-77108625D01*
X164044224Y-77194316D01*
X164338000Y-77223251D01*
X164631777Y-77194316D01*
X164914264Y-77108625D01*
X165174606Y-76969469D01*
X165402797Y-76782197D01*
X165590069Y-76554006D01*
X165608000Y-76520459D01*
X165625931Y-76554006D01*
X165813203Y-76782197D01*
X166041395Y-76969469D01*
X166301737Y-77108625D01*
X166584224Y-77194316D01*
X166878000Y-77223251D01*
X167171777Y-77194316D01*
X167454264Y-77108625D01*
X167714606Y-76969469D01*
X167942797Y-76782197D01*
X168130069Y-76554006D01*
X168148000Y-76520459D01*
X168165931Y-76554006D01*
X168353203Y-76782197D01*
X168581395Y-76969469D01*
X168841737Y-77108625D01*
X169124224Y-77194316D01*
X169418000Y-77223251D01*
X169711777Y-77194316D01*
X169994264Y-77108625D01*
X170254606Y-76969469D01*
X170482797Y-76782197D01*
X170670069Y-76554006D01*
X170688000Y-76520459D01*
X170705931Y-76554006D01*
X170893203Y-76782197D01*
X171121395Y-76969469D01*
X171381737Y-77108625D01*
X171664224Y-77194316D01*
X171958000Y-77223251D01*
X172251777Y-77194316D01*
X172534264Y-77108625D01*
X172794606Y-76969469D01*
X173022797Y-76782197D01*
X173210069Y-76554006D01*
X173228000Y-76520459D01*
X173245931Y-76554006D01*
X173433203Y-76782197D01*
X173661395Y-76969469D01*
X173921737Y-77108625D01*
X174204224Y-77194316D01*
X174498000Y-77223251D01*
X174791777Y-77194316D01*
X175074264Y-77108625D01*
X175334606Y-76969469D01*
X175562797Y-76782197D01*
X175750069Y-76554006D01*
X175889225Y-76293663D01*
X175974916Y-76011176D01*
X175996600Y-75791018D01*
X175996600Y-75338981D01*
X175974916Y-75118823D01*
X175889225Y-74836336D01*
X175750069Y-74575994D01*
X175562797Y-74347803D01*
X175334605Y-74160531D01*
X175074263Y-74021375D01*
X174791776Y-73935684D01*
X174498000Y-73906749D01*
X174204223Y-73935684D01*
X173921736Y-74021375D01*
X173661394Y-74160531D01*
X173433203Y-74347803D01*
X173245931Y-74575995D01*
X173228000Y-74609541D01*
X173210069Y-74575994D01*
X173022797Y-74347803D01*
X172794605Y-74160531D01*
X172534263Y-74021375D01*
X172251776Y-73935684D01*
X171958000Y-73906749D01*
X171664223Y-73935684D01*
X171381736Y-74021375D01*
X171121394Y-74160531D01*
X170893203Y-74347803D01*
X170705931Y-74575995D01*
X170688000Y-74609541D01*
X170670069Y-74575994D01*
X170482797Y-74347803D01*
X170254605Y-74160531D01*
X169994263Y-74021375D01*
X169711776Y-73935684D01*
X169418000Y-73906749D01*
X169124223Y-73935684D01*
X168841736Y-74021375D01*
X168581394Y-74160531D01*
X168353203Y-74347803D01*
X168165931Y-74575995D01*
X168148000Y-74609541D01*
X168130069Y-74575994D01*
X167942797Y-74347803D01*
X167714605Y-74160531D01*
X167454263Y-74021375D01*
X167171776Y-73935684D01*
X166878000Y-73906749D01*
X166584223Y-73935684D01*
X166301736Y-74021375D01*
X166041394Y-74160531D01*
X165813203Y-74347803D01*
X165625931Y-74575995D01*
X165608000Y-74609541D01*
X165590069Y-74575994D01*
X165402797Y-74347803D01*
X165174605Y-74160531D01*
X164914263Y-74021375D01*
X164631776Y-73935684D01*
X164338000Y-73906749D01*
X164044223Y-73935684D01*
X163761736Y-74021375D01*
X163501394Y-74160531D01*
X163273203Y-74347803D01*
X163085931Y-74575995D01*
X163068000Y-74609541D01*
X163050069Y-74575994D01*
X162862797Y-74347803D01*
X162634605Y-74160531D01*
X162374263Y-74021375D01*
X162091776Y-73935684D01*
X161798000Y-73906749D01*
X161504223Y-73935684D01*
X161221736Y-74021375D01*
X160961394Y-74160531D01*
X160733203Y-74347803D01*
X160545931Y-74575995D01*
X160528000Y-74609541D01*
X160510069Y-74575994D01*
X160322797Y-74347803D01*
X160094605Y-74160531D01*
X159834263Y-74021375D01*
X159551776Y-73935684D01*
X159258000Y-73906749D01*
X158964223Y-73935684D01*
X158681736Y-74021375D01*
X158421394Y-74160531D01*
X158193203Y-74347803D01*
X158005931Y-74575995D01*
X157988000Y-74609541D01*
X157970069Y-74575994D01*
X157782797Y-74347803D01*
X157554605Y-74160531D01*
X157294263Y-74021375D01*
X157011776Y-73935684D01*
X156718000Y-73906749D01*
X156424223Y-73935684D01*
X156141736Y-74021375D01*
X155881394Y-74160531D01*
X155653203Y-74347803D01*
X155465931Y-74575995D01*
X155326775Y-74836337D01*
X155241084Y-75118824D01*
X155219400Y-75338982D01*
X154152600Y-75338982D01*
X154152600Y-75338981D01*
X154130916Y-75118823D01*
X154045225Y-74836336D01*
X153906069Y-74575994D01*
X153718797Y-74347803D01*
X153490605Y-74160531D01*
X153230263Y-74021375D01*
X152947776Y-73935684D01*
X152654000Y-73906749D01*
X152360223Y-73935684D01*
X152077736Y-74021375D01*
X151817394Y-74160531D01*
X151589203Y-74347803D01*
X151401931Y-74575995D01*
X151384000Y-74609541D01*
X151366069Y-74575994D01*
X151178797Y-74347803D01*
X150950605Y-74160531D01*
X150690263Y-74021375D01*
X150407776Y-73935684D01*
X150114000Y-73906749D01*
X149820223Y-73935684D01*
X149537736Y-74021375D01*
X149277394Y-74160531D01*
X149049203Y-74347803D01*
X148861931Y-74575995D01*
X148844000Y-74609541D01*
X148826069Y-74575994D01*
X148638797Y-74347803D01*
X148410605Y-74160531D01*
X148150263Y-74021375D01*
X147867776Y-73935684D01*
X147574000Y-73906749D01*
X147280223Y-73935684D01*
X146997736Y-74021375D01*
X146737394Y-74160531D01*
X146509203Y-74347803D01*
X146321931Y-74575995D01*
X146304000Y-74609541D01*
X146286069Y-74575994D01*
X146098797Y-74347803D01*
X145870605Y-74160531D01*
X145610263Y-74021375D01*
X145327776Y-73935684D01*
X145034000Y-73906749D01*
X144740223Y-73935684D01*
X144457736Y-74021375D01*
X144197394Y-74160531D01*
X143969203Y-74347803D01*
X143781931Y-74575995D01*
X143764000Y-74609541D01*
X143746069Y-74575994D01*
X143558797Y-74347803D01*
X143330605Y-74160531D01*
X143070263Y-74021375D01*
X142787776Y-73935684D01*
X142494000Y-73906749D01*
X142200223Y-73935684D01*
X141917736Y-74021375D01*
X141657394Y-74160531D01*
X141429203Y-74347803D01*
X141241931Y-74575995D01*
X141224000Y-74609541D01*
X141206069Y-74575994D01*
X141018797Y-74347803D01*
X140790605Y-74160531D01*
X140530263Y-74021375D01*
X140247776Y-73935684D01*
X139954000Y-73906749D01*
X139660223Y-73935684D01*
X139377736Y-74021375D01*
X139117394Y-74160531D01*
X138889203Y-74347803D01*
X138701931Y-74575995D01*
X138680576Y-74615947D01*
X138532486Y-74413271D01*
X138316035Y-74214267D01*
X138064919Y-74061314D01*
X137788789Y-73960291D01*
X137773026Y-73957642D01*
X137541000Y-74078783D01*
X137287000Y-74078783D01*
X137054974Y-73957642D01*
X137039211Y-73960291D01*
X136763081Y-74061314D01*
X136511965Y-74214267D01*
X136295514Y-74413271D01*
X136147424Y-74615947D01*
X136126069Y-74575994D01*
X135938797Y-74347803D01*
X135710605Y-74160531D01*
X135450263Y-74021375D01*
X135167776Y-73935684D01*
X134874000Y-73906749D01*
X134580223Y-73935684D01*
X134297736Y-74021375D01*
X134037394Y-74160531D01*
X133809203Y-74347803D01*
X133621931Y-74575995D01*
X133604000Y-74609541D01*
X133586069Y-74575994D01*
X133398797Y-74347803D01*
X133170605Y-74160531D01*
X132910263Y-74021375D01*
X132627776Y-73935684D01*
X132334000Y-73906749D01*
X132040223Y-73935684D01*
X131757736Y-74021375D01*
X131497394Y-74160531D01*
X131269203Y-74347803D01*
X131081931Y-74575995D01*
X131064000Y-74609541D01*
X131046069Y-74575994D01*
X130858797Y-74347803D01*
X130630605Y-74160531D01*
X130370263Y-74021375D01*
X130087776Y-73935684D01*
X129794000Y-73906749D01*
X129500223Y-73935684D01*
X129217736Y-74021375D01*
X128957394Y-74160531D01*
X128729203Y-74347803D01*
X128541931Y-74575995D01*
X128402775Y-74836337D01*
X128317084Y-75118824D01*
X128295400Y-75338982D01*
X111708000Y-75338982D01*
X111708000Y-73735000D01*
X196648001Y-73735000D01*
X196648000Y-125655000D01*
G37*
X196648000Y-125655000D02*
X156210289Y-125655000D01*
X156414057Y-125451232D01*
X156424224Y-125454316D01*
X156718000Y-125483251D01*
X157011777Y-125454316D01*
X157294264Y-125368625D01*
X157554606Y-125229469D01*
X157782797Y-125042197D01*
X157970069Y-124814006D01*
X158109225Y-124553663D01*
X158194916Y-124271176D01*
X158216600Y-124051018D01*
X158216600Y-123598982D01*
X160299400Y-123598982D01*
X160299400Y-124051019D01*
X160321084Y-124271177D01*
X160406775Y-124553664D01*
X160545931Y-124814006D01*
X160733203Y-125042197D01*
X160961395Y-125229469D01*
X161221737Y-125368625D01*
X161504224Y-125454316D01*
X161798000Y-125483251D01*
X162091777Y-125454316D01*
X162374264Y-125368625D01*
X162634606Y-125229469D01*
X162862797Y-125042197D01*
X163050069Y-124814006D01*
X163068000Y-124780459D01*
X163085931Y-124814006D01*
X163273203Y-125042197D01*
X163501395Y-125229469D01*
X163761737Y-125368625D01*
X164044224Y-125454316D01*
X164338000Y-125483251D01*
X164631777Y-125454316D01*
X164914264Y-125368625D01*
X165174606Y-125229469D01*
X165402797Y-125042197D01*
X165590069Y-124814006D01*
X165608000Y-124780459D01*
X165625931Y-124814006D01*
X165813203Y-125042197D01*
X166041395Y-125229469D01*
X166301737Y-125368625D01*
X166584224Y-125454316D01*
X166878000Y-125483251D01*
X167171777Y-125454316D01*
X167454264Y-125368625D01*
X167714606Y-125229469D01*
X167942797Y-125042197D01*
X168130069Y-124814006D01*
X168148000Y-124780459D01*
X168165931Y-124814006D01*
X168353203Y-125042197D01*
X168581395Y-125229469D01*
X168841737Y-125368625D01*
X169124224Y-125454316D01*
X169418000Y-125483251D01*
X169711777Y-125454316D01*
X169994264Y-125368625D01*
X170254606Y-125229469D01*
X170482797Y-125042197D01*
X170670069Y-124814006D01*
X170688000Y-124780459D01*
X170705931Y-124814006D01*
X170893203Y-125042197D01*
X171121395Y-125229469D01*
X171381737Y-125368625D01*
X171664224Y-125454316D01*
X171958000Y-125483251D01*
X172251777Y-125454316D01*
X172534264Y-125368625D01*
X172794606Y-125229469D01*
X173022797Y-125042197D01*
X173210069Y-124814006D01*
X173228000Y-124780459D01*
X173245931Y-124814006D01*
X173433203Y-125042197D01*
X173661395Y-125229469D01*
X173921737Y-125368625D01*
X174204224Y-125454316D01*
X174498000Y-125483251D01*
X174791777Y-125454316D01*
X175074264Y-125368625D01*
X175334606Y-125229469D01*
X175562797Y-125042197D01*
X175750069Y-124814006D01*
X175889225Y-124553663D01*
X175974916Y-124271176D01*
X175996600Y-124051018D01*
X175996600Y-123598981D01*
X175974916Y-123378823D01*
X175889225Y-123096336D01*
X175750069Y-122835994D01*
X175562797Y-122607803D01*
X175334605Y-122420531D01*
X175074263Y-122281375D01*
X174791776Y-122195684D01*
X174498000Y-122166749D01*
X174204223Y-122195684D01*
X173921736Y-122281375D01*
X173661394Y-122420531D01*
X173433203Y-122607803D01*
X173245931Y-122835995D01*
X173228000Y-122869541D01*
X173210069Y-122835994D01*
X173022797Y-122607803D01*
X172794605Y-122420531D01*
X172534263Y-122281375D01*
X172251776Y-122195684D01*
X171958000Y-122166749D01*
X171664223Y-122195684D01*
X171381736Y-122281375D01*
X171121394Y-122420531D01*
X170893203Y-122607803D01*
X170705931Y-122835995D01*
X170688000Y-122869541D01*
X170670069Y-122835994D01*
X170482797Y-122607803D01*
X170254605Y-122420531D01*
X169994263Y-122281375D01*
X169711776Y-122195684D01*
X169418000Y-122166749D01*
X169124223Y-122195684D01*
X168841736Y-122281375D01*
X168581394Y-122420531D01*
X168353203Y-122607803D01*
X168165931Y-122835995D01*
X168148000Y-122869541D01*
X168130069Y-122835994D01*
X167942797Y-122607803D01*
X167714605Y-122420531D01*
X167454263Y-122281375D01*
X167171776Y-122195684D01*
X166878000Y-122166749D01*
X166584223Y-122195684D01*
X166301736Y-122281375D01*
X166041394Y-122420531D01*
X165813203Y-122607803D01*
X165625931Y-122835995D01*
X165608000Y-122869541D01*
X165590069Y-122835994D01*
X165402797Y-122607803D01*
X165174605Y-122420531D01*
X164914263Y-122281375D01*
X164631776Y-122195684D01*
X164338000Y-122166749D01*
X164044223Y-122195684D01*
X163761736Y-122281375D01*
X163501394Y-122420531D01*
X163273203Y-122607803D01*
X163085931Y-122835995D01*
X163068000Y-122869541D01*
X163050069Y-122835994D01*
X162862797Y-122607803D01*
X162634605Y-122420531D01*
X162374263Y-122281375D01*
X162091776Y-122195684D01*
X161798000Y-122166749D01*
X161504223Y-122195684D01*
X161221736Y-122281375D01*
X160961394Y-122420531D01*
X160733203Y-122607803D01*
X160545931Y-122835995D01*
X160406775Y-123096337D01*
X160321084Y-123378824D01*
X160299400Y-123598982D01*
X158216600Y-123598982D01*
X158216600Y-123598981D01*
X158194916Y-123378823D01*
X158109225Y-123096336D01*
X157970069Y-122835994D01*
X157782797Y-122607803D01*
X157554605Y-122420531D01*
X157294263Y-122281375D01*
X157011776Y-122195684D01*
X156718000Y-122166749D01*
X156424223Y-122195684D01*
X156141736Y-122281375D01*
X155881394Y-122420531D01*
X155653203Y-122607803D01*
X155465931Y-122835995D01*
X155444576Y-122875947D01*
X155296486Y-122673271D01*
X155080035Y-122474267D01*
X154828919Y-122321314D01*
X154552789Y-122220291D01*
X154537026Y-122217642D01*
X154305000Y-122338783D01*
X154305000Y-123698000D01*
X154325000Y-123698000D01*
X154325000Y-123952000D01*
X154305000Y-123952000D01*
X154305000Y-123972000D01*
X154051000Y-123972000D01*
X154051000Y-123952000D01*
X151765000Y-123952000D01*
X151765000Y-123972000D01*
X151511000Y-123972000D01*
X151511000Y-123952000D01*
X151491000Y-123952000D01*
X151491000Y-123698000D01*
X151511000Y-123698000D01*
X151511000Y-122338783D01*
X151765000Y-122338783D01*
X151765000Y-123698000D01*
X154051000Y-123698000D01*
X154051000Y-122338783D01*
X153818974Y-122217642D01*
X153803211Y-122220291D01*
X153527081Y-122321314D01*
X153275965Y-122474267D01*
X153059514Y-122673271D01*
X152908000Y-122880633D01*
X152756486Y-122673271D01*
X152540035Y-122474267D01*
X152288919Y-122321314D01*
X152012789Y-122220291D01*
X151997026Y-122217642D01*
X151765000Y-122338783D01*
X151511000Y-122338783D01*
X151278974Y-122217642D01*
X151263211Y-122220291D01*
X150987081Y-122321314D01*
X150735965Y-122474267D01*
X150519514Y-122673271D01*
X150371424Y-122875947D01*
X150350069Y-122835994D01*
X150162797Y-122607803D01*
X149934605Y-122420531D01*
X149674263Y-122281375D01*
X149391776Y-122195684D01*
X149098000Y-122166749D01*
X148804223Y-122195684D01*
X148521736Y-122281375D01*
X148261394Y-122420531D01*
X148033203Y-122607803D01*
X147845931Y-122835995D01*
X147828000Y-122869541D01*
X147810069Y-122835994D01*
X147622797Y-122607803D01*
X147394605Y-122420531D01*
X147134263Y-122281375D01*
X146851776Y-122195684D01*
X146558000Y-122166749D01*
X146264223Y-122195684D01*
X145981736Y-122281375D01*
X145721394Y-122420531D01*
X145493203Y-122607803D01*
X145305931Y-122835995D01*
X145288000Y-122869541D01*
X145270069Y-122835994D01*
X145082797Y-122607803D01*
X144854605Y-122420531D01*
X144594263Y-122281375D01*
X144311776Y-122195684D01*
X144018000Y-122166749D01*
X143724223Y-122195684D01*
X143441736Y-122281375D01*
X143181394Y-122420531D01*
X142953203Y-122607803D01*
X142765931Y-122835995D01*
X142748000Y-122869541D01*
X142730069Y-122835994D01*
X142542797Y-122607803D01*
X142314605Y-122420531D01*
X142054263Y-122281375D01*
X141771776Y-122195684D01*
X141478000Y-122166749D01*
X141184223Y-122195684D01*
X140901736Y-122281375D01*
X140641394Y-122420531D01*
X140413203Y-122607803D01*
X140225931Y-122835995D01*
X140208000Y-122869541D01*
X140190069Y-122835994D01*
X140002797Y-122607803D01*
X139774605Y-122420531D01*
X139514263Y-122281375D01*
X139231776Y-122195684D01*
X138938000Y-122166749D01*
X138644223Y-122195684D01*
X138361736Y-122281375D01*
X138101394Y-122420531D01*
X137873203Y-122607803D01*
X137685931Y-122835995D01*
X137546775Y-123096337D01*
X137461084Y-123378824D01*
X137439400Y-123598982D01*
X137439400Y-124051019D01*
X137461084Y-124271177D01*
X137503863Y-124412200D01*
X130236289Y-124412200D01*
X126601089Y-120777000D01*
X133799198Y-120777000D01*
X134758147Y-121735949D01*
X134790011Y-121896141D01*
X134862378Y-122070850D01*
X134967438Y-122228083D01*
X135101155Y-122361800D01*
X135258388Y-122466860D01*
X135433097Y-122539227D01*
X135618567Y-122576119D01*
X135807671Y-122576119D01*
X135993141Y-122539227D01*
X136167850Y-122466860D01*
X136325083Y-122361800D01*
X136458800Y-122228083D01*
X136563860Y-122070850D01*
X136636227Y-121896141D01*
X136673119Y-121710671D01*
X136673119Y-121521567D01*
X136636227Y-121336097D01*
X136563860Y-121161388D01*
X136458800Y-121004155D01*
X136325083Y-120870438D01*
X136185244Y-120777000D01*
X148531198Y-120777000D01*
X149040137Y-121285939D01*
X149072001Y-121446131D01*
X149144368Y-121620840D01*
X149249428Y-121778073D01*
X149383145Y-121911790D01*
X149540378Y-122016850D01*
X149715087Y-122089217D01*
X149900557Y-122126109D01*
X150089661Y-122126109D01*
X150275131Y-122089217D01*
X150449840Y-122016850D01*
X150607073Y-121911790D01*
X150740790Y-121778073D01*
X150845850Y-121620840D01*
X150918217Y-121446131D01*
X150955109Y-121260661D01*
X150955109Y-121071557D01*
X150918217Y-120886087D01*
X150873032Y-120777000D01*
X192278000Y-120777000D01*
X192302776Y-120774560D01*
X192326601Y-120767333D01*
X192348557Y-120755597D01*
X192367803Y-120739803D01*
X195542803Y-117564803D01*
X195558597Y-117545557D01*
X195570333Y-117523601D01*
X195577560Y-117499776D01*
X195580000Y-117475000D01*
X195580000Y-114882900D01*
X195648497Y-114799436D01*
X195719069Y-114667407D01*
X195762526Y-114524146D01*
X195773523Y-114412493D01*
X195773523Y-114412483D01*
X195777199Y-114375160D01*
X195773523Y-114337837D01*
X195773523Y-112658479D01*
X195777199Y-112621156D01*
X195773523Y-112583833D01*
X195773523Y-112583824D01*
X195762526Y-112472171D01*
X195719069Y-112328910D01*
X195648497Y-112196881D01*
X195553524Y-112081156D01*
X195524526Y-112057358D01*
X190132833Y-106665665D01*
X192113000Y-106665665D01*
X192113000Y-106948335D01*
X192168147Y-107225574D01*
X192276320Y-107486727D01*
X192433363Y-107721759D01*
X192633241Y-107921637D01*
X192868273Y-108078680D01*
X193129426Y-108186853D01*
X193406665Y-108242000D01*
X193689335Y-108242000D01*
X193966574Y-108186853D01*
X194227727Y-108078680D01*
X194462759Y-107921637D01*
X194662637Y-107721759D01*
X194819680Y-107486727D01*
X194927853Y-107225574D01*
X194983000Y-106948335D01*
X194983000Y-106665665D01*
X194927853Y-106388426D01*
X194819680Y-106127273D01*
X194662637Y-105892241D01*
X194462759Y-105692363D01*
X194227727Y-105535320D01*
X193966574Y-105427147D01*
X193689335Y-105372000D01*
X193406665Y-105372000D01*
X193129426Y-105427147D01*
X192868273Y-105535320D01*
X192633241Y-105692363D01*
X192433363Y-105892241D01*
X192276320Y-106127273D01*
X192168147Y-106388426D01*
X192113000Y-106665665D01*
X190132833Y-106665665D01*
X183997160Y-100529993D01*
X183973357Y-100500989D01*
X183857632Y-100406016D01*
X183725603Y-100335444D01*
X183582342Y-100291987D01*
X183470689Y-100280990D01*
X183470678Y-100280990D01*
X183433356Y-100277314D01*
X183396034Y-100280990D01*
X171030343Y-100280990D01*
X170993010Y-100277313D01*
X170955677Y-100280990D01*
X170844024Y-100291987D01*
X170700763Y-100335444D01*
X170568734Y-100406016D01*
X170453009Y-100500989D01*
X170429211Y-100529987D01*
X169741886Y-101217312D01*
X169559335Y-101181000D01*
X169276665Y-101181000D01*
X168999426Y-101236147D01*
X168738273Y-101344320D01*
X168503241Y-101501363D01*
X168303363Y-101701241D01*
X168148000Y-101933759D01*
X167992637Y-101701241D01*
X167792759Y-101501363D01*
X167557727Y-101344320D01*
X167296574Y-101236147D01*
X167019335Y-101181000D01*
X166736665Y-101181000D01*
X166459426Y-101236147D01*
X166198273Y-101344320D01*
X165963241Y-101501363D01*
X165763363Y-101701241D01*
X165608000Y-101933759D01*
X165452637Y-101701241D01*
X165252759Y-101501363D01*
X165017727Y-101344320D01*
X164756574Y-101236147D01*
X164479335Y-101181000D01*
X164196665Y-101181000D01*
X163919426Y-101236147D01*
X163658273Y-101344320D01*
X163423241Y-101501363D01*
X163223363Y-101701241D01*
X163066320Y-101936273D01*
X163061933Y-101946865D01*
X162950385Y-101760869D01*
X162761414Y-101552481D01*
X162535420Y-101384963D01*
X162281087Y-101264754D01*
X162147039Y-101224096D01*
X161925000Y-101346085D01*
X161925000Y-102489000D01*
X161945000Y-102489000D01*
X161945000Y-102743000D01*
X161925000Y-102743000D01*
X161925000Y-102763000D01*
X161671000Y-102763000D01*
X161671000Y-102743000D01*
X161651000Y-102743000D01*
X161651000Y-102489000D01*
X161671000Y-102489000D01*
X161671000Y-101346085D01*
X161448961Y-101224096D01*
X161314913Y-101264754D01*
X161060580Y-101384963D01*
X160834586Y-101552481D01*
X160645615Y-101760869D01*
X160535791Y-101943992D01*
X159571801Y-100980002D01*
X159547998Y-100950998D01*
X159432273Y-100856025D01*
X159300244Y-100785453D01*
X159156983Y-100741996D01*
X159045330Y-100730999D01*
X159045319Y-100730999D01*
X159007997Y-100727323D01*
X158970675Y-100730999D01*
X154070326Y-100730999D01*
X154033001Y-100727323D01*
X153995676Y-100730999D01*
X153995668Y-100730999D01*
X153884015Y-100741996D01*
X153740754Y-100785453D01*
X153608725Y-100856025D01*
X153493000Y-100950998D01*
X153469202Y-100979996D01*
X153231886Y-101217312D01*
X153049335Y-101181000D01*
X152766665Y-101181000D01*
X152489426Y-101236147D01*
X152228273Y-101344320D01*
X151993241Y-101501363D01*
X151793363Y-101701241D01*
X151638000Y-101933759D01*
X151482637Y-101701241D01*
X151282759Y-101501363D01*
X151047727Y-101344320D01*
X150786574Y-101236147D01*
X150509335Y-101181000D01*
X150226665Y-101181000D01*
X149949426Y-101236147D01*
X149688273Y-101344320D01*
X149453241Y-101501363D01*
X149253363Y-101701241D01*
X149098000Y-101933759D01*
X148942637Y-101701241D01*
X148742759Y-101501363D01*
X148507727Y-101344320D01*
X148246574Y-101236147D01*
X147969335Y-101181000D01*
X147686665Y-101181000D01*
X147409426Y-101236147D01*
X147148273Y-101344320D01*
X146913241Y-101501363D01*
X146713363Y-101701241D01*
X146558000Y-101933759D01*
X146402637Y-101701241D01*
X146202759Y-101501363D01*
X145967727Y-101344320D01*
X145706574Y-101236147D01*
X145429335Y-101181000D01*
X145146665Y-101181000D01*
X144869426Y-101236147D01*
X144608273Y-101344320D01*
X144373241Y-101501363D01*
X144373204Y-101501400D01*
X143851804Y-100980001D01*
X143828002Y-100950998D01*
X143712277Y-100856025D01*
X143580248Y-100785453D01*
X143436987Y-100741996D01*
X143325334Y-100730999D01*
X143325323Y-100730999D01*
X143288001Y-100727323D01*
X143250679Y-100730999D01*
X141370326Y-100730999D01*
X141333001Y-100727323D01*
X141295676Y-100730999D01*
X141295668Y-100730999D01*
X141184015Y-100741996D01*
X141040754Y-100785453D01*
X140908725Y-100856025D01*
X140793000Y-100950998D01*
X140769202Y-100979996D01*
X140531886Y-101217312D01*
X140349335Y-101181000D01*
X140066665Y-101181000D01*
X139789426Y-101236147D01*
X139528273Y-101344320D01*
X139293241Y-101501363D01*
X139093363Y-101701241D01*
X138938000Y-101933759D01*
X138782637Y-101701241D01*
X138582759Y-101501363D01*
X138347727Y-101344320D01*
X138086574Y-101236147D01*
X137809335Y-101181000D01*
X137526665Y-101181000D01*
X137249426Y-101236147D01*
X136988273Y-101344320D01*
X136753241Y-101501363D01*
X136553363Y-101701241D01*
X136396320Y-101936273D01*
X136391933Y-101946865D01*
X136280385Y-101760869D01*
X136091414Y-101552481D01*
X135865420Y-101384963D01*
X135611087Y-101264754D01*
X135477039Y-101224096D01*
X135255000Y-101346085D01*
X135255000Y-102489000D01*
X135275000Y-102489000D01*
X135275000Y-102743000D01*
X135255000Y-102743000D01*
X135255000Y-102763000D01*
X135001000Y-102763000D01*
X135001000Y-102743000D01*
X133857376Y-102743000D01*
X133736091Y-102965040D01*
X133741807Y-102981001D01*
X131593624Y-102981001D01*
X131556301Y-102977325D01*
X131518979Y-102981001D01*
X131518969Y-102981001D01*
X131407316Y-102991998D01*
X131274136Y-103032397D01*
X131264055Y-103035455D01*
X131132025Y-103106027D01*
X131078960Y-103149577D01*
X131016301Y-103201000D01*
X130992503Y-103229998D01*
X126780501Y-107442000D01*
X126258207Y-107442000D01*
X126347853Y-107225574D01*
X126403000Y-106948335D01*
X126403000Y-106665665D01*
X126347853Y-106388426D01*
X126239680Y-106127273D01*
X126082637Y-105892241D01*
X125882759Y-105692363D01*
X125647727Y-105535320D01*
X125386574Y-105427147D01*
X125109335Y-105372000D01*
X124826665Y-105372000D01*
X124549426Y-105427147D01*
X124288273Y-105535320D01*
X124053241Y-105692363D01*
X123853363Y-105892241D01*
X123696320Y-106127273D01*
X123588147Y-106388426D01*
X123533000Y-106665665D01*
X123533000Y-106919711D01*
X122290800Y-108161911D01*
X121040218Y-106911329D01*
X121043812Y-106899482D01*
X121056072Y-106775000D01*
X121056072Y-102775000D01*
X121043812Y-102650518D01*
X121007502Y-102530820D01*
X120948537Y-102420506D01*
X120869185Y-102323815D01*
X120799907Y-102266960D01*
X133736091Y-102266960D01*
X133857376Y-102489000D01*
X135001000Y-102489000D01*
X135001000Y-101346085D01*
X134778961Y-101224096D01*
X134644913Y-101264754D01*
X134390580Y-101384963D01*
X134164586Y-101552481D01*
X133975615Y-101760869D01*
X133830930Y-102002119D01*
X133736091Y-102266960D01*
X120799907Y-102266960D01*
X120772494Y-102244463D01*
X120662180Y-102185498D01*
X120542482Y-102149188D01*
X120418000Y-102136928D01*
X118818000Y-102136928D01*
X118693518Y-102149188D01*
X118573820Y-102185498D01*
X118463506Y-102244463D01*
X118366815Y-102323815D01*
X118287463Y-102420506D01*
X118228498Y-102530820D01*
X118192188Y-102650518D01*
X118179928Y-102775000D01*
X118179928Y-106775000D01*
X118192188Y-106899482D01*
X118228498Y-107019180D01*
X118287463Y-107129494D01*
X118366815Y-107226185D01*
X118463506Y-107305537D01*
X118573820Y-107364502D01*
X118693518Y-107400812D01*
X118818000Y-107413072D01*
X118902223Y-107413072D01*
X118953657Y-107475744D01*
X118989336Y-107505025D01*
X121355801Y-109871491D01*
X121355800Y-117743068D01*
X121351276Y-117789000D01*
X121362174Y-117899644D01*
X121369329Y-117972291D01*
X121422793Y-118148539D01*
X121509614Y-118310971D01*
X121626456Y-118453344D01*
X121662141Y-118482630D01*
X128834511Y-125655000D01*
X111708000Y-125655000D01*
X111708000Y-108975000D01*
X114279928Y-108975000D01*
X114279928Y-110375000D01*
X114292188Y-110499482D01*
X114328498Y-110619180D01*
X114387463Y-110729494D01*
X114466815Y-110826185D01*
X114563506Y-110905537D01*
X114673820Y-110964502D01*
X114793518Y-111000812D01*
X114918000Y-111013072D01*
X118418000Y-111013072D01*
X118542482Y-111000812D01*
X118662180Y-110964502D01*
X118772494Y-110905537D01*
X118869185Y-110826185D01*
X118948537Y-110729494D01*
X119007502Y-110619180D01*
X119043812Y-110499482D01*
X119056072Y-110375000D01*
X119056072Y-108975000D01*
X119043812Y-108850518D01*
X119007502Y-108730820D01*
X118948537Y-108620506D01*
X118869185Y-108523815D01*
X118772494Y-108444463D01*
X118662180Y-108385498D01*
X118542482Y-108349188D01*
X118418000Y-108336928D01*
X114918000Y-108336928D01*
X114793518Y-108349188D01*
X114673820Y-108385498D01*
X114563506Y-108444463D01*
X114466815Y-108523815D01*
X114387463Y-108620506D01*
X114328498Y-108730820D01*
X114292188Y-108850518D01*
X114279928Y-108975000D01*
X111708000Y-108975000D01*
X111708000Y-106525000D01*
X112129928Y-106525000D01*
X112142188Y-106649482D01*
X112178498Y-106769180D01*
X112237463Y-106879494D01*
X112316815Y-106976185D01*
X112413506Y-107055537D01*
X112523820Y-107114502D01*
X112643518Y-107150812D01*
X112768000Y-107163072D01*
X113332250Y-107160000D01*
X113491000Y-107001250D01*
X113491000Y-104902000D01*
X113745000Y-104902000D01*
X113745000Y-107001250D01*
X113903750Y-107160000D01*
X114468000Y-107163072D01*
X114592482Y-107150812D01*
X114712180Y-107114502D01*
X114822494Y-107055537D01*
X114919185Y-106976185D01*
X114998537Y-106879494D01*
X115057502Y-106769180D01*
X115093812Y-106649482D01*
X115106072Y-106525000D01*
X115103000Y-105060750D01*
X114944250Y-104902000D01*
X113745000Y-104902000D01*
X113491000Y-104902000D01*
X112291750Y-104902000D01*
X112133000Y-105060750D01*
X112129928Y-106525000D01*
X111708000Y-106525000D01*
X111708000Y-103025000D01*
X112129928Y-103025000D01*
X112133000Y-104489250D01*
X112291750Y-104648000D01*
X113491000Y-104648000D01*
X113491000Y-102548750D01*
X113745000Y-102548750D01*
X113745000Y-104648000D01*
X114944250Y-104648000D01*
X115103000Y-104489250D01*
X115106072Y-103025000D01*
X115093812Y-102900518D01*
X115057502Y-102780820D01*
X114998537Y-102670506D01*
X114919185Y-102573815D01*
X114822494Y-102494463D01*
X114712180Y-102435498D01*
X114592482Y-102399188D01*
X114468000Y-102386928D01*
X113903750Y-102390000D01*
X113745000Y-102548750D01*
X113491000Y-102548750D01*
X113332250Y-102390000D01*
X112768000Y-102386928D01*
X112643518Y-102399188D01*
X112523820Y-102435498D01*
X112413506Y-102494463D01*
X112316815Y-102573815D01*
X112237463Y-102670506D01*
X112178498Y-102780820D01*
X112142188Y-102900518D01*
X112129928Y-103025000D01*
X111708000Y-103025000D01*
X111708000Y-100607702D01*
X127964903Y-100607702D01*
X128036486Y-100851671D01*
X128291996Y-100972571D01*
X128566184Y-101041300D01*
X128848512Y-101055217D01*
X129128130Y-101013787D01*
X129394292Y-100918603D01*
X129519514Y-100851671D01*
X129591097Y-100607702D01*
X128778000Y-99794605D01*
X127964903Y-100607702D01*
X111708000Y-100607702D01*
X111708000Y-99685512D01*
X127337783Y-99685512D01*
X127379213Y-99965130D01*
X127474397Y-100231292D01*
X127541329Y-100356514D01*
X127785298Y-100428097D01*
X128598395Y-99615000D01*
X128957605Y-99615000D01*
X129770702Y-100428097D01*
X130014671Y-100356514D01*
X130135571Y-100101004D01*
X130204300Y-99826816D01*
X130218217Y-99544488D01*
X130176787Y-99264870D01*
X130081603Y-98998708D01*
X130014671Y-98873486D01*
X129770702Y-98801903D01*
X128957605Y-99615000D01*
X128598395Y-99615000D01*
X127785298Y-98801903D01*
X127541329Y-98873486D01*
X127420429Y-99128996D01*
X127351700Y-99403184D01*
X127337783Y-99685512D01*
X111708000Y-99685512D01*
X111708000Y-98622298D01*
X127964903Y-98622298D01*
X128778000Y-99435395D01*
X129591097Y-98622298D01*
X129519514Y-98378329D01*
X129264004Y-98257429D01*
X128989816Y-98188700D01*
X128707488Y-98174783D01*
X128427870Y-98216213D01*
X128161708Y-98311397D01*
X128036486Y-98378329D01*
X127964903Y-98622298D01*
X111708000Y-98622298D01*
X111708000Y-96117541D01*
X121159418Y-96011992D01*
X121182776Y-96009560D01*
X121206601Y-96002333D01*
X121228557Y-95990597D01*
X121247803Y-95974803D01*
X122517803Y-94704803D01*
X122533597Y-94685557D01*
X122545333Y-94663601D01*
X122552560Y-94639776D01*
X122555000Y-94615000D01*
X122555000Y-94473665D01*
X127343000Y-94473665D01*
X127343000Y-94756335D01*
X127398147Y-95033574D01*
X127506320Y-95294727D01*
X127663363Y-95529759D01*
X127863241Y-95729637D01*
X128098273Y-95886680D01*
X128359426Y-95994853D01*
X128636665Y-96050000D01*
X128919335Y-96050000D01*
X129196574Y-95994853D01*
X129457727Y-95886680D01*
X129692759Y-95729637D01*
X129892637Y-95529759D01*
X130049680Y-95294727D01*
X130157853Y-95033574D01*
X130193440Y-94854665D01*
X133693000Y-94854665D01*
X133693000Y-95137335D01*
X133748147Y-95414574D01*
X133856320Y-95675727D01*
X134013363Y-95910759D01*
X134213241Y-96110637D01*
X134448273Y-96267680D01*
X134709426Y-96375853D01*
X134986665Y-96431000D01*
X135269335Y-96431000D01*
X135546574Y-96375853D01*
X135807727Y-96267680D01*
X136042759Y-96110637D01*
X136242637Y-95910759D01*
X136398000Y-95678241D01*
X136553363Y-95910759D01*
X136753241Y-96110637D01*
X136988273Y-96267680D01*
X137249426Y-96375853D01*
X137526665Y-96431000D01*
X137809335Y-96431000D01*
X138086574Y-96375853D01*
X138347727Y-96267680D01*
X138582759Y-96110637D01*
X138782637Y-95910759D01*
X138938000Y-95678241D01*
X139093363Y-95910759D01*
X139293241Y-96110637D01*
X139528273Y-96267680D01*
X139789426Y-96375853D01*
X140066665Y-96431000D01*
X140349335Y-96431000D01*
X140626574Y-96375853D01*
X140887727Y-96267680D01*
X141122759Y-96110637D01*
X141322637Y-95910759D01*
X141478000Y-95678241D01*
X141633363Y-95910759D01*
X141833241Y-96110637D01*
X142068273Y-96267680D01*
X142329426Y-96375853D01*
X142606665Y-96431000D01*
X142889335Y-96431000D01*
X143166574Y-96375853D01*
X143427727Y-96267680D01*
X143662759Y-96110637D01*
X143862637Y-95910759D01*
X144018000Y-95678241D01*
X144173363Y-95910759D01*
X144373241Y-96110637D01*
X144608273Y-96267680D01*
X144869426Y-96375853D01*
X145146665Y-96431000D01*
X145429335Y-96431000D01*
X145706574Y-96375853D01*
X145967727Y-96267680D01*
X146202759Y-96110637D01*
X146402637Y-95910759D01*
X146558000Y-95678241D01*
X146713363Y-95910759D01*
X146913241Y-96110637D01*
X147148273Y-96267680D01*
X147409426Y-96375853D01*
X147686665Y-96431000D01*
X147969335Y-96431000D01*
X148246574Y-96375853D01*
X148507727Y-96267680D01*
X148742759Y-96110637D01*
X148942637Y-95910759D01*
X149098000Y-95678241D01*
X149253363Y-95910759D01*
X149453241Y-96110637D01*
X149688273Y-96267680D01*
X149949426Y-96375853D01*
X150226665Y-96431000D01*
X150509335Y-96431000D01*
X150786574Y-96375853D01*
X151047727Y-96267680D01*
X151282759Y-96110637D01*
X151482637Y-95910759D01*
X151638000Y-95678241D01*
X151793363Y-95910759D01*
X151993241Y-96110637D01*
X152228273Y-96267680D01*
X152489426Y-96375853D01*
X152766665Y-96431000D01*
X153049335Y-96431000D01*
X153326574Y-96375853D01*
X153587727Y-96267680D01*
X153822759Y-96110637D01*
X154021357Y-95912039D01*
X154022188Y-95920482D01*
X154058498Y-96040180D01*
X154117463Y-96150494D01*
X154196815Y-96247185D01*
X154293506Y-96326537D01*
X154403820Y-96385502D01*
X154523518Y-96421812D01*
X154648000Y-96434072D01*
X156248000Y-96434072D01*
X156372482Y-96421812D01*
X156492180Y-96385502D01*
X156602494Y-96326537D01*
X156699185Y-96247185D01*
X156778537Y-96150494D01*
X156837502Y-96040180D01*
X156873812Y-95920482D01*
X156886072Y-95796000D01*
X156886072Y-94854665D01*
X160363000Y-94854665D01*
X160363000Y-95137335D01*
X160418147Y-95414574D01*
X160526320Y-95675727D01*
X160683363Y-95910759D01*
X160883241Y-96110637D01*
X161118273Y-96267680D01*
X161379426Y-96375853D01*
X161656665Y-96431000D01*
X161939335Y-96431000D01*
X162216574Y-96375853D01*
X162477727Y-96267680D01*
X162712759Y-96110637D01*
X162912637Y-95910759D01*
X163069680Y-95675727D01*
X163074067Y-95665135D01*
X163185615Y-95851131D01*
X163374586Y-96059519D01*
X163600580Y-96227037D01*
X163854913Y-96347246D01*
X163988961Y-96387904D01*
X164211000Y-96265915D01*
X164211000Y-95123000D01*
X164465000Y-95123000D01*
X164465000Y-96265915D01*
X164687039Y-96387904D01*
X164821087Y-96347246D01*
X165075420Y-96227037D01*
X165301414Y-96059519D01*
X165490385Y-95851131D01*
X165608000Y-95655018D01*
X165725615Y-95851131D01*
X165914586Y-96059519D01*
X166140580Y-96227037D01*
X166394913Y-96347246D01*
X166528961Y-96387904D01*
X166751000Y-96265915D01*
X166751000Y-95123000D01*
X164465000Y-95123000D01*
X164211000Y-95123000D01*
X164191000Y-95123000D01*
X164191000Y-94869000D01*
X164211000Y-94869000D01*
X164211000Y-93726085D01*
X164465000Y-93726085D01*
X164465000Y-94869000D01*
X166751000Y-94869000D01*
X166751000Y-93726085D01*
X167005000Y-93726085D01*
X167005000Y-94869000D01*
X167025000Y-94869000D01*
X167025000Y-95123000D01*
X167005000Y-95123000D01*
X167005000Y-96265915D01*
X167227039Y-96387904D01*
X167361087Y-96347246D01*
X167615420Y-96227037D01*
X167841414Y-96059519D01*
X168030385Y-95851131D01*
X168141933Y-95665135D01*
X168146320Y-95675727D01*
X168303363Y-95910759D01*
X168503241Y-96110637D01*
X168738273Y-96267680D01*
X168999426Y-96375853D01*
X169276665Y-96431000D01*
X169559335Y-96431000D01*
X169836574Y-96375853D01*
X170097727Y-96267680D01*
X170332759Y-96110637D01*
X170532637Y-95910759D01*
X170688000Y-95678241D01*
X170843363Y-95910759D01*
X171043241Y-96110637D01*
X171278273Y-96267680D01*
X171539426Y-96375853D01*
X171816665Y-96431000D01*
X172099335Y-96431000D01*
X172376574Y-96375853D01*
X172637727Y-96267680D01*
X172872759Y-96110637D01*
X173072637Y-95910759D01*
X173228000Y-95678241D01*
X173383363Y-95910759D01*
X173583241Y-96110637D01*
X173818273Y-96267680D01*
X174079426Y-96375853D01*
X174356665Y-96431000D01*
X174639335Y-96431000D01*
X174916574Y-96375853D01*
X175177727Y-96267680D01*
X175412759Y-96110637D01*
X175612637Y-95910759D01*
X175768000Y-95678241D01*
X175923363Y-95910759D01*
X176123241Y-96110637D01*
X176358273Y-96267680D01*
X176619426Y-96375853D01*
X176896665Y-96431000D01*
X177179335Y-96431000D01*
X177456574Y-96375853D01*
X177717727Y-96267680D01*
X177952759Y-96110637D01*
X178152637Y-95910759D01*
X178308000Y-95678241D01*
X178463363Y-95910759D01*
X178663241Y-96110637D01*
X178898273Y-96267680D01*
X179159426Y-96375853D01*
X179436665Y-96431000D01*
X179719335Y-96431000D01*
X179996574Y-96375853D01*
X180257727Y-96267680D01*
X180492759Y-96110637D01*
X180691357Y-95912039D01*
X180692188Y-95920482D01*
X180728498Y-96040180D01*
X180787463Y-96150494D01*
X180866815Y-96247185D01*
X180963506Y-96326537D01*
X181073820Y-96385502D01*
X181193518Y-96421812D01*
X181318000Y-96434072D01*
X182918000Y-96434072D01*
X183042482Y-96421812D01*
X183162180Y-96385502D01*
X183272494Y-96326537D01*
X183369185Y-96247185D01*
X183448537Y-96150494D01*
X183507502Y-96040180D01*
X183543812Y-95920482D01*
X183556072Y-95796000D01*
X183556072Y-94196000D01*
X183543812Y-94071518D01*
X183507502Y-93951820D01*
X183448537Y-93841506D01*
X183369185Y-93744815D01*
X183272494Y-93665463D01*
X183162180Y-93606498D01*
X183042482Y-93570188D01*
X182918000Y-93557928D01*
X181318000Y-93557928D01*
X181193518Y-93570188D01*
X181073820Y-93606498D01*
X180963506Y-93665463D01*
X180866815Y-93744815D01*
X180787463Y-93841506D01*
X180728498Y-93951820D01*
X180692188Y-94071518D01*
X180691357Y-94079961D01*
X180492759Y-93881363D01*
X180257727Y-93724320D01*
X179996574Y-93616147D01*
X179719335Y-93561000D01*
X179436665Y-93561000D01*
X179159426Y-93616147D01*
X178898273Y-93724320D01*
X178663241Y-93881363D01*
X178463363Y-94081241D01*
X178308000Y-94313759D01*
X178152637Y-94081241D01*
X177952759Y-93881363D01*
X177717727Y-93724320D01*
X177456574Y-93616147D01*
X177179335Y-93561000D01*
X176896665Y-93561000D01*
X176619426Y-93616147D01*
X176358273Y-93724320D01*
X176123241Y-93881363D01*
X175923363Y-94081241D01*
X175768000Y-94313759D01*
X175612637Y-94081241D01*
X175412759Y-93881363D01*
X175177727Y-93724320D01*
X174916574Y-93616147D01*
X174639335Y-93561000D01*
X174356665Y-93561000D01*
X174079426Y-93616147D01*
X173818273Y-93724320D01*
X173583241Y-93881363D01*
X173383363Y-94081241D01*
X173228000Y-94313759D01*
X173072637Y-94081241D01*
X172872759Y-93881363D01*
X172637727Y-93724320D01*
X172376574Y-93616147D01*
X172099335Y-93561000D01*
X171816665Y-93561000D01*
X171539426Y-93616147D01*
X171278273Y-93724320D01*
X171043241Y-93881363D01*
X170843363Y-94081241D01*
X170688000Y-94313759D01*
X170532637Y-94081241D01*
X170332759Y-93881363D01*
X170097727Y-93724320D01*
X169836574Y-93616147D01*
X169559335Y-93561000D01*
X169276665Y-93561000D01*
X168999426Y-93616147D01*
X168738273Y-93724320D01*
X168503241Y-93881363D01*
X168303363Y-94081241D01*
X168146320Y-94316273D01*
X168141933Y-94326865D01*
X168030385Y-94140869D01*
X167841414Y-93932481D01*
X167615420Y-93764963D01*
X167361087Y-93644754D01*
X167227039Y-93604096D01*
X167005000Y-93726085D01*
X166751000Y-93726085D01*
X166528961Y-93604096D01*
X166394913Y-93644754D01*
X166140580Y-93764963D01*
X165914586Y-93932481D01*
X165725615Y-94140869D01*
X165608000Y-94336982D01*
X165490385Y-94140869D01*
X165301414Y-93932481D01*
X165075420Y-93764963D01*
X164821087Y-93644754D01*
X164687039Y-93604096D01*
X164465000Y-93726085D01*
X164211000Y-93726085D01*
X163988961Y-93604096D01*
X163854913Y-93644754D01*
X163600580Y-93764963D01*
X163374586Y-93932481D01*
X163185615Y-94140869D01*
X163074067Y-94326865D01*
X163069680Y-94316273D01*
X162912637Y-94081241D01*
X162712759Y-93881363D01*
X162477727Y-93724320D01*
X162216574Y-93616147D01*
X161939335Y-93561000D01*
X161656665Y-93561000D01*
X161379426Y-93616147D01*
X161118273Y-93724320D01*
X160883241Y-93881363D01*
X160683363Y-94081241D01*
X160526320Y-94316273D01*
X160418147Y-94577426D01*
X160363000Y-94854665D01*
X156886072Y-94854665D01*
X156886072Y-94196000D01*
X156873812Y-94071518D01*
X156837502Y-93951820D01*
X156778537Y-93841506D01*
X156699185Y-93744815D01*
X156602494Y-93665463D01*
X156492180Y-93606498D01*
X156372482Y-93570188D01*
X156248000Y-93557928D01*
X154648000Y-93557928D01*
X154523518Y-93570188D01*
X154403820Y-93606498D01*
X154293506Y-93665463D01*
X154196815Y-93744815D01*
X154117463Y-93841506D01*
X154058498Y-93951820D01*
X154022188Y-94071518D01*
X154021357Y-94079961D01*
X153822759Y-93881363D01*
X153587727Y-93724320D01*
X153326574Y-93616147D01*
X153049335Y-93561000D01*
X152766665Y-93561000D01*
X152489426Y-93616147D01*
X152228273Y-93724320D01*
X151993241Y-93881363D01*
X151793363Y-94081241D01*
X151638000Y-94313759D01*
X151482637Y-94081241D01*
X151282759Y-93881363D01*
X151047727Y-93724320D01*
X150786574Y-93616147D01*
X150509335Y-93561000D01*
X150226665Y-93561000D01*
X149949426Y-93616147D01*
X149688273Y-93724320D01*
X149453241Y-93881363D01*
X149253363Y-94081241D01*
X149098000Y-94313759D01*
X148942637Y-94081241D01*
X148742759Y-93881363D01*
X148507727Y-93724320D01*
X148246574Y-93616147D01*
X147969335Y-93561000D01*
X147686665Y-93561000D01*
X147409426Y-93616147D01*
X147148273Y-93724320D01*
X146913241Y-93881363D01*
X146713363Y-94081241D01*
X146558000Y-94313759D01*
X146402637Y-94081241D01*
X146202759Y-93881363D01*
X145967727Y-93724320D01*
X145706574Y-93616147D01*
X145429335Y-93561000D01*
X145146665Y-93561000D01*
X144869426Y-93616147D01*
X144608273Y-93724320D01*
X144373241Y-93881363D01*
X144173363Y-94081241D01*
X144018000Y-94313759D01*
X143862637Y-94081241D01*
X143662759Y-93881363D01*
X143427727Y-93724320D01*
X143166574Y-93616147D01*
X142889335Y-93561000D01*
X142606665Y-93561000D01*
X142329426Y-93616147D01*
X142068273Y-93724320D01*
X141833241Y-93881363D01*
X141633363Y-94081241D01*
X141478000Y-94313759D01*
X141322637Y-94081241D01*
X141122759Y-93881363D01*
X140887727Y-93724320D01*
X140626574Y-93616147D01*
X140349335Y-93561000D01*
X140066665Y-93561000D01*
X139789426Y-93616147D01*
X139528273Y-93724320D01*
X139293241Y-93881363D01*
X139093363Y-94081241D01*
X138938000Y-94313759D01*
X138782637Y-94081241D01*
X138582759Y-93881363D01*
X138347727Y-93724320D01*
X138086574Y-93616147D01*
X137809335Y-93561000D01*
X137526665Y-93561000D01*
X137249426Y-93616147D01*
X136988273Y-93724320D01*
X136753241Y-93881363D01*
X136553363Y-94081241D01*
X136398000Y-94313759D01*
X136242637Y-94081241D01*
X136042759Y-93881363D01*
X135807727Y-93724320D01*
X135546574Y-93616147D01*
X135269335Y-93561000D01*
X134986665Y-93561000D01*
X134709426Y-93616147D01*
X134448273Y-93724320D01*
X134213241Y-93881363D01*
X134013363Y-94081241D01*
X133856320Y-94316273D01*
X133748147Y-94577426D01*
X133693000Y-94854665D01*
X130193440Y-94854665D01*
X130213000Y-94756335D01*
X130213000Y-94473665D01*
X130157853Y-94196426D01*
X130049680Y-93935273D01*
X129892637Y-93700241D01*
X129692759Y-93500363D01*
X129457727Y-93343320D01*
X129196574Y-93235147D01*
X128919335Y-93180000D01*
X128636665Y-93180000D01*
X128359426Y-93235147D01*
X128098273Y-93343320D01*
X127863241Y-93500363D01*
X127663363Y-93700241D01*
X127506320Y-93935273D01*
X127398147Y-94196426D01*
X127343000Y-94473665D01*
X122555000Y-94473665D01*
X122555000Y-88123665D01*
X128613000Y-88123665D01*
X128613000Y-88406335D01*
X128668147Y-88683574D01*
X128776320Y-88944727D01*
X128933363Y-89179759D01*
X129133241Y-89379637D01*
X129368273Y-89536680D01*
X129629426Y-89644853D01*
X129906665Y-89700000D01*
X130189335Y-89700000D01*
X130466574Y-89644853D01*
X130727727Y-89536680D01*
X130962759Y-89379637D01*
X131162637Y-89179759D01*
X131319680Y-88944727D01*
X131427853Y-88683574D01*
X131483000Y-88406335D01*
X131483000Y-88123665D01*
X131427853Y-87846426D01*
X131319680Y-87585273D01*
X131162637Y-87350241D01*
X130962759Y-87150363D01*
X130727727Y-86993320D01*
X130466574Y-86885147D01*
X130189335Y-86830000D01*
X129906665Y-86830000D01*
X129629426Y-86885147D01*
X129368273Y-86993320D01*
X129133241Y-87150363D01*
X128933363Y-87350241D01*
X128776320Y-87585273D01*
X128668147Y-87846426D01*
X128613000Y-88123665D01*
X122555000Y-88123665D01*
X122555000Y-81915000D01*
X122552560Y-81890224D01*
X122545333Y-81866399D01*
X122533597Y-81844443D01*
X122517803Y-81825197D01*
X121247803Y-80555197D01*
X121228557Y-80539403D01*
X121206601Y-80527667D01*
X121182776Y-80520440D01*
X121158000Y-80518000D01*
X111708000Y-80518000D01*
X111708000Y-75338982D01*
X128295400Y-75338982D01*
X128295400Y-75791019D01*
X128317084Y-76011177D01*
X128402775Y-76293664D01*
X128541931Y-76554006D01*
X128729203Y-76782197D01*
X128957395Y-76969469D01*
X129034000Y-77010415D01*
X129034001Y-79629603D01*
X128933363Y-79730241D01*
X128776320Y-79965273D01*
X128668147Y-80226426D01*
X128613000Y-80503665D01*
X128613000Y-80786335D01*
X128668147Y-81063574D01*
X128776320Y-81324727D01*
X128933363Y-81559759D01*
X129133241Y-81759637D01*
X129368273Y-81916680D01*
X129629426Y-82024853D01*
X129906665Y-82080000D01*
X130189335Y-82080000D01*
X130371887Y-82043688D01*
X133294201Y-84966003D01*
X133317999Y-84995001D01*
X133433724Y-85089974D01*
X133565753Y-85160546D01*
X133709014Y-85204003D01*
X133820667Y-85215000D01*
X133820675Y-85215000D01*
X133858000Y-85218676D01*
X133895325Y-85215000D01*
X160445466Y-85215000D01*
X160581269Y-85305741D01*
X160755978Y-85378108D01*
X160941448Y-85415000D01*
X161130552Y-85415000D01*
X161316022Y-85378108D01*
X161490731Y-85305741D01*
X161626534Y-85215000D01*
X165659957Y-85215000D01*
X165763363Y-85369759D01*
X165963241Y-85569637D01*
X166195759Y-85725000D01*
X165963241Y-85880363D01*
X165763363Y-86080241D01*
X165606320Y-86315273D01*
X165498147Y-86576426D01*
X165443000Y-86853665D01*
X165443000Y-87136335D01*
X165498147Y-87413574D01*
X165606320Y-87674727D01*
X165763363Y-87909759D01*
X165963241Y-88109637D01*
X166195759Y-88265000D01*
X165963241Y-88420363D01*
X165874297Y-88509307D01*
X165014430Y-87649441D01*
X164985144Y-87613756D01*
X164842772Y-87496914D01*
X164680340Y-87410093D01*
X164504092Y-87356629D01*
X164366732Y-87343100D01*
X164320800Y-87338576D01*
X164274868Y-87343100D01*
X159465136Y-87343100D01*
X159339452Y-87318100D01*
X159150348Y-87318100D01*
X159024664Y-87343100D01*
X155498336Y-87343100D01*
X155365332Y-87330000D01*
X155319400Y-87325476D01*
X155273468Y-87330000D01*
X136222396Y-87330000D01*
X136042759Y-87150363D01*
X135807727Y-86993320D01*
X135546574Y-86885147D01*
X135269335Y-86830000D01*
X134986665Y-86830000D01*
X134709426Y-86885147D01*
X134448273Y-86993320D01*
X134213241Y-87150363D01*
X134013363Y-87350241D01*
X133856320Y-87585273D01*
X133748147Y-87846426D01*
X133693000Y-88123665D01*
X133693000Y-88406335D01*
X133748147Y-88683574D01*
X133856320Y-88944727D01*
X134013363Y-89179759D01*
X134213241Y-89379637D01*
X134448273Y-89536680D01*
X134709426Y-89644853D01*
X134986665Y-89700000D01*
X135269335Y-89700000D01*
X135546574Y-89644853D01*
X135807727Y-89536680D01*
X136042759Y-89379637D01*
X136222396Y-89200000D01*
X155153564Y-89200000D01*
X155332499Y-89217624D01*
X155378431Y-89213100D01*
X159024664Y-89213100D01*
X159150348Y-89238100D01*
X159339452Y-89238100D01*
X159465136Y-89213100D01*
X163933511Y-89213100D01*
X164884074Y-90163664D01*
X164913356Y-90199344D01*
X165055728Y-90316186D01*
X165218160Y-90403007D01*
X165394408Y-90456471D01*
X165577699Y-90474524D01*
X165623631Y-90470000D01*
X165783604Y-90470000D01*
X165963241Y-90649637D01*
X166198273Y-90806680D01*
X166459426Y-90914853D01*
X166736665Y-90970000D01*
X167019335Y-90970000D01*
X167296574Y-90914853D01*
X167557727Y-90806680D01*
X167792759Y-90649637D01*
X167992637Y-90449759D01*
X168149680Y-90214727D01*
X168257853Y-89953574D01*
X168313000Y-89676335D01*
X168313000Y-89393665D01*
X168257853Y-89116426D01*
X168149680Y-88855273D01*
X168069317Y-88735000D01*
X173059928Y-88735000D01*
X173059928Y-90335000D01*
X173072188Y-90459482D01*
X173108498Y-90579180D01*
X173167463Y-90689494D01*
X173246815Y-90786185D01*
X173343506Y-90865537D01*
X173453820Y-90924502D01*
X173573518Y-90960812D01*
X173698000Y-90973072D01*
X175298000Y-90973072D01*
X175422482Y-90960812D01*
X175542180Y-90924502D01*
X175652494Y-90865537D01*
X175749185Y-90786185D01*
X175828537Y-90689494D01*
X175887502Y-90579180D01*
X175923812Y-90459482D01*
X175936072Y-90335000D01*
X175936072Y-90295000D01*
X177462868Y-90295000D01*
X177584480Y-90416612D01*
X177770376Y-90540824D01*
X177976933Y-90626383D01*
X178196212Y-90670000D01*
X178419788Y-90670000D01*
X178639067Y-90626383D01*
X178845624Y-90540824D01*
X179031520Y-90416612D01*
X179189612Y-90258520D01*
X179313824Y-90072624D01*
X179399383Y-89866067D01*
X179443000Y-89646788D01*
X179443000Y-89423212D01*
X179399383Y-89203933D01*
X179313824Y-88997376D01*
X179189612Y-88811480D01*
X179031520Y-88653388D01*
X178929170Y-88585000D01*
X179031520Y-88516612D01*
X179189612Y-88358520D01*
X179313824Y-88172624D01*
X179399383Y-87966067D01*
X179443000Y-87746788D01*
X179443000Y-87523212D01*
X179399383Y-87303933D01*
X179313824Y-87097376D01*
X179189612Y-86911480D01*
X179031520Y-86753388D01*
X178845624Y-86629176D01*
X178639067Y-86543617D01*
X178419788Y-86500000D01*
X178196212Y-86500000D01*
X177976933Y-86543617D01*
X177770376Y-86629176D01*
X177584480Y-86753388D01*
X177462868Y-86875000D01*
X175933000Y-86875000D01*
X175933000Y-86853665D01*
X175877853Y-86576426D01*
X175769680Y-86315273D01*
X175612637Y-86080241D01*
X175412759Y-85880363D01*
X175180241Y-85725000D01*
X175412759Y-85569637D01*
X175592396Y-85390000D01*
X184524711Y-85390000D01*
X188373001Y-89238290D01*
X188373000Y-91803080D01*
X188202002Y-91917337D01*
X187960337Y-92159002D01*
X187770463Y-92443169D01*
X187639675Y-92758919D01*
X187573000Y-93094117D01*
X187573000Y-93435883D01*
X187639675Y-93771081D01*
X187770463Y-94086831D01*
X187960337Y-94370998D01*
X188202002Y-94612663D01*
X188486169Y-94802537D01*
X188801919Y-94933325D01*
X189137117Y-95000000D01*
X189478883Y-95000000D01*
X189814081Y-94933325D01*
X190129831Y-94802537D01*
X190413998Y-94612663D01*
X190655663Y-94370998D01*
X190845537Y-94086831D01*
X190976325Y-93771081D01*
X191043000Y-93435883D01*
X191043000Y-93094117D01*
X190976325Y-92758919D01*
X190845537Y-92443169D01*
X190655663Y-92159002D01*
X190413998Y-91917337D01*
X190243000Y-91803080D01*
X190243000Y-89471712D01*
X191680893Y-89471712D01*
X191788726Y-89746338D01*
X192095384Y-89897216D01*
X192425585Y-89985369D01*
X192766639Y-90007409D01*
X193105439Y-89962489D01*
X193428966Y-89852336D01*
X193627274Y-89746338D01*
X193735107Y-89471712D01*
X192708000Y-88444605D01*
X191680893Y-89471712D01*
X190243000Y-89471712D01*
X190243000Y-88896931D01*
X190247524Y-88851000D01*
X190243000Y-88805068D01*
X190243000Y-88323639D01*
X190965591Y-88323639D01*
X191010511Y-88662439D01*
X191120664Y-88985966D01*
X191226662Y-89184274D01*
X191501288Y-89292107D01*
X192528395Y-88265000D01*
X192887605Y-88265000D01*
X193914712Y-89292107D01*
X194189338Y-89184274D01*
X194340216Y-88877616D01*
X194428369Y-88547415D01*
X194450409Y-88206361D01*
X194405489Y-87867561D01*
X194295336Y-87544034D01*
X194189338Y-87345726D01*
X193914712Y-87237893D01*
X192887605Y-88265000D01*
X192528395Y-88265000D01*
X191501288Y-87237893D01*
X191226662Y-87345726D01*
X191075784Y-87652384D01*
X190987631Y-87982585D01*
X190965591Y-88323639D01*
X190243000Y-88323639D01*
X190243000Y-87058288D01*
X191680893Y-87058288D01*
X192708000Y-88085395D01*
X193735107Y-87058288D01*
X193627274Y-86783662D01*
X193320616Y-86632784D01*
X192990415Y-86544631D01*
X192649361Y-86522591D01*
X192310561Y-86567511D01*
X191987034Y-86677664D01*
X191788726Y-86783662D01*
X191680893Y-87058288D01*
X190243000Y-87058288D01*
X190243000Y-84726920D01*
X190413998Y-84612663D01*
X190655663Y-84370998D01*
X190845537Y-84086831D01*
X190976325Y-83771081D01*
X191043000Y-83435883D01*
X191043000Y-83094117D01*
X190976325Y-82758919D01*
X190845537Y-82443169D01*
X190655663Y-82159002D01*
X190413998Y-81917337D01*
X190129831Y-81727463D01*
X189814081Y-81596675D01*
X189478883Y-81530000D01*
X189137117Y-81530000D01*
X188801919Y-81596675D01*
X188486169Y-81727463D01*
X188202002Y-81917337D01*
X187960337Y-82159002D01*
X187770463Y-82443169D01*
X187639675Y-82758919D01*
X187573000Y-83094117D01*
X187573000Y-83435883D01*
X187639675Y-83771081D01*
X187770463Y-84086831D01*
X187960337Y-84370998D01*
X188202002Y-84612663D01*
X188373001Y-84726921D01*
X188373000Y-86593711D01*
X185605630Y-83826341D01*
X185576344Y-83790656D01*
X185433972Y-83673814D01*
X185271540Y-83586993D01*
X185095292Y-83533529D01*
X184957932Y-83520000D01*
X184912000Y-83515476D01*
X184866068Y-83520000D01*
X175592396Y-83520000D01*
X175412759Y-83340363D01*
X175177727Y-83183320D01*
X175167135Y-83178933D01*
X175353131Y-83067385D01*
X175561519Y-82878414D01*
X175729037Y-82652420D01*
X175849246Y-82398087D01*
X175889904Y-82264039D01*
X175767915Y-82042000D01*
X174625000Y-82042000D01*
X174625000Y-82062000D01*
X174371000Y-82062000D01*
X174371000Y-82042000D01*
X173228085Y-82042000D01*
X173106096Y-82264039D01*
X173146754Y-82398087D01*
X173266963Y-82652420D01*
X173434481Y-82878414D01*
X173642869Y-83067385D01*
X173828865Y-83178933D01*
X173818273Y-83183320D01*
X173583241Y-83340363D01*
X173383363Y-83540241D01*
X173226320Y-83775273D01*
X173118147Y-84036426D01*
X173063000Y-84313665D01*
X173063000Y-84596335D01*
X173118147Y-84873574D01*
X173226320Y-85134727D01*
X173383363Y-85369759D01*
X173583241Y-85569637D01*
X173815759Y-85725000D01*
X173583241Y-85880363D01*
X173383363Y-86080241D01*
X173226320Y-86315273D01*
X173118147Y-86576426D01*
X173063000Y-86853665D01*
X173063000Y-87136335D01*
X173118147Y-87413574D01*
X173226320Y-87674727D01*
X173383363Y-87909759D01*
X173581961Y-88108357D01*
X173573518Y-88109188D01*
X173453820Y-88145498D01*
X173343506Y-88204463D01*
X173246815Y-88283815D01*
X173167463Y-88380506D01*
X173108498Y-88490820D01*
X173072188Y-88610518D01*
X173059928Y-88735000D01*
X168069317Y-88735000D01*
X167992637Y-88620241D01*
X167792759Y-88420363D01*
X167560241Y-88265000D01*
X167792759Y-88109637D01*
X167992637Y-87909759D01*
X168149680Y-87674727D01*
X168257853Y-87413574D01*
X168313000Y-87136335D01*
X168313000Y-86853665D01*
X168257853Y-86576426D01*
X168149680Y-86315273D01*
X167992637Y-86080241D01*
X167792759Y-85880363D01*
X167560241Y-85725000D01*
X167792759Y-85569637D01*
X167992637Y-85369759D01*
X168149680Y-85134727D01*
X168257853Y-84873574D01*
X168313000Y-84596335D01*
X168313000Y-84313665D01*
X168257853Y-84036426D01*
X168149680Y-83775273D01*
X167992637Y-83540241D01*
X167792759Y-83340363D01*
X167560241Y-83185000D01*
X167792759Y-83029637D01*
X167992637Y-82829759D01*
X168149680Y-82594727D01*
X168257853Y-82333574D01*
X168313000Y-82056335D01*
X168313000Y-81773665D01*
X168271685Y-81565961D01*
X173106096Y-81565961D01*
X173228085Y-81788000D01*
X174371000Y-81788000D01*
X174371000Y-80644376D01*
X174625000Y-80644376D01*
X174625000Y-81788000D01*
X175767915Y-81788000D01*
X175889904Y-81565961D01*
X175849246Y-81431913D01*
X175729037Y-81177580D01*
X175561519Y-80951586D01*
X175353131Y-80762615D01*
X175111881Y-80617930D01*
X174847040Y-80523091D01*
X174625000Y-80644376D01*
X174371000Y-80644376D01*
X174148960Y-80523091D01*
X173884119Y-80617930D01*
X173642869Y-80762615D01*
X173434481Y-80951586D01*
X173266963Y-81177580D01*
X173146754Y-81431913D01*
X173106096Y-81565961D01*
X168271685Y-81565961D01*
X168257853Y-81496426D01*
X168149680Y-81235273D01*
X167992637Y-81000241D01*
X167792759Y-80800363D01*
X167557727Y-80643320D01*
X167296574Y-80535147D01*
X167019335Y-80480000D01*
X166736665Y-80480000D01*
X166459426Y-80535147D01*
X166198273Y-80643320D01*
X165963241Y-80800363D01*
X165763363Y-81000241D01*
X165659957Y-81155000D01*
X159340534Y-81155000D01*
X159204731Y-81064259D01*
X159030022Y-80991892D01*
X158844552Y-80955000D01*
X158655448Y-80955000D01*
X158469978Y-80991892D01*
X158295269Y-81064259D01*
X158159466Y-81155000D01*
X136712802Y-81155000D01*
X136526688Y-80968886D01*
X136563000Y-80786335D01*
X136563000Y-80503665D01*
X136507853Y-80226426D01*
X136399680Y-79965273D01*
X136242637Y-79730241D01*
X136042759Y-79530363D01*
X135807727Y-79373320D01*
X135546574Y-79265147D01*
X135269335Y-79210000D01*
X134986665Y-79210000D01*
X134804114Y-79246312D01*
X133094000Y-77536199D01*
X133094000Y-77010416D01*
X133170606Y-76969469D01*
X133398797Y-76782197D01*
X133586069Y-76554006D01*
X133604000Y-76520459D01*
X133621931Y-76554006D01*
X133809203Y-76782197D01*
X134037395Y-76969469D01*
X134297737Y-77108625D01*
X134580224Y-77194316D01*
X134874000Y-77223251D01*
X135167777Y-77194316D01*
X135450264Y-77108625D01*
X135710606Y-76969469D01*
X135938797Y-76782197D01*
X136126069Y-76554006D01*
X136147424Y-76514053D01*
X136295514Y-76716729D01*
X136511965Y-76915733D01*
X136763081Y-77068686D01*
X137039211Y-77169709D01*
X137054974Y-77172358D01*
X137287000Y-77051217D01*
X137287000Y-75692000D01*
X137267000Y-75692000D01*
X137267000Y-75438000D01*
X137287000Y-75438000D01*
X137287000Y-74078783D01*
X137541000Y-74078783D01*
X137541000Y-75438000D01*
X137561000Y-75438000D01*
X137561000Y-75692000D01*
X137541000Y-75692000D01*
X137541000Y-77051217D01*
X137773026Y-77172358D01*
X137788789Y-77169709D01*
X138064919Y-77068686D01*
X138316035Y-76915733D01*
X138532486Y-76716729D01*
X138680576Y-76514053D01*
X138701931Y-76554006D01*
X138889203Y-76782197D01*
X139117395Y-76969469D01*
X139377737Y-77108625D01*
X139660224Y-77194316D01*
X139954000Y-77223251D01*
X140247777Y-77194316D01*
X140530264Y-77108625D01*
X140790606Y-76969469D01*
X141018797Y-76782197D01*
X141206069Y-76554006D01*
X141224000Y-76520459D01*
X141241931Y-76554006D01*
X141429203Y-76782197D01*
X141657395Y-76969469D01*
X141917737Y-77108625D01*
X142200224Y-77194316D01*
X142494000Y-77223251D01*
X142787777Y-77194316D01*
X143070264Y-77108625D01*
X143330606Y-76969469D01*
X143558797Y-76782197D01*
X143746069Y-76554006D01*
X143764000Y-76520459D01*
X143781931Y-76554006D01*
X143969203Y-76782197D01*
X144197395Y-76969469D01*
X144457737Y-77108625D01*
X144740224Y-77194316D01*
X145034000Y-77223251D01*
X145327777Y-77194316D01*
X145610264Y-77108625D01*
X145870606Y-76969469D01*
X146098797Y-76782197D01*
X146286069Y-76554006D01*
X146304000Y-76520459D01*
X146321931Y-76554006D01*
X146509203Y-76782197D01*
X146737395Y-76969469D01*
X146997737Y-77108625D01*
X147280224Y-77194316D01*
X147574000Y-77223251D01*
X147867777Y-77194316D01*
X148150264Y-77108625D01*
X148410606Y-76969469D01*
X148638797Y-76782197D01*
X148826069Y-76554006D01*
X148844000Y-76520459D01*
X148861931Y-76554006D01*
X149049203Y-76782197D01*
X149277395Y-76969469D01*
X149537737Y-77108625D01*
X149820224Y-77194316D01*
X150114000Y-77223251D01*
X150407777Y-77194316D01*
X150690264Y-77108625D01*
X150950606Y-76969469D01*
X151178797Y-76782197D01*
X151366069Y-76554006D01*
X151384000Y-76520459D01*
X151401931Y-76554006D01*
X151589203Y-76782197D01*
X151817395Y-76969469D01*
X152077737Y-77108625D01*
X152360224Y-77194316D01*
X152654000Y-77223251D01*
X152947777Y-77194316D01*
X153230264Y-77108625D01*
X153490606Y-76969469D01*
X153718797Y-76782197D01*
X153906069Y-76554006D01*
X154045225Y-76293663D01*
X154130916Y-76011176D01*
X154152600Y-75791018D01*
X154152600Y-75338982D01*
X155219400Y-75338982D01*
X155219400Y-75791019D01*
X155241084Y-76011177D01*
X155326775Y-76293664D01*
X155465931Y-76554006D01*
X155653203Y-76782197D01*
X155881395Y-76969469D01*
X156141737Y-77108625D01*
X156424224Y-77194316D01*
X156718000Y-77223251D01*
X157011777Y-77194316D01*
X157294264Y-77108625D01*
X157554606Y-76969469D01*
X157782797Y-76782197D01*
X157970069Y-76554006D01*
X157988000Y-76520459D01*
X158005931Y-76554006D01*
X158193203Y-76782197D01*
X158421395Y-76969469D01*
X158681737Y-77108625D01*
X158964224Y-77194316D01*
X159258000Y-77223251D01*
X159551777Y-77194316D01*
X159834264Y-77108625D01*
X160094606Y-76969469D01*
X160322797Y-76782197D01*
X160510069Y-76554006D01*
X160528000Y-76520459D01*
X160545931Y-76554006D01*
X160733203Y-76782197D01*
X160961395Y-76969469D01*
X161221737Y-77108625D01*
X161504224Y-77194316D01*
X161798000Y-77223251D01*
X162091777Y-77194316D01*
X162374264Y-77108625D01*
X162634606Y-76969469D01*
X162862797Y-76782197D01*
X163050069Y-76554006D01*
X163068000Y-76520459D01*
X163085931Y-76554006D01*
X163273203Y-76782197D01*
X163501395Y-76969469D01*
X163761737Y-77108625D01*
X164044224Y-77194316D01*
X164338000Y-77223251D01*
X164631777Y-77194316D01*
X164914264Y-77108625D01*
X165174606Y-76969469D01*
X165402797Y-76782197D01*
X165590069Y-76554006D01*
X165608000Y-76520459D01*
X165625931Y-76554006D01*
X165813203Y-76782197D01*
X166041395Y-76969469D01*
X166301737Y-77108625D01*
X166584224Y-77194316D01*
X166878000Y-77223251D01*
X167171777Y-77194316D01*
X167454264Y-77108625D01*
X167714606Y-76969469D01*
X167942797Y-76782197D01*
X168130069Y-76554006D01*
X168148000Y-76520459D01*
X168165931Y-76554006D01*
X168353203Y-76782197D01*
X168581395Y-76969469D01*
X168841737Y-77108625D01*
X169124224Y-77194316D01*
X169418000Y-77223251D01*
X169711777Y-77194316D01*
X169994264Y-77108625D01*
X170254606Y-76969469D01*
X170482797Y-76782197D01*
X170670069Y-76554006D01*
X170688000Y-76520459D01*
X170705931Y-76554006D01*
X170893203Y-76782197D01*
X171121395Y-76969469D01*
X171381737Y-77108625D01*
X171664224Y-77194316D01*
X171958000Y-77223251D01*
X172251777Y-77194316D01*
X172534264Y-77108625D01*
X172794606Y-76969469D01*
X173022797Y-76782197D01*
X173210069Y-76554006D01*
X173228000Y-76520459D01*
X173245931Y-76554006D01*
X173433203Y-76782197D01*
X173661395Y-76969469D01*
X173921737Y-77108625D01*
X174204224Y-77194316D01*
X174498000Y-77223251D01*
X174791777Y-77194316D01*
X175074264Y-77108625D01*
X175334606Y-76969469D01*
X175562797Y-76782197D01*
X175750069Y-76554006D01*
X175889225Y-76293663D01*
X175974916Y-76011176D01*
X175996600Y-75791018D01*
X175996600Y-75338981D01*
X175974916Y-75118823D01*
X175889225Y-74836336D01*
X175750069Y-74575994D01*
X175562797Y-74347803D01*
X175334605Y-74160531D01*
X175074263Y-74021375D01*
X174791776Y-73935684D01*
X174498000Y-73906749D01*
X174204223Y-73935684D01*
X173921736Y-74021375D01*
X173661394Y-74160531D01*
X173433203Y-74347803D01*
X173245931Y-74575995D01*
X173228000Y-74609541D01*
X173210069Y-74575994D01*
X173022797Y-74347803D01*
X172794605Y-74160531D01*
X172534263Y-74021375D01*
X172251776Y-73935684D01*
X171958000Y-73906749D01*
X171664223Y-73935684D01*
X171381736Y-74021375D01*
X171121394Y-74160531D01*
X170893203Y-74347803D01*
X170705931Y-74575995D01*
X170688000Y-74609541D01*
X170670069Y-74575994D01*
X170482797Y-74347803D01*
X170254605Y-74160531D01*
X169994263Y-74021375D01*
X169711776Y-73935684D01*
X169418000Y-73906749D01*
X169124223Y-73935684D01*
X168841736Y-74021375D01*
X168581394Y-74160531D01*
X168353203Y-74347803D01*
X168165931Y-74575995D01*
X168148000Y-74609541D01*
X168130069Y-74575994D01*
X167942797Y-74347803D01*
X167714605Y-74160531D01*
X167454263Y-74021375D01*
X167171776Y-73935684D01*
X166878000Y-73906749D01*
X166584223Y-73935684D01*
X166301736Y-74021375D01*
X166041394Y-74160531D01*
X165813203Y-74347803D01*
X165625931Y-74575995D01*
X165608000Y-74609541D01*
X165590069Y-74575994D01*
X165402797Y-74347803D01*
X165174605Y-74160531D01*
X164914263Y-74021375D01*
X164631776Y-73935684D01*
X164338000Y-73906749D01*
X164044223Y-73935684D01*
X163761736Y-74021375D01*
X163501394Y-74160531D01*
X163273203Y-74347803D01*
X163085931Y-74575995D01*
X163068000Y-74609541D01*
X163050069Y-74575994D01*
X162862797Y-74347803D01*
X162634605Y-74160531D01*
X162374263Y-74021375D01*
X162091776Y-73935684D01*
X161798000Y-73906749D01*
X161504223Y-73935684D01*
X161221736Y-74021375D01*
X160961394Y-74160531D01*
X160733203Y-74347803D01*
X160545931Y-74575995D01*
X160528000Y-74609541D01*
X160510069Y-74575994D01*
X160322797Y-74347803D01*
X160094605Y-74160531D01*
X159834263Y-74021375D01*
X159551776Y-73935684D01*
X159258000Y-73906749D01*
X158964223Y-73935684D01*
X158681736Y-74021375D01*
X158421394Y-74160531D01*
X158193203Y-74347803D01*
X158005931Y-74575995D01*
X157988000Y-74609541D01*
X157970069Y-74575994D01*
X157782797Y-74347803D01*
X157554605Y-74160531D01*
X157294263Y-74021375D01*
X157011776Y-73935684D01*
X156718000Y-73906749D01*
X156424223Y-73935684D01*
X156141736Y-74021375D01*
X155881394Y-74160531D01*
X155653203Y-74347803D01*
X155465931Y-74575995D01*
X155326775Y-74836337D01*
X155241084Y-75118824D01*
X155219400Y-75338982D01*
X154152600Y-75338982D01*
X154152600Y-75338981D01*
X154130916Y-75118823D01*
X154045225Y-74836336D01*
X153906069Y-74575994D01*
X153718797Y-74347803D01*
X153490605Y-74160531D01*
X153230263Y-74021375D01*
X152947776Y-73935684D01*
X152654000Y-73906749D01*
X152360223Y-73935684D01*
X152077736Y-74021375D01*
X151817394Y-74160531D01*
X151589203Y-74347803D01*
X151401931Y-74575995D01*
X151384000Y-74609541D01*
X151366069Y-74575994D01*
X151178797Y-74347803D01*
X150950605Y-74160531D01*
X150690263Y-74021375D01*
X150407776Y-73935684D01*
X150114000Y-73906749D01*
X149820223Y-73935684D01*
X149537736Y-74021375D01*
X149277394Y-74160531D01*
X149049203Y-74347803D01*
X148861931Y-74575995D01*
X148844000Y-74609541D01*
X148826069Y-74575994D01*
X148638797Y-74347803D01*
X148410605Y-74160531D01*
X148150263Y-74021375D01*
X147867776Y-73935684D01*
X147574000Y-73906749D01*
X147280223Y-73935684D01*
X146997736Y-74021375D01*
X146737394Y-74160531D01*
X146509203Y-74347803D01*
X146321931Y-74575995D01*
X146304000Y-74609541D01*
X146286069Y-74575994D01*
X146098797Y-74347803D01*
X145870605Y-74160531D01*
X145610263Y-74021375D01*
X145327776Y-73935684D01*
X145034000Y-73906749D01*
X144740223Y-73935684D01*
X144457736Y-74021375D01*
X144197394Y-74160531D01*
X143969203Y-74347803D01*
X143781931Y-74575995D01*
X143764000Y-74609541D01*
X143746069Y-74575994D01*
X143558797Y-74347803D01*
X143330605Y-74160531D01*
X143070263Y-74021375D01*
X142787776Y-73935684D01*
X142494000Y-73906749D01*
X142200223Y-73935684D01*
X141917736Y-74021375D01*
X141657394Y-74160531D01*
X141429203Y-74347803D01*
X141241931Y-74575995D01*
X141224000Y-74609541D01*
X141206069Y-74575994D01*
X141018797Y-74347803D01*
X140790605Y-74160531D01*
X140530263Y-74021375D01*
X140247776Y-73935684D01*
X139954000Y-73906749D01*
X139660223Y-73935684D01*
X139377736Y-74021375D01*
X139117394Y-74160531D01*
X138889203Y-74347803D01*
X138701931Y-74575995D01*
X138680576Y-74615947D01*
X138532486Y-74413271D01*
X138316035Y-74214267D01*
X138064919Y-74061314D01*
X137788789Y-73960291D01*
X137773026Y-73957642D01*
X137541000Y-74078783D01*
X137287000Y-74078783D01*
X137054974Y-73957642D01*
X137039211Y-73960291D01*
X136763081Y-74061314D01*
X136511965Y-74214267D01*
X136295514Y-74413271D01*
X136147424Y-74615947D01*
X136126069Y-74575994D01*
X135938797Y-74347803D01*
X135710605Y-74160531D01*
X135450263Y-74021375D01*
X135167776Y-73935684D01*
X134874000Y-73906749D01*
X134580223Y-73935684D01*
X134297736Y-74021375D01*
X134037394Y-74160531D01*
X133809203Y-74347803D01*
X133621931Y-74575995D01*
X133604000Y-74609541D01*
X133586069Y-74575994D01*
X133398797Y-74347803D01*
X133170605Y-74160531D01*
X132910263Y-74021375D01*
X132627776Y-73935684D01*
X132334000Y-73906749D01*
X132040223Y-73935684D01*
X131757736Y-74021375D01*
X131497394Y-74160531D01*
X131269203Y-74347803D01*
X131081931Y-74575995D01*
X131064000Y-74609541D01*
X131046069Y-74575994D01*
X130858797Y-74347803D01*
X130630605Y-74160531D01*
X130370263Y-74021375D01*
X130087776Y-73935684D01*
X129794000Y-73906749D01*
X129500223Y-73935684D01*
X129217736Y-74021375D01*
X128957394Y-74160531D01*
X128729203Y-74347803D01*
X128541931Y-74575995D01*
X128402775Y-74836337D01*
X128317084Y-75118824D01*
X128295400Y-75338982D01*
X111708000Y-75338982D01*
X111708000Y-73735000D01*
X196648001Y-73735000D01*
X196648000Y-125655000D01*
M02*
